<svg width="512" height="512" viewBox="0 0 512 512" fill="none" xmlns="http://www.w3.org/2000/svg">
<path d="M256 512C397.385 512 512 397.385 512 256C512 114.615 397.385 0 256 0C114.615 0 0 114.615 0 256C0 397.385 114.615 512 256 512Z" fill="#6052A3"/>
<path d="M301.017 438.26H124.589C112.539 438.26 102.771 428.492 102.771 416.442V162.251C102.771 150.201 112.539 140.433 124.589 140.433H301.017C313.067 140.433 322.835 150.201 322.835 162.251V416.442C322.835 428.491 313.066 438.26 301.017 438.26Z" fill="#A583BB"/>
<path d="M284.906 271.404H140.7C131.311 271.098 131.231 257.49 140.7 257.153H284.905C294.295 257.459 294.374 271.067 284.906 271.404Z" fill="#57409B"/>
<path d="M284.906 311.286H140.7C131.311 310.98 131.231 297.372 140.7 297.035H284.905C294.295 297.342 294.374 310.949 284.906 311.286Z" fill="#57409B"/>
<path d="M284.906 351.169H140.7C131.311 350.863 131.231 337.255 140.7 336.918H284.905C294.295 337.224 294.374 350.832 284.906 351.169Z" fill="#57409B"/>
<path d="M284.906 391.051H140.7C131.311 390.745 131.231 377.137 140.7 376.8H284.905C294.295 377.106 294.374 390.714 284.906 391.051Z" fill="#57409B"/>
<path d="M284.906 231.522H140.7C131.311 231.216 131.231 217.608 140.7 217.271H284.905C294.295 217.577 294.374 231.185 284.906 231.522Z" fill="#57409B"/>
<path d="M284.906 191.64H140.7C131.311 191.334 131.231 177.726 140.7 177.389H284.905C294.295 177.695 294.374 191.303 284.906 191.64Z" fill="#57409B"/>
<path d="M323.138 416.139H146.71C134.66 416.139 124.892 406.371 124.892 394.321V140.13C124.892 128.08 134.66 118.312 146.71 118.312H323.138C335.188 118.312 344.956 128.08 344.956 140.13V394.321C344.956 406.37 335.187 416.139 323.138 416.139Z" fill="#DECEE5"/>
<path d="M307.026 249.283H162.821C153.432 248.977 153.352 235.369 162.821 235.032H307.026C316.416 235.338 316.495 248.946 307.026 249.283Z" fill="#6C53A2"/>
<path d="M307.026 289.166H162.821C153.432 288.86 153.352 275.252 162.821 274.915H307.026C316.416 275.221 316.495 288.828 307.026 289.166Z" fill="#6C53A2"/>
<path d="M307.026 329.048H162.821C153.432 328.742 153.352 315.134 162.821 314.797H307.026C316.416 315.103 316.495 328.711 307.026 329.048Z" fill="#6C53A2"/>
<path d="M307.026 368.93H162.821C153.432 368.624 153.352 355.016 162.821 354.679H307.026C316.416 354.985 316.495 368.593 307.026 368.93Z" fill="#6C53A2"/>
<path d="M307.026 209.401H162.821C153.432 209.095 153.352 195.487 162.821 195.15H307.026C316.416 195.456 316.495 209.064 307.026 209.401Z" fill="#6C53A2"/>
<path d="M307.026 169.519H162.821C153.432 169.213 153.352 155.605 162.821 155.268H307.026C316.416 155.574 316.495 169.182 307.026 169.519Z" fill="#6C53A2"/>
<path d="M345.258 394.018H168.831C156.781 394.018 147.013 384.25 147.013 372.2V118.009C147.013 105.959 156.781 96.1909 168.831 96.1909H345.259C357.309 96.1909 367.077 105.959 367.077 118.009V372.2C367.076 384.249 357.308 394.018 345.258 394.018Z" fill="white"/>
<path d="M329.147 227.162H184.942C175.553 226.856 175.473 213.248 184.942 212.911H329.147C338.537 213.217 338.616 226.825 329.147 227.162Z" fill="#6C53A2"/>
<path d="M329.147 267.045H184.942C175.553 266.739 175.473 253.131 184.942 252.794H329.147C338.537 253.1 338.616 266.708 329.147 267.045Z" fill="#6C53A2"/>
<path d="M329.147 306.927H184.942C175.553 306.621 175.473 293.013 184.942 292.676H329.147C338.537 292.982 338.616 306.59 329.147 306.927Z" fill="#6C53A2"/>
<path d="M329.147 346.809H184.942C175.553 346.503 175.473 332.895 184.942 332.558H329.147C338.537 332.864 338.616 346.472 329.147 346.809Z" fill="#6C53A2"/>
<path d="M329.147 187.28H184.942C175.553 186.974 175.473 173.366 184.942 173.029H329.147C338.537 173.335 338.616 186.943 329.147 187.28Z" fill="#6C53A2"/>
<path d="M293.891 147.398H220.198C210.786 147.082 210.749 133.478 220.198 133.147H293.891C303.303 133.463 303.34 147.067 293.891 147.398Z" fill="#6C53A2"/>
<path d="M400.787 88.827C391.36 112.253 369.734 166.009 360.123 189.905C359.089 192.453 356.19 193.689 353.632 192.665C351.085 191.642 349.848 188.732 350.871 186.184C360.48 162.296 382.14 108.462 391.545 85.106C392.653 82.335 391.31 79.19 388.55 78.071L360.805 66.911C358.044 65.802 354.889 67.146 353.781 69.906L347.183 86.321L326.665 137.303C325.546 140.074 326.889 143.219 329.649 144.338L343.527 149.913C346.288 151.022 349.443 149.678 350.551 146.918L363.768 114.057L364.642 111.893C367.109 105.163 357.488 101.345 354.623 107.853L351.297 116.124C348.673 122.161 339.766 118.588 342.056 112.404L345.382 104.133C346.629 101.052 348.761 98.579 351.383 96.927C363.788 88.963 379.436 101.732 373.894 115.612L371.784 120.856L359.803 150.637C356.637 158.503 347.663 162.33 339.807 159.164L325.929 153.578C318.073 150.413 314.247 141.448 317.413 133.582L344.487 66.303C347.59 58.366 356.636 54.485 364.526 57.659L392.271 68.829C400.136 71.997 403.952 80.961 400.787 88.827Z" fill="#A583BB"/>
<path d="M400.787 88.827C396.844 98.631 388.873 118.442 384.948 128.19C381.846 126.9 378.862 125.387 376.027 123.66C379.889 114.029 387.694 94.704 391.546 85.107C392.655 82.336 391.312 79.191 388.551 78.072L363.204 67.871L360.806 66.912C358.045 65.803 354.89 67.147 353.782 69.907L347.184 86.322C345.332 79.996 344.235 73.073 344.53 66.188C347.671 58.268 356.855 54.526 364.526 57.661L392.271 68.831C400.136 71.997 403.952 80.961 400.787 88.827Z" fill="#C2AACF"/>
<path d="M373.894 115.613L371.784 120.858C368.927 118.801 366.252 116.53 363.768 114.057L364.642 111.893C366.697 106.937 360.756 102.363 356.509 105.476C354.59 102.779 352.874 99.923 351.382 96.928C363.793 88.961 379.434 101.738 373.894 115.613Z" fill="#C2AACF"/>
<path d="M400.787 88.827L392.388 109.708C389.436 107.96 386.643 105.967 384.042 103.75L391.546 85.108C392.654 82.337 391.311 79.192 388.551 78.073L363.204 67.872C362.554 64.323 362.202 60.667 362.191 56.936C362.062 56.442 391.505 68.614 392.27 68.831C400.136 71.997 403.952 80.961 400.787 88.827Z" fill="#F0DAE2"/>
</svg>
