<svg width="512" height="512" viewBox="0 0 512 512" fill="none" xmlns="http://www.w3.org/2000/svg">
<path d="M512 256C512 313.78 492.85 367.1 460.56 409.94C458.18 413.1 455.73 416.2 453.21 419.24C423.52 455.07 384.24 482.68 339.32 498.13C331.82 500.71 324.17 502.95 316.37 504.84C297.01 509.52 276.8 512 256 512C114.62 512 0 397.38 0 256C0 170.64 41.79 95.03 106.02 48.52C148.17 18 199.98 0 256 0C367.57 0 462.48 71.38 497.53 170.97C506.9 197.57 512 226.19 512 256Z" fill="#78C795"/>
<path d="M497.53 170.97C470.66 252.91 393.56 312.09 302.63 312.09C189.37 312.09 97.56 220.27 97.56 107.01C97.56 86.69 100.52 67.06 106.02 48.52C148.17 18 199.98 0 256 0C367.57 0 462.48 71.38 497.53 170.97Z" fill="#9ACDAE"/>
<path d="M282.484 487.266C242.192 486.383 231.768 437.205 221.675 394.295L258.587 385.827C262.638 403.488 267.052 421.82 272.508 434.836C277.93 447.771 281.884 449.323 281.92 449.331C282.074 449.359 296.063 450.548 334.296 398.3L364.858 420.665C331.186 466.678 305.951 487.266 282.484 487.266Z" fill="#2D2667"/>
<path d="M261.281 390.061C261.278 398.539 254.409 405.432 245.914 405.428H204.186C195.623 405.451 188.787 398.38 188.819 390.061C188.822 381.566 195.691 374.697 204.186 374.694H245.914C254.236 374.661 261.3 381.49 261.281 390.061Z" fill="#EAB39B"/>
<path d="M254.395 383.175C254.392 391.653 247.523 398.546 239.028 398.542H197.3C194.833 398.542 192.514 397.968 190.449 396.935C185.275 386.978 192.905 374.538 204.186 374.694H245.914C248.381 374.694 250.711 375.279 252.777 376.312C253.81 378.378 254.395 380.708 254.395 383.175Z" fill="#FFE9D7"/>
<path d="M453.21 419.24C455.73 416.2 458.18 413.1 460.56 409.94C431.479 355.078 352.601 355.794 324.54 411.16C319.317 421.497 316.369 433.213 316.37 445.6V504.84C370.002 491.999 418.678 461.113 453.21 419.24Z" fill="#2D2667"/>
<path d="M339.32 498.13C339.483 491.037 338.804 441.968 339.89 436.22C341.112 426.302 344.261 416.657 349.2 407.98C359.582 389.514 377.898 375.758 398.57 371.07C400.474 370.635 402.386 370.238 404.33 369.95C406.66 370.3 408.96 370.76 411.22 371.31C432.64 376.59 450.5 390.88 460.56 409.94C430.069 450.377 388.06 481.349 339.32 498.13Z" fill="#6C53A2"/>
<path d="M339.32 498.13C339.483 491.038 338.804 441.967 339.89 436.22C341.029 426.989 343.829 417.998 348.2 409.8C357.899 391.413 375.351 377.335 395.42 371.87C396.468 371.571 397.524 371.325 398.58 371.07C423.493 376.725 444.462 395.172 453.21 419.24C423.52 455.07 384.24 482.68 339.32 498.13Z" fill="#57409B"/>
<path d="M352.245 309.109C353.088 319.343 345.198 328.439 334.804 328.383H320.069C296.734 327.768 296.733 292.282 320.069 291.668H334.804C344.436 291.668 352.245 299.476 352.245 309.109Z" fill="#F9D6BF"/>
<path d="M483.093 309.109C483.936 319.343 476.046 328.439 465.652 328.383H450.917C427.582 327.768 427.581 292.282 450.917 291.668H465.652C475.285 291.668 483.093 299.476 483.093 309.109Z" fill="#F9D6BF"/>
<path d="M358.427 310.025C358.427 314.064 355.152 317.339 351.113 317.339H323.676C319.637 317.339 316.362 314.064 316.362 310.025C316.362 305.986 319.637 302.711 323.676 302.711H351.113C355.152 302.711 358.427 305.986 358.427 310.025Z" fill="#EAB39B"/>
<path d="M469.36 310.025C469.36 314.064 466.085 317.339 462.046 317.339H434.609C430.57 317.339 427.295 314.064 427.295 310.025C427.295 305.986 430.57 302.711 434.609 302.711H462.046C466.085 302.711 469.36 305.986 469.36 310.025Z" fill="#EAB39B"/>
<path d="M411.219 356.998V375.257C411.219 383.807 405.366 390.991 397.447 393.034C386.076 396.1 374.332 387.085 374.506 375.257V356.998C374.333 345.174 386.076 336.15 397.447 339.221C405.47 341.304 411.214 348.507 411.219 356.998Z" fill="#EAB39B"/>
<path d="M411.219 356.998V375.257C411.219 383.807 405.366 390.991 397.447 393.034C389.54 390.991 383.687 383.807 383.687 375.257V356.998C383.687 348.448 389.54 341.264 397.447 339.221C405.47 341.304 411.213 348.507 411.219 356.998Z" fill="#F9D6BF"/>
<path d="M411.219 356.998V373.811C406.915 374.786 402.44 375.303 397.849 375.303C390.607 375.303 381.489 375.625 374.506 373.811V356.998C374.333 345.173 386.076 336.15 397.447 339.221C405.47 341.304 411.214 348.507 411.219 356.998Z" fill="#EAB39B"/>
<path d="M458.283 264.338V305.699C458.406 339.136 430.784 366.274 397.849 366.122H387.865C354.492 366.122 327.442 339.072 327.442 305.699V264.338C327.442 230.953 354.492 203.904 387.865 203.904H397.849C430.785 203.756 458.406 230.887 458.283 264.338Z" fill="#F9D6BF"/>
<path d="M458.283 264.338V305.699C458.283 337.465 433.77 363.505 402.611 365.938C371.464 363.505 346.951 337.465 346.951 305.699V264.338C346.951 232.56 371.464 206.52 402.611 204.087C433.769 206.521 458.283 232.561 458.283 264.338Z" fill="#FFE9D7"/>
<path d="M392.861 336.798C385.368 336.798 378.603 334.513 375.207 330.835C373.462 328.874 376.326 326.22 378.147 328.121C383.582 334.286 402.142 334.285 407.575 328.121C409.38 326.224 412.27 328.87 410.514 330.835C407.117 334.513 400.354 336.798 392.861 336.798Z" fill="#EAB39B"/>
<path d="M402.926 316.061H382.796C380.173 316.018 380.162 312.106 382.796 312.061H402.926C405.549 312.103 405.559 316.015 402.926 316.061Z" fill="#F3C3AA"/>
<path d="M376.678 293.719C376.678 288.758 372.656 284.736 367.695 284.736C355.785 285.196 355.788 302.243 367.695 302.701C372.656 302.701 376.678 298.68 376.678 293.719Z" fill="#EAB39B"/>
<path d="M427.009 293.719C427.009 288.758 422.987 284.736 418.026 284.736C406.116 285.196 406.119 302.243 418.026 302.701C422.988 302.701 427.009 298.68 427.009 293.719Z" fill="#EAB39B"/>
<path d="M376.064 297.072C376.064 292.45 372.317 288.703 367.695 288.703C356.605 289.113 356.608 305.033 367.695 305.441C372.317 305.441 376.064 301.694 376.064 297.072Z" fill="#122894"/>
<path d="M373.55 297.245C377.424 293.169 371.597 287.343 367.522 291.217C363.647 295.293 369.475 301.119 373.55 297.245Z" fill="#E8F3FC"/>
<path d="M426.396 297.072C426.396 292.45 422.649 288.703 418.027 288.703C406.937 289.113 406.94 305.033 418.027 305.441C422.649 305.441 426.396 301.694 426.396 297.072Z" fill="#122894"/>
<path d="M423.881 297.245C427.755 293.169 421.928 287.343 417.853 291.217C413.979 295.293 419.807 301.119 423.881 297.245Z" fill="#E8F3FC"/>
<path d="M468.566 263.294V291.927C466.592 291.479 460.382 291.718 458.283 291.663C458.287 291.654 458.28 264.335 458.283 264.326C455.563 264.188 403.334 261.411 349.66 246.389C343.807 244.759 337.931 242.969 332.101 241.03C329.094 248.203 327.442 256.075 327.442 264.338V291.663C324.97 291.732 318.92 291.428 316.585 292.019V263.294C316.527 229.994 340.032 201.748 371.419 194.803C379.501 192.731 390.027 193.093 398.377 193.093C405.404 193.105 412.419 194.145 419.126 196.214C448.049 205.04 468.771 232.578 468.566 263.294Z" fill="#DD5E26"/>
<path d="M468.566 263.294V291.927C466.592 291.479 460.382 291.718 458.283 291.663V264.338C455.575 264.167 403.34 261.425 349.66 246.389C357.303 221.772 380.256 203.904 407.374 203.904H417.358C427.055 203.904 436.214 206.188 444.327 210.239C459.624 223.577 468.512 242.386 468.566 263.294Z" fill="#EA792E"/>
<path d="M170.894 355.592C170.894 343.537 161.122 340.078 149.067 340.078C137.012 340.078 127.24 343.537 127.24 355.592C128.39 384.546 169.749 384.536 170.894 355.592Z" fill="#E9465E"/>
<path d="M170.894 347.881C170.894 335.826 161.122 332.367 149.067 332.367C137.012 332.367 127.24 335.826 127.24 347.881C128.39 376.835 169.749 376.825 170.894 347.881Z" fill="#C0405C"/>
<path d="M269.532 196.347V338.876C269.532 344.16 267.078 348.881 263.24 351.938C260.379 354.228 256.76 355.596 252.813 355.596H45.319C36.186 355.622 28.601 348.167 28.607 338.876V196.347C28.607 190.586 31.523 185.497 35.962 182.488C38.628 180.682 41.856 179.627 45.319 179.627H252.812C261.983 179.62 269.532 187.075 269.532 196.347Z" fill="#E9465E"/>
<path d="M43.31 196.347V338.876C43.31 344.637 40.394 349.725 35.962 352.735C31.522 349.726 28.607 344.637 28.607 338.876V196.347C28.607 190.586 31.523 185.497 35.962 182.488C40.395 185.498 43.31 190.587 43.31 196.347Z" fill="#C0405C"/>
<path d="M269.532 196.347V338.876C269.532 344.16 267.078 348.881 263.24 351.938C259.402 348.882 256.948 344.168 256.948 338.876V196.347C256.948 191.055 259.402 186.342 263.24 183.285C267.078 186.342 269.532 191.063 269.532 196.347Z" fill="#EE6781"/>
<path d="M232.899 344.679H65.235C57.445 344.679 51.131 338.364 51.131 330.575V204.648C51.131 196.858 57.446 190.544 65.235 190.544H232.899C240.689 190.544 247.003 196.859 247.003 204.648V330.574C247.003 338.364 240.689 344.679 232.899 344.679Z" fill="#C0405C"/>
<path d="M247.004 193.737V319.663C247.004 322.805 245.98 325.705 244.237 328.05C241.665 331.513 237.546 333.764 232.895 333.764H65.236C57.401 333.762 51.112 327.386 51.127 319.663V193.737C51.127 185.944 57.443 179.628 65.236 179.628H232.895C240.689 179.628 247.004 185.943 247.004 193.737Z" fill="#EBD9EA"/>
<path d="M247.004 193.737V319.663C247.004 327.448 240.688 333.764 232.895 333.764H149.07V179.628H232.896C240.689 179.628 247.004 185.943 247.004 193.737Z" fill="white"/>
<path d="M244.237 328.05C241.665 331.513 237.546 333.764 232.895 333.764H65.236C60.585 333.764 56.466 331.513 53.894 328.05C56.458 324.579 60.585 322.328 65.236 322.328H232.895C237.546 322.328 241.673 324.579 244.237 328.05Z" fill="#C1B7D3"/>
<path d="M149.07 219.711H84.917C81.759 219.711 79.199 217.151 79.199 213.993C79.199 210.835 81.759 208.275 84.917 208.275H149.069V219.711H149.07Z" fill="#6C53A2"/>
<path d="M149.07 254.597H84.917C81.759 254.597 79.199 252.037 79.199 248.879C79.199 245.721 81.759 243.161 84.917 243.161H149.069V254.597H149.07Z" fill="#6C53A2"/>
<path d="M149.07 289.483H84.917C81.759 289.483 79.199 286.923 79.199 283.765C79.199 280.607 81.759 278.047 84.917 278.047H149.069V289.483H149.07Z" fill="#6C53A2"/>
<path d="M149.066 278.047H213.218C216.376 278.047 218.936 280.607 218.936 283.765C218.936 286.923 216.376 289.483 213.218 289.483H149.066V278.047Z" fill="#9175A7"/>
<path d="M149.066 243.161H213.218C216.376 243.161 218.936 245.721 218.936 248.879C218.936 252.037 216.376 254.597 213.218 254.597H149.066V243.161Z" fill="#9175A7"/>
<path d="M149.066 208.276H213.218C216.376 208.276 218.936 210.836 218.936 213.994C218.936 217.152 216.376 219.712 213.218 219.712H149.066V208.276Z" fill="#9175A7"/>
<path d="M343.928 71.7999C344.026 84.0549 336.638 92.8529 331.328 102.86C328.82 107.625 322.17 127.789 322.038 128.58H283.228C283.228 128.58 276.368 106.34 272.328 99.7899C266.989 91.1809 261.341 82.6139 261.328 71.7999C261.293 49.1959 279.687 30.4949 302.628 30.4999C324.981 30.3289 344.099 49.0089 343.928 71.7999Z" fill="#DAAB42"/>
<path d="M277.439 71.8001C277.439 80.7101 274.619 88.9701 269.809 95.7201C265.379 88.4701 261.329 80.9001 261.329 71.8001C261.329 62.6301 264.319 54.15 269.389 47.3C274.449 54.15 277.439 62.6301 277.439 71.8001Z" fill="#C4983D"/>
<path d="M343.928 71.7999C344.027 84.0539 336.637 92.8539 331.328 102.86C330.028 105.63 328.608 109.28 327.268 112.96C276.842 115.64 265.363 45.9219 313.258 31.8899C331.124 36.6599 343.913 52.7879 343.928 71.7999Z" fill="#F9C744"/>
<path d="M343.928 71.7999C344.027 84.0529 336.637 92.8539 331.328 102.86C312.919 87.0719 312.644 57.5179 330.598 41.4099C338.798 48.9599 343.928 59.7799 343.928 71.7999Z" fill="#F8D07A"/>
<path d="M337.415 62.8879C337.415 53.5289 329.828 45.9419 320.469 45.9419C297.99 46.8349 297.997 78.9449 320.469 79.8339C329.828 79.8349 337.415 72.2469 337.415 62.8879Z" fill="#FBD9A3"/>
<path d="M317.259 163.03V168.9C317.259 174.99 313.529 180.22 308.239 182.42C298.934 186.48 287.785 179.137 288.009 168.9V163.03H317.259Z" fill="#2E3140"/>
<path d="M317.259 163.03V168.9C317.259 174.99 313.529 180.22 308.239 182.42C302.939 180.22 299.209 175 299.209 168.9V163.03H317.259Z" fill="#3E4E60"/>
<path d="M309.115 99.9648H296.151V128.58H309.115V99.9648Z" fill="#BF5E39"/>
<path d="M309.115 99.9648H302.633V128.58H309.115V99.9648Z" fill="#DD5E26"/>
<path d="M321.788 91.8901C321.823 96.2441 318.193 99.9931 313.708 99.9701H291.558C280.874 99.5931 280.857 84.1861 291.558 83.8101H313.708C318.166 83.8151 321.792 87.4311 321.788 91.8901Z" fill="#BF5E39"/>
<path d="M321.788 91.8901C321.788 92.6901 321.678 93.4601 321.458 94.1801H300.478C295.172 94.2721 291.159 88.8541 292.728 83.8101H313.708C318.166 83.8151 321.792 87.4311 321.788 91.8901Z" fill="#DD5E26"/>
<path d="M319.418 86.1801C321.438 88.1041 322.33 91.4181 321.458 94.1801H313.948C308.641 94.2741 304.635 88.8521 306.208 83.8101H313.708C315.939 83.8101 317.958 84.7201 319.418 86.1801Z" fill="#EA792E"/>
<path d="M333.358 139.39C333.391 145.27 327.12 146.351 322.558 150.19C321.658 150.96 321.788 154.84 321.788 154.84C321.788 165.42 313.208 174 302.628 174C292.012 174.072 283.4 165.162 283.478 154.84C283.478 154.84 283.608 150.96 282.708 150.19C278.158 146.33 271.908 145.35 271.908 139.39C271.908 133.42 276.738 128.58 282.708 128.58H322.558C328.528 128.58 333.358 133.42 333.358 139.39Z" fill="#C1B7D3"/>
<path d="M333.338 139.39C333.432 145.266 327.098 146.353 322.558 150.19C321.658 150.96 321.788 154.84 321.788 154.84C321.788 165.42 313.208 174 302.628 174C292.012 174.072 283.4 165.162 283.478 154.84C283.478 154.84 283.608 150.96 282.708 150.19C278.158 146.33 271.908 145.35 271.908 139.39H333.338Z" fill="#AEA7B9"/>
<path d="M309.118 139.39C309.118 139.39 305.908 162.49 285.308 163.02C284.138 160.54 283.478 157.77 283.478 154.84C283.478 154.84 283.608 150.96 282.708 150.19C278.158 146.33 271.908 145.35 271.908 139.39H309.118Z" fill="#9F90AE"/>
<path d="M299.788 133.98C299.788 136.97 297.368 139.39 294.388 139.39H271.908C271.908 133.42 276.738 128.58 282.708 128.58H294.388C297.368 128.58 299.788 131 299.788 133.98Z" fill="#AEA7B9"/>
<path d="M314.358 162.13C314.358 164.32 312.578 166.1 310.378 166.1H287.138C285.427 163.751 284.273 161.053 283.768 158.15H310.378C312.579 158.15 314.358 159.93 314.358 162.13Z" fill="#C1B7D3"/>
<path d="M306.421 166.102H303.885C301.69 166.102 299.911 164.323 299.911 162.128C299.911 159.933 301.69 158.154 303.885 158.154H306.421C311.672 158.316 311.673 165.94 306.421 166.102Z" fill="#EBD9EA"/>
<path d="M320.551 136.528H308.488C303.239 136.367 303.234 128.742 308.488 128.58H320.551C325.8 128.741 325.805 136.366 320.551 136.528Z" fill="#EBD9EA"/>
</svg>
