<svg width="512" height="512" viewBox="0 0 512 512" fill="none" xmlns="http://www.w3.org/2000/svg">
<path d="M256 512C397.385 512 512 397.385 512 256C512 114.615 397.385 0 256 0C114.615 0 0 114.615 0 256C0 397.385 114.615 512 256 512Z" fill="#78C795"/>
<path d="M420.687 184.225H377.637V348.335H420.687V184.225Z" fill="#F39E22"/>
<path d="M390.157 196.745V335.815C390.157 339.275 388.757 342.395 386.487 344.665C384.217 346.935 381.097 348.335 377.637 348.335V184.225C384.547 184.225 390.157 189.825 390.157 196.745Z" fill="#C68132"/>
<path d="M420.687 184.225V348.335C413.767 348.335 408.157 342.725 408.157 335.815V196.745C408.157 189.825 413.767 184.225 420.687 184.225Z" fill="#F9C744"/>
<path d="M432.072 358.305C432.072 363.805 427.612 368.275 422.112 368.275H376.212C373.462 368.275 370.972 367.155 369.172 365.355C368.262 364.445 367.522 363.355 367.022 362.155C366.522 360.965 366.252 359.665 366.252 358.305C366.252 352.795 370.712 348.335 376.212 348.335H422.112C424.862 348.335 427.352 349.455 429.152 351.255C430.962 353.055 432.072 355.555 432.072 358.305Z" fill="#EBD9EA"/>
<path d="M432.072 358.305H403.092C400.342 358.305 397.852 357.195 396.042 355.385C394.242 353.585 393.122 351.095 393.122 348.335H422.112C424.862 348.335 427.352 349.455 429.152 351.255C430.962 353.055 432.072 355.555 432.072 358.305Z" fill="white"/>
<path d="M419.912 368.275H376.212C373.462 368.275 370.972 367.155 369.172 365.355C368.262 364.445 367.522 363.355 367.022 362.155H410.722C413.472 362.155 415.962 363.275 417.762 365.075C418.672 365.985 419.402 367.065 419.912 368.275Z" fill="#C1B7D3"/>
<path d="M420.682 368.275V383.025C420.682 389.565 417.772 395.415 413.172 399.355C412.772 399.715 412.362 400.045 411.932 400.355C408.352 402.985 403.942 404.545 399.162 404.545C394.142 404.545 389.522 402.825 385.862 399.945C385.292 399.495 384.732 399.015 384.212 398.495C384.122 398.425 384.032 398.335 383.942 398.245C380.042 394.355 377.632 388.975 377.632 383.025V368.275H420.682Z" fill="#EE6781"/>
<path d="M420.682 368.275V383.025C420.682 389.565 417.772 395.415 413.172 399.355C412.762 399.005 412.362 398.635 411.972 398.245C408.082 394.355 405.672 388.975 405.672 383.025V368.275H420.682Z" fill="#F0A6B3"/>
<path d="M390.782 368.275V383.025C390.782 389.105 388.272 394.595 384.212 398.495C384.122 398.425 384.032 398.335 383.942 398.245C380.042 394.355 377.632 388.975 377.632 383.025V368.275H390.782Z" fill="#D65171"/>
<path d="M420.682 184.225H377.632L395.632 139.315H402.692L417.272 175.715L420.682 184.225Z" fill="#F5B890"/>
<path d="M417.272 175.715H395.482C391.782 175.715 389.262 171.975 390.632 168.545L402.342 139.315H402.692L417.272 175.715Z" fill="#FBD9A3"/>
<path d="M403.732 119.975V141.205C403.732 143.725 401.682 145.765 399.162 145.765C397.902 145.765 396.762 145.255 395.932 144.435C395.102 143.605 394.592 142.465 394.592 141.205V119.975C394.592 117.695 396.262 115.815 398.432 115.465C398.672 115.425 398.912 115.405 399.162 115.405C401.682 115.405 403.732 117.445 403.732 119.975Z" fill="#2E3140"/>
<path d="M403.732 119.975V132.965C403.492 133.005 403.252 133.025 403.002 133.025C401.742 133.025 400.592 132.515 399.772 131.685C398.942 130.855 398.432 129.715 398.432 128.455V115.465C398.672 115.425 398.912 115.405 399.162 115.405C401.682 115.405 403.732 117.445 403.732 119.975Z" fill="#334353"/>
<path d="M325.96 125.64V394.3C325.96 407.55 315.23 418.28 301.99 418.28H115.99C102.75 418.28 92.01 407.55 92.01 394.3V125.64C92.01 112.4 102.75 101.67 115.99 101.67H301.99C315.23 101.67 325.96 112.4 325.96 125.64Z" fill="white"/>
<path d="M169.075 319.458H135.224C128.635 319.458 123.293 324.8 123.293 331.389V365.24C123.293 371.829 128.635 377.171 135.224 377.171H169.075C175.664 377.171 181.006 371.829 181.006 365.24V331.389C181.006 324.8 175.664 319.458 169.075 319.458Z" fill="#EBD9EA"/>
<path d="M169.075 142.779H135.224C128.635 142.779 123.293 148.121 123.293 154.71V188.561C123.293 195.15 128.635 200.492 135.224 200.492H169.075C175.664 200.492 181.006 195.15 181.006 188.561V154.71C181.006 148.121 175.664 142.779 169.075 142.779Z" fill="#EBD9EA"/>
<path d="M163.317 175.176C161.361 173.22 161.361 170.049 163.317 168.094L174.125 157.286C176.232 155.181 176.232 151.765 174.125 149.66C172.021 147.553 168.603 147.553 166.499 149.66L155.691 160.468C153.735 162.424 150.564 162.424 148.609 160.468L137.8 149.659C135.696 147.552 132.278 147.552 130.174 149.659C128.067 151.764 128.067 155.18 130.174 157.285L140.982 168.093C142.938 170.049 142.938 173.22 140.982 175.175L130.174 185.983C128.067 188.088 128.067 191.504 130.174 193.609C131.226 194.662 132.607 195.189 133.987 195.189C135.367 195.189 136.748 194.662 137.8 193.609L148.608 182.801C150.564 180.845 153.735 180.845 155.69 182.801L166.498 193.609C167.55 194.662 168.931 195.189 170.311 195.189C171.691 195.189 173.072 194.662 174.124 193.609C176.231 191.504 176.231 188.088 174.124 185.983L163.317 175.176Z" fill="#DF3D81"/>
<path d="M169.075 231.119H135.224C128.635 231.119 123.293 236.461 123.293 243.05V276.9C123.293 283.489 128.635 288.831 135.224 288.831H169.075C175.664 288.831 181.006 283.489 181.006 276.9V243.05C181.006 236.46 175.664 231.119 169.075 231.119Z" fill="#EBD9EA"/>
<path d="M158.584 274.927C156.682 278.103 152.385 278.815 149.56 276.423L130.502 260.284C128.096 258.246 127.92 254.551 130.233 252.295C132.25 250.328 135.501 250.383 137.651 252.204L146.834 259.981C149.659 262.374 153.956 261.661 155.859 258.485L173.683 228.723C175.13 226.306 178.189 225.205 180.733 226.416C183.651 227.804 184.678 231.36 183.058 234.066L158.584 274.927Z" fill="#53B976"/>
<path d="M237.689 373.969C233.869 371.843 230.928 368.809 228.86 364.884C226.797 360.959 225.763 356.379 225.763 351.151C225.763 345.915 226.847 341.284 229.016 337.258C231.184 333.232 234.231 330.114 238.156 327.912C242.081 325.71 246.59 324.609 251.683 324.609C254.368 324.609 257.07 324.987 259.793 325.744C262.512 326.5 264.903 327.534 266.97 328.845C269.172 330.291 270.273 332.114 270.273 334.316C270.273 335.829 269.912 337.047 269.189 337.98C268.466 338.913 267.521 339.375 266.348 339.375C265.592 339.375 264.802 339.207 263.974 338.854C263.146 338.518 262.323 338.098 261.495 337.619C259.982 336.728 258.537 336.022 257.158 335.501C255.78 334.988 254.195 334.728 252.405 334.728C248.135 334.728 244.849 336.123 242.542 338.913C240.235 341.695 239.084 345.712 239.084 350.94C239.084 356.109 240.235 360.084 242.542 362.866C244.849 365.656 248.135 367.051 252.405 367.051C254.128 367.051 255.662 366.79 257.002 366.278C258.347 365.757 259.843 365.059 261.494 364.16C262.528 363.538 263.423 363.076 264.179 362.765C264.935 362.454 265.692 362.303 266.452 362.303C267.553 362.303 268.482 362.782 269.238 363.749C269.994 364.716 270.377 365.917 270.377 367.363C270.377 368.531 270.116 369.548 269.6 370.405C269.087 371.271 268.243 372.044 267.07 372.733C264.935 374.111 262.456 375.196 259.636 375.986C256.812 376.776 253.921 377.171 250.958 377.171C245.934 377.171 241.513 376.104 237.689 373.969Z" fill="#6C53A2"/>
<path d="M265.268 150.565C268.676 154.044 270.378 159.331 270.378 166.416V191.621C270.378 193.478 269.828 194.941 268.727 196.008C267.626 197.075 266.109 197.605 264.184 197.605C262.394 197.605 260.931 197.059 259.793 195.958C258.658 194.857 258.091 193.411 258.091 191.621V189.343C256.919 192.032 255.078 194.134 252.565 195.646C250.052 197.158 247.144 197.915 243.837 197.915C240.463 197.915 237.399 197.226 234.647 195.856C231.895 194.478 229.722 192.587 228.142 190.175C226.558 187.763 225.764 185.082 225.764 182.115C225.764 178.4 226.714 175.475 228.605 173.341C230.5 171.206 233.58 169.66 237.85 168.693C242.12 167.726 248.003 167.247 255.508 167.247H258.092V164.869C258.092 161.499 257.369 159.036 255.924 157.49C254.478 155.935 252.134 155.162 248.902 155.162C246.902 155.162 244.872 155.456 242.809 156.044C240.741 156.624 238.296 157.473 235.476 158.574C233.682 159.465 232.375 159.91 231.551 159.91C230.311 159.91 229.294 159.465 228.504 158.574C227.71 157.675 227.315 156.506 227.315 155.061C227.315 153.893 227.609 152.876 228.193 152.01C228.777 151.153 229.76 150.346 231.135 149.589C233.547 148.278 236.421 147.244 239.762 146.488C243.099 145.732 246.385 145.353 249.625 145.353C256.645 145.354 261.86 147.094 265.268 150.565ZM254.838 185.167C257.006 182.856 258.091 179.881 258.091 176.233V174.065H256.229C251.619 174.065 248.035 174.267 245.492 174.687C242.941 175.099 241.117 175.822 240.016 176.855C238.915 177.88 238.365 179.292 238.365 181.082C238.365 183.292 239.138 185.099 240.689 186.503C242.235 187.915 244.147 188.621 246.421 188.621C249.863 188.621 252.67 187.469 254.838 185.167Z" fill="#6C53A2"/>
<path d="M272.045 244.471C275.419 246.606 278.054 249.631 279.945 253.556C281.84 257.481 282.786 262.061 282.786 267.289C282.786 272.525 281.84 277.156 279.945 281.182C278.054 285.208 275.402 288.326 271.994 290.528C268.586 292.73 264.711 293.831 260.375 293.831C256.727 293.831 253.475 293.041 250.617 291.461C247.759 289.873 245.57 287.671 244.057 284.847V287.427C244.057 289.293 243.473 290.772 242.3 291.873C241.132 292.974 239.581 293.52 237.656 293.52C235.727 293.52 234.193 292.974 233.059 291.873C231.924 290.772 231.353 289.293 231.353 287.427V225.67C231.353 223.88 231.958 222.434 233.164 221.333C234.366 220.232 235.933 219.686 237.862 219.686C239.787 219.686 241.337 220.199 242.51 221.232C243.678 222.266 244.262 223.678 244.262 225.468V249.841C245.779 247.084 247.947 244.966 250.771 243.487C253.591 242.008 256.793 241.268 260.373 241.268C264.784 241.269 268.671 242.337 272.045 244.471ZM266.469 279.476C268.742 276.585 269.877 272.525 269.877 267.289C269.877 262.129 268.759 258.17 266.524 255.413C264.284 252.665 261.099 251.286 256.968 251.286C252.837 251.286 249.652 252.681 247.416 255.463C245.176 258.253 244.058 262.262 244.058 267.498C244.058 272.734 245.176 276.76 247.416 279.584C249.652 282.408 252.837 283.811 256.968 283.811C261.031 283.813 264.2 282.367 266.469 279.476Z" fill="#6C53A2"/>
</svg>
