<svg width="512" height="512" viewBox="0 0 512 512" fill="none" xmlns="http://www.w3.org/2000/svg">
<path d="M256 512C397.385 512 512 397.385 512 256C512 114.615 397.385 0 256 0C114.615 0 0 114.615 0 256C0 397.385 114.615 512 256 512Z" fill="#F39E22"/>
<path d="M506.73 307.92C496.87 356.207 472.514 401.312 437.78 436.24H437.77C337.276 537.857 172.17 537.088 72.62 434.6C38.746 400 14.984 355.423 5.27002 307.92H506.73Z" fill="#D48D77"/>
<path d="M288.65 423.76V509.94C284.08 510.52 279.48 510.98 274.84 511.31V423.76C275.158 414.615 288.331 414.613 288.65 423.76Z" fill="#C17E62"/>
<path d="M288.65 307.92V329.18C288.65 332.99 285.56 336.08 281.74 336.08C277.93 336.08 274.84 332.99 274.84 329.18V307.92H288.65Z" fill="#C17E62"/>
<path d="M239.242 471.872C235.428 471.872 232.336 468.78 232.336 464.966V337.415C232.336 333.601 235.428 330.509 239.242 330.509C243.056 330.509 246.148 333.601 246.148 337.415V464.967C246.148 468.78 243.056 471.872 239.242 471.872Z" fill="#C17E62"/>
<path d="M189.92 307.92V408.92C189.92 412.73 186.83 415.82 183.02 415.82C179.2 415.82 176.11 412.73 176.11 408.92V307.92H189.92Z" fill="#C17E62"/>
<path d="M189.92 465.94V503.39C185.26 502.15 180.66 500.78 176.11 499.28V465.94C176.428 456.799 189.599 456.79 189.92 465.94Z" fill="#C17E62"/>
<path d="M136.71 369.85V482.56C132.01 480.08 127.4 477.46 122.89 474.7V369.85C123.206 360.723 136.393 360.715 136.71 369.85Z" fill="#C17E62"/>
<path d="M82.11 307.92V348.71C82.11 352.52 79.02 355.61 75.2 355.61C71.39 355.61 68.3 352.52 68.3 348.71V307.92H82.11Z" fill="#C17E62"/>
<path d="M82.11 403.73V443.87C77.34 439.45 72.73 434.85 68.3 430.07V403.73C68.579 394.609 81.836 394.61 82.11 403.73Z" fill="#C17E62"/>
<path d="M36.96 307.92V388.57C31.88 380.19 27.27 371.5 23.15 362.53V307.92H36.96Z" fill="#C17E62"/>
<path d="M313.339 471.872C309.525 471.872 306.433 468.78 306.433 464.966V337.415C306.433 333.601 309.525 330.509 313.339 330.509C317.153 330.509 320.245 333.601 320.245 337.415V464.967C320.245 468.78 317.153 471.872 313.339 471.872Z" fill="#C17E62"/>
<path d="M356.8 307.92V381.45C356.8 385.26 353.71 388.35 349.9 388.35C346.08 388.35 342.99 385.26 342.99 381.45V307.92H356.8Z" fill="#C17E62"/>
<path d="M356.8 440.54V491.39C352.27 493.33 347.66 495.15 342.99 496.83V440.54C343.265 431.412 356.528 431.401 356.8 440.54Z" fill="#C17E62"/>
<path d="M388.4 459.034C384.586 459.034 381.494 455.942 381.494 452.128V324.577C381.494 320.763 384.586 317.671 388.4 317.671C392.214 317.671 395.306 320.763 395.306 324.577V452.129C395.305 455.942 392.214 459.034 388.4 459.034Z" fill="#C17E62"/>
<path d="M435.73 307.92V404.66C435.73 408.47 432.64 411.56 428.83 411.56C425.01 411.56 421.92 408.47 421.92 404.66V307.92H435.73Z" fill="#C17E62"/>
<path d="M474.94 347.79V388.73C470.66 395.77 466.05 402.59 461.13 409.16V347.79C461.405 338.662 474.668 338.651 474.94 347.79Z" fill="#C17E62"/>
<path d="M363.012 223.13V349.794C363.012 360.188 354.589 368.61 344.203 368.61H141.919C131.525 368.61 123.102 360.187 123.102 349.794V223.13C123.102 222.028 123.199 220.942 123.392 219.888C124.912 211.039 132.627 204.313 141.919 204.313H344.203C354.589 204.314 363.012 212.737 363.012 223.13Z" fill="#A583BB"/>
<path d="M272.654 368.611H141.919C131.525 368.611 123.102 360.188 123.102 349.795V223.13C123.102 222.028 123.199 220.942 123.392 219.888C202.802 226.051 266.218 289.274 272.654 368.611Z" fill="#9175A7"/>
<path d="M363.012 223.13V320.27C292.821 337.304 225.422 275.814 236.123 204.314H344.204C354.589 204.314 363.012 212.737 363.012 223.13Z" fill="#C2AACF"/>
<path d="M441.1 432.84C440.013 433.986 438.91 435.117 437.79 436.24C437.78 436.24 437.78 436.24 437.78 436.24C433.547 440.503 429.167 444.643 424.65 448.59H226.94C218.56 448.59 206.13 444.29 199.17 438.98L136.71 391.3L135.7 390.53C132.48 388.08 131 385.84 131.16 384.15V371.95C131.15 371.94 131.15 371.93 131.16 371.92C131.16 371.906 131.16 371.855 131.16 371.84H145.57V380.92H347.85C349.22 380.92 350.69 381.03 352.23 381.25C360.296 382.393 369.772 386.102 375.61 390.53C387.65 399.692 410.573 417.226 422.81 426.55C422.82 426.565 424.647 427.948 424.66 427.96C424.66 427.96 424.66 427.97 424.67 427.97L432.53 433.97V432.84H441.1Z" fill="#9175A7"/>
<path d="M240.451 414.755C240.451 426.573 238.569 437.94 235.077 448.591H226.936C218.561 448.591 206.132 444.287 199.174 438.978L135.701 390.533C132.483 388.079 131.003 385.843 131.164 384.146V371.838H145.572V380.921H235.077C238.568 391.571 240.451 402.938 240.451 414.755Z" fill="#6C53A2"/>
<path d="M441.1 432.84C440.013 433.986 438.91 435.117 437.79 436.24C437.78 436.24 437.78 436.24 437.78 436.24C433.547 440.503 429.167 444.643 424.65 448.59H317.33C312.247 444.904 307.466 440.789 303.11 436.28H303.1C290.716 423.547 281.492 407.751 276.61 390.67C275.699 387.454 274.909 384.209 274.29 380.92H347.85C349.22 380.92 350.69 381.03 352.23 381.25C360.296 382.393 369.772 386.102 375.61 390.53C387.633 399.692 410.585 417.226 422.81 426.55C422.82 426.565 424.647 427.948 424.66 427.96C424.66 427.96 424.66 427.97 424.67 427.97L432.53 433.97V432.84H441.1Z" fill="#A583BB"/>
<path d="M443.03 430.8C441.312 432.642 439.571 434.452 437.79 436.24C436.89 436.369 228.026 436.23 226.938 436.28C218.56 436.28 206.13 431.98 199.17 426.67C184.384 415.384 151.889 390.571 136.71 378.99C135.032 377.726 133.202 376.306 132.09 374.63C131.551 373.818 131.11 372.913 131.16 371.95C131.15 371.94 131.15 371.93 131.16 371.92C131.199 371.266 131.502 370.632 132.01 370.2C133.221 369.096 134.974 368.841 136.61 368.67C137.755 368.43 346.473 368.717 347.849 368.61C348.546 368.62 349.272 368.628 349.98 368.701C356.76 369.287 363.419 371.469 369.51 374.481C373.398 376.245 378.084 380.141 381.49 382.711L393.55 391.921L395.31 393.261L439.08 426.671C441.01 428.141 442.32 429.541 443.02 430.791C443.02 430.79 443.02 430.79 443.03 430.8Z" fill="#C2AACF"/>
<path d="M443.62 432.94C443.622 432.908 443.616 432.873 443.617 432.84H443.62V432.94Z" fill="#C2AACF"/>
<path d="M443.02 430.79C443.802 429.047 397.275 395.264 395.31 393.259C394.731 392.813 382.5 383.488 381.49 382.71L375.61 378.22C370.019 374.083 363.319 371.443 356.6 369.77C355.328 367.589 276.949 368.964 272.67 368.61C273.22 376.099 274.528 383.503 276.62 390.69C280.71 405.006 287.844 418.408 297.34 429.86H297.35C299.166 432.091 301.105 434.208 303.1 436.28H436.52C436.968 436.281 437.382 436.267 437.79 436.24C439.571 434.452 441.312 432.641 443.03 430.8C443.02 430.79 443.02 430.79 443.02 430.79Z" fill="#DECEE5"/>
<path d="M240.451 414.755C240.451 422.124 239.719 429.324 238.319 436.283H226.936C218.561 436.283 206.132 431.979 199.174 426.67L135.701 378.225C128.742 372.916 129.893 368.612 138.267 368.612H230.194C236.774 382.617 240.451 398.256 240.451 414.755Z" fill="#A583BB"/>
<path d="M393.55 391.916C361.815 403.468 288.014 396.982 286.298 368.611H347.848C356.223 368.611 368.652 372.915 375.61 378.224L393.55 391.916Z" fill="white"/>
<path d="M354.967 229.462V335.419C354.967 344.863 347.308 352.522 337.864 352.522H148.251C138.807 352.522 131.148 344.863 131.148 335.419V229.462C131.148 226.373 131.969 223.477 133.409 220.975C136.345 215.826 141.896 212.359 148.251 212.359H337.865C347.309 212.359 354.967 220.017 354.967 229.462Z" fill="#2D2667"/>
<path d="M250.562 354.933H235.556C228.117 355.161 228.111 365.966 235.556 366.196H250.562C258.001 365.968 258.007 355.163 250.562 354.933Z" fill="#6C53A2"/>
<path d="M218.674 381.957H197.87L197.548 381.708L192.279 377.686C191.354 376.986 191.853 375.514 193.011 375.514H213.807L214.129 375.763L218.031 378.74H218.039L219.407 379.786C220.323 380.485 219.824 381.957 218.674 381.957Z" fill="#3E4E60"/>
<path d="M203.115 395.77H183.172L182.858 395.529C182.85 395.529 182.85 395.521 182.842 395.521L175.296 389.761C174.371 389.061 174.87 387.589 176.028 387.589H195.971L196.293 387.838L202.479 392.552L203.847 393.598C204.765 394.306 204.266 395.77 203.115 395.77Z" fill="#3E4E60"/>
<path d="M252.325 381.957H231.529L231.207 381.708L225.938 377.686C225.013 376.986 225.512 375.514 226.67 375.514H247.466L247.788 375.763L251.69 378.74C251.717 378.763 253.223 379.896 253.178 379.882C253.934 380.614 253.435 381.957 252.325 381.957Z" fill="#3E4E60"/>
<path d="M319.643 381.957H298.847L298.525 381.708L293.248 377.686C292.331 376.986 292.83 375.514 293.98 375.514H314.784L315.106 375.763L319.008 378.74L320.376 379.786C321.3 380.485 320.801 381.957 319.643 381.957Z" fill="#3E4E60"/>
<path d="M285.984 381.957H265.188L264.866 381.708L259.589 377.686C258.691 377.015 259.15 375.51 260.329 375.514H281.125L281.447 375.763L285.349 378.74L286.717 379.786C287.641 380.485 287.142 381.957 285.984 381.957Z" fill="#3E4E60"/>
<path d="M257.015 411.224H236.219L235.929 410.999C235.91 411.026 226.216 403.569 226.195 403.574C225.278 402.874 225.777 401.402 226.935 401.402H247.731L248.053 401.651L256.379 408.006H256.387C256.414 408.029 257.909 409.162 257.867 409.148C258.624 409.888 258.125 411.224 257.015 411.224Z" fill="#3E4E60"/>
<path d="M357.992 411.224H337.196L336.955 411.039C336.947 411.039 336.947 411.031 336.939 411.031C336.301 410.564 327.468 403.793 327.173 403.574C326.248 402.874 326.747 401.402 327.905 401.402H348.7L349.014 401.643C349.022 401.643 349.022 401.651 349.03 401.651L357.356 408.006L358.724 409.052C359.649 409.76 359.151 411.224 357.992 411.224Z" fill="#3E4E60"/>
<path d="M290.674 411.224H269.878L269.588 410.999C269.569 411.026 259.875 403.569 259.854 403.574C258.937 402.874 259.428 401.402 260.586 401.402H281.382L281.696 401.643C281.704 401.643 281.704 401.651 281.712 401.651L290.038 408.006L291.406 409.052C292.331 409.76 291.832 411.224 290.674 411.224Z" fill="#3E4E60"/>
<path d="M324.333 411.224H303.537L303.247 410.999C303.228 411.026 293.534 403.569 293.513 403.574C292.596 402.874 293.087 401.402 294.245 401.402H315.041L315.355 401.643C315.363 401.643 315.363 401.651 315.371 401.651L323.697 408.006L325.065 409.052C325.99 409.76 325.491 411.224 324.333 411.224Z" fill="#3E4E60"/>
<path d="M185.015 381.957H165.233C165.112 381.844 165 381.732 164.895 381.619C164.591 381.339 164.335 381.014 164.074 380.702V380.694C161.061 376.868 165.226 375.381 168.7 375.513H180.148L180.462 375.754C180.47 375.754 180.47 375.762 180.478 375.762L184.38 378.739L185.748 379.785C186.664 380.485 186.173 381.957 185.015 381.957Z" fill="#3E4E60"/>
<path d="M223.364 411.224H215.488C207.818 410.959 199.682 408.083 193.397 403.574C192.472 402.874 192.971 401.402 194.129 401.402H214.072L214.394 401.651L222.728 408.006L224.096 409.052C225.013 409.76 224.514 411.224 223.364 411.224Z" fill="#3E4E60"/>
<path d="M351.13 381.957H332.507L332.193 381.716C332.185 381.716 332.185 381.708 332.177 381.708L326.908 377.686C325.991 376.986 326.482 375.514 327.64 375.514C330.47 375.572 336.781 375.31 339.49 375.852C343.682 376.518 347.781 377.858 351.629 379.649C352.811 380.195 352.433 381.957 351.13 381.957Z" fill="#3E4E60"/>
<path d="M387.959 408.649C387.916 409.28 387.536 409.819 387.034 410.178C387.034 410.178 387.026 410.178 387.026 410.186C385.65 411.095 383.917 411.194 382.304 411.224H370.856L370.615 411.039C370.607 411.039 370.607 411.031 370.599 411.031C369.961 410.564 361.128 403.793 360.833 403.574C359.908 402.874 360.407 401.402 361.565 401.402H381.508C383.836 403.242 388.195 405.995 387.959 408.649Z" fill="#3E4E60"/>
<path d="M236.766 395.77H215.97L215.648 395.521L208.094 389.761C208.054 389.729 208.014 389.697 207.981 389.664C207.225 388.932 207.724 387.589 208.834 387.589H229.63L229.952 387.838L236.13 392.552H236.138C236.165 392.575 237.66 393.708 237.618 393.694C238.375 394.434 237.877 395.77 236.766 395.77Z" fill="#3E4E60"/>
<path d="M337.744 395.77H316.948L316.634 395.529C316.626 395.529 316.626 395.521 316.618 395.521L309.072 389.761C308.147 389.061 308.646 387.589 309.804 387.589H330.6L330.914 387.83C330.922 387.83 330.922 387.838 330.93 387.838L337.108 392.552L338.476 393.598C339.401 394.306 338.902 395.77 337.744 395.77Z" fill="#3E4E60"/>
<path d="M270.425 395.77H249.63L249.308 395.521L241.754 389.761C240.837 389.061 241.336 387.589 242.494 387.589H263.29L263.612 387.838L269.79 392.552L271.158 393.598C272.083 394.306 271.584 395.77 270.425 395.77Z" fill="#3E4E60"/>
<path d="M304.085 395.77H283.289L282.967 395.521L275.413 389.761C274.496 389.061 274.987 387.589 276.145 387.589H296.941L297.255 387.83C297.263 387.83 297.263 387.838 297.271 387.838L303.449 392.552L304.817 393.598C305.742 394.306 305.243 395.77 304.085 395.77Z" fill="#3E4E60"/>
<path d="M370.542 395.77H350.607L350.293 395.529C350.285 395.529 350.285 395.521 350.277 395.521L342.731 389.761C341.806 389.061 342.305 387.589 343.463 387.589H363.406L363.728 387.838L369.914 392.552L371.282 393.598C372.199 394.306 371.7 395.77 370.542 395.77Z" fill="#3E4E60"/>
<path d="M218.03 378.739H201.498C201.233 378.739 200.975 378.65 200.766 378.49L196.864 375.513H213.806L214.128 375.762L218.03 378.739Z" fill="#3F5D77"/>
<path d="M202.48 392.552H186.801C186.536 392.552 186.278 392.464 186.061 392.303L179.883 387.589H195.972L196.294 387.838L202.48 392.552Z" fill="#3F5D77"/>
<path d="M251.689 378.739H235.157C234.891 378.739 234.634 378.65 234.425 378.49L230.523 375.513H247.465L247.787 375.762L251.689 378.739Z" fill="#3F5D77"/>
<path d="M319.007 378.739H302.475C302.21 378.739 301.952 378.65 301.743 378.49L297.841 375.513H314.783L315.105 375.762L319.007 378.739Z" fill="#3F5D77"/>
<path d="M285.348 378.739H268.816C268.551 378.739 268.293 378.65 268.084 378.49L264.182 375.513H281.124L281.446 375.762L285.348 378.739Z" fill="#3F5D77"/>
<path d="M256.379 408.006H239.847C239.582 408.006 239.324 407.926 239.115 407.765L230.781 401.402H247.731L248.053 401.651L256.379 408.006Z" fill="#3F5D77"/>
<path d="M357.357 408.006H340.825C340.56 408.006 340.302 407.926 340.085 407.765L331.759 401.402H348.7L349.014 401.643C349.022 401.643 349.022 401.651 349.03 401.651L357.357 408.006Z" fill="#3F5D77"/>
<path d="M290.038 408.006H273.506C273.24 408.006 272.983 407.926 272.774 407.765L264.44 401.402H281.382L281.696 401.643C281.704 401.643 281.704 401.651 281.712 401.651L290.038 408.006Z" fill="#3F5D77"/>
<path d="M323.698 408.006H307.166C306.9 408.006 306.643 407.926 306.434 407.765L298.1 401.402H315.042L315.356 401.643C315.364 401.643 315.364 401.651 315.372 401.651L323.698 408.006Z" fill="#3F5D77"/>
<path d="M184.379 378.739H168.949C167.621 378.609 166.557 376.407 166.351 375.69C167.765 375.342 178.469 375.578 180.148 375.513L180.462 375.754C180.47 375.754 180.47 375.762 180.478 375.762L184.379 378.739Z" fill="#3F5D77"/>
<path d="M222.728 408.006H218.706C212.414 408.004 203.572 405.011 198.104 401.401H214.073L214.395 401.65L222.728 408.006Z" fill="#3F5D77"/>
<path d="M349.569 378.739H336.134C335.868 378.739 335.611 378.65 335.394 378.49L331.492 375.513C332.347 375.528 335.804 375.479 336.584 375.545C341.05 375.805 345.431 377.069 349.569 378.739Z" fill="#3F5D77"/>
<path d="M387.886 407.829C386.466 408.169 376.162 407.946 374.484 408.006C374.219 408.006 373.961 407.926 373.744 407.765L365.418 401.402H381.507C383.553 402.927 387.637 405.871 387.886 407.829Z" fill="#3F5D77"/>
<path d="M236.131 392.552H219.599C219.334 392.552 219.076 392.464 218.867 392.303L212.681 387.589H229.631L229.953 387.838L236.131 392.552Z" fill="#3F5D77"/>
<path d="M337.108 392.552H320.576C320.31 392.552 320.053 392.464 319.836 392.303L313.658 387.589H330.6L330.914 387.83C330.922 387.83 330.922 387.838 330.93 387.838L337.108 392.552Z" fill="#3F5D77"/>
<path d="M269.79 392.552H253.258C252.993 392.552 252.735 392.464 252.526 392.303L246.34 387.589H263.29L263.612 387.838L269.79 392.552Z" fill="#3F5D77"/>
<path d="M303.449 392.552H286.917C286.652 392.552 286.394 392.464 286.185 392.303L279.999 387.589H296.941L297.255 387.83C297.263 387.83 297.263 387.838 297.271 387.838L303.449 392.552Z" fill="#3F5D77"/>
<path d="M369.914 392.552H354.235C353.969 392.552 353.712 392.464 353.495 392.303L347.317 387.589H363.406L363.728 387.838L369.914 392.552Z" fill="#3F5D77"/>
<path d="M351.379 429.855H280.851C278.035 429.855 273.852 428.407 271.511 426.613C269.157 424.835 262.629 419.827 260.208 417.989C257.867 416.203 258.253 414.755 261.069 414.755H331.597C334.413 414.755 338.596 416.203 340.937 417.989L352.248 426.613C354.136 427.961 354.656 429.856 351.379 429.855Z" fill="#3F5D77"/>
<path d="M351.379 429.855H280.851C278.035 429.855 273.852 428.407 271.511 426.613L268.028 423.958C267.602 422.969 268.39 422.301 270.313 422.301H340.833C343.657 422.301 347.84 423.749 350.181 425.535L353.656 428.19C354.09 429.18 353.294 429.855 351.379 429.855Z" fill="#3E4E60"/>
<path d="M323.407 212.359H271.479C266.177 212.201 266.15 204.481 271.479 204.314H323.407C328.708 204.472 328.736 212.193 323.407 212.359Z" fill="white"/>
<path d="M420.736 426.114H369.898C363.192 426.315 363.166 436.073 369.898 436.283H420.736C427.442 436.081 427.468 426.324 420.736 426.114Z" fill="white"/>
<path d="M294.661 282.44C294.661 253.94 271.557 230.837 243.058 230.837C174.607 233.555 174.627 331.336 243.058 334.044C271.557 334.043 294.661 310.94 294.661 282.44Z" fill="#6C53A2"/>
<path d="M283.998 282.44C283.998 259.829 265.668 241.5 243.058 241.5C188.751 243.656 188.767 321.233 243.058 323.381C265.668 323.381 283.998 305.051 283.998 282.44Z" fill="#57409B"/>
<path d="M268.94 285.45C268.49 286.24 267.83 286.95 266.98 287.5L236.16 307.34C232.16 309.91 226.89 307.04 226.89 302.28V262.6C226.89 260.29 228.13 258.43 229.86 257.42C231.7 256.34 234.1 256.22 236.16 257.54L266.98 277.38C269.81 279.2 270.46 282.8 268.94 285.45Z" fill="#F0DAE2"/>
<path d="M268.94 285.45C267.1 286.54 264.7 286.66 262.64 285.33L231.82 265.49C228.99 263.67 228.34 260.06 229.86 257.42C231.7 256.34 234.1 256.22 236.16 257.54L266.98 277.38C269.81 279.2 270.46 282.8 268.94 285.45Z" fill="white"/>
<path d="M311.798 94.251C315.052 92.79 318.731 95.171 318.731 98.738V132.111C318.731 159.007 286.849 180.814 247.537 180.814C208.225 180.814 176.343 159.006 176.343 132.111V98.738C176.343 95.171 180.022 92.79 183.276 94.251L245.523 122.193C246.804 122.768 248.27 122.768 249.552 122.193L311.798 94.251Z" fill="#2D2667"/>
<path d="M255.175 172.401C247.612 172.263 246.486 161.482 253.973 159.86C274.521 155.86 290.762 145.479 297.419 132.09C298.975 128.96 302.772 127.683 305.902 129.24C309.032 130.796 310.308 134.594 308.752 137.723C300.334 154.748 279.741 168.335 255.175 172.401Z" fill="#57409B"/>
<path d="M359.158 83.332L249.922 132.36C248.405 133.041 246.67 133.041 245.153 132.36L135.917 83.332C131.332 81.274 131.332 74.765 135.917 72.708L245.154 23.68C246.671 22.999 248.406 22.999 249.923 23.68L359.16 72.708C363.743 74.765 363.743 81.274 359.158 83.332Z" fill="#57409B"/>
<path d="M320.742 82.377C319.786 82.377 318.815 82.179 317.886 81.762L250.082 51.33C246.562 49.75 244.989 45.616 246.569 42.096C248.148 38.576 252.283 37.005 255.803 38.583L323.606 69.015C330.448 72.163 328.185 82.34 320.742 82.377Z" fill="#6C53A2"/>
<path d="M147.093 101.505V134.752H135.702V99.906C135.702 97.067 138.629 95.172 141.219 96.335L144.781 97.934C146.188 98.565 147.093 99.963 147.093 101.505Z" fill="#2D2667"/>
<path d="M159.27 139.541C159.337 149.18 151.356 157.452 141.399 157.412C117.689 156.474 117.704 122.597 141.399 121.657C151.016 121.534 159.344 129.697 159.27 139.541Z" fill="#2D2667"/>
<path d="M155.131 184.093C153.797 184.898 152.349 185.288 150.739 185.295H132.058C125.742 185.295 121.566 178.752 124.211 173.031L131.792 156.615C133.21 153.552 136.273 151.59 139.639 151.59H143.158C146.494 151.592 149.605 153.557 151.005 156.615L158.586 173.031C160.548 177.271 158.751 181.967 155.131 184.093Z" fill="#2D2667"/>
<path d="M155.131 184.093C153.65 183.22 152.435 181.903 151.688 180.283L144.107 163.867C142.145 159.614 143.942 154.931 147.562 152.805C149.043 153.678 150.258 154.995 151.005 156.615L158.586 173.031C160.548 177.271 158.751 181.967 155.131 184.093Z" fill="#57409B"/>
<path d="M159.27 139.541C159.27 141.845 158.84 144.034 158.042 146.059C151.841 150 144.034 145.556 141.664 137.744C139.728 131.314 142.107 124.822 147.018 122.556C154.154 124.893 159.279 131.737 159.27 139.541Z" fill="#57409B"/>
</svg>
