<svg width="512" height="512" viewBox="0 0 512 512" fill="none" xmlns="http://www.w3.org/2000/svg">
<path d="M256 512C397.385 512 512 397.385 512 256C512 114.615 397.385 0 256 0C114.615 0 0 114.615 0 256C0 397.385 114.615 512 256 512Z" fill="#22BCE0"/>
<path d="M324.801 125.281V388.189C324.801 401.155 314.301 411.656 301.344 411.656H119.326C106.369 411.656 95.8589 401.156 95.8589 388.189V125.281C95.8589 112.324 106.369 101.824 119.326 101.824H301.344C314.3 101.824 324.801 112.324 324.801 125.281Z" fill="white"/>
<path d="M119.646 352.04H301.014C303.774 352.04 306.012 349.803 306.012 347.042C306.012 344.282 303.775 342.044 301.014 342.044H119.646C113.101 342.223 112.989 351.823 119.646 352.04Z" fill="#EBD9EA"/>
<path d="M119.646 306.308H301.014C303.774 306.308 306.012 304.071 306.012 301.31C306.012 298.55 303.775 296.312 301.014 296.312H119.646C113.101 296.491 112.989 306.091 119.646 306.308Z" fill="#EBD9EA"/>
<path d="M119.646 260.576H301.014C303.774 260.576 306.012 258.339 306.012 255.578C306.012 252.818 303.775 250.58 301.014 250.58H119.646C113.101 250.759 112.989 260.359 119.646 260.576Z" fill="#EBD9EA"/>
<path d="M119.646 214.843H301.014C303.774 214.843 306.012 212.605 306.012 209.845C306.012 207.085 303.775 204.847 301.014 204.847H119.646C113.101 205.027 112.989 214.626 119.646 214.843Z" fill="#EBD9EA"/>
<path d="M119.646 169.111H301.014C303.774 169.111 306.012 166.873 306.012 164.113C306.012 161.353 303.775 159.115 301.014 159.115H119.646C113.101 159.294 112.989 168.894 119.646 169.111Z" fill="#EBD9EA"/>
<path d="M205.333 136.055V377.423C205.333 380.183 207.571 382.421 210.331 382.421C213.091 382.421 215.329 380.184 215.329 377.423V136.055C215.16 129.537 205.555 129.375 205.333 136.055Z" fill="#EBD9EA"/>
<path d="M152.603 136.055V377.423C152.603 380.183 154.841 382.421 157.601 382.421C160.361 382.421 162.599 380.184 162.599 377.423V136.055C162.43 129.537 152.825 129.375 152.603 136.055Z" fill="#EBD9EA"/>
<path d="M258.063 136.055V377.423C258.063 380.183 260.3 382.421 263.061 382.421C265.821 382.421 268.059 380.184 268.059 377.423V136.055C267.89 129.537 258.285 129.375 258.063 136.055Z" fill="#EBD9EA"/>
<path d="M119.646 352.04H240.87C247.438 351.852 247.508 342.257 240.87 342.045H119.646C113.078 342.233 113.009 351.828 119.646 352.04Z" fill="#3F5D77"/>
<path d="M123.272 350.577L262.109 211.74C266.608 206.992 259.907 200.115 255.041 204.672L116.204 343.509C111.706 348.257 118.407 355.134 123.272 350.577Z" fill="#3F5D77"/>
<path d="M393.689 155.807L277.647 271.849L308.087 302.29L424.13 186.248L393.689 155.807Z" fill="#F39E22"/>
<path d="M308.091 284.584L406.428 186.247C411.313 181.361 419.249 181.361 424.134 186.247L308.091 302.29C303.204 297.404 303.197 289.477 308.091 284.584Z" fill="#C68132"/>
<path d="M277.65 271.849L393.693 155.806C398.586 160.699 398.586 168.633 393.7 173.519L295.363 271.856C290.47 276.749 282.543 276.742 277.65 271.849Z" fill="#F9C744"/>
<path d="M392.692 140.705C396.581 136.816 402.896 136.809 406.785 140.698L439.241 173.154C443.149 177.01 443.083 183.465 439.234 187.247C435.338 191.143 429.03 191.143 425.141 187.254L392.685 154.798C388.797 150.904 388.799 144.593 392.692 140.705Z" fill="#EBD9EA"/>
<path d="M392.692 140.705L413.184 161.197C417.074 165.086 417.082 171.397 413.184 175.297L392.685 154.798C388.797 150.904 388.799 144.593 392.692 140.705Z" fill="white"/>
<path d="M408.341 142.254L439.242 173.155C442.139 176.063 442.904 180.312 441.413 183.981L410.512 153.08C407.613 150.166 406.851 145.934 408.341 142.254Z" fill="#C1B7D3"/>
<path d="M407.796 141.709L418.226 131.279C426.652 122.832 440.342 122.925 448.66 131.279C457.029 139.615 457.095 153.327 448.667 161.72L438.237 172.15L407.796 141.709Z" fill="#EE6781"/>
<path d="M407.796 141.709L418.226 131.279C422.85 126.655 429.045 124.576 435.083 125.042C435.537 131.149 433.453 137.258 428.839 141.892L418.409 152.322L407.796 141.709Z" fill="#F0A6B3"/>
<path d="M428.939 162.852L439.369 152.422C443.668 148.123 449.325 146.016 454.954 146.129C455.086 151.775 452.956 157.418 448.668 161.721L438.238 172.151L428.939 162.852Z" fill="#D65171"/>
<path d="M277.653 271.852L308.094 302.293L263.61 321.321L258.618 316.329C261.298 310.068 275.31 277.332 277.653 271.852Z" fill="#F5B890"/>
<path d="M274.047 280.281L289.455 295.689C292.071 298.305 291.209 302.732 287.814 304.188L258.865 316.577L258.618 316.33L274.047 280.281Z" fill="#FBD9A3"/>
<path d="M244.207 329.269L259.219 314.257C261.984 311.368 267.104 313.548 267.018 317.489C267.018 318.663 266.573 319.829 265.682 320.72L250.67 335.732C246.284 339.884 240.057 333.627 244.207 329.269Z" fill="#2E3140"/>
<path d="M244.207 329.269L253.392 320.084C255.666 321.689 255.934 325.074 253.951 327.021L244.766 336.206C242.497 334.601 242.215 331.225 244.207 329.269Z" fill="#334353"/>
</svg>
