<svg width="512" height="512" viewBox="0 0 512 512" fill="none" xmlns="http://www.w3.org/2000/svg">
<path d="M512 256C512 265.37 511.5 274.61 510.51 283.72C496.7 412.06 388.01 512 256 512C123.99 512 15.3 412.06 1.49 283.72C0.5 274.61 0 265.37 0 256C0 114.62 114.62 0 256 0C397.38 0 512 114.62 512 256Z" fill="#22BCE0"/>
<path d="M510.51 283.72C505.75 327.97 489.71 368.84 465.32 403.41C418.98 469.1 342.49 512 256 512C169.51 512 93.02 469.1 46.68 403.41C22.29 368.84 6.24999 327.97 1.48999 283.72C38 178.31 138.16 102.62 256 102.62C373.84 102.62 474 178.31 510.51 283.72Z" fill="#4FCAE8"/>
<path d="M465.32 403.41C418.98 469.1 342.49 512 256 512C169.51 512 93.0199 469.1 46.6799 403.41C77.3899 317.49 159.51 256 256 256C352.49 256 434.61 317.49 465.32 403.41Z" fill="#83D5EF"/>
<path d="M287.317 355.115C287.317 337.817 273.294 332.853 255.996 332.853C238.698 332.853 224.675 337.817 224.675 355.115C226.326 396.663 285.674 396.649 287.317 355.115Z" fill="#E9465E"/>
<path d="M287.317 344.05C287.317 326.752 273.294 321.788 255.996 321.788C238.698 321.788 224.675 326.752 224.675 344.05C226.326 385.598 285.674 385.584 287.317 344.05Z" fill="#C0405C"/>
<path d="M428.857 126.607V331.128C428.857 338.71 425.335 345.485 419.828 349.871C415.723 353.157 410.53 355.12 404.865 355.12H107.124C94.0181 355.158 83.1351 344.46 83.1431 331.128V126.607C83.1431 118.34 87.3271 111.039 93.6981 106.72C97.5231 104.129 102.155 102.615 107.124 102.615H404.865C418.025 102.605 428.858 113.302 428.857 126.607Z" fill="#E9465E"/>
<path d="M104.241 126.607V331.128C104.241 339.395 100.057 346.696 93.6971 351.015C87.3261 346.697 83.1421 339.395 83.1421 331.128V126.607C83.1421 118.34 87.3261 111.039 93.6971 106.72C100.057 111.039 104.241 118.341 104.241 126.607Z" fill="#C0405C"/>
<path d="M428.857 126.607V331.128C428.857 338.71 425.335 345.485 419.828 349.871C414.321 345.485 410.799 338.722 410.799 331.128V126.607C410.799 119.013 414.321 112.25 419.828 107.864C425.335 112.25 428.857 119.025 428.857 126.607Z" fill="#EE6781"/>
<path d="M376.291 339.455H135.702C124.524 339.455 115.463 330.394 115.463 319.216V138.519C115.463 127.341 124.524 118.28 135.702 118.28H376.291C387.469 118.28 396.53 127.341 396.53 138.519V319.216C396.529 330.394 387.468 339.455 376.291 339.455Z" fill="#C0405C"/>
<path d="M396.531 122.861V303.558C396.531 308.067 395.062 312.228 392.56 315.593C388.87 320.562 382.959 323.792 376.285 323.792H135.703C124.46 323.789 115.436 314.64 115.457 303.558V122.861C115.457 111.678 124.52 102.615 135.703 102.615H376.285C387.468 102.615 396.531 111.678 396.531 122.861Z" fill="#EBD9EA"/>
<path d="M396.531 122.861V303.558C396.531 314.73 387.468 323.792 376.285 323.792H256V102.615H376.285C387.468 102.615 396.531 111.678 396.531 122.861Z" fill="white"/>
<path d="M392.56 315.594C388.87 320.563 382.959 323.793 376.285 323.793H135.703C129.029 323.793 123.118 320.563 119.428 315.594C123.107 310.614 129.029 307.384 135.703 307.384H376.285C382.959 307.383 388.881 310.613 392.56 315.594Z" fill="#C1B7D3"/>
<path d="M256 160.133H163.945C159.414 160.133 155.74 156.46 155.74 151.928C155.74 147.397 159.413 143.723 163.945 143.723H256V160.133Z" fill="#6C53A2"/>
<path d="M256 210.192H163.945C159.414 210.192 155.74 206.519 155.74 201.987C155.74 197.456 159.413 193.782 163.945 193.782H256V210.192Z" fill="#6C53A2"/>
<path d="M256 260.252H163.945C159.414 260.252 155.74 256.579 155.74 252.047C155.74 247.516 159.413 243.842 163.945 243.842H256V260.252Z" fill="#6C53A2"/>
<path d="M255.994 243.842H348.049C352.58 243.842 356.254 247.515 356.254 252.047C356.254 256.578 352.581 260.252 348.049 260.252H255.994V243.842Z" fill="#9175A7"/>
<path d="M255.994 193.783H348.049C352.58 193.783 356.254 197.456 356.254 201.988C356.254 206.519 352.581 210.193 348.049 210.193H255.994V193.783Z" fill="#9175A7"/>
<path d="M255.994 143.724H348.049C352.58 143.724 356.254 147.397 356.254 151.929C356.254 156.46 352.581 160.134 348.049 160.134H255.994V143.724Z" fill="#9175A7"/>
<path d="M317.366 290.234C317.512 308.442 306.533 321.517 298.644 336.384C294.918 343.463 285.036 373.425 284.841 374.6H227.175C227.175 374.6 216.982 341.555 210.979 331.822C203.047 319.032 194.654 306.301 194.635 290.233C194.583 256.647 221.913 228.86 256.001 228.867C289.213 228.615 317.619 256.37 317.366 290.234Z" fill="#DAAB42"/>
<path d="M218.571 290.234C218.571 303.473 214.381 315.746 207.234 325.776C200.652 315.004 194.634 303.756 194.634 290.234C194.634 276.609 199.077 264.009 206.61 253.831C214.129 264.008 218.571 276.608 218.571 290.234Z" fill="#C4983D"/>
<path d="M317.366 290.234C317.513 308.441 306.533 321.517 298.644 336.384C296.713 340.5 294.603 345.923 292.612 351.391C217.687 355.372 200.631 251.782 271.796 230.933C298.34 238.022 317.343 261.986 317.366 290.234Z" fill="#F9C744"/>
<path d="M317.366 290.234C317.513 308.44 306.533 321.518 298.644 336.384C271.27 312.815 270.865 269.123 297.559 245.078C309.743 256.297 317.366 272.374 317.366 290.234Z" fill="#F8D07A"/>
<path d="M307.687 276.993C307.687 263.087 296.414 251.813 282.507 251.813C249.107 253.139 249.116 300.851 282.507 302.172C296.414 302.172 307.687 290.899 307.687 276.993Z" fill="#FBD9A3"/>
<path d="M277.738 425.788V434.51C277.738 443.559 272.196 451.33 264.336 454.599C250.408 460.615 234.032 449.777 234.277 434.51V425.788H277.738Z" fill="#2E3140"/>
<path d="M277.738 425.788V434.51C277.738 443.559 272.196 451.33 264.336 454.599C256.461 451.33 250.919 443.574 250.919 434.51V425.788H277.738Z" fill="#3E4E60"/>
<path d="M265.638 332.083H246.375V374.601H265.638V332.083Z" fill="#BF5E39"/>
<path d="M265.639 332.083H256.007V374.601H265.639V332.083Z" fill="#DD5E26"/>
<path d="M284.469 320.084C284.522 326.554 279.128 332.124 272.463 332.09H239.551C236.238 332.09 233.236 330.738 231.067 328.569C223.566 321.166 228.875 308.052 239.551 308.079H272.462C279.087 308.086 284.474 313.46 284.469 320.084Z" fill="#BF5E39"/>
<path d="M284.469 320.084C284.469 321.273 284.306 322.417 283.979 323.487H252.806C244.922 323.624 238.96 315.573 241.291 308.079H272.464C279.086 308.086 284.474 313.46 284.469 320.084Z" fill="#DD5E26"/>
<path d="M280.947 311.6C283.948 314.459 285.274 319.383 283.978 323.487H272.82C264.934 323.627 258.982 315.57 261.319 308.079H272.463C275.777 308.079 278.778 309.431 280.947 311.6Z" fill="#EA792E"/>
<path d="M301.66 390.662C301.71 399.399 292.391 401.005 285.613 406.709C284.276 407.853 284.469 413.618 284.469 413.618C284.469 429.338 271.72 442.087 256 442.087C240.227 442.193 227.43 428.955 227.546 413.618C227.546 413.618 227.739 407.853 226.402 406.709C219.641 400.974 210.355 399.518 210.355 390.662C210.355 381.792 217.532 374.6 226.402 374.6H285.613C294.483 374.6 301.66 381.792 301.66 390.662Z" fill="#C1B7D3"/>
<path d="M301.63 390.662C301.769 399.393 292.358 401.008 285.613 406.709C284.276 407.853 284.469 413.618 284.469 413.618C284.469 429.338 271.72 442.087 256 442.087C240.227 442.193 227.43 428.955 227.546 413.618C227.546 413.618 227.739 407.853 226.402 406.709C219.641 400.974 210.355 399.518 210.355 390.662H301.63Z" fill="#AEA7B9"/>
<path d="M265.643 390.662C265.643 390.662 260.873 424.985 230.265 425.773C228.527 422.088 227.546 417.972 227.546 413.619C227.546 413.619 227.739 407.854 226.402 406.71C219.641 400.975 210.355 399.519 210.355 390.663H265.643V390.662Z" fill="#9F90AE"/>
<path d="M251.78 382.624C251.78 387.067 248.184 390.662 243.756 390.662H210.354C210.354 381.792 217.531 374.6 226.401 374.6H243.756C248.184 374.6 251.78 378.196 251.78 382.624Z" fill="#AEA7B9"/>
<path d="M273.429 424.45C273.429 427.704 270.784 430.349 267.515 430.349H232.984C230.442 426.858 228.728 422.85 227.977 418.536H267.515C270.784 418.537 273.429 421.182 273.429 424.45Z" fill="#C1B7D3"/>
<path d="M261.634 430.352H257.866C254.605 430.352 251.961 427.708 251.961 424.447C251.961 421.186 254.605 418.542 257.866 418.542H261.634C269.438 418.784 269.438 430.112 261.634 430.352Z" fill="#EBD9EA"/>
<path d="M282.63 386.41H264.706C261.445 386.41 258.801 383.766 258.801 380.505C258.801 377.244 261.445 374.6 264.706 374.6H282.63C290.43 374.84 290.437 386.169 282.63 386.41Z" fill="#EBD9EA"/>
</svg>
