<svg width="512" height="513" viewBox="0 0 512 513" fill="none" xmlns="http://www.w3.org/2000/svg">
<path d="M512 256C512 397.38 397.38 512 256 512C114.62 512 0 397.38 0 256C0 114.62 114.62 0 256 0C318.59 0 375.93 22.47 420.41 59.77C446.96 82.03 468.92 109.59 484.67 140.81C492.87 157.04 499.38 174.25 503.99 192.23C509.22 212.62 512 233.98 512 256Z" fill="#6052A3"/>
<path d="M506.73 307.92C477.353 451.498 331.254 541.464 189.92 503.39C97.781 479.474 23.867 401.382 5.26999 307.92H506.73Z" fill="#D48D77"/>
<path d="M288.65 423.76V509.94C284.08 510.52 279.48 510.98 274.84 511.31V423.76C275.158 414.615 288.331 414.613 288.65 423.76Z" fill="#C17E62"/>
<path d="M288.65 307.92V329.18C288.65 332.99 285.56 336.08 281.74 336.08C277.93 336.08 274.84 332.99 274.84 329.18V307.92H288.65Z" fill="#C17E62"/>
<path d="M239.242 471.872C235.428 471.872 232.336 468.78 232.336 464.966V337.415C232.336 333.601 235.428 330.509 239.242 330.509C243.056 330.509 246.148 333.601 246.148 337.415V464.967C246.148 468.78 243.056 471.872 239.242 471.872Z" fill="#C17E62"/>
<path d="M189.92 307.92V408.92C189.92 412.73 186.83 415.82 183.02 415.82C179.2 415.82 176.11 412.73 176.11 408.92V307.92H189.92Z" fill="#C17E62"/>
<path d="M189.92 465.94V503.39C185.26 502.15 180.66 500.78 176.11 499.28V465.94C176.428 456.799 189.599 456.79 189.92 465.94Z" fill="#C17E62"/>
<path d="M136.71 369.85V482.56C132.01 480.08 127.4 477.46 122.89 474.7V369.85C123.206 360.723 136.393 360.715 136.71 369.85Z" fill="#C17E62"/>
<path d="M82.11 307.92V348.71C82.11 352.52 79.02 355.61 75.2 355.61C71.39 355.61 68.3 352.52 68.3 348.71V307.92H82.11Z" fill="#C17E62"/>
<path d="M82.11 403.73V443.87C77.34 439.45 72.73 434.85 68.3 430.07V403.73C68.579 394.609 81.836 394.61 82.11 403.73Z" fill="#C17E62"/>
<path d="M36.96 307.92V388.57C31.88 380.19 27.27 371.5 23.15 362.53V307.92H36.96Z" fill="#C17E62"/>
<path d="M313.339 471.872C309.525 471.872 306.433 468.78 306.433 464.966V337.415C306.433 333.601 309.525 330.509 313.339 330.509C317.153 330.509 320.245 333.601 320.245 337.415V464.967C320.245 468.78 317.153 471.872 313.339 471.872Z" fill="#C17E62"/>
<path d="M356.8 307.92V381.45C356.8 385.26 353.71 388.35 349.9 388.35C346.08 388.35 342.99 385.26 342.99 381.45V307.92H356.8Z" fill="#C17E62"/>
<path d="M356.8 440.54V491.39C352.27 493.33 347.66 495.15 342.99 496.83V440.54C343.265 431.412 356.528 431.401 356.8 440.54Z" fill="#C17E62"/>
<path d="M388.4 459.034C384.586 459.034 381.494 455.942 381.494 452.128V324.577C381.494 320.763 384.586 317.671 388.4 317.671C392.214 317.671 395.306 320.763 395.306 324.577V452.129C395.305 455.942 392.214 459.034 388.4 459.034Z" fill="#C17E62"/>
<path d="M435.73 307.92V404.66C435.73 408.47 432.64 411.56 428.83 411.56C425.01 411.56 421.92 408.47 421.92 404.66V307.92H435.73Z" fill="#C17E62"/>
<path d="M474.94 347.79V388.73C470.66 395.77 466.05 402.59 461.13 409.16V347.79C461.405 338.662 474.668 338.651 474.94 347.79Z" fill="#C17E62"/>
<path d="M276.012 193.13V319.794C276.012 330.188 267.589 338.61 257.203 338.61H54.919C44.525 338.61 36.102 330.187 36.102 319.794V193.13C36.102 192.028 36.199 190.942 36.392 189.888C37.912 181.039 45.627 174.313 54.919 174.313H257.203C267.589 174.314 276.012 182.737 276.012 193.13Z" fill="#A583BB"/>
<path d="M185.654 338.611H54.919C44.525 338.611 36.102 330.188 36.102 319.795V193.13C36.102 192.028 36.199 190.942 36.392 189.888C115.802 196.051 179.218 259.274 185.654 338.611Z" fill="#9175A7"/>
<path d="M276.012 193.13V290.27C205.821 307.304 138.422 245.814 149.123 174.314H257.204C267.589 174.314 276.012 182.737 276.012 193.13Z" fill="#C2AACF"/>
<path d="M356.62 402.84V414.923C356.73 417.363 354.213 418.526 349.517 418.591H139.936C131.561 418.591 119.132 414.287 112.174 408.978L48.701 360.533C45.483 358.079 44.003 355.843 44.164 354.146V341.838H58.572V350.921H260.848C269.223 350.921 281.652 355.225 288.61 360.534L345.526 403.967V402.841H356.62V402.84Z" fill="#9175A7"/>
<path d="M153.451 384.755C153.451 396.573 151.569 407.94 148.077 418.591H139.936C131.561 418.591 119.132 414.287 112.174 408.978L48.701 360.533C45.483 358.079 44.003 355.843 44.164 354.146V341.838H58.572V350.921H148.077C151.568 361.571 153.451 372.938 153.451 384.755Z" fill="#6C53A2"/>
<path d="M356.62 402.84V414.923C356.63 415.063 356.625 415.2 356.62 415.333C356.451 417.328 354.038 418.591 349.517 418.591H230.327C208.325 402.646 192.541 378.649 187.288 350.919H260.849C269.224 350.919 281.653 355.223 288.611 360.532L345.527 403.965V402.839H356.62V402.84Z" fill="#A583BB"/>
<path d="M349.516 406.283H139.936C131.561 406.283 119.132 401.979 112.174 396.67L48.701 348.225C41.742 342.916 42.893 338.612 51.267 338.612H260.848C269.223 338.612 281.652 342.916 288.61 348.225L306.55 361.917L352.083 396.67C359.041 401.979 357.891 406.283 349.516 406.283Z" fill="#C2AACF"/>
<path d="M352.083 396.67C339.325 386.932 300.694 357.448 288.61 348.225C281.651 342.915 269.222 338.612 260.848 338.612H185.67C187.593 364.862 198.839 388.513 216.103 406.284H349.516C357.891 406.283 359.041 401.979 352.083 396.67Z" fill="#DECEE5"/>
<path d="M153.451 384.755C153.451 392.124 152.719 399.324 151.319 406.283H139.936C131.561 406.283 119.132 401.979 112.174 396.67L48.701 348.225C41.742 342.916 42.893 338.612 51.267 338.612H143.194C149.774 352.617 153.451 368.256 153.451 384.755Z" fill="#A583BB"/>
<path d="M306.55 361.916C274.815 373.468 201.014 366.982 199.298 338.611H260.848C269.223 338.611 281.652 342.915 288.61 348.224L306.55 361.916Z" fill="white"/>
<path d="M267.967 199.462V305.419C267.967 314.863 260.308 322.522 250.864 322.522H61.25C51.806 322.522 44.147 314.863 44.147 305.419V199.462C44.147 196.373 44.968 193.477 46.408 190.975C49.344 185.826 54.895 182.359 61.25 182.359H250.864C260.309 182.359 267.967 190.017 267.967 199.462Z" fill="white"/>
<path d="M163.562 324.933H148.556C141.117 325.161 141.111 335.966 148.556 336.196H163.562C171.001 335.968 171.007 325.163 163.562 324.933Z" fill="#6C53A2"/>
<path d="M131.674 351.957H110.87L110.548 351.708L105.279 347.686C104.354 346.986 104.853 345.514 106.011 345.514H126.807L127.129 345.763L131.031 348.74H131.039L132.407 349.786C133.323 350.485 132.824 351.957 131.674 351.957Z" fill="#3E4E60"/>
<path d="M116.115 365.77H96.173L95.859 365.529C95.851 365.529 95.851 365.521 95.843 365.521L88.297 359.761C87.372 359.061 87.871 357.589 89.029 357.589H108.972L109.294 357.838L115.48 362.552L116.848 363.598C117.765 364.306 117.266 365.77 116.115 365.77Z" fill="#3E4E60"/>
<path d="M165.325 351.957H144.529L144.207 351.708L138.938 347.686C138.013 346.986 138.512 345.514 139.67 345.514H160.466L160.788 345.763L164.69 348.74C164.717 348.763 166.223 349.896 166.178 349.882C166.934 350.614 166.435 351.957 165.325 351.957Z" fill="#3E4E60"/>
<path d="M232.643 351.957H211.847L211.525 351.708L206.248 347.686C205.331 346.986 205.83 345.514 206.98 345.514H227.784L228.106 345.763L232.008 348.74L233.376 349.786C234.3 350.485 233.801 351.957 232.643 351.957Z" fill="#3E4E60"/>
<path d="M198.984 351.957H178.188L177.866 351.708L172.589 347.686C171.691 347.015 172.15 345.51 173.329 345.514H194.125L194.447 345.763L198.349 348.74L199.717 349.786C200.641 350.485 200.142 351.957 198.984 351.957Z" fill="#3E4E60"/>
<path d="M170.015 381.224H149.219L148.929 380.999C148.91 381.026 139.216 373.569 139.195 373.574C138.278 372.874 138.777 371.402 139.935 371.402H160.731L161.053 371.651L169.379 378.006H169.387C169.414 378.029 170.909 379.162 170.867 379.148C171.624 379.888 171.125 381.224 170.015 381.224Z" fill="#3E4E60"/>
<path d="M270.992 381.224H250.196L249.955 381.039C249.947 381.039 249.947 381.031 249.939 381.031C249.301 380.564 240.468 373.793 240.173 373.574C239.248 372.874 239.747 371.402 240.905 371.402H261.7L262.014 371.643C262.022 371.643 262.022 371.651 262.03 371.651L270.356 378.006L271.724 379.052C272.649 379.76 272.151 381.224 270.992 381.224Z" fill="#3E4E60"/>
<path d="M203.674 381.224H182.878L182.588 380.999C182.569 381.026 172.875 373.569 172.854 373.574C171.937 372.874 172.428 371.402 173.586 371.402H194.382L194.696 371.643C194.704 371.643 194.704 371.651 194.712 371.651L203.038 378.006L204.406 379.052C205.331 379.76 204.832 381.224 203.674 381.224Z" fill="#3E4E60"/>
<path d="M237.333 381.224H216.537L216.247 380.999C216.228 381.026 206.534 373.569 206.513 373.574C205.596 372.874 206.087 371.402 207.245 371.402H228.041L228.355 371.643C228.363 371.643 228.363 371.651 228.371 371.651L236.697 378.006L238.065 379.052C238.99 379.76 238.491 381.224 237.333 381.224Z" fill="#3E4E60"/>
<path d="M98.015 351.957H78.233C78.112 351.844 78 351.732 77.895 351.619C77.591 351.339 77.335 351.014 77.074 350.702V350.694C74.061 346.868 78.226 345.381 81.7 345.513H93.148L93.462 345.754C93.47 345.754 93.47 345.762 93.478 345.762L97.38 348.739L98.748 349.785C99.664 350.485 99.173 351.957 98.015 351.957Z" fill="#3E4E60"/>
<path d="M136.364 381.224H128.488C120.818 380.959 112.682 378.083 106.397 373.574C105.472 372.874 105.971 371.402 107.129 371.402H127.072L127.394 371.651L135.728 378.006L137.096 379.052C138.013 379.76 137.514 381.224 136.364 381.224Z" fill="#3E4E60"/>
<path d="M264.13 351.957H245.507L245.193 351.716C245.185 351.716 245.185 351.708 245.177 351.708L239.908 347.686C238.991 346.986 239.482 345.514 240.64 345.514C243.47 345.572 249.781 345.31 252.49 345.852C256.682 346.518 260.781 347.858 264.629 349.649C265.811 350.195 265.433 351.957 264.13 351.957Z" fill="#3E4E60"/>
<path d="M300.959 378.649C300.916 379.28 300.536 379.819 300.034 380.178C300.034 380.178 300.026 380.178 300.026 380.186C298.65 381.095 296.917 381.194 295.304 381.224H283.856L283.615 381.039C283.607 381.039 283.607 381.031 283.599 381.031C282.961 380.564 274.128 373.793 273.833 373.574C272.908 372.874 273.407 371.402 274.565 371.402H294.508C296.836 373.242 301.195 375.995 300.959 378.649Z" fill="#3E4E60"/>
<path d="M149.766 365.77H128.97L128.648 365.521L121.094 359.761C121.054 359.729 121.014 359.697 120.981 359.664C120.225 358.932 120.724 357.589 121.834 357.589H142.63L142.952 357.838L149.13 362.552H149.138C149.165 362.575 150.66 363.708 150.618 363.694C151.375 364.434 150.877 365.77 149.766 365.77Z" fill="#3E4E60"/>
<path d="M250.744 365.77H229.948L229.634 365.529C229.626 365.529 229.626 365.521 229.618 365.521L222.072 359.761C221.147 359.061 221.646 357.589 222.804 357.589H243.6L243.914 357.83C243.922 357.83 243.922 357.838 243.93 357.838L250.108 362.552L251.476 363.598C252.401 364.306 251.902 365.77 250.744 365.77Z" fill="#3E4E60"/>
<path d="M183.425 365.77H162.63L162.308 365.521L154.754 359.761C153.837 359.061 154.336 357.589 155.494 357.589H176.29L176.612 357.838L182.79 362.552L184.158 363.598C185.083 364.306 184.584 365.77 183.425 365.77Z" fill="#3E4E60"/>
<path d="M217.085 365.77H196.289L195.967 365.521L188.413 359.761C187.496 359.061 187.987 357.589 189.145 357.589H209.941L210.255 357.83C210.263 357.83 210.263 357.838 210.271 357.838L216.449 362.552L217.817 363.598C218.742 364.306 218.243 365.77 217.085 365.77Z" fill="#3E4E60"/>
<path d="M283.542 365.77H263.607L263.293 365.529C263.285 365.529 263.285 365.521 263.277 365.521L255.731 359.761C254.806 359.061 255.305 357.589 256.463 357.589H276.406L276.728 357.838L282.914 362.552L284.282 363.598C285.199 364.306 284.7 365.77 283.542 365.77Z" fill="#3E4E60"/>
<path d="M131.03 348.739H114.498C114.233 348.739 113.975 348.65 113.766 348.49L109.864 345.513H126.806L127.128 345.762L131.03 348.739Z" fill="#3F5D77"/>
<path d="M115.48 362.552H99.801C99.536 362.552 99.278 362.464 99.061 362.303L92.883 357.589H108.972L109.294 357.838L115.48 362.552Z" fill="#3F5D77"/>
<path d="M164.689 348.739H148.157C147.891 348.739 147.634 348.65 147.425 348.49L143.523 345.513H160.465L160.787 345.762L164.689 348.739Z" fill="#3F5D77"/>
<path d="M232.007 348.739H215.475C215.21 348.739 214.952 348.65 214.743 348.49L210.841 345.513H227.783L228.105 345.762L232.007 348.739Z" fill="#3F5D77"/>
<path d="M198.348 348.739H181.816C181.551 348.739 181.293 348.65 181.084 348.49L177.182 345.513H194.124L194.446 345.762L198.348 348.739Z" fill="#3F5D77"/>
<path d="M169.379 378.006H152.847C152.582 378.006 152.324 377.926 152.115 377.765L143.781 371.402H160.731L161.053 371.651L169.379 378.006Z" fill="#3F5D77"/>
<path d="M270.357 378.006H253.825C253.56 378.006 253.302 377.926 253.085 377.765L244.759 371.402H261.7L262.014 371.643C262.022 371.643 262.022 371.651 262.03 371.651L270.357 378.006Z" fill="#3F5D77"/>
<path d="M203.038 378.006H186.506C186.241 378.006 185.983 377.926 185.774 377.765L177.44 371.402H194.382L194.696 371.643C194.704 371.643 194.704 371.651 194.712 371.651L203.038 378.006Z" fill="#3F5D77"/>
<path d="M236.698 378.006H220.166C219.901 378.006 219.643 377.926 219.434 377.765L211.1 371.402H228.042L228.356 371.643C228.364 371.643 228.364 371.651 228.372 371.651L236.698 378.006Z" fill="#3F5D77"/>
<path d="M97.379 348.739H81.95C80.622 348.609 79.558 346.407 79.352 345.69C80.766 345.342 91.47 345.578 93.149 345.513L93.463 345.754C93.471 345.754 93.471 345.762 93.479 345.762L97.379 348.739Z" fill="#3F5D77"/>
<path d="M135.728 378.006H131.706C125.414 378.004 116.572 375.011 111.104 371.401H127.073L127.395 371.65L135.728 378.006Z" fill="#3F5D77"/>
<path d="M262.569 348.739H249.134C248.869 348.739 248.611 348.65 248.394 348.49L244.492 345.513C245.347 345.528 248.804 345.479 249.584 345.545C254.05 345.805 258.431 347.069 262.569 348.739Z" fill="#3F5D77"/>
<path d="M300.886 377.829C299.466 378.169 289.162 377.946 287.484 378.006C287.219 378.006 286.961 377.926 286.744 377.765L278.418 371.402H294.507C296.553 372.927 300.637 375.871 300.886 377.829Z" fill="#3F5D77"/>
<path d="M149.131 362.552H132.599C132.334 362.552 132.076 362.464 131.867 362.303L125.681 357.589H142.631L142.953 357.838L149.131 362.552Z" fill="#3F5D77"/>
<path d="M250.108 362.552H233.576C233.311 362.552 233.053 362.464 232.836 362.303L226.658 357.589H243.6L243.914 357.83C243.922 357.83 243.922 357.838 243.93 357.838L250.108 362.552Z" fill="#3F5D77"/>
<path d="M182.79 362.552H166.258C165.993 362.552 165.735 362.464 165.526 362.303L159.34 357.589H176.29L176.612 357.838L182.79 362.552Z" fill="#3F5D77"/>
<path d="M216.449 362.552H199.917C199.652 362.552 199.394 362.464 199.185 362.303L192.999 357.589H209.941L210.255 357.83C210.263 357.83 210.263 357.838 210.271 357.838L216.449 362.552Z" fill="#3F5D77"/>
<path d="M282.914 362.552H267.235C266.969 362.552 266.712 362.464 266.495 362.303L260.317 357.589H276.406L276.728 357.838L282.914 362.552Z" fill="#3F5D77"/>
<path d="M264.379 399.855H193.851C191.035 399.855 186.852 398.407 184.511 396.613C182.157 394.835 175.629 389.827 173.208 387.989C170.867 386.203 171.253 384.755 174.069 384.755H244.597C247.413 384.755 251.596 386.203 253.937 387.989L265.248 396.613C267.136 397.961 267.656 399.856 264.379 399.855Z" fill="#3F5D77"/>
<path d="M264.379 399.855H193.851C191.035 399.855 186.852 398.407 184.511 396.613L181.028 393.958C180.602 392.969 181.39 392.301 183.313 392.301H253.833C256.657 392.301 260.84 393.749 263.181 395.535L266.656 398.19C267.09 399.18 266.294 399.855 264.379 399.855Z" fill="#3E4E60"/>
<path d="M236.407 182.359H184.479C179.177 182.201 179.15 174.481 184.479 174.314H236.407C241.708 174.472 241.736 182.193 236.407 182.359Z" fill="white"/>
<path d="M333.736 396.114H282.898C276.192 396.315 276.166 406.073 282.898 406.283H333.736C340.442 406.081 340.468 396.324 333.736 396.114Z" fill="white"/>
<path d="M221.308 237.404H206.739C203.903 237.404 201.604 239.703 201.604 242.539V257.108C201.604 259.944 203.903 262.243 206.739 262.243H221.308C224.144 262.243 226.443 259.944 226.443 257.108V242.54C226.443 239.704 224.144 237.404 221.308 237.404Z" fill="#EBD9EA"/>
<path d="M237.734 260.866C232.375 258.046 231.322 250.093 234.001 245.065C236.925 239.286 245.09 238.162 250.337 241.444C252.73 242.681 251.927 247.023 249.047 245.752C243.825 242.315 238.22 243.887 238.334 250.954C238.334 253.178 238.83 254.889 239.823 256.087C241.072 257.766 243.993 258.327 246.047 257.556C247.621 257.183 249.82 254.726 251.314 256.467C253.198 259.371 249.647 261.065 247.181 261.734C244.144 262.609 240.358 262.381 237.734 260.866Z" fill="#6C53A2"/>
<path d="M80.015 237.404H65.446C62.61 237.404 60.311 239.703 60.311 242.539V257.108C60.311 259.944 62.61 262.243 65.446 262.243H80.015C82.851 262.243 85.15 259.944 85.15 257.108V242.54C85.15 239.704 82.851 237.404 80.015 237.404Z" fill="#EBD9EA"/>
<path d="M108.312 240.756C109.779 242.254 110.511 244.529 110.511 247.578V258.426C110.511 259.225 110.274 259.855 109.8 260.314C108.284 261.772 105.046 260.832 105.222 258.426V257.446C102.463 263.855 91.1 261.328 91.308 254.335C91.324 247.413 99.451 248.122 105.222 247.936C105.815 241.056 100.054 242.34 95.488 244.203C93.733 245.306 92.001 244.718 91.976 242.691C92.1 240.177 95.15 239.657 97.333 239.001C100.879 238.116 106.126 238.297 108.312 240.756ZM103.823 255.648C104.997 254.496 105.325 252.622 105.223 250.87C102.278 250.972 99.382 250.629 97.444 252.071C96.327 253.088 96.593 255.288 97.733 256.224C99.386 257.765 102.428 257.227 103.823 255.648Z" fill="#6C53A2"/>
<path d="M147.991 237.404H133.422C130.586 237.404 128.287 239.703 128.287 242.539V257.108C128.287 259.944 130.586 262.243 133.422 262.243H147.991C150.827 262.243 153.126 259.944 153.126 257.108V242.54C153.126 239.704 150.827 237.404 147.991 237.404Z" fill="#EBD9EA"/>
<path d="M179.205 243.152C185.5 247.184 185.389 258.904 179.183 262.975C175.472 265.455 169.299 264.73 167.159 260.53V261.641C167.178 263.262 166.008 264.283 164.404 264.264C162.79 264.284 161.677 263.259 161.691 261.641V235.061C161.523 231.731 167.386 231.583 167.247 234.974V245.464C169.41 241.354 175.578 240.807 179.205 243.152ZM176.805 258.218C178.728 256.03 178.787 250.042 176.828 247.862C175.083 245.49 170.337 245.487 168.604 247.884C166.671 250.044 166.683 256.097 168.604 258.266C170.361 260.696 175.049 260.706 176.805 258.218Z" fill="#6C53A2"/>
<path d="M329.198 279.119C333.254 279.119 337.228 277.138 339.615 273.491L379.722 212.196C388.201 198.061 368.508 185.125 358.911 198.579L318.805 259.874C313.344 267.95 319.525 279.271 329.198 279.119Z" fill="#EBD9EA"/>
<path d="M503.99 192.23C500.432 214.955 480.801 232.25 457.16 232.25H336.88C310.632 232.155 289.619 210.771 289.65 184.84V107.18C289.65 96.22 293.36 86.15 299.6 78.12C308.27 66.95 321.82 59.77 337.06 59.77H420.41C461.055 93.755 490.815 140.541 503.99 192.23Z" fill="#EBD9EA"/>
<path d="M503.99 192.23C502.73 200.31 499.43 207.71 494.62 213.9C488.38 205.87 484.67 195.79 484.67 184.84V140.81C492.87 157.04 499.38 174.25 503.99 192.23Z" fill="white"/>
<path d="M309.546 107.177V184.838C309.546 195.793 305.835 205.869 299.603 213.903C293.362 205.869 289.651 195.793 289.651 184.838V107.177C289.651 96.2221 293.362 86.1461 299.603 78.1211C305.836 86.1471 309.546 96.2231 309.546 107.177Z" fill="#C1B7D3"/>
<path d="M395.981 174.554C388.233 174.543 383.858 178.439 383.878 186.244C383.841 193.775 388.465 197.983 395.981 197.936C403.321 198.008 407.995 193.551 407.95 186.244C407.99 178.694 403.484 174.52 395.981 174.554Z" fill="#E9465E"/>
<path d="M422.563 100.898C416.992 96.3581 409.485 94.0891 400.04 94.0891C388.575 94.0891 384.187 94.8861 373.966 100.616L373.987 100.658C364.179 105.896 371.283 120.317 381.434 115.622L381.463 115.678C390.267 111.185 391.651 111.007 398.529 111.007C402.47 111.007 405.542 111.787 407.743 113.346C409.944 114.905 411.046 117.175 411.046 120.154C410.718 127.674 406.479 130.208 399.215 135.767C390.326 142.511 386.272 147.238 386.08 157.636L386.091 157.637C386.295 169.259 402.806 170.114 404.22 158.595L404.305 158.599C404.498 151.272 407.52 150.014 414.412 144.5C420.833 139.917 425.188 135.791 427.48 132.121C433.356 122.797 431.761 107.676 422.563 100.898Z" fill="#E9465E"/>
</svg>
