<svg width="267" height="201" viewBox="0 0 267 201" fill="none" xmlns="http://www.w3.org/2000/svg">
<g clip-path="url(#clip0)">
<path d="M118.158 153.322L105.59 129.355L103.599 132.467" stroke="#FF5061" stroke-width="3" stroke-linecap="round" stroke-linejoin="round"/>
<path d="M148.192 153.322L160.76 129.355L162.272 131.719" stroke="#FF5061" stroke-width="3" stroke-linecap="round" stroke-linejoin="round"/>
<path d="M249.803 35.2552L223.045 8.57114C220.342 5.87506 215.958 5.87506 213.255 8.57114L186.105 35.6457C183.401 38.3418 183.401 42.713 186.105 45.4091L212.863 72.0932C215.567 74.7892 219.95 74.7892 222.654 72.0932L249.803 45.0186C252.507 42.3225 252.507 37.9513 249.803 35.2552Z" fill="#FFEDC5"/>
<path d="M256.107 35.4514L222.849 2.28598C220.146 -0.410097 215.762 -0.410097 213.059 2.28598L179.801 35.4514C177.098 38.1475 177.098 42.5187 179.801 45.2148L213.059 78.3802C215.762 81.0763 220.146 81.0763 222.849 78.3802L256.107 45.2148C258.81 42.5187 258.81 38.1475 256.107 35.4514Z" stroke="#FFCD52" stroke-linecap="round" stroke-linejoin="round"/>
<path d="M69.7341 91.9866L54.4512 57.4641C52.907 53.9761 48.8198 52.3967 45.3221 53.9366L10.1972 69.4003C6.6995 70.9402 5.11581 75.0161 6.65995 78.5042L21.9428 113.027C23.487 116.515 27.5742 118.094 31.0719 116.554L66.1968 101.09C69.6945 99.5506 71.2782 95.4746 69.7341 91.9866Z" fill="#F2D7DB"/>
<path d="M75.5414 94.4402L56.5464 51.5325C55.0023 48.0444 50.915 46.4651 47.4173 48.005L4.39056 66.9474C0.892837 68.4873 -0.690857 72.5632 0.853283 76.0513L19.8483 118.959C21.3924 122.447 25.4797 124.026 28.9774 122.487L72.0041 103.544C75.5018 102.004 77.0855 97.9283 75.5414 94.4402Z" stroke="#FF5061" stroke-linecap="round" stroke-linejoin="round"/>
<path d="M105.59 36.5742H59.5903V151.107H105.59V36.5742Z" stroke="#FDA01F" stroke-width="4" stroke-linecap="round" stroke-linejoin="round"/>
<path d="M206.558 36.5742H160.558V151.107H206.558V36.5742Z" stroke="#FDA01F" stroke-width="4" stroke-linecap="round" stroke-linejoin="round"/>
<path d="M129.937 11.418C130.223 12.803 130.438 14.2014 130.582 15.608C130.742 17.01 130.837 18.412 130.928 19.814C131.018 21.216 131.045 22.6233 131.034 24.0306C131.045 25.449 130.982 26.867 130.848 28.279C130.562 26.8962 130.349 25.4994 130.209 24.0943C130.044 22.6923 129.948 21.2903 129.863 19.8883C129.778 18.4863 129.746 17.079 129.751 15.6717C129.756 14.2644 129.788 12.8359 129.937 11.418Z" fill="#F46534"/>
<path d="M138.836 19.3883C137.441 19.6803 136.035 19.8715 134.634 20.0255C133.234 20.1795 131.823 20.2858 130.417 20.3707C129.011 20.4557 127.6 20.4929 126.188 20.4822C124.766 20.4923 123.344 20.4303 121.928 20.2964C123.322 20.0092 124.73 19.7929 126.146 19.6485C127.546 19.4892 128.952 19.3936 130.358 19.3086C131.764 19.2236 133.175 19.1865 134.618 19.1971C136.027 19.1904 137.434 19.2542 138.836 19.3883Z" fill="#F46534"/>
<path d="M141.078 21.7402C141.337 22.6631 141.528 23.6039 141.648 24.5548C141.776 25.4948 141.866 26.4401 141.919 27.3854C141.973 28.3307 141.983 29.2759 141.957 30.2265C141.939 31.1842 141.85 32.1392 141.69 33.0836C141.431 32.1609 141.24 31.22 141.121 30.269C140.993 29.329 140.897 28.3891 140.849 27.4438C140.801 26.4985 140.79 25.5479 140.817 24.6026C140.836 23.6435 140.923 22.687 141.078 21.7402Z" fill="#F46534"/>
<path d="M147.074 27.1098C146.148 27.3666 145.205 27.5548 144.252 27.6727C143.309 27.8002 142.361 27.8958 141.413 27.9436C140.465 27.9914 139.517 28.0073 138.564 27.9807C137.604 27.965 136.646 27.878 135.699 27.7205C136.625 27.462 137.568 27.272 138.522 27.1523C139.464 27.0248 140.412 26.9345 141.36 26.8814C142.308 26.8283 143.256 26.823 144.209 26.8496C145.169 26.8656 146.127 26.9525 147.074 27.1098Z" fill="#F46534"/>
<path d="M249.357 88.2031C249.65 89.5945 249.842 90.9965 249.996 92.3932C250.151 93.7899 250.257 95.1972 250.343 96.5992C250.428 98.0011 250.46 99.4084 250.454 100.816C250.449 102.223 250.412 103.636 250.268 105.064C249.982 103.679 249.767 102.281 249.624 100.874C249.464 99.4775 249.363 98.0755 249.277 96.6735C249.192 95.2715 249.16 93.8642 249.171 92.4516C249.161 91.0332 249.223 89.6152 249.357 88.2031Z" fill="#F46534"/>
<path d="M258.277 96.1742C256.882 96.4662 255.482 96.6574 254.076 96.8114C252.67 96.9654 251.269 97.0716 249.858 97.1566C248.447 97.2416 247.046 97.2788 245.63 97.2681C244.208 97.278 242.786 97.216 241.37 97.0823C242.758 96.7974 244.161 96.5829 245.571 96.4397C246.972 96.2804 248.383 96.1795 249.789 96.0945C251.195 96.0095 252.606 95.9777 254.017 95.9883C255.44 95.9782 256.861 96.0403 258.277 96.1742Z" fill="#F46534"/>
<path d="M260.503 98.5273C260.761 99.4504 260.949 100.391 261.068 101.342C261.196 102.282 261.291 103.227 261.339 104.172C261.387 105.118 261.403 106.063 261.377 107.014C261.361 107.971 261.274 108.926 261.116 109.871C260.856 108.948 260.665 108.007 260.546 107.056C260.418 106.116 260.328 105.176 260.28 104.231C260.232 103.286 260.216 102.335 260.242 101.384C260.259 100.427 260.346 99.472 260.503 98.5273Z" fill="#F46534"/>
<path d="M266.494 103.896C265.569 104.153 264.625 104.341 263.672 104.458C262.729 104.586 261.786 104.682 260.839 104.729C259.891 104.777 258.937 104.793 257.99 104.766C257.029 104.751 256.072 104.664 255.125 104.506C256.048 104.247 256.99 104.057 257.942 103.938C258.884 103.811 259.832 103.715 260.78 103.667C261.728 103.619 262.676 103.609 263.629 103.635C264.589 103.651 265.547 103.738 266.494 103.896Z" fill="#F46534"/>
<path d="M19.7039 134.559C18.8283 135.227 17.9105 135.839 16.9561 136.391C16.0135 136.922 15.055 137.453 14.0804 137.952C13.1059 138.451 12.1101 138.887 11.0983 139.306C10.0852 139.733 9.04652 140.097 7.98828 140.395C8.86207 139.726 9.77814 139.114 10.7308 138.563C11.6734 138.032 12.6319 137.501 13.6118 137.001C14.5917 136.502 15.5822 136.067 16.594 135.647C17.6071 135.221 18.6457 134.857 19.7039 134.559Z" fill="#F46534"/>
<path d="M16.7587 143.321C16.086 142.447 15.4688 141.532 14.9108 140.581C14.3783 139.646 13.8457 138.691 13.3451 137.713C12.8446 136.736 12.4026 135.749 11.9872 134.739C11.5544 133.729 11.1897 132.691 10.8955 131.633C11.5711 132.5 12.1901 133.41 12.7487 134.357C13.2812 135.292 13.8138 136.248 14.3144 137.225C14.8149 138.202 15.2516 139.19 15.667 140.199C16.1004 141.214 16.4651 142.257 16.7587 143.321Z" fill="#F46534"/>
<path d="M2.7373 144.914C3.35302 145.649 3.91369 146.428 4.41478 147.245C4.92245 148.053 5.39286 148.876 5.82598 149.715C6.2591 150.554 6.66028 151.412 7.0295 152.29C7.41571 153.17 7.73611 154.077 7.98805 155.004C7.37234 154.269 6.81167 153.49 6.31058 152.673C5.81 151.866 5.33605 151.042 4.89938 150.203C4.4627 149.364 4.04733 148.504 3.67988 147.633C3.30122 146.75 2.98623 145.842 2.7373 144.914Z" fill="#F46534"/>
<path d="M10.411 147.352C9.67489 147.967 8.89342 148.526 8.07323 149.024C7.26379 149.524 6.44369 149.996 5.59697 150.432C4.75025 150.867 3.89287 151.265 3.0142 151.632C2.13174 152.011 1.22213 152.323 0.292969 152.567C1.03006 151.953 1.81143 151.393 2.63078 150.894C3.44022 150.391 4.26564 149.922 5.10704 149.486C5.94844 149.051 6.81114 148.653 7.69514 148.292C8.57597 147.912 9.48375 147.598 10.411 147.352Z" fill="#F46534"/>
<path d="M139.145 179.545L139.331 194.43L141.744 194.399" stroke="#FF5061" stroke-width="3" stroke-linecap="round" stroke-linejoin="round"/>
<path d="M125.768 180.395L126.157 195.275L119.953 195.423" stroke="#FF5061" stroke-width="3" stroke-linecap="round" stroke-linejoin="round"/>
<path d="M17.1796 31.6816H249.198C249.795 31.6816 250.386 31.7989 250.938 32.0269C251.49 32.2548 251.991 32.5888 252.413 33.01C252.836 33.4311 253.171 33.9311 253.399 34.4813C253.628 35.0316 253.745 35.6213 253.745 36.2169V36.9285C253.745 37.5241 253.628 38.1138 253.399 38.664C253.171 39.2143 252.836 39.7142 252.413 40.1354C251.991 40.5565 251.49 40.8906 250.938 41.1185C250.386 41.3464 249.795 41.4637 249.198 41.4637H17.1796C15.8802 41.4637 14.634 40.949 13.7152 40.0327C12.7964 39.1165 12.2803 37.8738 12.2803 36.578C12.2803 35.2822 12.7964 34.0395 13.7152 33.1233C14.634 32.207 15.8802 31.6923 17.1796 31.6923V31.6816Z" fill="#FFCD52"/>
<path d="M34.6092 31.6816H19.48V41.4584H34.6092V31.6816Z" fill="#FDA01F"/>
<path d="M246.54 31.6816H231.411V41.4584H246.54V31.6816Z" fill="#FDA01F"/>
<path d="M110.005 145.807H55.1807V154.24H110.005V145.807Z" fill="#FFCD52"/>
<path d="M210.968 145.807H156.144V154.24H210.968V145.807Z" fill="#FFCD52"/>
<path d="M84.0227 141.984C84.0902 139.573 84.1257 136.183 84.1292 131.814C84.1703 127.917 83.8134 124.025 83.0642 120.2H92.7562L92.5059 121.745C92.2503 123.243 92.0266 125.085 91.8403 127.263C91.4852 131.363 91.3077 135.754 91.3077 140.438V141.915C93.7016 141.793 96.0506 141.22 98.2306 140.226V147.634L96.7875 147.209C95.0257 146.715 93.2214 146.386 91.3983 146.227C91.6042 154.331 92.0959 159.542 92.8734 161.861C93.0384 162.355 93.2408 162.881 93.4751 163.454H80.9447C81.7889 162.191 82.3819 160.777 82.6914 159.291C82.9576 157.894 83.1547 156.636 83.2718 155.441C83.5559 152.492 83.7671 149.305 83.9056 145.882H63.5522C66.2504 140.472 68.306 132.414 69.7189 121.708C70.0855 118.983 70.2776 116.237 70.2941 113.487C70.2941 111.076 70.2249 109.796 70.0811 109.658H81.392C81.2269 110.189 81.0618 110.72 80.8968 111.166L80.3642 112.68C79.9666 113.852 79.5672 115.163 79.166 116.615L74.8259 133.296C74.0946 136.128 73.649 138.098 73.4893 139.206C73.3295 140.314 73.6526 141.065 74.4585 141.458C75.2786 141.856 76.562 142.031 78.298 141.989L84.0227 141.984Z" fill="#0234C1"/>
<path d="M187.275 141.983C187.343 139.572 187.378 136.182 187.382 131.813C187.425 127.916 187.069 124.024 186.317 120.199H196.009L195.764 121.744C195.503 123.242 195.279 125.085 195.093 127.262C194.738 131.362 194.56 135.754 194.56 140.438V141.914C196.954 141.793 199.303 141.22 201.483 140.225V147.633L200.04 147.209C198.278 146.714 196.474 146.385 194.651 146.226C194.864 154.33 195.357 159.542 196.131 161.861C196.296 162.354 196.493 162.88 196.728 163.454H184.213C185.054 162.189 185.645 160.776 185.954 159.29C186.226 157.894 186.418 156.635 186.535 155.44C186.819 152.491 187.03 149.305 187.169 145.881H166.805C169.506 140.471 171.562 132.413 172.971 121.707C173.346 118.993 173.546 116.258 173.568 113.518C173.568 111.107 173.499 109.828 173.36 109.689H184.671C184.506 110.221 184.341 110.752 184.176 111.198L183.643 112.711C183.246 113.883 182.846 115.195 182.445 116.646L178.078 133.295C177.368 136.152 176.917 138.131 176.726 139.232C176.534 140.333 176.855 141.084 177.69 141.484C178.515 141.882 179.793 142.057 181.534 142.015L187.275 141.983Z" fill="#0234C1"/>
<path d="M132.824 185.338C127.328 185.338 123.068 182.294 120.043 176.204C117.274 170.653 115.887 163.369 115.884 154.351C115.884 142.87 118.939 135.421 125.049 132.004C127.437 130.723 130.123 130.093 132.834 130.178C138.66 130.178 143.016 132.449 145.903 136.991C148.491 141.116 149.783 146.902 149.779 154.351C149.779 166.764 147.294 175.677 142.324 181.09C141.142 182.441 139.681 183.52 138.041 184.254C136.401 184.987 134.621 185.357 132.824 185.338ZM125.459 152.312C125.459 171.986 127.914 181.825 132.824 181.828C137.734 181.832 140.188 171.993 140.188 152.312C140.188 142.82 138.902 137.012 136.328 134.888C135.34 134.1 134.104 133.687 132.84 133.725C128.917 133.725 126.579 137.216 125.826 144.197C125.581 146.531 125.459 149.242 125.459 152.333V152.312Z" fill="#0234C1"/>
<path d="M31.9463 32.0498L31.9463 200.586H22.1424L22.1424 32.0498C22.1424 30.754 22.6586 29.5113 23.5774 28.5951C24.4962 27.6788 25.7423 27.1641 27.0417 27.1641C27.6855 27.1634 28.3232 27.2892 28.9182 27.5344C29.5132 27.7797 30.0539 28.1394 30.5094 28.5932C30.9649 29.0469 31.3263 29.5858 31.5728 30.1789C31.8194 30.772 31.9463 31.4077 31.9463 32.0498Z" fill="#FFCD52"/>
<path d="M243.878 31.6876L243.878 200.564H234.074V31.6876C234.074 30.4848 234.553 29.3312 235.406 28.4807C236.259 27.6302 237.416 27.1523 238.622 27.1523H239.335C240.541 27.1538 241.696 27.6322 242.548 28.4826C243.4 29.3329 243.878 30.4857 243.878 31.6876Z" fill="#FFCD52"/>
<path d="M22.1426 49.7118C23.6637 48.9443 25.333 48.5132 27.0365 48.4479C28.7528 48.3505 30.4605 48.7527 31.9518 49.6056C30.3687 49.1259 28.7166 48.9123 27.0632 48.9736C25.4033 49.0649 23.7559 49.3121 22.1426 49.7118Z" fill="#FDA01F"/>
<path d="M22.1426 54.0722C23.6483 53.2782 25.305 52.8095 27.0046 52.6968C28.7167 52.56 30.4326 52.9118 31.9518 53.7111C30.3547 53.2823 28.6976 53.1191 27.0472 53.2279C25.3901 53.3607 23.7484 53.6433 22.1426 54.0722Z" fill="#FDA01F"/>
<path d="M22.1426 80.72C23.6561 79.94 25.3191 79.491 27.0206 79.4029C28.7355 79.2879 30.4474 79.6677 31.9518 80.4969C30.3627 80.0418 28.7089 79.8533 27.0578 79.9393C25.3988 80.0478 23.7533 80.3091 22.1426 80.72Z" fill="#FDA01F"/>
<path d="M22.1426 85.0854C23.6406 84.2799 25.2916 83.7968 26.9886 83.6675C28.6979 83.5015 30.4193 83.8239 31.9518 84.5968C30.3454 84.2019 28.686 84.0656 27.0365 84.1932C25.3822 84.3472 23.7446 84.6458 22.1426 85.0854Z" fill="#FDA01F"/>
<path d="M22.1426 115.861C23.6634 115.092 25.3327 114.659 27.0365 114.592C28.7547 114.504 30.4617 114.913 31.9518 115.771C30.3687 115.291 28.7166 115.077 27.0632 115.139C25.4036 115.222 23.7559 115.464 22.1426 115.861Z" fill="#FDA01F"/>
<path d="M22.1426 120.221C23.6483 119.427 25.305 118.958 27.0046 118.845C28.7127 118.709 30.4245 119.059 31.9411 119.854C30.3432 119.43 28.6866 119.268 27.0365 119.376C25.383 119.51 23.745 119.792 22.1426 120.221Z" fill="#FDA01F"/>
<path d="M22.1426 151.208C23.6434 150.408 25.2964 149.932 26.9939 149.812C28.705 149.658 30.4246 149.993 31.9518 150.778C30.3496 150.369 28.6916 150.22 27.0419 150.337C25.3857 150.479 23.7459 150.771 22.1426 151.208Z" fill="#FDA01F"/>
<path d="M22.1426 155.568C23.6311 154.746 25.2734 154.238 26.9673 154.076C28.6728 153.88 30.3992 154.163 31.9518 154.894C30.3352 154.541 28.6731 154.442 27.0259 154.602C25.3733 154.783 23.7394 155.107 22.1426 155.568Z" fill="#FDA01F"/>
<path d="M22.1426 186.332C23.6516 185.546 25.3105 185.088 27.0099 184.988C28.7217 184.864 30.4332 185.233 31.9411 186.05C30.3485 185.606 28.6931 185.426 27.0419 185.519C25.3874 185.641 23.7476 185.913 22.1426 186.332Z" fill="#FDA01F"/>
<path d="M22.1426 190.692C23.6374 189.883 25.2836 189.392 26.978 189.248C28.6849 189.068 30.4081 189.37 31.9518 190.118C30.3431 189.738 28.6838 189.616 27.0365 189.757C25.3809 189.926 23.7433 190.238 22.1426 190.692Z" fill="#FDA01F"/>
<path d="M234.074 49.7125C235.595 48.9462 237.264 48.5152 238.968 48.4486C240.689 48.3486 242.403 48.7509 243.899 49.6063C242.316 49.1266 240.664 48.913 239.01 48.9743C237.345 49.0653 235.692 49.3125 234.074 49.7125Z" fill="#FDA01F"/>
<path d="M234.074 54.0719C235.58 53.2791 237.236 52.8105 238.936 52.6964C240.646 52.5607 242.36 52.9125 243.878 53.7107C242.28 53.282 240.623 53.1187 238.973 53.2275C237.318 53.361 235.678 53.6436 234.074 54.0719Z" fill="#FDA01F"/>
<path d="M234.074 80.7199C235.588 79.9413 237.251 79.4924 238.952 79.4029C240.664 79.2882 242.374 79.6661 243.878 80.4916C242.287 80.0359 240.631 79.8474 238.978 79.934C237.323 80.0457 235.681 80.3088 234.074 80.7199Z" fill="#FDA01F"/>
<path d="M234.074 85.0865C235.574 84.2815 237.226 83.7986 238.925 83.6686C240.631 83.5047 242.348 83.8269 243.878 84.5979C242.271 84.2029 240.612 84.0667 238.962 84.1943C237.31 84.3493 235.674 84.6479 234.074 85.0865Z" fill="#FDA01F"/>
<path d="M234.074 115.86C235.595 115.092 237.264 114.659 238.968 114.591C240.691 114.5 242.404 114.909 243.899 115.769C242.316 115.29 240.664 115.076 239.01 115.137C237.345 115.221 235.692 115.462 234.074 115.86Z" fill="#FDA01F"/>
<path d="M234.074 120.22C235.58 119.428 237.236 118.959 238.936 118.845C240.646 118.709 242.359 119.059 243.878 119.854C242.28 119.43 240.623 119.268 238.973 119.376C237.318 119.51 235.678 119.792 234.074 120.22Z" fill="#FDA01F"/>
<path d="M234.074 151.208C235.576 150.407 237.231 149.931 238.93 149.811C240.638 149.659 242.354 149.995 243.878 150.777C242.275 150.368 240.617 150.219 238.968 150.337C237.313 150.479 235.675 150.771 234.074 151.208Z" fill="#FDA01F"/>
<path d="M234.074 155.567C235.564 154.746 237.208 154.238 238.904 154.075C240.606 153.881 242.328 154.164 243.878 154.893C242.261 154.54 240.599 154.441 238.952 154.601C237.301 154.783 235.669 155.107 234.074 155.567Z" fill="#FDA01F"/>
<path d="M234.074 186.332C235.585 185.547 237.245 185.089 238.946 184.988C240.658 184.864 242.37 185.233 243.878 186.05C242.283 185.606 240.626 185.426 238.973 185.519C237.319 185.642 235.679 185.914 234.074 186.332Z" fill="#FDA01F"/>
<path d="M234.074 190.691C235.57 189.882 237.218 189.391 238.914 189.246C240.625 189.066 242.352 189.367 243.899 190.117C242.289 189.736 240.627 189.614 238.978 189.756C237.319 189.924 235.678 190.237 234.074 190.691Z" fill="#FDA01F"/>
<path d="M50.335 31.6816C50.9473 32.3278 51.4204 33.0924 51.7249 33.928C52.0474 34.7758 52.2064 35.6767 52.1935 36.5833C52.1785 37.4829 51.998 38.3721 51.661 39.2067C51.5138 39.6135 51.3339 40.0078 51.1231 40.3857C50.8888 40.7574 50.6225 41.1132 50.3563 41.4478C50.5213 41.0389 50.7344 40.6618 50.8888 40.2582C51.0502 39.861 51.1889 39.455 51.3042 39.0421L51.4746 38.4314L51.5811 37.8047C51.6196 37.5959 51.6445 37.3848 51.6556 37.1728C51.6707 36.9695 51.6707 36.7654 51.6556 36.5621C51.6657 35.7169 51.5545 34.8746 51.3255 34.0608C51.1 33.2283 50.767 32.4286 50.335 31.6816Z" fill="#FDA01F"/>
<path d="M55.0159 31.6816C55.6248 32.3295 56.0958 33.0937 56.4005 33.928C56.7231 34.7758 56.8821 35.6767 56.8691 36.5833C56.8543 37.4829 56.6738 38.3722 56.3366 39.2067C56.1767 39.6221 55.9825 40.0235 55.7562 40.4069C55.5218 40.7787 55.2556 41.1345 54.9946 41.469C55.1544 41.0601 55.3727 40.6831 55.5272 40.2795C55.688 39.8815 55.8284 39.4756 55.9479 39.0633L56.113 38.4526L56.2195 37.826C56.2603 37.6193 56.2853 37.4098 56.294 37.1993C56.3162 36.9912 56.3251 36.7819 56.3206 36.5727C56.336 35.7272 56.2247 34.8841 55.9905 34.0714C55.7688 33.2368 55.4413 32.4337 55.0159 31.6816Z" fill="#FDA01F"/>
<path d="M82.1058 31.6816C82.7147 32.3295 83.1857 33.0937 83.4903 33.928C83.8129 34.7758 83.9719 35.6767 83.959 36.5833C83.9441 37.4829 83.7636 38.3722 83.4264 39.2067C83.2665 39.6221 83.0724 40.0235 82.846 40.4069C82.6117 40.7787 82.3507 41.1345 82.0845 41.469C82.2442 41.0601 82.4626 40.6831 82.617 40.2795C82.7802 39.8823 82.9206 39.4763 83.0377 39.0633L83.2028 38.4526L83.3093 37.826C83.3502 37.6193 83.3751 37.4098 83.3838 37.1993C83.3971 36.9907 83.3971 36.7814 83.3838 36.5727C83.3992 35.7272 83.2879 34.8841 83.0537 34.0714C82.8404 33.238 82.5219 32.435 82.1058 31.6816Z" fill="#FDA01F"/>
<path d="M86.8027 31.6816C87.4151 32.3278 87.8881 33.0924 88.1926 33.928C88.8268 35.6265 88.8097 37.4987 88.1447 39.1855C87.9866 39.6007 87.7942 40.0022 87.5696 40.3857C87.3299 40.7574 87.069 41.1132 86.8027 41.4478C86.9678 41.0389 87.1808 40.6618 87.3353 40.2582C87.4944 39.8601 87.633 39.4542 87.7506 39.0421L87.9157 38.4314L88.0222 37.8047C88.0631 37.5981 88.088 37.3886 88.0968 37.1781C88.1207 36.9701 88.1314 36.7608 88.1287 36.5514C88.1388 35.7062 88.0276 34.864 87.7986 34.0502C87.5659 33.2227 87.2315 32.4271 86.8027 31.6816Z" fill="#FDA01F"/>
<path d="M113.871 31.6816C114.483 32.3278 114.956 33.0924 115.261 33.928C115.902 35.6253 115.885 37.5001 115.213 39.1855C115.055 39.6007 114.863 40.0022 114.638 40.3857C114.398 40.7574 114.137 41.1132 113.871 41.4478C114.036 41.0389 114.249 40.6618 114.404 40.2582C114.563 39.8601 114.701 39.4542 114.819 39.0421L114.984 38.4314L115.091 37.8047C115.154 37.3898 115.19 36.9711 115.197 36.5514C115.207 35.7062 115.096 34.864 114.867 34.0502C114.637 33.2219 114.302 32.4261 113.871 31.6816Z" fill="#FDA01F"/>
<path d="M118.546 31.6816C119.159 32.3278 119.632 33.0924 119.936 33.928C120.578 35.6253 120.56 37.5001 119.888 39.1855C119.732 39.6017 119.54 40.0033 119.313 40.3857C119.079 40.7574 118.813 41.1132 118.546 41.4478C118.711 41.0389 118.924 40.6618 119.079 40.2582C119.24 39.861 119.379 39.455 119.494 39.0421L119.665 38.4314L119.771 37.8047C119.807 37.5973 119.832 37.3881 119.846 37.1781C119.859 36.9694 119.859 36.7601 119.846 36.5514C119.861 35.7059 119.75 34.8629 119.516 34.0502C119.296 33.2224 118.97 32.4263 118.546 31.6816Z" fill="#FDA01F"/>
<path d="M145.642 31.6816C146.251 32.3295 146.722 33.0937 147.026 33.928C147.349 34.7758 147.508 35.6767 147.495 36.5833C147.48 37.4829 147.3 38.3722 146.963 39.2067C146.803 39.6221 146.608 40.0235 146.382 40.4069C146.148 40.7787 145.882 41.1345 145.621 41.469C145.78 41.0601 145.999 40.6831 146.153 40.2795C146.314 39.8815 146.454 39.4756 146.574 39.0633L146.739 38.4526L146.845 37.826C146.886 37.6193 146.911 37.4098 146.92 37.1993C146.942 36.9912 146.951 36.7819 146.947 36.5727C146.962 35.7272 146.851 34.8841 146.616 34.0714C146.395 33.2368 146.067 32.4337 145.642 31.6816Z" fill="#FDA01F"/>
<path d="M150.318 31.6816C150.927 32.3295 151.398 33.0937 151.702 33.928C152.027 34.7751 152.186 35.6765 152.171 36.5833C152.159 37.4832 151.978 38.3729 151.638 39.2067C151.481 39.623 151.286 40.0246 151.058 40.4069C150.824 40.7787 150.563 41.1345 150.296 41.469C150.461 41.0601 150.674 40.6831 150.829 40.2795C150.988 39.8814 151.127 39.4755 151.244 39.0633L151.409 38.4526L151.516 37.826C151.565 37.6112 151.597 37.3927 151.612 37.1728C151.634 36.9647 151.643 36.7554 151.638 36.5461C151.653 35.701 151.543 34.8584 151.314 34.0448C151.08 33.2192 150.746 32.4255 150.318 31.6816Z" fill="#FDA01F"/>
<path d="M177.407 31.6816C178.018 32.3292 178.491 33.0934 178.797 33.928C179.431 35.6265 179.414 37.4987 178.749 39.1855C178.591 39.6007 178.399 40.0022 178.174 40.3857C177.934 40.7574 177.673 41.1132 177.407 41.4478C177.572 41.0389 177.785 40.6618 177.94 40.2582C178.099 39.8601 178.237 39.4542 178.355 39.0421L178.52 38.4314L178.627 37.8047C178.692 37.3901 178.726 36.9712 178.728 36.5514C178.742 35.7064 178.633 34.8637 178.403 34.0502C178.17 33.2227 177.836 32.4271 177.407 31.6816Z" fill="#FDA01F"/>
<path d="M182.083 31.6816C182.695 32.3278 183.168 33.0924 183.473 33.928C183.795 34.7758 183.954 35.6767 183.941 36.5833C183.926 37.4829 183.746 38.3721 183.409 39.2067C183.251 39.622 183.058 40.0234 182.834 40.4069C182.599 40.7787 182.333 41.1345 182.067 41.469C182.232 41.0601 182.445 40.6831 182.599 40.2795C182.761 39.8823 182.9 39.4762 183.015 39.0633L183.185 38.4526L183.292 37.826C183.328 37.6188 183.351 37.4095 183.361 37.1993C183.388 36.9916 183.398 36.7821 183.393 36.5727C183.403 35.7275 183.292 34.8852 183.063 34.0714C182.841 33.2358 182.512 32.4324 182.083 31.6816Z" fill="#FDA01F"/>
<path d="M209.173 31.6816C209.785 32.3278 210.258 33.0924 210.563 33.928C211.204 35.6253 211.187 37.5001 210.515 39.1855C210.359 39.6017 210.166 40.0033 209.94 40.3857C209.705 40.7574 209.439 41.1132 209.173 41.4478C209.338 41.0389 209.551 40.6618 209.705 40.2582C209.867 39.861 210.006 39.455 210.121 39.0421L210.291 38.4314L210.398 37.8047C210.434 37.5975 210.457 37.3882 210.467 37.1781C210.493 36.9703 210.504 36.7608 210.499 36.5514C210.511 35.7061 210.4 34.8634 210.169 34.0502C209.941 33.2211 209.606 32.425 209.173 31.6816Z" fill="#FDA01F"/>
<path d="M213.853 31.6816C214.462 32.3295 214.933 33.0937 215.238 33.928C215.563 34.7751 215.722 35.6765 215.707 36.5833C215.692 37.4829 215.511 38.3722 215.174 39.2067C215.018 39.6143 214.829 40.0086 214.61 40.3857C214.375 40.7574 214.114 41.1132 213.848 41.4478C214.008 41.0389 214.226 40.6618 214.381 40.2582C214.544 39.8611 214.684 39.4551 214.801 39.0421L214.966 38.4314L215.073 37.8047C215.112 37.5962 215.135 37.3849 215.142 37.1728C215.164 36.9647 215.173 36.7554 215.169 36.5461C215.184 35.7006 215.073 34.8576 214.839 34.0448C214.611 33.2188 214.28 32.4248 213.853 31.6816Z" fill="#FDA01F"/>
<path d="M73.6543 172.063C74.3234 171.378 75.2312 170.977 76.1892 170.943C79.6453 170.847 81.3494 170.56 81.7381 170.252C82.3878 169.779 80.9553 163.412 80.9553 163.412H93.4644L92.3994 179.057C92.404 179.237 92.3428 179.412 92.2271 179.55C92.1114 179.688 91.9492 179.779 91.771 179.806H73.8993C73.7191 179.81 73.5434 179.749 73.4051 179.634C73.2669 179.519 73.1756 179.357 73.1484 179.179L72.749 174.655C72.7069 174.183 72.7659 173.708 72.922 173.262C73.0781 172.815 73.3277 172.406 73.6543 172.063Z" fill="#FF5061"/>
<path d="M92.6287 174.719L92.5275 176.105L73.0476 177.815L72.957 176.418L92.6287 174.719Z" fill="#FFCD52"/>
<path d="M240.129 200.665C245.917 200.665 250.609 192.558 250.609 182.556C250.609 172.555 245.917 164.447 240.129 164.447C234.341 164.447 229.648 172.555 229.648 182.556C229.648 192.558 234.341 200.665 240.129 200.665Z" fill="white"/>
<path d="M240.129 200.665C245.917 200.665 250.609 192.558 250.609 182.556C250.609 172.555 245.917 164.447 240.129 164.447C234.341 164.447 229.648 172.555 229.648 182.556C229.648 192.558 234.341 200.665 240.129 200.665Z" stroke="#FF5061" stroke-linecap="round" stroke-linejoin="round"/>
<path d="M249.118 190.522C250.609 187.086 249.485 184.983 249.485 182.557C249.485 177.442 247.77 171.654 244.692 168.021C243.864 170.621 243.422 173.329 243.382 176.056C243.404 181.17 246.061 186.89 249.118 190.522Z" fill="#FF5061"/>
<path d="M256.254 194.203C262.042 194.203 266.734 186.095 266.734 176.093C266.734 166.092 262.042 157.984 256.254 157.984C250.466 157.984 245.773 166.092 245.773 176.093C245.773 186.095 250.466 194.203 256.254 194.203Z" fill="white"/>
<path d="M230.522 183.124C230.522 185.148 229.702 186.762 230.825 189.497C235.618 185.663 239.255 179.237 239.255 172.615C239.194 170.282 238.854 167.964 238.243 165.711C233.424 169.508 230.522 176.502 230.522 183.124Z" fill="#FF5061"/>
<path d="M226.906 189.683C232.694 189.683 237.386 181.575 237.386 171.574C237.386 161.573 232.694 153.465 226.906 153.465C221.118 153.465 216.426 161.573 216.426 171.574C216.426 181.575 221.118 189.683 226.906 189.683Z" fill="white"/>
<path d="M240.129 200.664V173.506" stroke="#FF5061" stroke-linecap="round" stroke-linejoin="round"/>
<path d="M240.129 184.145L235.884 179.307" stroke="#FF5061" stroke-linecap="round" stroke-linejoin="round"/>
<path d="M240.129 189.922L234.015 182.949" stroke="#FF5061" stroke-linecap="round" stroke-linejoin="round"/>
<path d="M240.129 195.875L233.813 188.674" stroke="#FF5061" stroke-linecap="round" stroke-linejoin="round"/>
<path d="M240.129 184.155L245.278 178.287" stroke="#FF5061" stroke-linecap="round" stroke-linejoin="round"/>
<path d="M240.129 189.932L246.445 182.73" stroke="#FF5061" stroke-linecap="round" stroke-linejoin="round"/>
<path d="M240.129 195.885L246.445 188.684" stroke="#FF5061" stroke-linecap="round" stroke-linejoin="round"/>
<path d="M226.906 189.683C232.694 189.683 237.386 181.575 237.386 171.574C237.386 161.573 232.694 153.465 226.906 153.465C221.118 153.465 216.426 161.573 216.426 171.574C216.426 181.575 221.118 189.683 226.906 189.683Z" stroke="#439916" stroke-linecap="round" stroke-linejoin="round"/>
<path d="M226.906 162.525V189.684V200.735" stroke="#439916" stroke-linecap="round" stroke-linejoin="round"/>
<path d="M226.906 173.162L221.767 167.305" stroke="#439916" stroke-linecap="round" stroke-linejoin="round"/>
<path d="M226.906 178.939L220.59 171.738" stroke="#439916" stroke-linecap="round" stroke-linejoin="round"/>
<path d="M226.906 184.893L220.59 177.691" stroke="#439916" stroke-linecap="round" stroke-linejoin="round"/>
<path d="M226.906 173.173L232.05 167.305" stroke="#439916" stroke-linecap="round" stroke-linejoin="round"/>
<path d="M226.906 178.949L233.222 171.748" stroke="#439916" stroke-linecap="round" stroke-linejoin="round"/>
<path d="M226.906 184.902L233.222 177.701" stroke="#439916" stroke-linecap="round" stroke-linejoin="round"/>
<path d="M256.254 194.203C262.042 194.203 266.734 186.095 266.734 176.093C266.734 166.092 262.042 157.984 256.254 157.984C250.466 157.984 245.773 166.092 245.773 176.093C245.773 186.095 250.466 194.203 256.254 194.203Z" stroke="#FFCD52" stroke-linecap="round" stroke-linejoin="round"/>
<path d="M256.253 167.043V194.201V200.733" stroke="#FFCD52" stroke-linecap="round" stroke-linejoin="round"/>
<path d="M256.254 177.682L251.115 171.824" stroke="#FFCD52" stroke-linecap="round" stroke-linejoin="round"/>
<path d="M256.253 183.458L249.938 176.252" stroke="#FFCD52" stroke-linecap="round" stroke-linejoin="round"/>
<path d="M256.253 189.412L249.938 182.211" stroke="#FFCD52" stroke-linecap="round" stroke-linejoin="round"/>
<path d="M256.253 177.692L261.403 171.824" stroke="#FFCD52" stroke-linecap="round" stroke-linejoin="round"/>
<path d="M256.253 183.469L262.569 176.268" stroke="#FFCD52" stroke-linecap="round" stroke-linejoin="round"/>
<path d="M256.253 189.422L262.569 182.221" stroke="#FFCD52" stroke-linecap="round" stroke-linejoin="round"/>
<path d="M204.012 172.063C203.343 171.378 202.435 170.977 201.477 170.943C198.027 170.847 196.317 170.56 195.928 170.252C195.279 169.779 196.711 163.412 196.711 163.412H184.202L185.267 179.057C185.263 179.237 185.324 179.412 185.44 179.55C185.555 179.688 185.717 179.779 185.896 179.806H203.773C203.952 179.809 204.126 179.748 204.263 179.632C204.401 179.517 204.491 179.356 204.518 179.179L204.918 174.655C204.96 174.183 204.901 173.708 204.745 173.262C204.589 172.815 204.339 172.406 204.012 172.063Z" fill="#FF5061"/>
<path d="M204.736 176.417L204.619 177.787L185.145 176.077L185.038 174.691L204.736 176.417Z" fill="#FFCD52"/>
<path d="M154.253 192.997C153.586 192.309 152.677 191.907 151.718 191.877C148.262 191.781 146.558 191.494 146.169 191.181C146.11 191.135 146.067 191.072 146.047 191C145.269 188.717 143.384 186.996 140.966 186.996H140.098C139.378 186.997 138.665 187.146 138.005 187.435C137.345 187.723 136.752 188.145 136.263 188.673C135.775 189.201 135.401 189.825 135.166 190.504C134.93 191.183 134.838 191.904 134.895 192.62L135.487 199.991C135.482 200.169 135.543 200.343 135.657 200.48C135.772 200.617 135.933 200.707 136.11 200.735H153.987C154.166 200.737 154.341 200.675 154.479 200.56C154.616 200.445 154.708 200.285 154.738 200.108L155.137 195.583C155.182 195.114 155.126 194.641 154.974 194.195C154.821 193.75 154.576 193.341 154.253 192.997Z" fill="#0234C1"/>
<path d="M154.967 197.342L154.844 198.717L135.263 197.023L135.172 195.643L154.967 197.342Z" fill="#FFCD52"/>
<path d="M110.767 192.997C111.433 192.308 112.342 191.906 113.301 191.877C116.752 191.781 118.462 191.494 118.85 191.181C118.909 191.135 118.952 191.072 118.973 191C119.75 188.717 121.635 186.996 124.053 186.996H124.916C125.637 186.996 126.35 187.145 127.011 187.433C127.671 187.721 128.265 188.143 128.754 188.671C129.243 189.2 129.618 189.823 129.853 190.503C130.089 191.182 130.181 191.903 130.124 192.62L129.533 199.991C129.538 200.176 129.473 200.356 129.35 200.495C129.228 200.634 129.057 200.721 128.873 200.74H110.995C110.817 200.741 110.644 200.679 110.507 200.564C110.37 200.449 110.279 200.289 110.25 200.113L109.851 195.589C109.809 195.116 109.869 194.641 110.027 194.194C110.185 193.747 110.437 193.339 110.767 192.997Z" fill="#0234C1"/>
<path d="M129.805 195.615L129.709 196.996L110.138 198.717L110.021 197.341L129.805 195.615Z" fill="#FFCD52"/>
<path d="M0.947754 200.734H262.324" stroke="#545454" stroke-linecap="round" stroke-linejoin="round"/>
</g>
<defs>
<clipPath id="clip0">
<rect width="267" height="201" fill="white"/>
</clipPath>
</defs>
</svg>
