<svg width="3013" height="2403" viewBox="0 0 3013 2403" fill="none" xmlns="http://www.w3.org/2000/svg">
<path d="M2000.77 2180.65C1651.89 2302.25 1266.99 2261.47 949 2073.35C792.07 1980.51 602.07 1876.9 440.79 1814.44C94.6497 1680.37 -267.21 961.301 283.6 776.071C834.41 590.841 625.97 261.252 1143.83 49.4215C1661.69 -162.408 1541.69 371.002 2089.29 440.592C2636.89 510.182 2634.65 1697 2302.85 2008.15C2219.91 2085.94 2113.59 2141.32 2000.77 2180.65Z" fill="#283593"/>
<path d="M720.28 1414.07C720.28 1414.07 750.78 1549.16 746.1 1605.17C741.5 1660.17 476.01 1732.5 443.22 1725.77C410.43 1719.04 416.32 1395.38 416.32 1395.38L720.28 1414.07Z" fill="#4052F2" stroke="black" stroke-width="4" stroke-miterlimit="10" stroke-linecap="round"/>
<path d="M722.929 1437.14C722.929 1437.14 659.039 1481.14 623.169 1488.59C587.299 1496.04 638.859 1638.42 638.859 1638.42L435.369 1730.71C435.369 1730.71 411.369 1555 421.029 1496.44C430.689 1437.88 719.569 1420.08 719.569 1420.08L722.929 1437.14Z" fill="#0502AB"/>
<path d="M2031.83 2041.87L1711.58 1939.52L2031.83 1840.19V2041.87Z" fill="#0B065A" stroke="black" stroke-width="4" stroke-miterlimit="10" stroke-linecap="round"/>
<path d="M176.72 2060.36L1320.07 2400L2018.4 1962.84C2018.4 1962.84 2032.98 1953.84 2031.86 1974.61C2030.74 1995.38 2031.86 2041.87 2031.86 2041.87L2255.76 1879.62V1802.27C2255.76 1802.27 2252.11 1789.66 2263.32 1782.94C2274.53 1776.22 3003.07 1386.13 3003.07 1386.13L2579.4 1292L294.4 1996.49L176.72 2060.36Z" fill="#0B065A" stroke="black" stroke-width="4" stroke-miterlimit="10" stroke-linecap="round"/>
<path d="M1220.29 1527.93C1184.42 1131.13 1859.21 1048.18 1859.21 1048.18L2800.78 1303.75C2800.78 1303.75 2255.36 1621.23 2210.85 1743.84C2166.34 1866.45 2139.44 1917.26 2139.44 1917.26L1220.29 1527.93Z" fill="white" stroke="black" stroke-width="4" stroke-linecap="round" stroke-linejoin="round"/>
<path d="M1307.72 2352.92L233.419 2029.59L298.899 1884.38L338.219 1853.52L287.219 1836.08C287.219 1836.08 542.899 1443.58 1220.22 1527.93L2054.74 1771.17C2054.74 1771.17 2130.41 1805.17 2139.37 1917.26L2077.07 1964.34C2077.07 1964.34 2041.94 1864.2 1882.77 1960.6C1723.6 2057 1307.72 2352.92 1307.72 2352.92Z" fill="white" stroke="black" stroke-width="4" stroke-linecap="round" stroke-linejoin="round"/>
<path d="M2139.44 1917.26C2139.44 1917.26 2134.96 1671.41 2410.7 1503.26C2686.44 1335.11 2800.78 1303.74 2800.78 1303.74L2947.62 1373.74C2947.62 1373.74 2145.42 1643.32 2217.16 1867.51L2139.44 1917.26Z" fill="white" stroke="black" stroke-width="4" stroke-linecap="round" stroke-linejoin="round"/>
<path d="M1296.52 2179.74C1296.52 2179.74 1652.97 1631.61 2054.81 1771.17L1296.52 2179.74Z" fill="white"/>
<path d="M1296.52 2179.74C1296.52 2179.74 1652.97 1631.61 2054.81 1771.17" stroke="black" stroke-width="4" stroke-linecap="round" stroke-linejoin="round"/>
<path d="M298.899 1884.38L1296.52 2179.74L1307.73 2352.92L233.419 2029.59L298.899 1884.38Z" fill="white" stroke="black" stroke-width="4" stroke-linecap="round" stroke-linejoin="round"/>
<path d="M620.229 951.412C620.229 951.412 634.339 966.542 644.699 992.882C655.059 1019.22 688.649 1026.12 692.859 1035.37C697.069 1044.62 679.689 1050.51 681.159 1062.12C682.789 1074.88 682.629 1105.94 678.309 1114.9C673.989 1123.86 615.839 1148.5 615.839 1148.5C615.839 1148.5 614.439 1193.62 624.529 1211.83C634.619 1230.04 544.269 1277.04 528.129 1234.83C525.129 1227.12 523.649 1128.9 523.649 1128.9C483.289 1128.34 455.009 1080.21 472.079 1049.32C495.619 1006.7 620.229 951.412 620.229 951.412Z" fill="white" stroke="black" stroke-width="4" stroke-linecap="round" stroke-linejoin="round"/>
<path d="M611.959 1189.31C611.959 1189.31 560.029 1219.95 543.209 1189.31C526.389 1158.67 571.979 1089 570.119 1056.31C568.259 1023.62 613.709 993.872 613.709 993.872C613.709 993.872 466.239 1006.25 481.559 1064.53C496.879 1122.81 526.099 1128.8 526.099 1128.8L528.169 1237.9C528.169 1237.9 593.559 1255.14 615.839 1222.98C638.119 1190.82 611.959 1189.31 611.959 1189.31Z" fill="#FCAA23"/>
<path d="M554.38 1063.67C554.1 1062.01 551.67 1032.48 551.67 1032.48C551.67 1032.48 628.45 994.371 644.67 960.191C644.67 960.191 604.32 896.851 544.35 918.711C544.35 918.711 447.949 918.281 428.899 1005.08C409.849 1091.88 481.11 1152.8 481.11 1152.8C481.11 1152.8 419.11 1175.96 425.66 1228.08C432.21 1280.2 546.59 1283.57 507.36 1159.71C507.36 1159.71 518.01 1155.79 523.62 1128.88C523.62 1128.88 490.69 1097.39 508.62 1077.78C531.39 1052.87 545.519 1088.17 545.519 1088.17C545.519 1088.17 557.18 1080.49 554.38 1063.67Z" fill="#0B065A"/>
<path d="M525.23 1192.7C525.23 1192.7 542.14 1221.36 575.23 1218.56C608.32 1215.76 617.13 1181.64 617.13 1181.64C617.13 1181.64 616.699 1169.24 630.709 1168.12C644.719 1167 747.289 1193.43 747.289 1193.43L786.289 1312.15C786.289 1312.15 745.659 1312.15 724.919 1313.83C724.919 1313.83 748.829 1410.61 740.049 1415.28C740.049 1415.28 669.989 1471.88 496.809 1474.13C323.629 1476.38 450.62 1220.32 450.62 1220.32C450.62 1220.32 524.51 1175.28 525.23 1192.7Z" fill="#FCAA23" stroke="black" stroke-width="4" stroke-linecap="round" stroke-linejoin="round"/>
<path d="M702.38 1259.93C702.38 1259.93 710.04 1259.93 722.19 1272.44C734.34 1284.95 767.58 1271.7 767.58 1271.7C767.58 1271.7 756.39 1299.7 724.16 1311.48L702.38 1259.93Z" fill="#EA8B00"/>
<path d="M473.39 1209.88C473.39 1209.88 529.21 1405.88 579.29 1427.97C629.37 1450.06 652.29 1451.04 652.29 1451.04C652.29 1451.04 598.46 1468.4 522.43 1473.27C446.4 1478.14 445.27 1224.27 445.27 1224.27L473.39 1209.88Z" fill="#EA8B00"/>
<path d="M724.85 1313.83C724.85 1313.83 737.46 1363.43 797.71 1359.83C857.96 1356.23 811.91 1236.16 784.63 1201.04C784.63 1201.04 781.46 1142.65 762.12 1131.45C742.78 1120.25 690.28 1081.15 688.04 1086.45C685.8 1091.75 702.38 1113.45 733.82 1133.95C733.82 1133.95 704.11 1158.33 710.82 1170.66C717.53 1182.99 730.99 1204.85 749.21 1205.41C749.21 1205.41 753.13 1262.23 760.7 1286.67C760.72 1286.65 744.19 1309.63 724.85 1313.83Z" fill="white" stroke="black" stroke-width="4" stroke-linecap="round" stroke-linejoin="round"/>
<path d="M760.72 1286.65C760.72 1286.65 765.36 1313.45 792.95 1330.65L760.72 1286.65Z" fill="white"/>
<path d="M760.72 1286.65C760.72 1286.65 765.36 1313.45 792.95 1330.65" stroke="black" stroke-width="4" stroke-linecap="round" stroke-linejoin="round"/>
<path d="M582.119 1158C593.794 1156.64 605.177 1153.42 615.839 1148.47L582.119 1158Z" fill="white"/>
<path d="M582.119 1158C593.794 1156.64 605.177 1153.42 615.839 1148.47" stroke="black" stroke-width="4" stroke-linecap="round" stroke-linejoin="round"/>
<path d="M2062.95 1140.61C2072.05 1130.36 2088.16 1141.72 2081.63 1153.77C2064.29 1185.77 2042.07 1217.31 2020.63 1220.77C2020.63 1220.77 1995.97 1226.37 2016.14 1193.31L2062.95 1140.61Z" fill="#0B065A" stroke="black" stroke-width="4" stroke-miterlimit="10" stroke-linecap="round"/>
<path d="M2219.59 1152.32L2467.59 1048.18C2467.59 1048.18 2554.15 1120.73 2568.59 1186.89C2568.59 1186.89 2531.54 1207.15 2527.9 1208.84L2180.66 1275.84L2219.59 1152.32Z" fill="#0B065A" stroke="black" stroke-width="4" stroke-miterlimit="10" stroke-linecap="round"/>
<path d="M2390.48 1218.88C2390.48 1218.88 2356.9 1211.81 2379.32 1195.94C2401.74 1180.07 2512.71 1138.7 2560.91 1176.39C2609.11 1214.08 2417.34 1228.16 2390.48 1218.88Z" fill="#0B065A" stroke="black" stroke-width="4" stroke-miterlimit="10" stroke-linecap="round"/>
<path d="M2208.19 1256.42C2208.19 1256.42 2295.93 1237.5 2348.68 1222.79L2352.29 1219.17C2381.87 1189.45 2419.75 1169.1 2461.07 1161.9C2482.24 1158.21 2505.84 1157.53 2529.96 1163.18C2548.18 1167.44 2570.62 1206.72 2560.96 1247.45C2551.3 1288.18 2512.38 1338.99 2396.18 1330.45C2279.98 1321.91 2216.84 1289.35 2189.37 1293.09C2161.9 1296.83 2208.19 1256.42 2208.19 1256.42Z" fill="white" stroke="black" stroke-width="4" stroke-linecap="round" stroke-linejoin="round"/>
<path d="M2348.68 1222.79C2348.68 1222.79 2452.46 1199.26 2477.68 1227.56L2348.68 1222.79Z" fill="white"/>
<path d="M2348.68 1222.79C2348.68 1222.79 2452.46 1199.26 2477.68 1227.56" stroke="black" stroke-width="4" stroke-linecap="round" stroke-linejoin="round"/>
<path d="M2169.12 1418.47C2169.12 1418.47 2196.61 1434.33 2202.77 1437.47C2208.93 1440.61 2212.3 1440.83 2213.14 1443.63" stroke="white" stroke-miterlimit="10"/>
<path d="M2183.72 1410.79C2183.72 1410.79 2220.34 1439 2237.99 1440.68" stroke="white" stroke-miterlimit="10"/>
<path d="M2203.62 1408.83C2203.62 1408.83 2226.47 1428.3 2244.25 1432" stroke="white" stroke-miterlimit="10"/>
<path d="M2139.44 859.862C2139.44 859.862 2221.27 838.862 2333.92 906.102C2446.57 973.342 2476.84 1048.18 2476.84 1048.18C2476.84 1048.18 2387.3 1196 2274.07 1160.77C2274.07 1160.77 2179.25 1165.62 2150.97 1127.35L1919.79 1035.85C1919.79 1035.85 1913.07 982.042 1874.4 971.402C1835.73 960.762 1961.83 901.342 1961.83 901.342L2139.44 859.862Z" fill="#FCAA23" stroke="black" stroke-width="4" stroke-linecap="round" stroke-linejoin="round"/>
<path d="M2302.67 1055.55C2302.67 1055.55 2307.53 1051.38 2307.53 1078.13C2307.53 1104.88 2338.53 1164.65 2402.06 1127.28C2402.06 1127.28 2343.06 1180.14 2278.2 1159.03L2302.67 1055.55Z" fill="#EA8B00"/>
<path d="M2153.97 993.252C2153.97 993.252 2152.85 986.802 2134.16 1009.25C2115.47 1031.7 2017.22 1028.31 2017.22 1028.31C2017.22 1028.31 2064.29 1171.74 2117.35 1162.05C2170.41 1152.36 2178.25 1042.68 2153.97 993.252Z" fill="#EA8B00"/>
<path d="M1967.15 992.401C1967.15 992.401 1963.6 986.801 1953.15 999.691C1942.7 1012.58 1911.3 999.691 1911.3 999.691C1911.3 999.691 1931.1 1029.58 1924.19 1054.05C1917.28 1078.52 1981.54 1019.68 1981.54 1019.68C1981.54 1019.68 1968.27 998.001 1967.15 992.401Z" fill="#EA8B00"/>
<path d="M2118.71 1412.1C2118.71 1412.1 2121.35 1418.22 2129.65 1422.35" stroke="white" stroke-miterlimit="10"/>
<path d="M2060.93 1229.79C2041.27 1228.14 1997.09 1155.22 1997.09 1155.22C1978.59 1188.85 1870.42 1268.44 1846.88 1280.22C1839.11 1284.1 1834.88 1289.59 1832.67 1295.66C1828.17 1307.98 1831.95 1322.77 1831.19 1331.78C1830.07 1345.23 1850.24 1344.11 1792.52 1368.78C1734.8 1393.45 1698.36 1400.78 1675.38 1378.31C1654.77 1358.18 1741.13 1314.59 1778.1 1278.71C1781.96 1275.07 1785.48 1271.07 1788.6 1266.77C1814.94 1229.23 1898.72 1036.99 1958.14 1016.25C2017.56 995.511 2109.83 1093.25 2109.83 1093.25C2118.9 1128.85 2080.6 1231.44 2060.93 1229.79Z" fill="white" stroke="black" stroke-width="4" stroke-linecap="round" stroke-linejoin="round"/>
<path d="M1960.42 1190.43C1960.42 1190.43 1837.29 1259.43 1827.31 1275.81C1817.33 1292.19 1775.1 1293.55 1775.1 1293.55C1775.1 1293.55 1762.39 1329.42 1827.78 1322.7C1827.78 1322.7 1824.37 1289.62 1843.43 1279.7C1862.49 1269.78 1936.07 1218.55 1960.42 1190.43Z" fill="#FCAA23"/>
<path d="M2024.31 1086.43C2024.31 1086.43 2029.17 1086.18 2027.68 1103.75C2026.19 1121.32 2046.25 1156.75 2083.14 1137.37C2091.02 1132.66 2098.2 1126.86 2104.46 1120.14C2113.15 1110.41 2114.27 1168.06 2114.27 1168.06C2114.27 1168.06 2044.35 1214.72 2041.69 1214.72C2026.58 1195.63 2012.45 1175.77 1999.37 1155.23C1999.37 1155.23 2017.07 1119.56 2024.31 1086.43Z" fill="#FCAA23"/>
<path d="M2009.85 1218.56C2009.85 1218.56 2059.93 1255.91 2094.05 1268.44C2139.44 1285.11 2203.62 1160.77 2203.62 1160.77C2203.62 1160.77 2155.62 1123.28 2120.93 1090.49C2120.28 1089.87 2119.47 1089.45 2118.6 1089.26C2117.72 1089.07 2116.81 1089.13 2115.96 1089.43C2115.12 1089.72 2114.37 1090.25 2113.8 1090.95C2113.24 1091.64 2112.88 1092.48 2112.76 1093.37C2109.23 1120.08 2092.12 1193.38 2009.85 1218.56Z" fill="#0B065A" stroke="black" stroke-width="4" stroke-miterlimit="10" stroke-linecap="round"/>
<path d="M2159.07 1250.81C2159.07 1250.81 2138.36 1235.49 2115.57 1244.81C2092.78 1254.13 2030.01 1283.29 2022.57 1300.1C2015.13 1316.91 2006.51 1349.05 2038.64 1348.3C2070.77 1347.55 2159.07 1302.75 2159.07 1302.75V1250.81Z" fill="#4052F2" stroke="black" stroke-width="4" stroke-miterlimit="10" stroke-linecap="round"/>
<path d="M1997.07 1155.23C1997.07 1155.23 2020.98 1116.23 2022.47 1083.67L1997.07 1155.23Z" fill="white"/>
<path d="M1997.07 1155.23C1997.07 1155.23 2020.98 1116.23 2022.47 1083.67" stroke="black" stroke-width="4" stroke-linecap="round" stroke-linejoin="round"/>
<path d="M1792.52 1368.76C1734.79 1393.42 1698.36 1400.76 1675.38 1378.29C1654.77 1358.16 1741.13 1314.57 1778.1 1278.69C1777.82 1279.52 1768.73 1306.99 1832.67 1295.69C1828.17 1308.01 1831.95 1322.8 1831.19 1331.81C1830.07 1345.22 1850.24 1344.1 1792.52 1368.76Z" fill="#4052F2" stroke="black" stroke-width="4" stroke-miterlimit="10" stroke-linecap="round"/>
<path d="M226.862 728.329L154.574 756.382C142.217 761.177 136.088 775.082 140.883 787.439L167.113 855.028C171.908 867.385 185.813 873.515 198.17 868.719L270.457 840.666C282.814 835.871 288.944 821.966 284.149 809.609L257.919 742.02C253.124 729.663 239.219 723.534 226.862 728.329Z" fill="white" stroke="black" stroke-width="4" stroke-linecap="round" stroke-linejoin="round"/>
<path d="M507.58 1631.45L506.69 1631.79L506.56 1631.89L506.89 1631.77L507.08 1631.69L507.58 1631.45Z" fill="#FBF4E9"/>
<path d="M489.349 1651.67C491.864 1651.06 494.24 1649.97 496.349 1648.47C501.159 1645.09 504.939 1639.47 506.989 1631.81H506.859L506.529 1631.94L506.659 1631.84L212.519 881.701L173.999 896.801L468.149 1646.95H468.399C475.649 1651.68 482.959 1653.19 489.349 1651.67Z" fill="#FCAA23" stroke="black" stroke-width="4" stroke-linecap="round" stroke-linejoin="round"/>
<path d="M507.579 1631.45L507.079 1631.69L506.889 1631.76H507.019C517.318 1636.24 528.969 1636.45 539.429 1632.37L539.339 1632.14L539.489 1632.35C544.687 1630.32 549.434 1627.29 553.459 1623.43C557.484 1619.56 560.709 1614.94 562.949 1609.83L563.009 1609.7L562.829 1609.78L562.369 1609.91L563.179 1609.59L269.069 859.501L240.909 870.501L240.749 870.562L212.589 881.611L506.729 1631.75L507.579 1631.45Z" fill="white" stroke="black" stroke-width="4" stroke-linecap="round" stroke-linejoin="round"/>
<path d="M562.829 1609.83L563.009 1609.75L563.349 1609.62L563.179 1609.64L562.369 1609.96L562.829 1609.83Z" fill="#FAEEDD"/>
<path d="M586.739 1753.07L586.899 1753.01L605.459 1745.72L601.699 1594.54L601.489 1594.69C599.879 1604.44 594.279 1611.12 586.879 1613.81C586.529 1613.94 586.169 1614.03 585.809 1614.15C585.449 1614.27 585.019 1614.41 584.609 1614.51L584.279 1614.57C577.819 1616.02 570.279 1614.66 562.949 1609.88C560.709 1614.99 557.485 1619.61 553.459 1623.48C549.434 1627.34 544.687 1630.37 539.489 1632.4L539.339 1632.19L539.429 1632.42C528.969 1636.5 517.318 1636.29 507.019 1631.81C505.019 1639.49 501.189 1645.09 496.379 1648.47C494.375 1650.15 491.957 1651.25 489.379 1651.67C482.989 1653.19 475.679 1651.67 468.459 1646.86H468.209L568.209 1760.31L586.739 1753.07Z" fill="white" stroke="black" stroke-width="4" stroke-linecap="round" stroke-linejoin="round"/>
<path d="M606.92 1804.29L607.08 1804.47L606.91 1804.04L605.46 1745.72L586.9 1753.01L586.74 1753.07L568.18 1760.35L606.75 1804.11L606.93 1804.53L606.92 1804.29Z" fill="#0B065A"/>
<path d="M269.069 859.501L563.219 1609.64H563.389L563.049 1609.77L562.989 1609.9C570.349 1614.68 577.859 1616.04 584.319 1614.59L584.649 1614.53C585.059 1614.43 585.449 1614.29 585.849 1614.17L586.919 1613.83C594.319 1611.14 599.919 1604.46 601.529 1594.71L601.739 1594.56L307.549 844.401L269.069 859.501Z" fill="#FCAA23" stroke="black" stroke-width="4" stroke-linecap="round" stroke-linejoin="round"/>
<path d="M168.079 904.381L214.739 886.081L270.609 864.171V864.181L317.269 845.881L288.339 772.111L242.099 790.251V790.241L185.419 812.471L139.159 830.611L168.079 904.381Z" fill="#0B065A" stroke="black" stroke-width="4" stroke-miterlimit="10" stroke-linecap="round"/>
<path d="M333.849 1304.12C333.849 1304.12 290.849 1356.06 302.459 1382.21C314.069 1408.36 331.229 1402.39 346.179 1419.57C361.129 1436.75 391.389 1450.57 449.669 1433.02C449.669 1433.02 472.459 1411.02 441.079 1399.02C409.699 1387.02 407.019 1384.91 407.019 1384.91C407.019 1384.91 417.019 1367.64 427.019 1357.18C437.019 1346.72 393.679 1357.55 380.969 1369.51C368.259 1381.47 337.209 1332.14 333.849 1304.12Z" fill="white" stroke="black" stroke-width="4" stroke-linecap="round" stroke-linejoin="round"/>
<path d="M700.749 1262.21C700.749 1262.21 714.689 1278.54 724.849 1313.83L700.749 1262.21Z" fill="#FCAA23"/>
<path d="M700.749 1262.21C700.749 1262.21 714.689 1278.54 724.849 1313.83" stroke="black" stroke-width="4" stroke-linecap="round" stroke-linejoin="round"/>
<path d="M614.58 1297.75C614.96 1296.19 615.21 1294.75 615.67 1293.29C617.219 1288.61 620.501 1284.71 624.842 1282.37C629.183 1280.04 634.252 1279.45 639.01 1280.74C644.76 1282.38 648.59 1286.24 650.81 1291.74C652.81 1296.64 652.6 1301.74 651.62 1306.74C650.191 1313.35 647.667 1319.68 644.15 1325.46C639.299 1333.76 633.518 1341.47 626.92 1348.46C626.54 1348.86 626.23 1349.16 625.56 1348.9C614.923 1344.87 604.913 1339.34 595.83 1332.49C590.616 1328.66 586.2 1323.85 582.83 1318.33C580.27 1313.94 578.75 1309.33 579.51 1304.14C580.6 1296.67 584.71 1291.55 591.95 1289.26C600.67 1286.51 609.19 1289.68 614.24 1297.26C614.32 1297.42 614.43 1297.56 614.58 1297.75Z" fill="white"/>
<path d="M2165.2 1131.23C2165.2 1131.23 2160.2 1219.12 2143.93 1253.87C2127.66 1288.62 2129.93 1346.34 2118.71 1366.52C2107.49 1386.7 2103.01 1408.52 2091.8 1411.91C2080.59 1415.3 2067.89 1418.45 2073.87 1428.17C2079.85 1437.89 2118.33 1428.54 2128.98 1422C2128.98 1422 2183.44 1450.59 2203.9 1447.22C2203.9 1447.22 2211.18 1446.66 2213.14 1443.58C2213.14 1443.58 2221.98 1446.8 2228.37 1446.29C2232.63 1445.95 2236.59 1444.89 2237.99 1440.68C2237.99 1440.68 2246.84 1438.82 2244.25 1432C2244.25 1432 2247.35 1427.35 2246.77 1424.8C2244.77 1416.12 2181.2 1398.74 2170.83 1372.96C2160.46 1347.18 2201.32 1280.25 2229.68 1208.21C2258.04 1136.17 2258.26 1122.72 2258.26 1122.72L2165.2 1131.23Z" fill="white" stroke="black" stroke-width="4" stroke-linecap="round" stroke-linejoin="round"/>
<path d="M2165.3 1160.16C2165.3 1160.16 2199.55 1171.75 2215.24 1176.6C2230.93 1181.45 2227.24 1207.06 2227.24 1207.06C2227.24 1207.06 2246.11 1162.41 2246.48 1156.8C2246.85 1151.19 2167.14 1137.93 2167.14 1137.93L2165.3 1160.16Z" fill="#FCAA23"/>
<path d="M2300.85 1052.1C2300.85 1052.1 2281.8 1159.52 2274.02 1160.77C2194.39 1173.53 2150.92 1127.35 2150.92 1127.35C2164.07 1064.73 2157.29 993.251 2157.29 993.251" fill="#FCAA23"/>
<path d="M2300.85 1052.1C2300.85 1052.1 2281.8 1159.52 2274.02 1160.77C2194.39 1173.53 2150.92 1127.35 2150.92 1127.35C2164.07 1064.73 2157.29 993.251 2157.29 993.251" stroke="black" stroke-width="4" stroke-linecap="round" stroke-linejoin="round"/>
<path d="M1922.81 1040.2C1922.81 1040.2 1891.35 1092.64 1858.09 1073.96C1824.83 1055.28 1814.38 970.461 1827.46 945.801C1840.54 921.141 1857.17 902.481 1878.78 904.041C1896.98 905.341 1913.02 920.391 1911.9 932.161C1910.78 943.931 1894.9 961.601 1881.07 962.241C1867.24 962.881 1874.35 971.401 1874.35 971.401C1874.35 971.401 1917.71 987.001 1922.81 1040.2Z" fill="white" stroke="black" stroke-width="4" stroke-linecap="round" stroke-linejoin="round"/>
<path d="M1924.51 819.512C1924.51 819.512 1913.73 944.002 1990.67 960.002C2052.67 972.892 2106.94 933.882 2124.59 885.122C2124.59 885.122 2149.67 880.122 2145.19 855.692C2139.58 825.092 2106.1 826.282 2106.1 826.282L1924.51 819.512Z" fill="white" stroke="black" stroke-width="4" stroke-linecap="round" stroke-linejoin="round"/>
<path d="M1915.57 748.892C1915.57 748.892 1911.57 833.542 1920.32 837.172C1929.07 840.802 1991.48 873.322 2045.32 863.232C2099.16 853.142 2139.12 832.232 2139.12 832.232V796.002L1915.57 748.892Z" fill="#0B065A" stroke="black" stroke-width="4" stroke-miterlimit="10" stroke-linecap="round"/>
<path d="M1817.74 731.001C1817.74 731.001 1969.07 787.001 2037.44 835.241C2037.44 835.241 2199.97 780.321 2257.14 766.871C2257.14 766.871 2105.82 681.681 2037.44 663.741C2037.44 663.701 1861.46 699.571 1817.74 731.001Z" fill="#0B065A" stroke="black" stroke-width="4" stroke-miterlimit="10" stroke-linecap="round"/>
<path d="M1932.54 841.372C1925.39 841.372 1918.4 843.492 1912.46 847.464C1906.51 851.436 1901.88 857.082 1899.14 863.688C1896.41 870.293 1895.69 877.562 1897.08 884.574C1898.48 891.587 1901.92 898.028 1906.98 903.083C1912.03 908.139 1918.47 911.582 1925.49 912.977C1932.5 914.372 1939.77 913.656 1946.37 910.92C1952.98 908.184 1958.63 903.55 1962.6 897.605C1966.57 891.661 1968.69 884.671 1968.69 877.522C1968.69 867.934 1964.88 858.739 1958.1 851.96C1951.32 845.18 1942.13 841.372 1932.54 841.372ZM1932.54 902.472C1927.6 902.472 1922.76 901.005 1918.65 898.258C1914.54 895.511 1911.33 891.607 1909.44 887.039C1907.55 882.471 1907.06 877.444 1908.02 872.594C1908.98 867.745 1911.37 863.29 1914.86 859.794C1918.36 856.298 1922.81 853.917 1927.66 852.952C1932.51 851.987 1937.54 852.482 1942.11 854.375C1946.67 856.267 1950.58 859.471 1953.33 863.582C1956.07 867.694 1957.54 872.527 1957.54 877.472C1957.55 880.756 1956.9 884.01 1955.65 887.047C1954.4 890.083 1952.55 892.841 1950.23 895.164C1947.91 897.487 1945.15 899.328 1942.11 900.582C1939.08 901.836 1935.82 902.478 1932.54 902.472Z" fill="#0502AB"/>
<path d="M1903.39 898.882L1896.98 906.602C1901.64 909.802 1905.81 913.666 1909.35 918.072L1917.08 908.612C1917.08 908.612 1911.46 894.942 1903.39 898.882Z" fill="#0502AB"/>
<path d="M1856.96 952.742L1838.74 971.662C1840.04 974.835 1842.2 977.586 1844.97 979.614C1847.74 981.641 1851.01 982.865 1854.43 983.152L1869.95 961.432C1869.95 961.432 1867.47 951.772 1864.07 951.552C1861.65 951.514 1859.24 951.918 1856.96 952.742Z" fill="#0502AB"/>
<path d="M1881.07 962.241C1881.07 962.241 1869.68 962.241 1868.56 955.521C1867.44 948.801 1847.63 949.921 1845.02 962.241" stroke="black" stroke-width="4" stroke-linecap="round" stroke-linejoin="round"/>
<path d="M1901.01 923.461C1901.01 923.461 1910.78 933.302 1906.01 945.672L1901.01 923.461Z" fill="white"/>
<path d="M1901.01 923.461C1901.01 923.461 1910.78 933.302 1906.01 945.672" stroke="black" stroke-width="4" stroke-linecap="round" stroke-linejoin="round"/>
<path d="M1892.42 933.552C1892.42 933.552 1900.68 939.972 1895.52 956.362L1892.42 933.552Z" fill="white"/>
<path d="M1892.42 933.552C1892.42 933.552 1900.68 939.972 1895.52 956.362" stroke="black" stroke-width="4" stroke-linecap="round" stroke-linejoin="round"/>
<path d="M1883.5 945.671C1883.5 945.671 1888.68 949.621 1881.87 962.181L1883.5 945.671Z" fill="white"/>
<path d="M1883.5 945.671C1883.5 945.671 1888.68 949.621 1881.87 962.181" stroke="black" stroke-width="4" stroke-linecap="round" stroke-linejoin="round"/>
<path d="M1968.69 991.001C1971.77 998.208 1975.57 1005.08 1980.04 1011.52" stroke="black" stroke-width="4" stroke-linecap="round" stroke-linejoin="round"/>
<path d="M1684.4 2019C1684.4 2019 1778.55 1941 1892.07 1895.29L1684.4 2019Z" fill="white"/>
<path d="M1684.4 2019C1684.4 2019 1778.55 1941 1892.07 1895.29" stroke="black" stroke-width="4" stroke-linecap="round" stroke-linejoin="round"/>
<path d="M1939.12 1884.38C1939.12 1884.38 2051.78 1844.13 2093.81 1917.26L1939.12 1884.38Z" fill="white"/>
<path d="M1939.12 1884.38C1939.12 1884.38 2051.78 1844.13 2093.81 1917.26" stroke="black" stroke-width="4" stroke-linecap="round" stroke-linejoin="round"/>
<path d="M171.329 2090.45L684.989 2245.14" stroke="black" stroke-width="4" stroke-linecap="round" stroke-linejoin="round"/>
<path d="M707.409 2252.68L1039.24 2351.32" stroke="black" stroke-width="4" stroke-linecap="round" stroke-linejoin="round"/>
<path d="M1060.54 2358.05L1188.32 2396.16" stroke="black" stroke-width="4" stroke-linecap="round" stroke-linejoin="round"/>
<path d="M2324.39 1772.13L2738.01 1553.55" stroke="black" stroke-width="4" stroke-linecap="round" stroke-linejoin="round"/>
<path d="M2759.63 1539.78L3010.16 1401.91" stroke="black" stroke-width="4" stroke-linecap="round" stroke-linejoin="round"/>
<path d="M1345.07 2249.76C1345.07 2249.76 1856.58 1643.3 2087.29 1846" stroke="black" stroke-width="4" stroke-linecap="round" stroke-linejoin="round"/>
<path d="M338.22 1853.52L1296.52 2179.74" stroke="black" stroke-width="4" stroke-linecap="round" stroke-linejoin="round"/>
<path d="M288.189 1908.13L970.659 2118.65" stroke="black" stroke-width="4" stroke-linecap="round" stroke-linejoin="round"/>
<path d="M995.319 2126.02L1180.27 2179.74" stroke="black" stroke-width="4" stroke-linecap="round" stroke-linejoin="round"/>
<path d="M515.829 2045.31L1087.79 2212.33" stroke="black" stroke-width="4" stroke-linecap="round" stroke-linejoin="round"/>
<path d="M400.39 1402.19C400.39 1402.19 440.69 1414.05 456.97 1412.19L400.39 1402.19Z" fill="white"/>
<path d="M400.39 1402.19C400.39 1402.19 440.69 1414.05 456.97 1412.19" stroke="black" stroke-width="4" stroke-linecap="round" stroke-linejoin="round"/>
<path d="M397.589 1414.52C397.589 1414.52 416.989 1428.28 455.349 1425.18L397.589 1414.52Z" fill="white"/>
<path d="M397.589 1414.52C397.589 1414.52 416.989 1428.28 455.349 1425.18" stroke="black" stroke-width="4" stroke-linecap="round" stroke-linejoin="round"/>
<path d="M394.789 1428C394.789 1428 408.939 1436 434.089 1437.17L394.789 1428Z" fill="white"/>
<path d="M394.789 1428C394.789 1428 408.939 1436 434.089 1437.17" stroke="black" stroke-width="4" stroke-linecap="round" stroke-linejoin="round"/>
<path d="M407.019 1384.91L394.789 1380.24" stroke="black" stroke-width="4" stroke-linecap="round" stroke-linejoin="round"/>
<path d="M645.228 1024.71C647.498 1023.94 648.441 1020.66 647.332 1017.38C646.223 1014.1 643.484 1012.06 641.213 1012.83C638.942 1013.6 638 1016.88 639.109 1020.16C640.217 1023.44 642.957 1025.48 645.228 1024.71Z" fill="black"/>
<path d="M619.81 1006.16C619.81 1006.16 631.81 982.972 643.24 990.512L619.81 1006.16Z" fill="white"/>
<path d="M619.81 1006.16C619.81 1006.16 631.81 982.972 643.24 990.512" stroke="black" stroke-width="4" stroke-linecap="round" stroke-linejoin="round"/>
<path d="M528.169 1082.73C528.169 1082.73 516.029 1081.05 514.909 1096.93" stroke="black" stroke-width="3" stroke-linecap="round" stroke-linejoin="round"/>
<path d="M518.419 1086.67C518.419 1086.67 526.119 1096.19 533.779 1098.8" stroke="black" stroke-width="3" stroke-linecap="round" stroke-linejoin="round"/>
<path d="M636.899 1076.07L672.769 1074.88C672.769 1074.88 660.999 1106 636.899 1076.07Z" fill="white" stroke="black" stroke-width="4" stroke-linecap="round" stroke-linejoin="round"/>
<path d="M2009.74 888.531C2009.74 888.531 2025.15 877.322 2039.17 885.172L2009.74 888.531Z" fill="white"/>
<path d="M2009.74 888.531C2009.74 888.531 2025.15 877.322 2039.17 885.172" stroke="black" stroke-width="4" stroke-linecap="round" stroke-linejoin="round"/>
<path d="M1980.07 886.571C1980.07 886.571 1974.18 909.571 1976.14 910.951C1978.1 912.331 1987.07 913.671 1987.07 913.671" fill="white"/>
<path d="M1980.07 886.571C1980.07 886.571 1974.18 909.571 1976.14 910.951C1978.1 912.331 1987.07 913.671 1987.07 913.671" stroke="black" stroke-width="4" stroke-linecap="round" stroke-linejoin="round"/>
<path d="M1977.52 933.001C1977.52 933.001 1998.95 940.841 2014.52 926.131L1977.52 933.001Z" fill="white"/>
<path d="M1977.52 933.001C1977.52 933.001 1998.95 940.841 2014.52 926.131" stroke="black" stroke-width="4" stroke-linecap="round" stroke-linejoin="round"/>
<path d="M1814.7 737.951L1901.01 775.321" stroke="black" stroke-width="4" stroke-linecap="round" stroke-linejoin="round"/>
<path d="M2179.37 799.041L2260.64 773.451" stroke="black" stroke-width="4" stroke-miterlimit="10" stroke-linecap="round"/>
<path d="M2124.59 885.082C2124.59 885.082 2118.15 887.242 2105.78 888.372L2124.59 885.082Z" fill="white"/>
<path d="M2124.59 885.082C2124.59 885.082 2118.15 887.242 2105.78 888.372" stroke="black" stroke-width="4" stroke-linecap="round" stroke-linejoin="round"/>
<path d="M2137.59 839.131C2137.59 839.131 2118.59 820.711 2107.54 850.281L2137.59 839.131Z" fill="white"/>
<path d="M2137.59 839.131C2137.59 839.131 2118.59 820.711 2107.54 850.281" stroke="black" stroke-width="4" stroke-linecap="round" stroke-linejoin="round"/>
<path d="M2119.73 849.002C2119.73 849.002 2130.92 844.002 2136.43 858.932L2119.73 849.002Z" fill="white"/>
<path d="M2119.73 849.002C2119.73 849.002 2130.92 844.002 2136.43 858.932" stroke="black" stroke-width="3" stroke-linecap="round" stroke-linejoin="round"/>
<path d="M2130.19 850.102C2130.19 850.102 2125.45 861.382 2118.82 866.032L2130.19 850.102Z" fill="white"/>
<path d="M2130.19 850.102C2130.19 850.102 2125.45 861.382 2118.82 866.032" stroke="black" stroke-width="3" stroke-linecap="round" stroke-linejoin="round"/>
<path d="M1874.35 971.401C1874.35 971.401 1901.73 997.541 1904.18 1025" stroke="black" stroke-width="4" stroke-linecap="round" stroke-linejoin="round"/>
<path d="M1786.87 1298C1786.87 1298 1822.55 1363.38 1689.87 1384.68C1689.87 1384.68 1712.66 1402.99 1794.21 1365.68C1794.21 1365.68 1834.28 1349.8 1831.21 1342.19C1828.14 1334.58 1828.96 1332.71 1828.68 1325.33C1828.4 1317.95 1828.22 1302.53 1829.34 1298.61C1829.37 1298.69 1802.65 1303.73 1786.87 1298Z" fill="#0502AB"/>
<path d="M545.27 930.001C545.27 930.001 596.5 910.731 631.53 964.191" stroke="white" stroke-width="2" stroke-miterlimit="10" stroke-linecap="round"/>
<path d="M539.85 938.602C539.85 938.602 572.36 932.892 589.92 993.852" stroke="white" stroke-width="2" stroke-miterlimit="10" stroke-linecap="round"/>
<path d="M528.169 966.151C528.169 966.151 462.509 1007.35 494.639 1141.15" stroke="white" stroke-width="2" stroke-miterlimit="10" stroke-linecap="round"/>
<path d="M508.839 948.691C508.839 948.691 439.719 979.691 463.629 1072.36" stroke="white" stroke-width="2" stroke-miterlimit="10" stroke-linecap="round"/>
<path d="M475.959 953.171C475.959 953.171 435.959 971.481 443.449 1015.57" stroke="white" stroke-width="2" stroke-miterlimit="10" stroke-linecap="round"/>
</svg>
