<svg width="2700" height="2403" viewBox="0 0 2700 2403" fill="none" xmlns="http://www.w3.org/2000/svg">
<path d="M2456.58 2142.26C2453.87 2144.81 2451.12 2147.34 2448.36 2149.84C2415.66 2179.23 2380.39 2205.63 2342.96 2228.71C2278.74 2268.65 2207.83 2300.65 2134.34 2326.26C2122.34 2330.43 2110.34 2334.43 2098.34 2338.26C1907.93 2398.45 1706.4 2414.95 1508.72 2386.54C1350.86 2363.93 1198.26 2313.52 1057.98 2237.65C1050.38 2233.54 1042.82 2229.36 1035.29 2225.09C1027.61 2220.75 1019.97 2216.33 1012.36 2211.83C927.364 2161.58 833.364 2108.37 738.884 2059.44C681.954 2029.95 624.884 2002.03 569.464 1977.24C562.051 1973.91 554.674 1970.65 547.334 1967.47L547.174 1967.39C521.024 1955.99 495.304 1945.39 470.244 1935.64C101.004 1792.64 -285.086 1025.54 302.554 827.93C890.194 630.32 667.764 278.7 1220.16 52.7203C1772.56 -173.26 1644.58 395.82 2228.76 470C2812.94 544.18 2810.53 1810.34 2456.58 2142.26Z" fill="#283593"/>
<path d="M685.104 756.11C685.104 756.11 797.484 635 798.764 634.26C800.044 633.52 814.584 689.79 838.704 709.92C862.824 730.05 938.434 784.92 938.434 784.92L870.354 903.46C870.354 903.46 707.134 825.54 685.104 756.11Z" fill="white" stroke="black" stroke-width="6" stroke-miterlimit="10"/>
<path d="M742.684 791.81L814.104 710.92" stroke="black" stroke-width="4" stroke-linecap="round" stroke-linejoin="round"/>
<path d="M752.014 799.96L823.424 719.07" stroke="black" stroke-width="4" stroke-linecap="round" stroke-linejoin="round"/>
<path d="M761.954 806.7L833.364 725.811" stroke="black" stroke-width="4" stroke-linecap="round" stroke-linejoin="round"/>
<path d="M770.444 815.72L841.854 734.83" stroke="black" stroke-width="4" stroke-linecap="round" stroke-linejoin="round"/>
<path d="M799.434 832.87L869.064 750.44" stroke="black" stroke-width="4" stroke-linecap="round" stroke-linejoin="round"/>
<path d="M808.774 841.72L843.584 800.5" stroke="black" stroke-width="4" stroke-linecap="round" stroke-linejoin="round"/>
<path d="M818.904 850.47L853.724 809.25" stroke="black" stroke-width="4" stroke-linecap="round" stroke-linejoin="round"/>
<path d="M1839.84 896.32C1839.84 896.32 1877.84 864.12 1904.62 889.13C1924.2 907.39 1963.36 989.91 2010.55 1093.85C2053.92 1189.41 2100.79 1308.09 2100.79 1308.09L2019.69 1282.18C2019.69 1282.18 2025.97 1274.02 2010.69 1246.32C1965.87 1165.21 1857.95 1009.87 1855.11 990.56C1851.27 964.65 1839.84 896.32 1839.84 896.32Z" fill="white" stroke="black" stroke-width="4" stroke-linecap="round" stroke-linejoin="round"/>
<path d="M2021.82 1274.11C2021.82 1274.11 2073.35 1291.57 2081.82 1262.71C2081.82 1262.71 2083.34 1255.71 2088.99 1263.32C2094.64 1270.93 2151.13 1351.89 2167.99 1365.12C2184.85 1378.35 2187.19 1386.67 2184.42 1393.77C2181.65 1400.87 2153.58 1425.04 2085.63 1378.06C2017.68 1331.08 1988.27 1314.49 1989.97 1309.27C1991.67 1304.05 2011.3 1262.9 2021.82 1274.11Z" fill="#0B065A" stroke="black" stroke-width="4" stroke-miterlimit="10" stroke-linecap="round"/>
<path d="M2262.01 1457.65L2259.27 1456.44L2188.37 1424.74C2188.37 1424.74 2200.16 1420.61 2193.9 1405.47C2187.77 1390.69 2119.66 1329.04 2060.04 1224.31C2057.36 1219.6 2054.84 1214.77 2052.51 1209.87L2042.76 1189.47L2041 1185.8C1992.94 1197.33 1932.75 1204.22 1932.75 1204.22L1882.26 1057.48C1882.26 1057.48 2051.41 1044.19 2106.55 1069.65C2151.55 1090.42 2226.62 1335.65 2252.72 1425.2C2254.99 1432.95 2256.89 1439.53 2258.35 1444.7C2260.64 1452.72 2261.93 1457.34 2262.01 1457.65Z" fill="white" stroke="black" stroke-width="4" stroke-linecap="round" stroke-linejoin="round"/>
<path d="M1949.24 1082.52C1949.24 1082.52 1964.3 1103.85 1970.32 1135.35C1976.34 1166.85 2032.22 1185.79 2032.22 1185.79L1983.49 1195.17L1927.57 1203.09L1949.24 1082.52Z" fill="#FCAA23"/>
<path d="M2196.11 1404.36C2189.99 1389.58 2121.88 1327.93 2062.25 1223.21C2059.57 1218.49 2057.06 1213.66 2054.72 1208.76L2044.97 1188.37C2045.36 1187.73 2045.8 1187.13 2046.29 1186.57L2088.71 1167.24C2088.71 1167.24 2101.42 1170.06 2095.32 1201.81C2089.22 1233.56 2209.32 1399.75 2209.88 1413.51C2210.41 1427.11 2249.61 1424.37 2250.51 1424.3C2250.51 1424.3 2253.03 1434.64 2254.83 1445.43C2254.83 1445.43 2260.58 1443.61 2260.58 1443.62C2261.27 1447.48 2261.57 1451.41 2261.48 1455.33L2190.58 1423.63C2190.58 1423.63 2202.37 1419.5 2196.11 1404.36Z" fill="#FCAA23"/>
<path d="M2448.93 2109C2448.93 2108 2448.93 2107 2448.93 2106.07L2448.87 2101.59C2448.87 2100.42 2448.87 2099.24 2448.81 2098.07C2448.81 2097.85 2448.81 2097.62 2448.81 2097.4C2448.81 2095.76 2448.75 2094.12 2448.7 2092.48C2448.66 2090.4 2448.61 2088.33 2448.53 2086.26C2448.53 2085.11 2448.46 2083.94 2448.41 2082.79C2448.41 2082.35 2448.41 2081.92 2448.41 2081.47V2080.65C2448.35 2078.84 2448.27 2077.01 2448.2 2075.2C2448.1 2072.53 2447.97 2069.85 2447.82 2067.14C2447.68 2064.43 2447.53 2061.75 2447.38 2059.08C2447.24 2056.89 2447.11 2054.68 2446.97 2052.49C2414.97 1562.61 2014.23 1173.35 1519.59 1159.55L1513.3 1159.4L1507.45 1159.29L1502.65 1159.22H1498.59H1492.4H1485.62H1482.1H1478.35L1474.43 1159.28L1467.71 1159.43C1465.06 1159.49 1462.4 1159.58 1459.77 1159.67C1457.14 1159.76 1454.63 1159.85 1452.07 1159.96H1451.24C1445.96 1160.18 1440.71 1160.45 1435.46 1160.76C1432.77 1160.91 1430.09 1161.09 1427.4 1161.27C1425.4 1161.4 1423.4 1161.55 1421.4 1161.69C1419.4 1161.83 1417.68 1161.97 1415.82 1162.12L1414.36 1162.24L1409.49 1162.64C1403.55 1163.15 1397.61 1163.72 1391.69 1164.35L1386.86 1164.87C1382.47 1165.35 1378.09 1165.87 1373.71 1166.4C1371.19 1166.71 1368.68 1167.04 1366.16 1167.4C1363.84 1167.7 1361.5 1168.03 1359.16 1168.4C1356.27 1168.79 1353.39 1169.21 1350.5 1169.65C1348.5 1169.95 1346.5 1170.24 1344.5 1170.57L1339.37 1171.37L1337.72 1171.64L1331.72 1172.64C1330.66 1172.81 1329.61 1172.99 1328.54 1173.18L1325.36 1173.74L1317.54 1175.14L1311.12 1176.36C1066.21 1223.3 854.534 1363.65 714.544 1558.88C712.834 1561.27 711.124 1563.68 709.434 1566.08C707.744 1568.48 706.054 1570.9 704.374 1573.33C702.854 1575.54 701.334 1577.77 699.814 1580.01C696.234 1585.29 692.704 1590.62 689.224 1596.01C688.151 1597.65 687.084 1599.32 686.024 1601.01C685.324 1602.1 684.634 1603.18 683.944 1604.28C683.484 1604.99 683.044 1605.7 682.594 1606.41L679.284 1611.69C670.404 1625.9 661.898 1640.38 653.764 1655.13C653.154 1656.22 652.564 1657.31 651.974 1658.4C650.954 1660.24 649.954 1662.08 648.974 1663.93L647.764 1666.2C645.924 1669.64 644.111 1673.09 642.324 1676.54C641.544 1678.03 640.774 1679.54 640.004 1681.02C639.364 1682.26 638.734 1683.51 638.114 1684.76C637.204 1686.56 636.284 1688.37 635.384 1690.19L632.684 1695.64C631.324 1698.39 629.994 1701.16 628.684 1703.93L628.344 1704.68C627.011 1707.47 625.678 1710.27 624.344 1713.08C623.011 1715.89 621.734 1718.67 620.514 1721.42C620.284 1721.94 620.034 1722.42 619.814 1722.98C618.814 1725.27 617.744 1727.56 616.734 1729.87C616.554 1730.27 616.384 1730.67 616.204 1731.08C614.958 1733.91 613.721 1736.75 612.494 1739.61C611.864 1741.09 611.224 1742.61 610.594 1744.06C608.708 1748.51 606.861 1752.98 605.054 1757.46C604.464 1758.96 603.854 1760.46 603.254 1761.96C602.654 1763.46 601.994 1765.12 601.364 1766.71L599.764 1771C598.651 1773.87 597.551 1776.75 596.464 1779.64C595.844 1781.29 595.228 1782.96 594.614 1784.64C593.764 1786.94 592.934 1789.24 592.104 1791.54C591.274 1793.84 590.474 1796.08 589.674 1798.36C589.344 1799.28 589.024 1800.21 588.674 1801.14C587.674 1803.89 586.774 1806.63 585.844 1809.39L585.174 1811.39C583.174 1817.39 581.211 1823.43 579.284 1829.51C578.664 1831.47 578.058 1833.43 577.464 1835.39C576.844 1837.39 576.224 1839.46 575.624 1841.49C575.064 1843.31 574.534 1845.13 574.004 1846.94C573.684 1848 573.384 1849.06 573.074 1850.11C572.764 1851.16 572.524 1852 572.254 1852.95L571.924 1854.12C571.414 1855.91 570.924 1857.69 570.414 1859.49C569.804 1861.68 569.204 1863.86 568.624 1866.06C568.114 1867.92 567.624 1869.79 567.124 1871.65C566.594 1873.65 566.124 1875.65 565.554 1877.7C564.321 1882.49 563.128 1887.28 561.974 1892.09C561.308 1894.97 560.641 1897.85 559.974 1900.74C559.974 1900.74 559.974 1900.8 559.974 1900.82C559.904 1901.11 559.844 1901.39 559.774 1901.67C559.564 1902.58 559.354 1903.5 559.154 1904.41C558.714 1906.36 558.264 1908.31 557.844 1910.27C557.424 1912.23 556.994 1914.18 556.574 1916.14C556.048 1918.65 555.528 1921.16 555.014 1923.68C554.614 1925.61 554.221 1927.54 553.834 1929.49C552.801 1934.74 551.801 1940.01 550.834 1945.29C550.254 1948.55 549.674 1951.81 549.124 1955.07C548.574 1958.33 548.034 1961.62 547.514 1964.9C547.384 1965.73 547.244 1966.57 547.114 1967.41C546.984 1968.25 546.864 1969.02 546.754 1969.82C546.874 1969.01 546.994 1968.21 547.124 1967.41L547.284 1967.49C554.618 1970.68 561.994 1973.94 569.414 1977.26C624.814 2002.05 681.904 2029.97 738.834 2059.46C833.334 2108.39 927.364 2161.6 1012.31 2211.85C1019.93 2216.35 1027.57 2220.77 1035.24 2225.11C1042.76 2229.38 1050.33 2233.57 1057.93 2237.67C1198.21 2313.54 1350.81 2363.95 1508.67 2386.56C1706.35 2414.97 1907.88 2398.47 2098.29 2338.28C2110.34 2334.48 2122.34 2330.48 2134.29 2326.28C2207.78 2300.67 2278.69 2268.67 2342.91 2228.73C2380.34 2205.65 2415.61 2179.25 2448.31 2149.86C2448.31 2150.56 2448.31 2151.26 2448.25 2151.97C2448.25 2151.26 2448.25 2150.56 2448.32 2149.85C2448.39 2148.16 2448.44 2146.46 2448.49 2144.77C2448.57 2142.52 2448.63 2140.27 2448.67 2138C2448.72 2135.45 2448.78 2132.89 2448.81 2130.33C2448.81 2129.01 2448.81 2127.7 2448.81 2126.33C2448.81 2126.02 2448.81 2125.71 2448.81 2125.33V2121.94C2448.81 2119.88 2448.81 2117.82 2448.81 2115.76C2448.91 2113.55 2448.95 2111.29 2448.93 2109ZM2446.35 2186.85C2446.35 2186.56 2446.37 2186.28 2446.41 2186.01L2446.53 2184.2C2446.48 2185.13 2446.41 2186 2446.35 2186.89V2186.85ZM2445.15 2201.52C2445.26 2200.33 2445.37 2199.13 2445.47 2197.94V2197.84C2445.53 2197.21 2445.58 2196.57 2445.63 2195.94C2445.47 2197.84 2445.32 2199.69 2445.15 2201.56V2201.52Z" fill="#5B5B5B" stroke="black" stroke-width="4" stroke-miterlimit="10" stroke-linecap="round"/>
<path d="M2448.96 2115.84C2448.96 2117.9 2448.96 2119.96 2448.96 2122.02V2125.41C2448.96 2125.74 2448.96 2126.05 2448.96 2126.41C2448.96 2127.74 2448.96 2129.05 2448.96 2130.41C2448.96 2132.97 2448.87 2135.53 2448.82 2138.08C2448.78 2140.34 2448.72 2142.6 2448.64 2144.85C2448.58 2146.54 2448.53 2148.25 2448.46 2149.94C2415.76 2179.33 2380.49 2205.73 2343.06 2228.81C2343.32 2226.6 2343.72 2224.42 2344.26 2222.26C2349.07 2203.26 2358.35 2202.64 2352.09 2184.82C2347.17 2170.82 2333.09 2154.49 2315.26 2160.76C2304.12 2164.68 2299.02 2185.49 2290.11 2188.01C2274.32 2192.48 2275.45 2172.64 2263.78 2166.73C2251.44 2160.47 2233.71 2168.13 2219.58 2165.98C2204.96 2163.77 2170.19 2164.98 2159.33 2158.58C2141.41 2147.97 2141.33 2112.84 2137.73 2094.49C2133.3 2071.79 2125.82 2050.64 2126.21 2027.31C2126.54 2007.31 2131.21 1988.36 2138.83 1969.76C2144.13 1956.76 2155.33 1945.28 2157.27 1931.7C2160.59 1908.44 2144.48 1880.38 2175.69 1865.99C2193.57 1857.74 2204.41 1864.62 2217.44 1844.06C2227.83 1827.67 2225.44 1803.54 2240.44 1790.67C2230.44 1789.67 2223.51 1796.96 2215.69 1801.67C2216.04 1796.55 2215.99 1787.56 2212.49 1783.39C2206.49 1776.3 2203.04 1781.18 2197.95 1776.81C2183.83 1764.68 2189.8 1764.06 2194.65 1747.69C2203.37 1718.28 2193.01 1682.5 2204.09 1654.9C2220.69 1655.53 2228.31 1676.79 2242.44 1682.21C2251.18 1685.57 2260.31 1687.78 2263.79 1675.89C2267.34 1663.89 2249.59 1655.48 2243.59 1648.65C2228.18 1631.06 2237.67 1620.12 2229.86 1598.39C2225.39 1585.99 2203.45 1563.84 2193.69 1582.52C2178.51 1579.52 2181.43 1568.86 2181.87 1557.63C2182.04 1552.81 2187.38 1550.16 2186.35 1544.05C2185.32 1537.94 2177.11 1532.96 2176.48 1530.05C2172.74 1513.11 2190.95 1486.16 2211.22 1487.5C2211.22 1486.73 2211.38 1485.97 2211.42 1485.2C2299.35 1585.14 2365.4 1702.36 2405.35 1829.33C2399.29 1820.28 2392.85 1808.89 2382.11 1801.25C2366.26 1789.99 2338.48 1788.33 2330.11 1768.43C2323 1751.43 2336.97 1718.38 2306.45 1714.56C2278.45 1711.06 2284.82 1748.56 2283.45 1764.35C2302.23 1746.42 2303.29 1777.79 2311.2 1787.35C2326.26 1805.54 2355.38 1814.89 2371.87 1832.8C2384.03 1846.19 2398.83 1856.93 2415.32 1864.34C2432.07 1925.87 2442.64 1988.92 2446.88 2052.55C2447.02 2054.74 2447.15 2056.95 2447.29 2059.14C2447.45 2061.81 2447.6 2064.49 2447.73 2067.2C2447.87 2069.91 2447.99 2072.59 2448.11 2075.26C2448.18 2077.07 2448.26 2078.9 2448.32 2080.71V2081.53C2448.32 2081.98 2448.32 2082.41 2448.32 2082.85C2448.37 2084 2448.4 2085.17 2448.44 2086.32C2448.52 2088.39 2448.57 2090.46 2448.61 2092.54C2448.66 2094.18 2448.69 2095.82 2448.72 2097.46C2448.72 2097.68 2448.72 2097.91 2448.72 2098.13C2448.72 2099.3 2448.72 2100.48 2448.78 2101.65L2448.84 2106.13C2448.84 2107.13 2448.84 2108.08 2448.84 2109.06C2448.92 2111.31 2448.96 2113.57 2448.96 2115.84Z" fill="white"/>
<path d="M2095.29 2334.26C2093.55 2331.59 2092.93 2323.32 2091.2 2321.45C2077.29 2306.61 2043.58 2298.79 2024.84 2298.02C1999.16 2297.02 1960.74 2293.02 1943.99 2269.87C1931.52 2252.6 1952.85 2228.07 1944.68 2209.65C1934.5 2186.65 1881.05 2175.65 1860.55 2163.17C1846.45 2154.58 1836.87 2141.5 1822.82 2132.73C1802.32 2119.92 1790.04 2114.65 1781.33 2092.07C1776.1 2078.53 1784.15 2076.23 1767.73 2071.07C1752.5 2066.3 1728.6 2079.61 1711.54 2080.95C1698.85 2081.95 1684.54 2084.57 1672.26 2080.87C1657.21 2076.33 1646.09 2059.24 1630.36 2056.31C1616.21 2053.68 1588.36 2060.31 1575.36 2068.82C1564.46 2076 1558.57 2088.88 1546.49 2094.49C1529.08 2102.57 1530.32 2091.98 1513.42 2090.49C1496.52 2089 1487.82 2098.24 1474.93 2079.09C1457.44 2053.15 1464.57 2000.18 1423.39 1997.53C1411.12 1996.75 1387.56 2007.01 1380.03 1991.34C1368.89 1968.17 1408.84 1937.5 1403.03 1912.5C1397.03 1886.42 1348.4 1920.67 1337.44 1935.06C1330.44 1944.26 1324.92 1966.81 1310.24 1968.41C1299.24 1969.61 1276.44 1954.98 1269.74 1946.89C1258.07 1932.78 1257.31 1905.34 1255.64 1887.51C1252.48 1853.88 1260.2 1843.51 1283.64 1818.51C1304.28 1796.4 1308.58 1794.51 1335.05 1789.86C1351.3 1787.02 1351.15 1781.27 1364.9 1788.49C1371.49 1791.93 1375.61 1802.25 1383.65 1805.49C1394.91 1794.64 1402.5 1791.08 1417.57 1794.07C1428.39 1796.22 1451.1 1808.79 1457.06 1818.97C1460.69 1825.18 1466.37 1880.9 1486.44 1846.69C1474.76 1837.05 1477.88 1825.69 1473.16 1815.05C1468.63 1804.81 1457.54 1796.64 1455.53 1783.28C1453.18 1767.73 1467.03 1735.37 1484.45 1731.99L1482.51 1714.54C1502.13 1711.78 1525.43 1664.19 1521.42 1640.84C1519.42 1629.17 1506.71 1630.08 1513.5 1613.26C1521.44 1593.56 1535.09 1603.85 1551.76 1600.26C1569.08 1596.5 1566.03 1585.71 1577.9 1576.85C1590.9 1567.16 1596.96 1574.58 1607.99 1575.07C1628.64 1575.99 1655.72 1580.57 1657.26 1551.95C1669.86 1550.21 1680.89 1546.3 1693.51 1551.6C1695.22 1529.02 1690.22 1512.97 1671.04 1500.05C1654.04 1488.61 1631.84 1485.28 1614.42 1474.18C1603.19 1467.01 1595.11 1456.63 1584.42 1449.02C1567.21 1436.73 1555.42 1423.13 1539.84 1409.31C1519.97 1391.63 1500.91 1413.96 1474.63 1410.31C1439.83 1405.44 1442.07 1379.21 1420.55 1363.65C1418.09 1361.88 1410.96 1364.29 1407.79 1362.71C1403.79 1360.71 1395.63 1351.71 1392.4 1348.28C1381.4 1336.48 1371.07 1319.28 1369.92 1301.59C1408.31 1279.59 1418.03 1332.12 1434.06 1351.21C1441.33 1359.87 1469.88 1365.3 1447.53 1378.97C1462.99 1380.05 1476.75 1377.78 1491.22 1381.2C1498.02 1382.81 1503.82 1386.51 1511.22 1386.94C1512.77 1375.04 1508.48 1363.33 1506.13 1351.94C1505.05 1346.67 1506.55 1341.25 1504.37 1336.17C1501.17 1328.73 1493.29 1325.06 1490.37 1318.93C1481.86 1301.21 1492.5 1301.2 1473.15 1290.52C1459.84 1283.18 1443.85 1277.93 1430.09 1271.77C1420.58 1267.5 1410.4 1263.77 1403.2 1256.6C1399.77 1253.19 1378.2 1230.44 1376.53 1226.35C1361.27 1188.35 1420.79 1222.87 1434.43 1226.11C1456.59 1231.39 1479.14 1239.99 1500.29 1248.05C1517.88 1254.74 1518.14 1258.67 1524.87 1276.24C1537.06 1308 1554.2 1292.83 1573.56 1314.07C1585.23 1326.86 1594.37 1349.86 1604.41 1364.96C1617.12 1384.07 1666.94 1443.71 1694.76 1414.96C1709.68 1399.57 1680.83 1372.73 1680.28 1357.76C1679.67 1341.76 1690.42 1331.99 1701.47 1323.3C1719.94 1308.75 1724.22 1302.72 1702.34 1285.04C1675.48 1263.33 1645.93 1259.82 1613.82 1249.6C1579.03 1238.54 1569.77 1218.46 1552.12 1190.25C1563.73 1188.13 1575.95 1187.19 1587.9 1186.1C1598.3 1185.15 1608.84 1184.69 1619.13 1186.56C1630.88 1188.7 1644.13 1188.56 1655.73 1191.33C1668.89 1194.53 1678.34 1203.55 1692.53 1197.82C1698.93 1195.23 1704.39 1189.98 1708.63 1184.1C1646.53 1169.68 1583.14 1161.47 1519.4 1159.6L1513.11 1159.45L1507.26 1159.34L1502.46 1159.27H1498.4H1492.21H1485.43H1481.91H1478.16L1474.24 1159.33L1467.52 1159.48C1464.87 1159.54 1462.21 1159.63 1459.58 1159.72C1456.95 1159.81 1454.44 1159.9 1451.88 1160.01H1451.05C1445.77 1160.23 1440.52 1160.5 1435.27 1160.81C1432.58 1160.96 1429.9 1161.14 1427.21 1161.32C1425.21 1161.45 1423.21 1161.6 1421.21 1161.74C1419.21 1161.88 1417.49 1162.02 1415.63 1162.17L1414.17 1162.29L1409.3 1162.69C1403.36 1163.2 1397.42 1163.77 1391.5 1164.4L1386.67 1164.92C1382.28 1165.4 1377.9 1165.92 1373.52 1166.45C1371 1166.76 1368.49 1167.09 1365.97 1167.45C1363.65 1167.75 1361.31 1168.08 1358.97 1168.45C1356.08 1168.84 1353.2 1169.26 1350.31 1169.7C1348.31 1170 1346.31 1170.29 1344.31 1170.62L1339.18 1171.42L1337.53 1171.69L1331.53 1172.69C1330.47 1172.86 1329.42 1173.04 1328.35 1173.23L1325.17 1173.79L1317.35 1175.19L1310.93 1176.41C1245.44 1189.03 1181.46 1208.52 1120.05 1234.56C1117.43 1235.67 1114.83 1236.79 1112.24 1237.91C1109.64 1239.04 1107.04 1240.17 1104.46 1241.32C1101.7 1242.55 1098.96 1243.78 1096.21 1245.03C1093.66 1246.19 1091.11 1247.37 1088.58 1248.55C1086.75 1249.39 1084.92 1250.26 1083.09 1251.12L1077.34 1253.87C1071.44 1256.72 1065.57 1259.63 1059.73 1262.58L1054.54 1265.24C1051.15 1266.99 1047.76 1268.76 1044.4 1270.54C1044.02 1270.74 1043.65 1270.93 1043.28 1271.14L1037.68 1274.14C1036 1275.05 1034.31 1275.97 1032.62 1276.9C1031.5 1277.5 1030.39 1278.12 1029.27 1278.74L1025.93 1280.6C1021.57 1283.04 1017.23 1285.52 1012.93 1288.04L1012.68 1288.18C1049.25 1290.47 1041.02 1331.55 1072.55 1297.72C1086.55 1282.66 1102.19 1262.01 1120.03 1248.83C1132.31 1239.77 1145.66 1240 1159.71 1241.41C1168.6 1242.29 1177.71 1243.64 1187.13 1243.41C1179.08 1249.18 1134.13 1281.5 1139.13 1292.11C1145.96 1306.65 1170.89 1289.01 1161.13 1317.11C1152.42 1342.17 1116.79 1325.11 1094.7 1326.82C1077.6 1328.14 1068.27 1339.59 1049.78 1340.49C1046.24 1340.65 1042.72 1340.61 1039.19 1340.43C1023.33 1339.62 1007.51 1336.06 992.084 1336.51C961.904 1337.39 942.594 1354.77 924.214 1375.96C913.554 1388.26 900.974 1397.44 893.214 1412.23C884.694 1428.4 888.124 1449.58 880.214 1464.15C873.404 1476.66 857.824 1478.72 846.694 1486.15C833.524 1494.96 816.824 1510.85 806.474 1522.87C788.474 1543.73 780.474 1583.39 749.864 1590.96C745.524 1623.21 794.344 1578.25 808.864 1584.7C816.304 1574.85 819.174 1561.82 830.184 1554.44C841.924 1546.57 856.724 1548.44 869.394 1540.31C893.234 1525.11 885.814 1491.9 914.954 1485.88L915.594 1485.75C939.744 1481.17 966.754 1476.44 972.684 1503.01C975.614 1516.18 970.494 1514.95 970.094 1527.68C969.574 1544.75 968.184 1534.26 980.924 1544.68C1000.16 1560.49 1003.42 1579.57 988.254 1601.87C981.064 1612.43 976.894 1610.97 972.664 1624.66C968.234 1639.02 969.834 1653.03 970.314 1667.4C970.854 1683.4 969.314 1699.02 968.774 1715.05C967.904 1741.76 974.354 1751.7 995.464 1768.55C1011.52 1781.34 1028.62 1790.71 1036.87 1810.7C1044.05 1828.05 1042.68 1848.76 1047.41 1866.55C1052.34 1885.12 1098.68 1923.99 1093.61 1890.87C1090.98 1873.78 1071.49 1869.93 1071.61 1849.12C1071.61 1840.69 1075.06 1828.23 1075.98 1819.35C1102.51 1812.12 1095.51 1857.35 1102.64 1870.86C1112.75 1890.06 1139.15 1902.4 1152.95 1917.61C1140.17 1923.61 1118.59 1936.09 1125.72 1953.81C1134.72 1976.18 1163.32 1960.55 1179.06 1960.93C1213.46 1961.76 1247.67 1984.74 1275.73 2003.15C1302.42 2020.65 1313.2 2031.15 1346.85 2028.54C1368.67 2026.87 1387.92 2030.09 1407.65 2040.49C1423.57 2048.89 1431.3 2056.27 1439.46 2071.76C1450.13 2092.04 1454.89 2099.26 1472.84 2113.03C1484.58 2122.03 1490.72 2131.81 1503.73 2131.17C1512.73 2130.72 1519.16 2117.7 1532.73 2121.93C1558.73 2129.99 1551.13 2162.93 1542.64 2178.06C1535.49 2190.83 1528.8 2207.26 1520.84 2219.88C1510.71 2235.97 1484.11 2241.93 1481.04 2263.19C1478.14 2283.35 1500.55 2306.41 1505.55 2325.46C1510.1 2342.74 1509.55 2361.76 1509.55 2379.46C1508.25 2381.32 1507.97 2383.71 1508.55 2386.46C1706.23 2414.87 1907.76 2398.37 2098.17 2338.18C2097.13 2336.94 2096.17 2335.63 2095.29 2334.26ZM1306.53 1416.1C1313.96 1402.03 1326.06 1394.54 1338.14 1385.04C1343.87 1382.23 1348.25 1388.04 1353.81 1388.73C1365.06 1389.98 1376.6 1382.99 1387.81 1386.2C1397.36 1388.95 1395.67 1393.54 1400.66 1401.08C1406.36 1409.64 1415.78 1408.82 1422.54 1415.08C1435.35 1426.89 1415.14 1442.41 1422.6 1456.96C1429.11 1469.68 1502.24 1488.67 1454.51 1504.18C1440.51 1508.72 1432.28 1499.56 1419.59 1495.99C1409.07 1492.99 1388.35 1494.84 1378.77 1500.42C1355.51 1513.97 1407.7 1539.08 1375.5 1548.79C1368.96 1550.79 1347.77 1549.51 1345.5 1541.41C1343.5 1534.23 1353.56 1534.41 1355.64 1527.51C1363.85 1500.44 1330.64 1517.14 1321.39 1514.79C1308.32 1511.45 1312.39 1487.96 1322.74 1482.7C1328.37 1479.84 1342.6 1481.36 1348.85 1481.25C1359.07 1481.06 1369.3 1482.63 1379.53 1481.71C1384.26 1462.09 1354.81 1452.1 1339.31 1450.01C1327.12 1448.37 1325.5 1445.94 1315.43 1438.6C1303.35 1429.77 1298.04 1432.21 1306.53 1416.1ZM1244.53 1478.1C1241.53 1480.26 1225.01 1479.37 1221.31 1478.1C1211.74 1474.92 1208.79 1468.16 1197.57 1468.27C1182.89 1468.43 1168.13 1465.54 1171.39 1447.04C1172.92 1438.36 1181.65 1429.78 1177.52 1420.27C1175.52 1415.68 1166.23 1408.42 1162.12 1405.62C1158.24 1402.98 1153.48 1403.37 1150.12 1401.25C1142.51 1396.49 1145.41 1377.71 1153.85 1374.42C1154.13 1400.31 1192.57 1376.95 1200.51 1388.84C1207.96 1400.58 1192.63 1405.32 1202.67 1413.15C1208.5 1417.68 1223.94 1417.73 1229.82 1416.01C1238.82 1413.36 1253.97 1399.73 1262.92 1409.62C1266.66 1413.76 1266.43 1426.95 1264.6 1431.74C1260.05 1443.61 1251.74 1439.94 1243.97 1446.02C1231.99 1455.46 1253.1 1472.06 1244.56 1478.13L1244.53 1478.1Z" fill="white"/>
<path d="M1471.9 1885.17C1460.99 1881.36 1422.16 1895.4 1438.08 1906.86C1448.88 1914.64 1474.47 1904.63 1487.64 1907.68C1501.26 1910.82 1517.23 1905.86 1530.15 1911.11C1539.7 1914.99 1544.86 1923.81 1555.52 1926.48C1568.4 1929.7 1575.19 1924.48 1563.19 1914.42C1554.77 1907.42 1543.01 1905.48 1533.19 1900.94C1525.77 1897.51 1519.06 1890.79 1511.6 1888.81C1501.76 1886.19 1479.66 1895.09 1471.9 1885.17Z" fill="white"/>
<path d="M1607.59 1943.32C1598 1949.32 1588.91 1952.4 1585.72 1964.69C1581.99 1979.07 1587.96 1976.41 1597.65 1970.83C1603.84 1967.26 1612.3 1961.2 1619.99 1961.6C1627.2 1961.97 1633.65 1967.53 1640.91 1968.83C1653.68 1971.11 1667.73 1969.2 1677.86 1960.37C1685.86 1953.37 1686.46 1944.31 1673.98 1942.31C1664.55 1940.79 1649.41 1945.43 1639.56 1946.44C1629.04 1947.53 1612.86 1948.06 1607.59 1943.32Z" fill="white"/>
<path d="M602.274 1979.76C593.984 1983.26 580.274 1979.23 569.434 1977.22C562.021 1973.89 554.644 1970.63 547.304 1967.45C553.265 1929.59 561.483 1892.11 571.914 1855.23C578.914 1878.35 606.064 1892.64 586.854 1920.87C580.914 1929.58 561.854 1933.69 573.304 1953.26C580.984 1966.37 599.984 1960.47 602.274 1979.76Z" fill="white"/>
<path d="M596.764 1853.9C606.374 1850.83 602.654 1827.4 604.414 1820.99C609.344 1802.99 622.664 1779.79 632.614 1764.91C648.374 1741.32 641.344 1732.59 637.824 1703.8C637.224 1698.91 636.824 1693.65 636.484 1688.42C612.943 1735.33 593.329 1784.11 577.844 1834.26C583.164 1842.5 590.104 1856 596.764 1853.9Z" fill="white"/>
<path d="M1057.95 2237.63C1050.35 2233.52 1042.79 2229.34 1035.26 2225.07C1034.56 2220.24 1033.6 2215.46 1032.4 2210.73C1027.12 2192.16 998.475 2183.04 994.065 2172.07C988.275 2138.95 1035.21 2164.76 1040.58 2175.94C1043.1 2181.18 1040.34 2187.5 1043.92 2193.44C1047.12 2198.7 1055.57 2199.68 1058.17 2204.55C1062.99 2213.55 1058.92 2226.46 1057.95 2237.63Z" fill="white"/>
<g style="mix-blend-mode:multiply" opacity="0.1">
<path d="M1233.1 1195C1207.96 1209.41 1183.55 1224.87 1159.85 1241.38C1117.13 1271.14 1076.82 1304.25 1039.32 1340.38C993.282 1384.73 951.66 1433.45 915.044 1485.85C803.974 1644.85 738.814 1838.18 738.814 2046.85C738.814 2051.05 738.814 2055.22 738.884 2059.41C681.954 2029.92 624.884 2002 569.464 1977.21C562.051 1973.88 554.674 1970.62 547.334 1967.44L547.174 1967.36C547.294 1966.52 547.434 1965.68 547.564 1964.85C548.084 1961.57 548.564 1958.3 549.174 1955.02C549.784 1951.74 550.304 1948.5 550.884 1945.24C551.844 1939.95 552.844 1934.69 553.884 1929.44C554.278 1927.5 554.671 1925.56 555.064 1923.63C555.578 1921.11 556.098 1918.6 556.624 1916.09C557.044 1914.13 557.468 1912.17 557.894 1910.22C558.314 1908.22 558.764 1906.31 559.204 1904.36C559.404 1903.45 559.614 1902.53 559.824 1901.62C559.894 1901.34 559.954 1901.06 560.024 1900.77C560.024 1900.77 560.024 1900.72 560.024 1900.69C560.691 1897.8 561.358 1894.92 562.024 1892.04C563.171 1887.23 564.364 1882.43 565.604 1877.65C566.124 1875.65 566.604 1873.65 567.174 1871.6C567.664 1869.74 568.174 1867.87 568.674 1866.01C569.254 1863.81 569.854 1861.63 570.464 1859.44C570.964 1857.64 571.464 1855.86 571.974 1854.07L572.304 1852.9C572.584 1851.9 572.844 1850.99 573.124 1850.03C573.404 1849.07 573.734 1847.92 574.054 1846.86C574.584 1845.05 575.114 1843.23 575.674 1841.41C576.274 1839.41 576.894 1837.34 577.514 1835.31C578.134 1833.28 578.714 1831.39 579.334 1829.43C581.234 1823.36 583.198 1817.32 585.224 1811.31L585.894 1809.31C586.824 1806.55 587.764 1803.81 588.724 1801.06C589.044 1800.13 589.364 1799.2 589.724 1798.28C590.524 1796 591.334 1793.72 592.154 1791.46C592.974 1789.2 593.814 1786.86 594.664 1784.56C595.278 1782.9 595.894 1781.23 596.514 1779.56C597.601 1776.67 598.701 1773.79 599.814 1770.92L601.464 1766.65C602.094 1765.06 602.724 1763.47 603.354 1761.9C603.984 1760.33 604.564 1758.9 605.154 1757.4C606.974 1752.92 608.821 1748.45 610.694 1744C611.324 1742.51 611.964 1741 612.594 1739.55C613.814 1736.7 615.051 1733.85 616.304 1731.02C616.484 1730.61 616.654 1730.21 616.834 1729.81C617.834 1727.5 618.834 1725.21 619.914 1722.92C620.134 1722.4 620.384 1721.92 620.614 1721.36C621.874 1718.57 623.151 1715.79 624.444 1713.02C625.738 1710.25 627.071 1707.45 628.444 1704.62L628.784 1703.87C630.114 1701.1 631.444 1698.33 632.784 1695.58C716.453 1525.19 848.72 1383.4 1012.89 1288.11L1013.14 1287.97C1017.46 1285.45 1021.8 1282.97 1026.14 1280.53L1029.48 1278.67C1030.6 1278.05 1031.71 1277.43 1032.83 1276.83C1034.51 1275.9 1036.2 1274.98 1037.89 1274.07L1043.49 1271.07C1043.86 1270.86 1044.23 1270.67 1044.61 1270.47C1047.97 1268.69 1051.36 1266.92 1054.75 1265.17L1059.94 1262.51C1065.78 1259.55 1071.65 1256.65 1077.55 1253.8L1083.3 1251.05C1085.13 1250.19 1086.96 1249.32 1088.79 1248.48C1091.32 1247.3 1093.87 1246.12 1096.42 1244.96C1099.17 1243.71 1101.91 1242.48 1104.67 1241.25C1146.32 1222.77 1189.24 1207.32 1233.1 1195Z" fill="black"/>
</g>
<path d="M2448.93 2109C2448.93 2108 2448.93 2107 2448.93 2106.07L2448.87 2101.59C2448.87 2100.42 2448.87 2099.24 2448.81 2098.07C2448.81 2097.85 2448.81 2097.62 2448.81 2097.4C2448.81 2095.76 2448.75 2094.12 2448.7 2092.48C2448.66 2090.4 2448.61 2088.33 2448.53 2086.26C2448.53 2085.11 2448.46 2083.94 2448.41 2082.79C2448.41 2082.35 2448.41 2081.92 2448.41 2081.47V2080.65C2448.35 2078.84 2448.27 2077.01 2448.2 2075.2C2448.1 2072.53 2447.97 2069.85 2447.82 2067.14C2447.68 2064.43 2447.53 2061.75 2447.38 2059.08C2447.24 2056.89 2447.11 2054.68 2446.97 2052.49C2414.97 1562.61 2014.23 1173.35 1519.59 1159.55L1513.3 1159.4L1507.45 1159.29L1502.65 1159.22H1498.59H1492.4H1485.62H1482.1H1478.35L1474.43 1159.28L1467.71 1159.43C1465.06 1159.49 1462.4 1159.58 1459.77 1159.67C1457.14 1159.76 1454.63 1159.85 1452.07 1159.96H1451.24C1445.96 1160.18 1440.71 1160.45 1435.46 1160.76C1432.77 1160.91 1430.09 1161.09 1427.4 1161.27C1425.4 1161.4 1423.4 1161.55 1421.4 1161.69C1419.4 1161.83 1417.68 1161.97 1415.82 1162.12L1414.36 1162.24L1409.49 1162.64C1403.55 1163.15 1397.61 1163.72 1391.69 1164.35L1386.86 1164.87C1382.47 1165.35 1378.09 1165.87 1373.71 1166.4C1371.19 1166.71 1368.68 1167.04 1366.16 1167.4C1363.84 1167.7 1361.5 1168.03 1359.16 1168.4C1356.27 1168.79 1353.39 1169.21 1350.5 1169.65C1348.5 1169.95 1346.5 1170.24 1344.5 1170.57L1339.37 1171.37L1337.72 1171.64L1331.72 1172.64C1330.66 1172.81 1329.61 1172.99 1328.54 1173.18L1325.36 1173.74L1317.54 1175.14L1311.12 1176.36C1066.21 1223.3 854.534 1363.65 714.544 1558.88C712.834 1561.27 711.124 1563.68 709.434 1566.08C707.744 1568.48 706.054 1570.9 704.374 1573.33C702.854 1575.54 701.334 1577.77 699.814 1580.01C696.234 1585.29 692.704 1590.62 689.224 1596.01C688.151 1597.65 687.084 1599.32 686.024 1601.01C685.324 1602.1 684.634 1603.18 683.944 1604.28C683.484 1604.99 683.044 1605.7 682.594 1606.41L679.284 1611.69C670.404 1625.9 661.898 1640.38 653.764 1655.13C653.154 1656.22 652.564 1657.31 651.974 1658.4C650.954 1660.24 649.954 1662.08 648.974 1663.93L647.764 1666.2C645.924 1669.64 644.111 1673.09 642.324 1676.54C641.544 1678.03 640.774 1679.54 640.004 1681.02C639.364 1682.26 638.734 1683.51 638.114 1684.76C637.204 1686.56 636.284 1688.37 635.384 1690.19L632.684 1695.64C631.324 1698.39 629.994 1701.16 628.684 1703.93L628.344 1704.68C627.011 1707.47 625.678 1710.27 624.344 1713.08C623.011 1715.89 621.734 1718.67 620.514 1721.42C620.284 1721.94 620.034 1722.42 619.814 1722.98C618.814 1725.27 617.744 1727.56 616.734 1729.87C616.554 1730.27 616.384 1730.67 616.204 1731.08C614.958 1733.91 613.721 1736.75 612.494 1739.61C611.864 1741.09 611.224 1742.61 610.594 1744.06C608.708 1748.51 606.861 1752.98 605.054 1757.46C604.464 1758.96 603.854 1760.46 603.254 1761.96C602.654 1763.46 601.994 1765.12 601.364 1766.71L599.764 1771C598.651 1773.87 597.551 1776.75 596.464 1779.64C595.844 1781.29 595.228 1782.96 594.614 1784.64C593.764 1786.94 592.934 1789.24 592.104 1791.54C591.274 1793.84 590.474 1796.08 589.674 1798.36C589.344 1799.28 589.024 1800.21 588.674 1801.14C587.674 1803.89 586.774 1806.63 585.844 1809.39L585.174 1811.39C583.174 1817.39 581.211 1823.43 579.284 1829.51C578.664 1831.47 578.058 1833.43 577.464 1835.39C576.844 1837.39 576.224 1839.46 575.624 1841.49C575.064 1843.31 574.534 1845.13 574.004 1846.94C573.684 1848 573.384 1849.06 573.074 1850.11C572.764 1851.16 572.524 1852 572.254 1852.95L571.924 1854.12C571.414 1855.91 570.924 1857.69 570.414 1859.49C569.804 1861.68 569.204 1863.86 568.624 1866.06C568.114 1867.92 567.624 1869.79 567.124 1871.65C566.594 1873.65 566.124 1875.65 565.554 1877.7C564.321 1882.49 563.128 1887.28 561.974 1892.09C561.308 1894.97 560.641 1897.85 559.974 1900.74C559.974 1900.74 559.974 1900.8 559.974 1900.82C559.904 1901.11 559.844 1901.39 559.774 1901.67C559.564 1902.58 559.354 1903.5 559.154 1904.41C558.714 1906.36 558.264 1908.31 557.844 1910.27C557.424 1912.23 556.994 1914.18 556.574 1916.14C556.048 1918.65 555.528 1921.16 555.014 1923.68C554.614 1925.61 554.221 1927.54 553.834 1929.49C552.801 1934.74 551.801 1940.01 550.834 1945.29C550.254 1948.55 549.674 1951.81 549.124 1955.07C548.574 1958.33 548.034 1961.62 547.514 1964.9C547.384 1965.73 547.244 1966.57 547.114 1967.41C546.984 1968.25 546.864 1969.02 546.754 1969.82C546.874 1969.01 546.994 1968.21 547.124 1967.41L547.284 1967.49C554.618 1970.68 561.994 1973.94 569.414 1977.26C624.814 2002.05 681.904 2029.97 738.834 2059.46C833.334 2108.39 927.364 2161.6 1012.31 2211.85C1019.93 2216.35 1027.57 2220.77 1035.24 2225.11C1042.76 2229.38 1050.33 2233.57 1057.93 2237.67C1198.21 2313.54 1350.81 2363.95 1508.67 2386.56C1706.35 2414.97 1907.88 2398.47 2098.29 2338.28C2110.34 2334.48 2122.34 2330.48 2134.29 2326.28C2207.78 2300.67 2278.69 2268.67 2342.91 2228.73C2380.34 2205.65 2415.61 2179.25 2448.31 2149.86C2448.31 2150.56 2448.31 2151.26 2448.25 2151.97C2448.25 2151.26 2448.25 2150.56 2448.32 2149.85C2448.39 2148.16 2448.44 2146.46 2448.49 2144.77C2448.57 2142.52 2448.63 2140.27 2448.67 2138C2448.72 2135.45 2448.78 2132.89 2448.81 2130.33C2448.81 2129.01 2448.81 2127.7 2448.81 2126.33C2448.81 2126.02 2448.81 2125.71 2448.81 2125.33V2121.94C2448.81 2119.88 2448.81 2117.82 2448.81 2115.76C2448.91 2113.55 2448.95 2111.29 2448.93 2109ZM2446.35 2186.85C2446.35 2186.56 2446.37 2186.28 2446.41 2186.01L2446.53 2184.2C2446.48 2185.13 2446.41 2186 2446.35 2186.89V2186.85ZM2445.15 2201.52C2445.26 2200.33 2445.37 2199.13 2445.47 2197.94V2197.84C2445.53 2197.21 2445.58 2196.57 2445.63 2195.94C2445.47 2197.84 2445.32 2199.69 2445.15 2201.56V2201.52Z" stroke="black" stroke-width="4" stroke-miterlimit="10" stroke-linecap="round"/>
<path d="M1651.76 1029.68C1651.76 1029.68 1791.82 915.37 1839.83 887.18C1839.83 887.18 1883.33 973.98 1879 1044.41L1809.35 1077.69L1651.76 1029.68Z" fill="#FCAA23" stroke="black" stroke-width="4" stroke-linecap="round" stroke-linejoin="round"/>
<path d="M1212.02 436.84C1212.02 436.84 1214.74 393.42 1284.54 374.84C1354.34 356.26 1421.19 440.73 1427.05 499.29C1432.91 557.85 1365.05 602.29 1365.05 602.29L1212.02 436.84Z" fill="#FCAA23" stroke="black" stroke-width="4" stroke-linecap="round" stroke-linejoin="round"/>
<path d="M1675.24 562.74C1675.24 562.74 1652.12 609.02 1651.36 627.31C1650.6 645.6 1658.14 667.471 1651.28 670.511C1644.42 673.551 1627.23 663.381 1620.37 671.001C1613.51 678.62 1589.89 705 1569.31 702.86C1539.75 699.73 1504.53 676.86 1504.53 676.86L1458.05 772.86L1375.76 747.72C1375.76 747.72 1458.07 601.4 1477.12 586.92C1496.17 572.44 1606.65 475.3 1675.24 562.74Z" fill="white" stroke="black" stroke-width="4" stroke-linecap="round" stroke-linejoin="round"/>
<path d="M1647.23 580.26C1647.23 580.26 1606.14 562.79 1586.84 576.5C1569.59 588.76 1528.38 612.65 1489 636.91C1474.34 645.847 1462.09 658.251 1453.34 673.03C1451.16 676.725 1449.25 680.576 1447.63 684.55C1439.63 704.4 1403.54 751.06 1453.02 754.98C1502.5 758.9 1410.25 852.12 1394.9 808.3C1379.55 764.48 1376 731.46 1391.75 708.59C1407.5 685.72 1455.25 615.59 1455.25 615.59C1455.25 615.59 1570.58 517.03 1626.46 545.48C1682.34 573.93 1647.23 580.26 1647.23 580.26Z" fill="#FCAA23"/>
<path d="M1497.93 778.42C1497.93 778.42 1552.29 864.57 1570.58 876.25C1588.87 887.93 1615.29 917.91 1625.45 955C1635.61 992.09 1636.63 1045.43 1636.63 1045.43C1636.63 1045.43 1598.52 1079.43 1577.69 1033.75C1556.86 988.07 1497.93 778.42 1497.93 778.42Z" fill="#FCAA23" stroke="black" stroke-width="4" stroke-linecap="round" stroke-linejoin="round"/>
<path d="M1389.66 723.3C1389.66 723.3 1409.53 755.3 1431.88 757.37C1454.23 759.44 1461.88 745.69 1481.67 757.37C1501.46 769.05 1566.51 919.44 1566.51 919.44C1566.51 919.44 1562.58 923 1559.51 925.79C1559.51 925.79 1638.13 1106.91 1584.28 1129.26C1530.43 1151.61 1400.87 1116.05 1380.04 1062.2C1359.21 1008.35 1346.85 867.13 1346.85 867.13C1346.85 867.13 1363.2 715.65 1389.66 723.3Z" fill="white" stroke="black" stroke-width="4" stroke-linecap="round" stroke-linejoin="round"/>
<path d="M1434.93 889.13C1434.93 889.13 1401.93 902.8 1451.45 974.42C1479.13 1014.42 1517.23 1030.69 1502.45 1062.19C1496.12 1075.74 1450.84 1109.78 1394.85 1048.19C1394.85 1048.19 1432.34 1175.54 1575.1 1153.19C1717.86 1130.84 1482.81 959.97 1482.81 959.97C1482.81 959.97 1464.4 944.33 1434.93 889.13Z" fill="#FCAA23"/>
<path d="M1438.5 757.53C1438.5 757.53 1405.5 758.9 1389.21 839.17C1372.92 919.44 1353.64 1001.74 1400.89 1055.59C1448.14 1109.44 1511.14 1119.59 1555.34 1066.26L1755.51 1051H1931.29C1931.29 1051 1978.54 1115 1946.53 1209.51C1946.53 1209.51 1885.63 1234.15 1788.33 1256.25C1699.48 1276.42 1527.4 1312.64 1432.14 1191.98C1319.23 1048.98 1333.07 895.54 1384.89 789.61C1384.89 789.61 1400.55 760.23 1425.28 753.8C1425.28 753.82 1436.22 752.86 1438.5 757.53Z" fill="#FCAA23" stroke="black" stroke-width="4" stroke-linecap="round" stroke-linejoin="round"/>
<path d="M1937.39 1066.51C1937.39 1066.51 1800.22 1062.7 1757.54 1066.51C1714.86 1070.32 1612.15 1088.61 1578.54 1103.85C1544.93 1119.09 1479.9 1218.77 1588.87 1272.52C1588.87 1272.52 1482.18 1268.04 1416.64 1168.67C1416.64 1168.67 1366.35 1099.27 1353.64 1014.43C1353.64 1014.43 1340.64 934.67 1343.74 916.89C1345.75 905.78 1349.52 895.062 1354.91 885.14C1354.91 885.14 1364.91 835.93 1380.57 804.78C1380.57 804.78 1393.57 765.78 1425.79 756.18C1428.25 755.862 1430.74 755.977 1433.15 756.52C1433.15 756.52 1404.96 765.24 1391.75 819.6C1378.54 873.96 1363.55 955.32 1370.16 982.68C1370.16 982.68 1368.89 1029.17 1406.73 1065.24C1444.57 1101.31 1475.07 1108.43 1509.61 1101.06C1509.61 1101.06 1535.52 1094.96 1556.61 1068.8C1556.61 1068.8 1725.7 1050.55 1793.78 1054.01C1861.86 1057.47 1931.78 1054.01 1931.78 1054.01L1937.39 1066.51Z" fill="#EA8B00"/>
<path d="M1208.85 611.56L1149.41 756.36L1245.41 762.96C1245.41 762.96 1261.66 677.1 1311.96 595.31C1362.26 513.52 1208.85 611.56 1208.85 611.56Z" fill="white" stroke="black" stroke-width="4" stroke-linecap="round" stroke-linejoin="round"/>
<path d="M1206.4 620.19L1190.82 660.331C1190.82 660.331 1228.41 686.24 1279.98 651.44L1298.76 608L1206.4 620.19Z" fill="#FCAA23"/>
<path d="M904.034 1302.51L824.034 1316.22L806.574 1231.64L764.074 1025.64C764.074 1025.64 827.324 1019.83 845.614 1068.96C845.614 1068.96 859.124 1138.45 868.444 1217.05C869.734 1227.89 870.944 1238.9 872.024 1249.94C874.144 1271.56 904.424 1281.42 904.034 1302.51Z" fill="white" stroke="black" stroke-width="4" stroke-linecap="round" stroke-linejoin="round"/>
<path d="M904.034 1302.51L824.034 1316.22L806.574 1231.64C814.711 1228.56 823.276 1226.76 831.964 1226.3C831.964 1226.3 856.574 1234.3 868.444 1217.03C869.734 1227.87 870.944 1238.88 872.024 1249.92C874.144 1271.56 904.424 1281.42 904.034 1302.51Z" fill="#636363" stroke="black" stroke-width="4" stroke-miterlimit="10" stroke-linecap="round"/>
<path d="M988.364 1193.27C938.574 1173.96 793.274 1043.91 793.274 1043.91C811.534 1082.09 822.464 1161.7 831.954 1226.3C834.454 1243.3 836.844 1259.18 839.244 1273.04C844.514 1303.35 858.304 1323.84 858.304 1323.84L810.304 1353.56C810.304 1353.56 789.064 1306.39 762.554 1250.13C733.554 1188.52 698.164 1116 677.464 1082.55C637.834 1018.55 627.674 938.25 649.014 879.33C670.354 820.41 755.694 860.33 755.694 860.33L1033.09 964.62C1033.09 964.62 1038.15 1212.58 988.364 1193.27Z" fill="white" stroke="black" stroke-width="4" stroke-linecap="round" stroke-linejoin="round"/>
<path d="M782.094 1016.19C782.094 1016.19 890.314 1109.96 993.194 993.11L935.024 1150.11L873.024 1110.48L795.304 1043L782.094 1016.19Z" fill="#FCAA23"/>
<path d="M993.194 993.11C993.194 993.11 942.814 1077.63 867.794 1107.76C867.794 1107.76 860.674 1105.55 871.854 1118.76C883.034 1131.97 890.484 1138.41 890.484 1138.41C890.484 1138.41 883.964 1140.1 886.414 1145.86C888.674 1151.15 1068.63 1336.04 1221.81 1208.01C1221.81 1208 1170.76 959.57 993.194 993.11Z" fill="#0B065A" stroke="black" stroke-width="4" stroke-miterlimit="10" stroke-linecap="round"/>
<path d="M890.484 1138.41C890.484 1138.41 912.834 1134 955.484 1095.73" stroke="white" stroke-width="3" stroke-miterlimit="10" stroke-linecap="round"/>
<path d="M968.044 1081.17C968.044 1081.17 995.814 1057.8 1008.68 1020.88" stroke="white" stroke-width="3" stroke-miterlimit="10" stroke-linecap="round"/>
<path d="M1235.76 413.43C1222.03 422.217 1211.3 434.971 1204.98 450C1194.73 474.89 1156.24 480.46 1149.41 532.68C1142.58 584.9 1149.05 634.91 1186.14 642.23C1223.23 649.55 1286.98 654.5 1333.34 607.64C1333.34 607.64 1367.51 624.24 1389.96 593.49C1412.41 562.74 1372.39 555.42 1358.72 565.18C1358.72 565.18 1378.72 487.09 1314.31 425.11C1277.94 390.16 1245.98 409.37 1235.76 413.43Z" fill="white" stroke="black" stroke-width="4" stroke-linecap="round" stroke-linejoin="round"/>
<path d="M1170.19 705.741C1170.19 705.741 1156.01 739.591 1188.53 741.621C1221.05 743.651 1259.68 710.311 1259.68 710.311C1259.68 710.311 1267.78 690.31 1300.3 738.07C1332.82 785.83 1348.56 850.341 1349.58 901.661C1350.6 952.981 1352.12 1116.56 1210.38 1226.3C1210.38 1226.3 1186.75 1140.95 1051.87 1015.21L1080.87 852.121C1080.87 852.121 1170.22 678.631 1170.19 705.741Z" fill="#FCAA23" stroke="black" stroke-width="4" stroke-linecap="round" stroke-linejoin="round"/>
<path d="M1200.81 876.25C1200.81 876.25 1206.57 875.49 1203.26 885.9C1199.95 896.31 1196.4 1048.73 1106.26 1065.75L1043.71 1003.75C1043.71 1003.75 1195.82 864.39 1200.81 876.25Z" fill="#EA8B00"/>
<path d="M1086.12 855.46C1086.12 855.46 1051.87 888.28 1030.74 913.46C1030.74 913.46 946.744 874.25 859.824 860.54C859.824 860.54 867.454 818.62 851.444 808.72C835.434 798.82 825.534 764.52 820.204 792.72C819.657 795.984 819.813 799.326 820.659 802.525C821.506 805.723 823.025 808.705 825.114 811.27C832.224 819.73 813.934 835.27 790.904 835.27C776.987 835.262 763.156 833.093 749.904 828.84C749.904 828.84 740.904 850.34 764.044 865.26C778.334 874.48 835.624 896.26 868.784 912.33C897.784 926.39 1018.78 1027.14 1051.85 1015.21C1084.92 1003.28 1161.08 902.67 1161.08 902.67L1086.12 855.46Z" fill="white" stroke="black" stroke-width="4" stroke-linecap="round" stroke-linejoin="round"/>
<path d="M1076.25 867.87C1076.25 867.87 1113.45 904.54 1113.85 932.13C1114.25 959.72 1090.22 981.92 1090.22 981.92C1090.22 981.92 1150.93 918.68 1159.83 898.99C1168.73 879.3 1093.27 849.83 1093.27 849.83L1076.25 867.87Z" fill="#FCAA23"/>
<path d="M1030.76 913.43C1030.76 913.43 1056.2 924.35 1066.08 935.27L1030.76 913.43Z" fill="white"/>
<path d="M1030.76 913.43C1030.76 913.43 1056.2 924.35 1066.08 935.27" stroke="black" stroke-width="4" stroke-linecap="round" stroke-linejoin="round"/>
<path d="M734.854 953.48C734.854 953.48 763.854 974.821 793.274 1043.91" stroke="black" stroke-width="4" stroke-linecap="round" stroke-linejoin="round"/>
<path d="M822.764 1288.05C822.764 1288.05 863.644 1284.34 876.344 1252.34C876.344 1252.34 878.344 1245.22 886.004 1256.4C893.664 1267.58 948.494 1295.01 936.294 1316.86C924.094 1338.71 814.874 1441.33 784.394 1460.63C753.914 1479.93 717.834 1454.03 734.094 1426.63C750.354 1399.23 800.654 1336.19 809.284 1313.84C817.914 1291.49 816.404 1285.16 822.764 1288.05Z" fill="#0B065A" stroke="black" stroke-width="4" stroke-miterlimit="10" stroke-linecap="round"/>
<path d="M858.304 1323.84L810.304 1353.56C810.304 1353.56 789.064 1306.39 762.554 1250.13C762.554 1250.13 803.274 1258.67 831.974 1226.32C834.474 1243.32 836.864 1259.2 839.264 1273.06C844.514 1303.35 858.304 1323.84 858.304 1323.84Z" fill="#636363" stroke="black" stroke-width="4" stroke-miterlimit="10" stroke-linecap="round"/>
<path d="M1504.53 676.85C1504.53 676.85 1497.2 673.75 1485.74 663.21L1504.53 676.85Z" fill="white"/>
<path d="M1504.53 676.85C1504.53 676.85 1497.2 673.75 1485.74 663.21" stroke="black" stroke-width="4" stroke-linecap="round" stroke-linejoin="round"/>
<path d="M1664.58 585.84C1664.58 585.84 1674.98 589.21 1679.81 587.43C1684.64 585.65 1731.12 536.88 1667.11 486.58C1667.11 486.58 1638.11 438.32 1571.6 436.8C1505.09 435.28 1468.46 471.85 1451.19 507.92C1433.92 543.99 1420.76 649.76 1420.76 649.76C1420.76 649.76 1394.34 677.1 1354.76 676.85C1315.18 676.6 1315.64 657.29 1315.64 657.29C1315.64 657.29 1290.43 732.84 1340.13 751.68C1361.18 759.68 1384.87 752.68 1399.28 735.42C1412.22 719.89 1426.35 694.94 1427.45 659.34C1427.45 659.34 1453.83 653.73 1497.01 609.02C1540.19 564.31 1545.79 555.17 1570.17 567.36C1570.17 567.36 1574.24 572.44 1572.71 582.61C1572.71 582.61 1584.4 558.11 1595.57 562.74C1606.74 567.37 1664.58 585.84 1664.58 585.84Z" fill="#0B065A"/>
<path d="M1539.93 609.28C1512.15 582.35 1539.17 567.78 1539.17 567.78C1539.17 567.78 1556.6 555.87 1570.07 567.36C1570.07 567.36 1574.55 569.12 1573.33 581.2" fill="#FCAA23"/>
<path d="M1539.93 609.28C1512.15 582.35 1539.17 567.78 1539.17 567.78C1539.17 567.78 1556.6 555.87 1570.07 567.36C1570.07 567.36 1574.55 569.12 1573.33 581.2" stroke="black" stroke-width="4" stroke-linecap="round" stroke-linejoin="round"/>
<path d="M1885.9 1035.41H1778.12C1778.12 1035.41 1609.53 1093.02 1572.61 1076.76C1535.69 1060.5 1482.85 959.911 1482.85 959.911L1485 959.661C1522.7 954.881 1544.91 939.23 1554.28 930.99C1556.15 929.379 1557.91 927.642 1559.53 925.791C1559.53 925.791 1590.06 1011.79 1604.79 1008.69C1619.52 1005.59 1763.97 1000.01 1780.91 1002.69C1797.85 1005.37 1819.01 986.811 1835.27 982.401C1851.53 977.991 1890.99 1035.41 1885.9 1035.41Z" fill="white" stroke="black" stroke-width="4" stroke-linecap="round" stroke-linejoin="round"/>
<path d="M1524.84 1024.1C1523.94 1022.77 1499.19 986.1 1486.53 961.34C1524.23 956.57 1549.28 937.78 1558.64 929.54C1560.44 929.09 1550.13 941.02 1546.27 944.79C1546.27 944.79 1527.39 964.3 1517.49 971.92C1507.59 979.54 1524.36 1022.84 1524.84 1024.1Z" fill="#FCAA23"/>
<path d="M1604.76 1008.69C1599.82 1008.63 1594.92 1009.63 1590.4 1011.61C1585.87 1013.6 1581.82 1016.52 1578.51 1020.2" fill="#FCAA23"/>
<path d="M1604.76 1008.69C1599.82 1008.63 1594.92 1009.63 1590.4 1011.61C1585.87 1013.6 1581.82 1016.52 1578.51 1020.2" stroke="black" stroke-width="4" stroke-linecap="round" stroke-linejoin="round"/>
<path d="M2085.28 1168.35C2085.28 1168.35 2055.19 1183.47 2040.99 1185.79L2085.28 1168.35Z" fill="white"/>
<path d="M2085.28 1168.35C2085.28 1168.35 2055.19 1183.47 2040.99 1185.79" stroke="black" stroke-width="4" stroke-linecap="round" stroke-linejoin="round"/>
<path d="M2194.76 1418.48C2194.76 1418.48 2235.48 1454.56 2254.46 1431.24C2254.46 1431.24 2258.59 1425.37 2260.83 1434.59C2263.07 1443.81 2283.73 1540.33 2294.15 1559.07C2304.57 1577.81 2303.48 1586.38 2298.15 1591.85C2292.82 1597.32 2257.59 1608.71 2213.15 1539.04C2168.71 1469.37 2148.09 1442.67 2151.69 1438.52C2155.29 1434.37 2189.44 1404.06 2194.76 1418.48Z" fill="#0B065A" stroke="black" stroke-width="4" stroke-miterlimit="10" stroke-linecap="round"/>
<path d="M1155 763C1125.01 791.311 1096.69 821.335 1070.16 852.921C1070.16 852.921 1125.02 881.121 1149.41 930.661L1200.81 875.021" fill="#FCAA23"/>
<path d="M1155 763C1125.01 791.311 1096.69 821.335 1070.16 852.921C1070.16 852.921 1125.02 881.121 1149.41 930.661L1200.81 875.021" stroke="black" stroke-width="4" stroke-linecap="round" stroke-linejoin="round"/>
<path d="M794.044 1317.9C794.044 1317.9 834.934 1314.19 847.634 1282.18C847.634 1282.18 849.634 1275.07 857.284 1286.25C864.934 1297.43 919.774 1324.86 907.584 1346.7C895.394 1368.54 786.164 1471.18 755.684 1490.48C725.204 1509.78 689.124 1483.88 705.384 1456.48C721.644 1429.08 771.934 1366.05 780.574 1343.7C789.214 1321.35 787.704 1315 794.044 1317.9Z" fill="#0B065A" stroke="black" stroke-width="4" stroke-miterlimit="10" stroke-linecap="round"/>
<path d="M1437.13 889.13C1437.13 889.13 1452.88 938.07 1462.54 960.93C1462.54 960.93 1469.99 960.93 1482.86 959.93" fill="white"/>
<path d="M1437.13 889.13C1437.13 889.13 1452.88 938.07 1462.54 960.93C1462.54 960.93 1469.99 960.93 1482.86 959.93" stroke="black" stroke-width="4" stroke-linecap="round" stroke-linejoin="round"/>
<path d="M1991.24 1035.41H1778.12V1057.47H1991.24V1035.41Z" fill="#0B065A" stroke="black" stroke-width="4" stroke-miterlimit="10" stroke-linecap="round"/>
<path d="M2078.56 853.945L1969.9 1042.15L1989 1053.18L2097.66 864.975L2078.56 853.945Z" fill="#0B065A" stroke="black" stroke-width="4" stroke-miterlimit="10" stroke-linecap="round"/>
<path d="M1609.05 1078.61C1609.05 1078.61 1629.65 1101.87 1594.59 1152.19" stroke="black" stroke-width="4" stroke-linecap="round" stroke-linejoin="round"/>
<path d="M1845.43 1002.72L1875.04 1015.62C1875.04 1015.62 1884.47 1025.15 1885.91 1035.41H1873.37C1865.08 1025.86 1853.63 1019.59 1841.11 1017.74" fill="white"/>
<path d="M1845.43 1002.72L1875.04 1015.62C1875.04 1015.62 1884.47 1025.15 1885.91 1035.41H1873.37C1865.08 1025.86 1853.63 1019.59 1841.11 1017.74" stroke="black" stroke-width="4" stroke-linecap="round" stroke-linejoin="round"/>
<path d="M1834 1026.88C1834 1026.88 1843.15 1033.02 1850.77 1035.41L1834 1026.88Z" fill="white"/>
<path d="M1834 1026.88C1834 1026.88 1843.15 1033.02 1850.77 1035.41" stroke="black" stroke-width="4" stroke-linecap="round" stroke-linejoin="round"/>
<path d="M1205.93 495.198C1208.19 492.156 1208.5 488.561 1206.63 487.169C1204.75 485.776 1201.4 487.113 1199.14 490.155C1196.88 493.197 1196.57 496.792 1198.45 498.185C1200.32 499.578 1203.67 498.24 1205.93 495.198Z" fill="black"/>
<path d="M1262.49 535.155C1264.75 532.113 1265.06 528.518 1263.18 527.125C1261.31 525.733 1257.96 527.07 1255.7 530.112C1253.44 533.154 1253.13 536.749 1255.01 538.142C1256.88 539.534 1260.23 538.197 1262.49 535.155Z" fill="black"/>
<path d="M1169.18 552.94C1169.18 552.94 1169.18 589.28 1208.64 579.94L1169.18 552.94Z" fill="white"/>
<path d="M1169.18 552.94C1169.18 552.94 1169.18 589.28 1208.64 579.94" stroke="black" stroke-width="4" stroke-linecap="round" stroke-linejoin="round"/>
<path d="M1225.11 502.84C1225.11 502.84 1202.46 525.06 1189.24 531.12C1179.57 535.55 1200.81 549.58 1200.81 549.58" fill="white"/>
<path d="M1225.11 502.84C1225.11 502.84 1202.46 525.06 1189.24 531.12C1179.57 535.55 1200.81 549.58 1200.81 549.58" stroke="black" stroke-width="4" stroke-linecap="round" stroke-linejoin="round"/>
<path d="M1202.59 454.84C1202.59 454.84 1219.01 446.7 1231.46 464.99L1202.59 454.84Z" fill="white"/>
<path d="M1202.59 454.84C1202.59 454.84 1219.01 446.7 1231.46 464.99" stroke="black" stroke-width="4" stroke-linecap="round" stroke-linejoin="round"/>
<path d="M1273.03 499.811C1273.03 499.811 1295.54 501.661 1296.71 526.661L1273.03 499.811Z" fill="white"/>
<path d="M1273.03 499.811C1273.03 499.811 1295.54 501.661 1296.71 526.661" stroke="black" stroke-width="4" stroke-linecap="round" stroke-linejoin="round"/>
<path d="M1622.76 596.65C1622.76 596.65 1634.08 584.83 1648.62 594.65L1622.76 596.65Z" fill="white"/>
<path d="M1622.76 596.65C1622.76 596.65 1634.08 584.83 1648.62 594.65" stroke="black" stroke-width="4" stroke-linecap="round" stroke-linejoin="round"/>
<path d="M1638.7 614.96C1640.02 611.564 1639.35 608.13 1637.19 607.289C1635.04 606.448 1632.22 608.519 1630.89 611.915C1629.57 615.311 1630.24 618.745 1632.4 619.586C1634.55 620.427 1637.37 618.356 1638.7 614.96Z" fill="black"/>
<path d="M1593.95 680.17C1593.95 680.17 1566.26 673.03 1576.68 646.1L1593.95 680.17Z" fill="white"/>
<path d="M1593.95 680.17C1593.95 680.17 1566.26 673.03 1576.68 646.1" stroke="black" stroke-width="4" stroke-linecap="round" stroke-linejoin="round"/>
<path d="M1623.76 1093.85C1623.76 1093.85 1646.54 1137.38 1591.67 1172.61" stroke="white" stroke-width="3" stroke-miterlimit="10" stroke-linecap="round"/>
<path d="M1658.12 491.15C1658.12 491.15 1698.79 521.81 1675.24 572.95" stroke="white" stroke-width="3" stroke-miterlimit="10" stroke-linecap="round"/>
<path d="M1648.58 499.811C1648.58 499.811 1657.96 542.121 1615.29 562.361" stroke="white" stroke-width="3" stroke-miterlimit="10" stroke-linecap="round"/>
<path d="M1628.5 483.53C1628.5 483.53 1519.76 420.8 1463.89 540.36C1463.89 540.36 1452.2 567.49 1430.89 638.8" stroke="white" stroke-width="3" stroke-miterlimit="10" stroke-linecap="round"/>
<path d="M1593.95 496.091C1593.95 496.091 1548.21 490.16 1520.26 525.73" stroke="white" stroke-width="3" stroke-miterlimit="10" stroke-linecap="round"/>
<path d="M1421.21 655.25C1421.21 655.25 1363.55 739.44 1327.21 687.76" stroke="white" stroke-width="3" stroke-miterlimit="10" stroke-linecap="round"/>
<path d="M1415.02 679.89C1415.02 679.89 1397.34 736.54 1352.63 740.09" stroke="white" stroke-width="3" stroke-miterlimit="10" stroke-linecap="round"/>
<path d="M774.594 1355.41C774.594 1355.41 789.284 1373.12 810.414 1368.71" stroke="white" stroke-width="3" stroke-miterlimit="10" stroke-linecap="round"/>
<path d="M761.014 1376C761.014 1376 775.714 1393.7 796.844 1389.3" stroke="white" stroke-width="3" stroke-miterlimit="10" stroke-linecap="round"/>
<path d="M743.104 1400.08C743.104 1400.08 757.794 1417.79 778.934 1413.38" stroke="white" stroke-width="3" stroke-miterlimit="10" stroke-linecap="round"/>
</svg>
