<svg width="512" height="512" viewBox="0 0 512 512" fill="none" xmlns="http://www.w3.org/2000/svg">
<path d="M512 256C512 357.46 452.96 445.15 367.37 486.56C362.16 489.09 356.85 491.44 351.45 493.61C348.49 494.8 345.49 495.94 342.47 497.02C337.64 498.75 332.74 500.35 327.78 501.8C324.48 502.76 321.15 503.66 317.79 504.49C310.4 506.32 302.88 507.84 295.25 509.01C288.67 510.02 282 510.79 275.26 511.28C268.9 511.76 262.48 512 256 512C253.01 512 250.04 511.95 247.08 511.85C243.73 511.73 240.4 511.55 237.09 511.31C229.48 510.76 221.96 509.87 214.55 508.65C207.8 507.56 201.13 506.2 194.56 504.57C185.61 502.37 176.84 499.69 168.29 496.57C162.9 494.61 157.59 492.47 152.37 490.15C149.34 488.81 146.35 487.42 143.39 485.96C58.47 444.3 0 356.97 0 256C0 114.62 114.62 0 256 0C397.38 0 512 114.62 512 256Z" fill="#78C795"/>
<path d="M155.484 345.067C129.863 344.329 113.779 322.195 103.545 280.952C101.444 272.084 106.928 263.193 115.795 261.091C124.662 258.989 133.554 264.474 135.655 273.341C142.377 301.702 151.688 311.666 155.144 312.048C155.328 312.073 173.109 313.155 208.401 240.629C212.388 232.436 222.264 229.025 230.457 233.012C238.651 236.999 242.061 246.874 238.074 255.068C217.545 295.491 192.385 343.678 155.484 345.067Z" fill="#50755C"/>
<path d="M134.781 293.989C129.555 299.211 121.076 299.226 115.845 293.989L90.1349 268.279C84.8449 263.018 84.9889 254.448 90.1349 249.343C95.3709 244.11 103.835 244.11 109.071 249.343L134.781 275.053C139.929 280.161 140.074 288.72 134.781 293.989Z" fill="#EAB39B"/>
<path d="M134.781 285.504C129.555 290.726 121.076 290.741 115.845 285.504L90.1348 259.794C88.6148 258.274 87.5398 256.492 86.9028 254.583C89.7968 245.29 102.277 242.291 109.071 249.344L134.781 275.054C136.301 276.574 137.376 278.37 138.012 280.279C137.376 282.188 136.301 283.984 134.781 285.504Z" fill="#FFE9D7"/>
<path d="M277.16 216.23C254.506 210.351 228.732 217.965 212.95 234.94C212.95 234.95 212.95 234.95 212.94 234.95C205.619 242.686 200.191 251.951 197.18 262.37C195.47 268.25 194.56 274.48 194.56 280.91V504.57C211.707 508.81 229.345 511.233 247.08 511.85V440.97H275.26V511.28C293.106 509.971 310.683 506.775 327.78 501.8V280.91C327.78 249.63 306.22 223.38 277.16 216.23Z" fill="#50755C"/>
<path d="M327.78 280.91V501.8C317.103 504.903 306.319 507.307 295.25 509.01V440.97H247.08V511.85C236.183 511.466 225.217 510.414 214.55 508.65V280.91C214.555 276.253 215.03 271.587 216 267.04C220.862 243.15 239.864 223.015 263.4 216.71C265.959 216.017 268.536 215.435 271.17 215.04C273.2 215.34 275.19 215.74 277.16 216.23C306.22 223.38 327.78 249.63 327.78 280.91Z" fill="#53B976"/>
<path d="M317.79 280.91V504.49C310.4 506.32 302.88 507.84 295.25 509.01V440.97H237.09V511.31C229.48 510.76 221.96 509.87 214.55 508.65V280.91C214.555 276.253 215.03 271.587 216 267.04C220.832 243.311 239.608 223.272 262.94 216.84C264.006 216.53 265.08 216.273 266.16 216.01C295.585 222.753 317.825 249.25 317.79 280.91Z" fill="#528F66"/>
<path d="M194.56 393.31V504.57C211.707 508.81 229.345 511.233 247.08 511.85V440.97H275.26V511.28C293.106 509.971 310.683 506.775 327.78 501.8V393.31H194.56Z" fill="#22A8B9"/>
<path d="M327.78 393.31V501.8C317.103 504.903 306.319 507.307 295.25 509.01V440.97H247.08V511.85C236.183 511.466 225.217 510.414 214.55 508.65V393.31H327.78Z" fill="#CDE6F6"/>
<path d="M317.79 393.31V504.49C310.4 506.32 302.88 507.84 295.25 509.01V440.97H237.09V511.31C229.48 510.76 221.96 509.87 214.55 508.65V393.31H317.79Z" fill="#83D5EF"/>
<path d="M225.801 162.058C226.535 170.97 219.665 178.89 210.614 178.841H197.784C177.479 178.345 177.479 147.367 197.784 146.871H210.614C219.002 146.871 225.801 153.671 225.801 162.058Z" fill="#F9D6BF"/>
<path d="M339.739 162.058C340.473 170.97 333.603 178.89 324.552 178.841H311.722C291.417 178.345 291.417 147.367 311.722 146.871H324.552C332.939 146.871 339.739 153.671 339.739 162.058Z" fill="#F9D6BF"/>
<path d="M231.184 162.856C231.184 166.373 228.333 169.225 224.815 169.225H200.924C197.407 169.225 194.555 166.374 194.555 162.856C194.555 159.339 197.406 156.487 200.924 156.487H224.815C228.333 156.488 231.184 159.339 231.184 162.856Z" fill="#EAB39B"/>
<path d="M327.78 162.856C327.78 166.373 324.929 169.225 321.411 169.225H297.52C294.003 169.225 291.151 166.374 291.151 162.856C291.151 159.339 294.002 156.487 297.52 156.487H321.411C324.928 156.488 327.78 159.339 327.78 162.856Z" fill="#EAB39B"/>
<path d="M277.155 203.758V219.658C277.202 228.542 269.772 235.714 261.165 235.638C252.335 235.638 245.185 228.488 245.185 219.658V203.758C245.033 193.454 255.258 185.603 265.165 188.278C272.147 190.098 277.15 196.359 277.155 203.758Z" fill="#EAB39B"/>
<path d="M277.155 203.758V219.658C277.155 227.108 272.055 233.358 265.165 235.138C258.275 233.358 253.175 227.108 253.175 219.658V203.758C253.175 196.308 258.275 190.058 265.165 188.278C272.147 190.098 277.15 196.359 277.155 203.758Z" fill="#F9D6BF"/>
<path d="M277.155 203.758V218.398C273.415 219.248 269.515 219.698 265.515 219.698C259.205 219.703 251.268 219.971 245.185 218.398V203.758C245.033 193.454 255.258 185.604 265.165 188.278C272.147 190.098 277.15 196.359 277.155 203.758Z" fill="#EAB39B"/>
<path d="M318.135 123.068V159.088C318.242 188.204 294.185 211.841 265.515 211.708H256.825C227.755 211.708 204.195 188.148 204.195 159.088V123.068C204.195 94.008 227.755 70.448 256.825 70.448H265.515C294.185 70.318 318.242 93.95 318.135 123.068Z" fill="#F9D6BF"/>
<path d="M318.135 123.068V159.088C318.135 186.748 296.785 209.428 269.665 211.548C242.545 209.438 221.185 186.758 221.185 159.088V123.068C221.185 95.398 242.545 72.718 269.665 70.608C296.785 72.728 318.135 95.408 318.135 123.068Z" fill="#FFE9D7"/>
<path d="M261.168 186.428C254.574 186.428 248.611 184.407 245.606 181.153C243.86 179.193 246.724 176.537 248.545 178.439C253.128 183.692 269.21 183.69 273.791 178.439C275.596 176.539 278.486 179.19 276.729 181.153C273.724 184.406 267.761 186.428 261.168 186.428Z" fill="#EAB39B"/>
<path d="M269.932 168.37H252.403C249.779 168.327 249.77 164.415 252.403 164.37H269.932C272.556 164.413 272.565 168.325 269.932 168.37Z" fill="#F3C3AA"/>
<path d="M247.076 148.657C247.076 144.337 243.574 140.835 239.254 140.835C228.89 141.218 228.893 156.096 239.254 156.478C243.574 156.479 247.076 152.977 247.076 148.657Z" fill="#EAB39B"/>
<path d="M290.903 148.657C290.903 144.337 287.401 140.835 283.081 140.835C272.717 141.218 272.72 156.096 283.081 156.478C287.401 156.479 290.903 152.977 290.903 148.657Z" fill="#EAB39B"/>
<path d="M246.542 151.577C246.542 147.552 243.279 144.289 239.254 144.289C229.607 144.622 229.61 158.532 239.254 158.864C243.279 158.864 246.542 155.602 246.542 151.577Z" fill="#122894"/>
<path d="M244.352 151.728C247.726 148.179 242.651 143.106 239.103 146.479C235.73 150.028 240.805 155.101 244.352 151.728Z" fill="#E8F3FC"/>
<path d="M290.369 151.577C290.369 147.552 287.106 144.289 283.081 144.289C273.434 144.622 273.436 158.532 283.081 158.864C287.106 158.864 290.369 155.602 290.369 151.577Z" fill="#122894"/>
<path d="M288.179 151.728C291.553 148.179 286.478 143.106 282.93 146.479C279.557 150.028 284.631 155.101 288.179 151.728Z" fill="#E8F3FC"/>
<path d="M301.525 138.184C293.516 134.727 280.826 134.73 272.83 138.184C270.995 138.908 269.796 140.669 269.796 142.642V153.388C270.711 176.442 303.646 176.439 304.559 153.388V142.643C304.559 140.669 303.361 138.909 301.525 138.184Z" fill="#E8F3FC"/>
<path d="M287.178 172.777C276.487 172.777 267.789 164.079 267.789 153.388H271.804C272.651 173.789 301.712 173.773 302.552 153.388H306.567C306.566 164.079 297.869 172.777 287.178 172.777Z" fill="#9175A7"/>
<path d="M306.566 153.388H302.551V142.642C302.551 141.491 301.859 140.474 300.788 140.051C293.261 136.778 281.078 136.784 273.567 140.051C272.496 140.474 271.803 141.49 271.803 142.642V153.388H267.788V142.642C267.788 139.831 269.478 137.349 272.093 136.317C275.31 135.047 280.538 133.533 287.177 133.533C293.815 133.533 299.044 135.047 302.261 136.317C304.876 137.349 306.565 139.832 306.565 142.642V153.388H306.566Z" fill="#57409B"/>
<path d="M248.877 138.132C240.933 134.743 228.379 134.747 220.449 138.132C218.53 138.88 217.282 140.726 217.282 142.786V153.387C218.196 176.44 251.131 176.439 252.045 153.387V142.786C252.044 140.727 250.796 138.88 248.877 138.132Z" fill="#E8F3FC"/>
<path d="M234.662 172.777C223.971 172.777 215.273 164.079 215.273 153.388H219.288C220.135 173.789 249.196 173.773 250.036 153.388H254.051C254.051 164.079 245.353 172.777 234.662 172.777Z" fill="#9175A7"/>
<path d="M254.051 153.388H250.036V142.787C250.036 141.543 249.294 140.45 248.147 140.002C240.697 136.796 228.612 136.801 221.177 140.002C220.029 140.449 219.288 141.542 219.288 142.786V153.387H215.273V142.786C215.273 139.874 217.018 137.313 219.719 136.261C222.911 135.016 228.096 133.532 234.661 133.532C241.226 133.532 246.411 135.016 249.604 136.261C252.305 137.313 254.05 139.875 254.05 142.786V153.388H254.051Z" fill="#57409B"/>
<path d="M268.011 149.462C266.609 148.012 255.308 148.007 253.905 149.44C253.907 149.438 254.143 149.196 254.125 148.625L250.112 148.751C250.44 145.079 255.195 144.419 260.92 144.339C270.39 144.339 271.804 147.064 271.804 148.688H267.789C267.789 149.231 268.009 149.46 268.011 149.462Z" fill="#57409B"/>
<path d="M318.137 141.608H304.559C303.451 141.608 302.552 140.709 302.552 139.601C302.552 138.493 303.451 137.594 304.559 137.594H318.137C320.771 137.637 320.778 141.563 318.137 141.608Z" fill="#57409B"/>
<path d="M217.282 141.608H203.705C201.071 141.564 201.064 137.639 203.705 137.593H217.282C219.916 137.637 219.923 141.563 217.282 141.608Z" fill="#57409B"/>
<path d="M246.768 148.58C246.768 144.241 243.251 140.724 238.912 140.724C228.503 141.109 228.506 156.052 238.912 156.435C243.25 156.436 246.768 152.919 246.768 148.58Z" fill="#98CBEF"/>
<path d="M290.785 148.58C290.785 144.241 287.268 140.724 282.929 140.724C272.52 141.109 272.523 156.052 282.929 156.435C287.268 156.436 290.785 152.919 290.785 148.58Z" fill="#98CBEF"/>
<path d="M246.231 151.512C246.231 147.47 242.954 144.193 238.912 144.193C229.223 144.528 229.226 158.498 238.912 158.831C242.954 158.832 246.231 155.555 246.231 151.512Z" fill="#122894"/>
<path d="M244.032 151.664C247.42 148.1 242.324 143.004 238.76 146.392C235.372 149.957 240.469 155.052 244.032 151.664Z" fill="#E8F3FC"/>
<path d="M290.248 151.512C290.248 147.47 286.971 144.193 282.929 144.193C273.24 144.528 273.243 158.498 282.929 158.831C286.971 158.832 290.248 155.555 290.248 151.512Z" fill="#122894"/>
<path d="M288.049 151.664C291.437 148.1 286.341 143.004 282.777 146.392C279.389 149.957 284.486 155.052 288.049 151.664Z" fill="#E8F3FC"/>
<path d="M435.34 353.81C435.409 362.933 427.767 370.742 418.48 370.67H93.52C84.21 370.67 76.66 363.12 76.66 353.81C76.604 344.522 84.342 336.907 93.52 336.96H418.48C427.79 336.96 435.34 344.5 435.34 353.81Z" fill="#DEB36F"/>
<path d="M435.34 353.81C435.34 355.76 435.01 357.64 434.39 359.39C432.422 359.796 109.431 359.392 107.275 359.53C95.8872 359.752 87.4192 347.738 91.3702 337.1C93.3382 336.693 416.329 337.098 418.484 336.96C427.79 336.96 435.34 344.5 435.34 353.81Z" fill="#FBCB74"/>
<path d="M373.904 359.53H191.963C185.73 359.53 180.678 354.478 180.678 348.245C180.678 342.012 185.73 336.96 191.963 336.96H373.904C388.827 337.541 388.922 358.906 373.904 359.53Z" fill="#FBD9A3"/>
<path d="M392.75 370.67V418.59C392.75 432.2 382.04 443.3 368.61 443.94C365.886 444.013 146.142 443.987 143.391 443.94C129.96 443.3 119.25 432.2 119.25 418.59V370.67H392.75Z" fill="#C68132"/>
<path d="M371.97 404.78V432.39C371.97 436.64 370.74 440.61 368.61 443.94C365.886 443.998 146.142 443.998 143.39 443.94C141.26 440.61 140.03 436.64 140.03 432.39V404.78C140.03 397.58 145.86 391.75 153.06 391.75H358.94C366.14 391.75 371.97 397.58 371.97 404.78Z" fill="#DD8C29"/>
<path d="M325.996 417.86H228.434C221.224 417.86 215.379 412.015 215.379 404.805C215.379 397.595 221.224 391.75 228.434 391.75H325.996C343.292 392.438 343.338 417.152 325.996 417.86Z" fill="#F39E22"/>
<path d="M168.29 443.94V496.57C159.793 493.478 151.489 489.938 143.39 485.96V443.94H168.29Z" fill="#A583BB"/>
<path d="M168.29 456.15V496.57C162.9 494.61 157.59 492.47 152.37 490.15V456.15C152.741 445.616 167.927 445.613 168.29 456.15Z" fill="#C2AACF"/>
<path d="M160.332 485.43C155.937 485.43 152.374 481.867 152.374 477.472V467.404C152.763 456.862 167.901 456.859 168.291 467.404V477.472C168.29 481.867 164.727 485.43 160.332 485.43Z" fill="#DECEE5"/>
<path d="M367.37 443.94V486.56C359.284 490.485 350.955 493.983 342.47 497.02V443.94H367.37Z" fill="#A583BB"/>
<path d="M367.37 456.15V486.56C362.16 489.09 356.85 491.44 351.45 493.61V456.15C351.821 445.616 367.007 445.612 367.37 456.15Z" fill="#C2AACF"/>
<path d="M359.412 485.43C355.017 485.43 351.454 481.867 351.454 477.472V467.404C351.843 456.862 366.981 456.859 367.371 467.404V477.472C367.37 481.867 363.807 485.43 359.412 485.43Z" fill="#DECEE5"/>
<path d="M267.268 299.191H351.943C361.624 299.395 361.651 314.257 351.943 314.469C347.024 314.473 258.03 314.466 256 314.469L259.629 306.83C261.429 302.869 263.049 299.191 267.268 299.191Z" fill="white"/>
<path d="M244.732 299.191H160.057C150.376 299.395 150.349 314.257 160.057 314.469C164.976 314.473 253.97 314.466 256 314.469L252.371 306.83C250.571 302.869 248.951 299.191 244.732 299.191Z" fill="#EBD9EA"/>
<path d="M378.783 325.711C378.834 331.77 373.793 336.994 367.546 336.96H144.453C138.243 336.959 133.213 331.928 133.216 325.711C133.216 319.506 138.248 314.474 144.453 314.474H367.546C373.75 314.472 378.786 319.508 378.783 325.711Z" fill="#C0405C"/>
<path d="M378.783 325.711C378.783 326.703 378.65 327.659 378.42 328.578H159.851C155.956 328.578 152.799 325.421 152.799 321.526C152.799 319.578 153.585 317.813 154.867 316.543C156.137 315.261 157.903 314.475 159.85 314.475H367.545C373.75 314.472 378.786 319.508 378.783 325.711Z" fill="#E9465E"/>
<path d="M103.051 217.507L90.1421 230.416L139.353 279.626L152.262 266.717L103.051 217.507Z" fill="#F39E22"/>
<path d="M139.355 272.119L97.653 230.417C95.581 228.345 92.216 228.345 90.144 230.417L139.355 279.628C141.427 277.555 141.43 274.194 139.355 272.119Z" fill="#C68132"/>
<path d="M152.264 266.718L103.053 217.507C100.978 219.582 100.978 222.947 103.05 225.019L144.752 266.721C146.827 268.796 150.189 268.793 152.264 266.718Z" fill="#F9C744"/>
<path d="M103.477 211.104C101.828 209.455 99.1498 209.452 97.5008 211.101L83.7368 224.865C82.0798 226.5 82.1078 229.238 83.7398 230.841C85.3918 232.493 88.0668 232.493 89.7158 230.844L103.48 217.08C105.129 215.429 105.128 212.752 103.477 211.104Z" fill="#EBD9EA"/>
<path d="M103.477 211.104L94.787 219.794C93.137 221.443 93.134 224.12 94.787 225.773L103.48 217.08C105.129 215.429 105.128 212.752 103.477 211.104Z" fill="white"/>
<path d="M96.841 211.76L83.737 224.864C82.509 226.097 82.184 227.899 82.816 229.455L95.92 216.351C97.15 215.116 97.473 213.321 96.841 211.76Z" fill="#C1B7D3"/>
<path d="M97.072 211.529L92.649 207.106C89.076 203.524 83.2699 203.563 79.7429 207.106C76.1939 210.641 76.166 216.456 79.74 220.015L84.163 224.438L97.072 211.529Z" fill="#EE6781"/>
<path d="M97.0721 211.529L92.6491 207.106C90.6881 205.145 88.0611 204.263 85.5001 204.461C85.3071 207.051 86.1911 209.642 88.1481 211.607L92.5711 216.03L97.0721 211.529Z" fill="#F0A6B3"/>
<path d="M88.1057 220.495L83.6827 216.072C81.8597 214.249 79.4607 213.355 77.0737 213.403C77.0177 215.797 77.9207 218.19 79.7397 220.015L84.1627 224.438L88.1057 220.495Z" fill="#D65171"/>
<path d="M152.262 266.72L139.353 279.629L158.218 287.698L160.335 285.581C159.198 282.926 153.256 269.044 152.262 266.72Z" fill="#F5B890"/>
<path d="M153.792 270.294L147.258 276.828C146.148 277.938 146.514 279.815 147.954 280.432L160.23 285.686L160.335 285.581L153.792 270.294Z" fill="#FBD9A3"/>
<path d="M166.446 291.069L160.08 284.703C158.93 283.471 156.72 284.419 156.773 286.073C156.773 286.571 156.962 287.065 157.34 287.443L163.706 293.809C165.545 295.579 168.215 292.896 166.446 291.069Z" fill="#2E3140"/>
<path d="M166.446 291.069L162.551 287.174C161.587 287.854 161.473 289.29 162.314 290.116L166.209 294.011C167.171 293.33 167.291 291.898 166.446 291.069Z" fill="#334353"/>
</svg>
