<svg width="135" height="56" viewBox="0 0 135 56" fill="none" xmlns="http://www.w3.org/2000/svg">
<path fill-rule="evenodd" clip-rule="evenodd" d="M62.5157 43.2734V27.1387H70.8432C74.2555 27.1387 77.1357 25.9953 79.4837 23.7403L80.0472 23.1686C84.3361 18.4997 84.0544 11.2264 79.4837 6.90691C77.1983 4.62012 74.0677 3.38143 70.8432 3.44495H57.4755V43.2734H62.5157ZM62.5165 22.2474V8.336H70.9704C72.7864 8.336 74.5085 9.03475 75.7922 10.3052C78.5163 12.9731 78.5789 17.4197 75.9488 20.1829C74.665 21.5487 72.849 22.3109 70.9704 22.2474H62.5165ZM103.558 18.1504C101.398 16.1494 98.4552 15.1331 94.7298 15.1331C89.94 15.1331 86.3398 16.9117 83.9605 20.4372L88.406 23.2639C90.0339 20.8501 92.2566 19.6431 95.0742 19.6431C96.8586 19.6431 98.5804 20.3101 99.9266 21.517C101.241 22.6604 101.993 24.312 101.993 26.0589V27.234C100.052 26.1542 97.6099 25.5825 94.6046 25.5825C91.0983 25.5825 88.2808 26.4083 86.1832 28.0916C84.0857 29.7749 83.0213 31.9982 83.0213 34.825C82.9587 37.3976 84.0544 39.8432 85.9954 41.4948C87.9677 43.2734 90.4722 44.1627 93.4149 44.1627C96.8899 44.1627 99.6448 42.6064 101.742 39.4938H101.961V43.2734H106.783V26.4718C106.783 22.9463 105.718 20.1513 103.558 18.1504ZM89.8782 38.2552C88.845 37.493 88.2188 36.2543 88.2188 34.9203C88.2188 33.4275 88.9076 32.1888 90.254 31.2042C91.6316 30.2196 93.3537 29.7115 95.3889 29.7115C98.2069 29.6797 100.399 30.3149 101.964 31.5854C101.964 33.7451 101.119 35.6191 99.4594 37.2071C97.9564 38.7317 95.9212 39.5892 93.7921 39.5892C92.3831 39.621 91.0054 39.1445 89.8782 38.2552ZM117.615 55.2473L134.457 16.0224H128.979L121.183 35.5872H121.09L113.107 16.0224H107.628L118.679 41.5265L112.418 55.2473H117.615Z" fill="#3C4043"/>
<path d="M45.1149 23.6452C45.1149 22.0889 44.9896 20.5326 44.7392 19.0081H23.4824V27.8059H35.6605C35.1596 30.6326 33.5316 33.1735 31.1524 34.7616V40.4786H38.4154C42.673 36.5084 45.1149 30.6326 45.1149 23.6452Z" fill="#4285F4"/>
<path d="M23.4834 46.0049C29.5568 46.0049 34.691 43.9722 38.4164 40.4785L31.1534 34.7615C29.1185 36.159 26.5201 36.953 23.4834 36.953C17.5979 36.953 12.6202 32.9194 10.8358 27.52H3.35364V33.4276C7.17297 41.1455 14.9682 46.0049 23.4834 46.0049Z" fill="#34A853"/>
<path d="M10.8365 27.5201C9.89722 24.6933 9.89722 21.6125 10.8365 18.754V12.8782H3.35322C0.12819 19.3257 0.12819 26.9484 3.35322 33.3959L10.8365 27.5201Z" fill="#FBBC04"/>
<path d="M23.4835 9.32088C26.708 9.25736 29.8073 10.496 32.1239 12.7511L38.573 6.20829C34.4719 2.33343 29.0873 0.205438 23.4835 0.26896C14.9682 0.26896 7.17298 5.16018 3.35364 12.8781L10.8358 18.7857C12.6202 13.3546 17.5979 9.32088 23.4835 9.32088Z" fill="#EA4335"/>
</svg>
