<svg width="512" height="512" viewBox="0 0 512 512" fill="none" xmlns="http://www.w3.org/2000/svg">
<path d="M512 256C512 397.38 397.38 512 256 512C188.22 512 126.59 485.65 80.79 442.65C77.68 439.73 74.64 436.73 71.68 433.66C66.49 428.27 61.53 422.66 56.83 416.84C21.29 372.88 0 316.93 0 256C0 148 66.88 55.62 161.48 18.02C161.49 18.02 161.49 18.01 161.49 18.01C163.11 17.37 164.73 16.74 166.37 16.14C194.26 5.7 224.47 0 256 0C287.54 0 317.74 5.7 345.64 16.14C347.27 16.75 348.9 17.37 350.51 18.01L350.52 18.02C445.12 55.62 512 148 512 256Z" fill="#78C795"/>
<path d="M238.856 442.646C238.856 427.224 226.354 422.799 210.932 422.799C195.51 422.799 183.008 427.224 183.008 442.646C184.479 479.688 237.391 479.675 238.856 442.646Z" fill="#E9465E"/>
<path d="M238.856 432.781C238.856 417.359 226.354 412.934 210.932 412.934C195.51 412.934 183.008 417.359 183.008 432.781C184.479 469.823 237.391 469.81 238.856 432.781Z" fill="#C0405C"/>
<path d="M365.04 238.92V421.26C365.04 428.02 361.9 434.06 356.99 437.97C353.33 440.9 348.71 442.65 343.65 442.65H80.7901C72.2251 434.609 64.2131 425.977 56.8301 416.84V238.92C56.8301 231.55 60.5501 225.04 66.2301 221.19C69.6501 218.88 73.7701 217.53 78.2101 217.53H343.65C355.39 217.522 365.037 227.056 365.04 238.92Z" fill="#E9465E"/>
<path d="M75.6401 238.92V421.26C75.6401 425.88 74.1701 430.16 71.6801 433.66C66.4901 428.27 61.5301 422.66 56.8301 416.84V238.92C56.8301 231.55 60.5501 225.04 66.2301 221.19C71.9001 225.04 75.6401 231.55 75.6401 238.92Z" fill="#C0405C"/>
<path d="M365.045 238.921V421.261C365.045 428.021 361.905 434.061 356.995 437.971C352.085 434.061 348.945 428.031 348.945 421.261V238.921C348.945 232.151 352.085 226.121 356.995 222.211C361.905 226.121 365.045 232.161 365.045 238.921Z" fill="#EE6781"/>
<path d="M318.18 428.684H103.684C93.7191 428.684 85.6401 420.606 85.6401 410.64V249.54C85.6401 239.575 93.7181 231.496 103.684 231.496H318.18C328.145 231.496 336.224 239.574 336.224 249.54V410.64C336.223 420.606 328.145 428.684 318.18 428.684Z" fill="#C0405C"/>
<path d="M336.225 235.581V396.681C336.225 400.701 334.915 404.411 332.685 407.411C329.395 411.841 324.125 414.721 318.175 414.721H103.685C93.6613 414.718 85.6163 406.562 85.6353 396.681V235.581C85.6353 225.611 93.7153 217.531 103.685 217.531H318.175C328.145 217.531 336.225 225.611 336.225 235.581Z" fill="#EBD9EA"/>
<path d="M336.225 235.581V396.681C336.225 406.641 328.145 414.721 318.175 414.721H210.935V217.531H318.175C328.145 217.531 336.225 225.611 336.225 235.581Z" fill="white"/>
<path d="M332.685 407.411C329.395 411.841 324.125 414.721 318.175 414.721H103.685C97.7353 414.721 92.4653 411.841 89.1753 407.411C92.4553 402.971 97.7353 400.091 103.685 400.091H318.175C324.125 400.091 329.405 402.971 332.685 407.411Z" fill="#C1B7D3"/>
<path d="M210.935 268.811H128.864C124.824 268.811 121.549 265.536 121.549 261.496C121.549 257.456 124.824 254.181 128.864 254.181H210.935V268.811Z" fill="#6C53A2"/>
<path d="M210.935 313.441H128.864C124.824 313.441 121.549 310.166 121.549 306.126C121.549 302.086 124.824 298.811 128.864 298.811H210.935V313.441Z" fill="#6C53A2"/>
<path d="M210.935 358.071H128.864C124.824 358.071 121.549 354.796 121.549 350.756C121.549 346.716 124.824 343.441 128.864 343.441H210.935V358.071Z" fill="#6C53A2"/>
<path d="M210.93 343.441H293.001C297.041 343.441 300.316 346.716 300.316 350.756C300.316 354.796 297.041 358.071 293.001 358.071H210.93V343.441Z" fill="#9175A7"/>
<path d="M210.93 298.811H293.001C297.041 298.811 300.316 302.086 300.316 306.126C300.316 310.166 297.041 313.441 293.001 313.441H210.93V298.811Z" fill="#9175A7"/>
<path d="M210.93 254.181H293.001C297.041 254.181 300.316 257.456 300.316 261.496C300.316 265.536 297.041 268.811 293.001 268.811H210.93V254.181Z" fill="#9175A7"/>
<path d="M437.75 193.061H394.7V357.171H437.75V193.061Z" fill="#F39E22"/>
<path d="M407.22 205.581V344.651C407.221 351.56 401.609 357.171 394.7 357.171V193.061C401.61 193.061 407.22 198.661 407.22 205.581Z" fill="#C68132"/>
<path d="M437.75 193.061V357.171C430.83 357.171 425.22 351.561 425.22 344.651V205.581C425.22 198.661 430.83 193.061 437.75 193.061Z" fill="#F9C744"/>
<path d="M449.135 367.141C449.135 372.641 444.675 377.111 439.175 377.111H393.275C387.785 377.148 383.267 372.536 383.315 367.141C383.315 361.631 387.775 357.171 393.275 357.171H439.175C444.678 357.175 449.139 361.639 449.135 367.141Z" fill="#EBD9EA"/>
<path d="M449.135 367.141H420.155C414.655 367.142 410.186 362.685 410.185 357.171H439.175C444.678 357.175 449.139 361.639 449.135 367.141Z" fill="white"/>
<path d="M436.975 377.111H393.275C389.17 377.103 385.625 374.64 384.085 370.991H427.785C431.895 371.002 435.426 373.456 436.975 377.111Z" fill="#C1B7D3"/>
<path d="M437.745 377.111V391.861C437.76 403.792 428.014 413.406 416.225 413.381C404.413 413.405 394.67 403.755 394.695 391.861V377.111H437.745Z" fill="#EE6781"/>
<path d="M437.745 377.111V391.861C437.745 398.401 434.835 404.251 430.235 408.191C425.596 404.194 422.75 398.4 422.735 391.861V377.111H437.745Z" fill="#F0A6B3"/>
<path d="M407.845 377.111V391.861C407.845 397.941 405.335 403.431 401.275 407.331C397.19 403.432 394.705 397.935 394.695 391.861V377.111H407.845Z" fill="#D65171"/>
<path d="M437.745 193.061H394.695L412.695 148.151H419.755C422.287 154.473 435.527 187.529 437.745 193.061Z" fill="#F5B890"/>
<path d="M434.335 184.551H412.545C408.845 184.551 406.325 180.811 407.695 177.381L419.405 148.151H419.755L434.335 184.551Z" fill="#FBD9A3"/>
<path d="M420.795 128.811V150.041C420.611 156.062 411.838 156.073 411.655 150.041V128.811C411.852 122.761 420.616 122.782 420.795 128.811Z" fill="#2E3140"/>
<path d="M420.795 128.811V141.801C418.053 142.274 415.469 140.07 415.495 137.291V124.301C418.234 123.831 420.821 126.02 420.795 128.811Z" fill="#334353"/>
<path d="M211.823 202.141C215.628 202.141 219.356 200.283 221.595 196.862L259.219 139.361C267.173 126.101 248.699 113.965 239.696 126.587L202.072 184.088C196.951 191.663 202.749 202.284 211.823 202.141Z" fill="#EBD9EA"/>
<path d="M356.81 40.8399V113.7C356.844 138.078 337.025 158.186 312.34 158.18H199.66C185.37 158.18 172.66 151.44 164.53 140.96C158.67 133.42 155.19 123.97 155.19 113.7V40.8399C155.19 32.4899 157.49 24.6899 161.48 18.0199C161.49 18.0199 161.49 18.0099 161.49 18.0099C217.955 -5.16112 288.707 -5.89212 345.64 16.1409C347.272 16.7569 348.915 17.3649 350.52 18.0199C354.51 24.6899 356.81 32.4899 356.81 40.8399Z" fill="#EBD9EA"/>
<path d="M356.81 40.8399V113.7C356.81 123.97 353.33 133.42 347.48 140.96C341.63 133.42 338.14 123.97 338.14 113.7V40.8399C338.14 31.6899 340.9 23.1999 345.64 16.1399C347.271 16.7559 348.915 17.3639 350.52 18.0199C354.51 24.6899 356.81 32.4899 356.81 40.8399Z" fill="white"/>
<path d="M173.86 40.8399V113.7C173.86 123.97 170.37 133.42 164.53 140.96C158.67 133.42 155.19 123.97 155.19 113.7V40.8399C155.19 32.4899 157.49 24.6899 161.48 18.0199C161.49 18.0199 161.49 18.0099 161.49 18.0099C163.11 17.3699 164.73 16.7399 166.37 16.1399C171.1 23.1999 173.86 31.6899 173.86 40.8399Z" fill="#C1B7D3"/>
<path d="M263.208 106.759C263.276 111.045 257.636 113.684 254.149 111.388C253.219 110.825 252.489 109.944 251.959 108.75L245.986 95.41H210.944L204.971 108.75C203.989 111.03 202.063 112.22 199.695 112.234C195.638 112.309 192.137 108.044 194.22 104.17L221.696 45.136C223.991 39.731 232.74 39.724 235.036 45.136L262.612 104.17C263.009 105.034 263.208 105.897 263.208 106.759ZM215.324 85.455H241.606L228.465 55.888L215.324 85.455Z" fill="#6C53A2"/>
<path d="M307.956 66.9879C311.242 70.3399 312.884 75.4339 312.884 82.2689V106.56C312.884 108.352 312.352 109.763 311.291 110.791C307.781 114.061 300.755 112.017 301.037 106.56V104.37C296.263 115.717 278.229 114.798 272.167 105.166C268.984 100.688 269.107 92.7359 272.615 88.9389C278.498 82.8319 290.803 83.2029 301.037 83.0649C301.335 76.1289 299.956 71.3299 292.177 71.4179C287.496 71.4619 284.065 72.9129 279.235 74.7029C277.508 75.5659 276.249 75.9969 275.452 75.9969C271.685 76.1299 270.305 71.1069 272.217 68.3809C274.776 65.3019 279.047 64.1949 283.367 63.0549C291.309 61.0709 303.058 61.4739 307.956 66.9879ZM297.901 100.338C299.992 98.1149 301.037 95.2449 301.037 91.7269V89.6359C296.748 89.5909 291.453 89.7649 288.891 90.2339C286.435 90.6319 284.676 91.3289 283.615 92.3239C281.113 94.6139 281.707 99.5199 284.262 101.632C287.968 105.085 294.776 103.881 297.901 100.338Z" fill="#6C53A2"/>
</svg>
