<svg width="34" height="51" viewBox="0 0 34 51" fill="none" xmlns="http://www.w3.org/2000/svg">
<path d="M26.2666 43.0856L28.3231 48.5923L31.5843 48.8723L33.2565 48.6234L29.7564 47.5137L28.1361 42.4219L26.2666 43.0856Z" fill="#FCD2B1"/>
<path d="M13.8241 31.3772L21.5514 31.6364L27.6688 47.2542L29.6942 46.7772L24.2726 28.1209C24.2726 28.1209 23.8883 27.0942 21.5514 26.949C19.2872 26.8038 10.1577 25.9742 9.09836 26.2127C6.59529 26.7935 14.3745 29.2201 13.8241 31.3772Z" fill="#0E538C"/>
<path d="M11.5701 7.05852C10.8534 8.3963 8.56846 7.86741 8.56846 7.86741C7.29096 7.11037 6.83397 5.42 7.561 4.08222L8.04915 3.16963C8.7658 1.83186 10.386 1.35482 11.6635 2.11185L12.2452 2.45407C13.5227 3.21111 14.1355 5.3163 12.6295 6.7163L11.5701 7.05852Z" fill="#0E538C"/>
<path d="M13.1284 4.18555C13.0037 4.40332 12.8687 4.6211 12.7025 4.83888C11.6327 6.24925 10.0956 6.90258 9.03619 6.46703C8.63113 7.15147 8.15337 7.71147 7.69638 8.14703C7.18745 8.65517 6.14884 8.89369 6.14884 8.89369C5.40103 9.87887 5.61914 12.8759 8.08066 13.3322C9.5555 13.6122 9.34778 11.9426 8.8804 10.8848C8.66229 10.387 8.67268 10.107 8.735 9.84776C8.97388 8.91443 9.38933 8.49962 9.93979 8.20925C10.2514 8.0848 10.5422 8.07443 10.7915 8.09517C11.3523 8.1574 11.8924 7.89814 12.1728 7.41073L13.0349 5.9174C13.3361 5.36777 13.3465 4.72481 13.1284 4.18555Z" fill="#FFE3CA"/>
<path d="M18.591 43.7794L18.4976 47.5439L19.183 48.4876L21.0526 49.7839L20.7721 47.9483L20.0866 47.4609L20.1178 43.5098L18.591 43.7794Z" fill="#FCD2B1"/>
<path d="M4.45562 23.0505L5.25536 25.415L6.84444 25.7157L19.7025 27.3749C19.7025 27.3749 20.8762 27.0742 21.5097 29.0342C22.4029 31.8238 20.4192 47.0579 20.4192 47.0579L18.5081 46.9127L18.0407 32.2905C18.0407 32.2905 5.51502 33.7942 2.00449 32.4253C0.654283 31.8964 -0.249315 29.2935 0.0934288 26.7527C0.363469 24.7512 1.74483 22.9883 1.74483 22.9883L4.45562 23.0505Z" fill="#0E538C"/>
<path d="M10.4797 22.6039C10.5939 19.192 10.3446 10.3254 8.76593 10.3254C8.61014 10.3254 8.46474 10.3668 8.3401 10.4498C7.85195 10.3461 7.07299 9.7861 6.3875 8.83203H6.37711C6.37711 8.83203 3.81173 9.48537 2.84581 9.88981C2.1811 10.1698 2.08762 19.2231 2.00453 19.7002C1.71372 21.4009 0.92437 23.3194 0.415447 24.6468C0.0103862 25.7046 0 27.6439 0 27.6439C0 27.6439 1.91106 26.1609 4.12331 25.7668C5.13077 25.5387 8.55821 25.8602 8.7971 25.9846C9.01521 26.0987 8.74516 24.875 8.714 24.315C8.95289 24.678 9.50335 24.8439 10.0123 24.9891C11.456 25.3935 17.7915 26.5965 17.7915 26.5965L18.8821 26.2024L10.4797 22.6039Z" fill="#EE1D23"/>
<path d="M10.0641 23.5268C11.7467 23.869 12.0791 24.9994 12.6918 25.3831C13.315 25.7668 14.1355 26.0883 14.1355 26.0779C14.3952 25.9016 13.5539 25.3935 13.3254 25.1135C13.0969 24.8335 13.2008 24.7505 13.7408 25.0409C14.2602 25.3209 14.4887 25.9016 14.8626 26.306C15.1845 26.6586 15.3092 26.3994 15.3092 26.3994C15.3092 26.3994 15.3299 25.4453 14.8626 24.8749C14.3017 24.1801 13.2215 23.8379 13.0346 23.7238C12.7022 23.5164 11.5909 23.2572 10.7704 23.1949C9.84603 23.1223 8.85934 23.2883 10.0641 23.5268Z" fill="#FCD2B1"/>
<path d="M3.15716 20.9654L4.56968 12.9076C4.56968 12.9076 5.04745 11.041 4.58007 10.4291C4.01922 9.7032 2.87674 9.83801 2.87674 9.83801C2.87674 9.83801 1.50576 10.5639 1.04877 17.0765C0.726798 21.5358 0.508687 22.8632 2.32627 23.1743C4.0296 23.4647 11.2065 24.3254 11.2065 24.3254L11.6115 23.1743L3.15716 20.9654Z" fill="#EE1D23"/>
<path d="M13.3047 26.2327L24.5633 26.9274L24.5737 26.6889L13.3151 25.9941L13.3047 26.2327Z" fill="#CCE9FF"/>
<path d="M18.2799 26.2839C18.2695 26.4706 18.3942 26.6261 18.5499 26.6365L24.3247 26.9994C24.4805 27.0098 24.6986 26.9061 24.9167 26.4394L28.0741 21.1506C28.0845 20.9121 27.9183 20.7565 27.7625 20.7876L21.832 20.6113C21.6762 20.6424 21.5412 20.7565 21.4373 21.0054L18.2799 26.2839Z" fill="#CCE9FF"/>
<path d="M18.9652 26.585H18.9029L13.2632 26.2324C13.4605 26.3569 13.7929 26.4502 14.1772 26.4709L18.8925 26.7613H18.9548L23.6701 27.0517C24.0544 27.0724 24.3972 27.0206 24.6049 26.9272L18.9652 26.585Z" fill="#B1DFFC"/>
<path d="M11.0301 2.70205C11.0717 2.71242 13.0554 0.690198 10.6978 0.0679768C8.70362 -0.460911 7.94542 2.25612 11.0301 2.70205Z" fill="#0E538C"/>
<path d="M18.4977 47.543C18.4977 47.543 18.7262 48.1237 20.7723 47.9474C20.7723 47.9474 21.5617 48.7252 22.6107 48.6422C23.6597 48.5593 23.7324 49.5237 23.7324 49.5237L23.7428 50.1252L18.0615 49.7933V47.9889C18.0615 47.74 18.2589 47.543 18.4977 47.543Z" fill="#1C4454"/>
<path d="M28.0116 47.7711C28.0116 47.7711 28.3647 48.2896 30.3277 47.6777C30.3277 47.6777 31.2624 48.2688 32.2699 47.9681C33.2773 47.657 33.5578 48.5903 33.5578 48.5903L33.6928 49.1814L28.0739 50.0526L27.6896 48.2896C27.6273 48.0511 27.7831 47.8229 28.0116 47.7711Z" fill="#1C4454"/>
<path opacity="0.1" d="M3.15716 20.9635L4.56968 12.9057C4.56968 12.9057 5.04745 11.039 4.58007 10.4272C4.01922 9.70125 2.87674 9.83606 2.87674 9.83606C2.87674 9.83606 1.50576 10.562 1.04877 17.0746C0.726798 21.5338 0.508687 22.8612 2.32627 23.1723C4.0296 23.4627 11.2065 24.3235 11.2065 24.3235L11.6115 23.1723L3.15716 20.9635Z" fill="#F7F7F7"/>
</svg>
