<svg width="40" height="40" viewBox="0 0 40 40" fill="none" xmlns="http://www.w3.org/2000/svg">
<path d="M40 20C40 31.0458 31.0458 40 20 40C8.95416 40 0 31.0458 0 20C0 8.95416 8.95416 0 20 0C31.0458 0 40 8.95416 40 20Z" fill="url(#paint0_linear)"/>
<path d="M27.1161 27.5403C26.4688 27.5403 25.9442 28.0652 25.9442 28.7122V31.6281C25.9442 31.8933 25.7144 32.1094 25.4318 32.1094H11.9601C11.6779 32.1094 11.4481 31.8933 11.4481 31.6281V8.37189C11.4481 8.10669 11.6779 7.89062 11.9601 7.89062H25.4318C25.7144 7.89062 25.9442 8.10669 25.9442 8.37189V11.2878C25.9442 11.9348 26.4688 12.4597 27.1161 12.4597C27.7631 12.4597 28.288 11.9348 28.288 11.2878V8.37189C28.288 6.81427 27.0068 5.54688 25.4318 5.54688H11.9601C10.3854 5.54688 9.10431 6.81427 9.10431 8.37189V31.6281C9.10431 33.1857 10.3854 34.4531 11.9601 34.4531H25.4318C27.0065 34.4531 28.288 33.1857 28.288 31.6281V28.7122C28.288 28.0649 27.7631 27.5403 27.1161 27.5403V27.5403Z" fill="white"/>
<path d="M33.0948 20.7822C33.1049 20.7709 33.1155 20.7605 33.125 20.7492C33.1439 20.7263 33.1613 20.7025 33.1784 20.6784C33.1833 20.6714 33.1888 20.665 33.1937 20.6583C33.3002 20.5011 33.3701 20.3171 33.3899 20.1181C33.3939 20.079 33.396 20.0397 33.396 20C33.396 19.9603 33.3939 19.921 33.3899 19.8819C33.3701 19.6829 33.3002 19.4989 33.1937 19.3417C33.1888 19.3347 33.1833 19.3283 33.1781 19.3213C33.161 19.2975 33.1439 19.2734 33.125 19.2508C33.1155 19.2395 33.1049 19.2291 33.0951 19.2178C33.0792 19.2004 33.064 19.1827 33.0472 19.1663C33.0453 19.1647 33.0441 19.1626 33.0423 19.1611L27.052 13.3194C26.5887 12.8674 25.8466 12.8769 25.3949 13.3405C24.9429 13.8037 24.9524 14.5456 25.4156 14.9976L29.3439 18.8281H18.696C18.049 18.8281 17.5241 19.3527 17.5241 20C17.5241 20.6473 18.049 21.1719 18.696 21.1719H29.3439L25.4156 25.0024C24.9524 25.4544 24.9429 26.1963 25.3949 26.6595C25.6244 26.8951 25.929 27.0132 26.2338 27.0132C26.5286 27.0132 26.824 26.9028 27.052 26.6806L33.0423 20.8389C33.0441 20.8374 33.0453 20.8353 33.0472 20.8334C33.064 20.8173 33.0792 20.7996 33.0948 20.7822V20.7822Z" fill="white"/>
<defs>
<linearGradient id="paint0_linear" x1="0" y1="20" x2="40" y2="20" gradientUnits="userSpaceOnUse">
<stop stop-color="#31D8FF"/>
<stop offset="1" stop-color="#FF80FF"/>
</linearGradient>
</defs>
</svg>
