<svg width="40" height="40" viewBox="0 0 40 40" fill="none" xmlns="http://www.w3.org/2000/svg">
<path d="M40 20C40 31.0458 31.0458 40 20 40C8.95416 40 0 31.0458 0 20C0 8.95416 8.95416 0 20 0C31.0458 0 40 8.95416 40 20Z" fill="url(#paint0_linear)"/>
<path d="M25.7614 25.9204C25.1144 25.9204 24.5895 26.4453 24.5895 27.0923V29.1785C24.5895 30.2576 23.7119 31.1356 22.6324 31.1356H12.1503C11.0712 31.1356 10.1932 30.2576 10.1932 29.1785V10.8215C10.1932 9.74243 11.0712 8.86444 12.1503 8.86444H22.6324C23.7119 8.86444 24.5895 9.74243 24.5895 10.8215V12.9077C24.5895 13.5547 25.1144 14.0796 25.7614 14.0796C26.4087 14.0796 26.9333 13.5547 26.9333 12.9077V10.8215C26.9333 8.45001 25.0043 6.52069 22.6324 6.52069H12.1503C9.77875 6.52069 7.84943 8.45001 7.84943 10.8215V29.1785C7.84943 31.55 9.77875 33.4793 12.1503 33.4793H22.6324C25.004 33.4793 26.9333 31.55 26.9333 29.1785V27.0923C26.9333 26.4453 26.4087 25.9204 25.7614 25.9204V25.9204Z" fill="white"/>
<path d="M34.0067 18.1174L31.6711 15.7816C31.2134 15.3241 30.4715 15.3241 30.0137 15.7816C29.556 16.2393 29.556 16.9812 30.0137 17.439L31.4551 18.8803H19.2429C18.5956 18.8803 18.071 19.4049 18.071 20.0522C18.071 20.6995 18.5956 21.2241 19.2429 21.2241H31.4551L30.0137 22.6654C29.556 23.1232 29.556 23.8651 30.0137 24.3228C30.2426 24.5517 30.5423 24.6658 30.8423 24.6658C31.1423 24.6658 31.4423 24.5514 31.6708 24.3228L34.0067 21.987C35.0735 20.9201 35.0735 19.1843 34.0067 18.1174V18.1174Z" fill="white"/>
<defs>
<linearGradient id="paint0_linear" x1="0" y1="20" x2="40" y2="20" gradientUnits="userSpaceOnUse">
<stop stop-color="#00F1FF"/>
<stop offset="0.231" stop-color="#00D8FF"/>
<stop offset="0.5138" stop-color="#00C0FF"/>
<stop offset="0.7773" stop-color="#00B2FF"/>
<stop offset="1" stop-color="#00ADFF"/>
</linearGradient>
</defs>
</svg>
