<svg width="121" height="75" viewBox="0 0 121 75" fill="none" xmlns="http://www.w3.org/2000/svg">
<path fill-rule="evenodd" clip-rule="evenodd" d="M60.3388 65.3855C53.9822 70.8775 45.7365 74.1928 36.7263 74.1928C16.6218 74.1928 0.323853 57.6864 0.323853 37.3246C0.323853 16.9629 16.6218 0.456421 36.7263 0.456421C45.7365 0.456421 53.9822 3.7718 60.3388 9.26374C66.6954 3.7718 74.941 0.456421 83.9512 0.456421C104.056 0.456421 120.354 16.9629 120.354 37.3246C120.354 57.6864 104.056 74.1928 83.9512 74.1928C74.941 74.1928 66.6954 70.8775 60.3388 65.3855Z" fill="#ED0006"/>
<path fill-rule="evenodd" clip-rule="evenodd" d="M60.3388 65.3855C68.1658 58.6232 73.1289 48.5609 73.1289 37.3246C73.1289 26.0883 68.1658 16.0261 60.3388 9.26374C66.6954 3.7718 74.9411 0.456421 83.9513 0.456421C104.056 0.456421 120.354 16.9629 120.354 37.3246C120.354 57.6864 104.056 74.1928 83.9513 74.1928C74.9411 74.1928 66.6954 70.8775 60.3388 65.3855Z" fill="#F9A000"/>
<path fill-rule="evenodd" clip-rule="evenodd" d="M60.3389 65.3855C68.1658 58.6231 73.1288 48.5609 73.1288 37.3247C73.1288 26.0885 68.1658 16.0262 60.3389 9.26392C52.5119 16.0262 47.549 26.0885 47.549 37.3247C47.549 48.5609 52.5119 58.6231 60.3389 65.3855Z" fill="#FF5E00"/>
</svg>
