<svg width="40" height="40" viewBox="0 0 40 40" fill="none" xmlns="http://www.w3.org/2000/svg">
<path d="M40 20C40 24.6253 38.4302 28.8841 35.7934 32.2719C35.3714 32.8139 34.9224 33.3339 34.4481 33.8286C30.8073 37.6318 25.68 40 20 40C18.427 40 16.8955 39.818 15.427 39.4743C12.2172 38.7241 9.30531 37.2009 6.89719 35.1102C6.42859 34.7037 5.97961 34.2759 5.55188 33.8278C5.37148 33.6401 5.19516 33.4491 5.02289 33.2548C1.89711 29.7257 0 25.0841 0 20C0 14.9151 1.89797 10.2734 5.02289 6.74531C5.19516 6.55023 5.37148 6.35922 5.55188 6.17141C6.05313 5.64734 6.58289 5.15102 7.13797 4.68406C7.91836 4.02773 8.75023 3.43016 9.62531 2.89797C9.63023 2.89469 9.63508 2.89227 9.64 2.88898C9.87266 2.74773 10.1086 2.61141 10.3477 2.48C13.209 0.89875 16.4996 0 20 0C23.5004 0 26.7902 0.899609 29.6523 2.48C29.8906 2.61062 30.1257 2.74695 30.3584 2.88812C31.8637 3.80078 33.2384 4.90609 34.4481 6.17055C34.9224 6.66609 35.3722 7.18609 35.7934 7.72812C38.4302 11.1159 40 15.3747 40 20Z" fill="#58D1C1"/>
<path d="M34.4481 5.44811V33.8285C30.8074 37.6318 25.68 40 20 40C18.427 40 16.8956 39.818 15.427 39.4743C12.2172 38.7241 9.30532 37.2008 6.89719 35.1102C6.4286 34.7037 5.97961 34.2759 5.55188 33.8278V5.44811C5.55188 5.03178 5.63758 4.63506 5.79266 4.27584C6.21711 3.28889 7.16079 2.57873 8.28001 2.48975C8.35922 2.48318 8.43836 2.47998 8.51922 2.47998H31.48C33.1192 2.47998 34.4481 3.80897 34.4481 5.44811Z" fill="#ED8C40"/>
<path d="M24.3159 7.62299H30.0399V33.8262H8.98032V7.62299H14.6122H24.3159Z" fill="#B55D14"/>
<path d="M24.8056 7.62299H30.5297V33.8262H9.47015V7.62299H15.102H24.8056Z" fill="#F2F2F7"/>
<path d="M17.1281 12.3706C17.062 12.1053 16.8212 11.9086 16.5355 11.9086H12.0359C11.6972 11.9086 11.4237 12.1829 11.4237 12.5208V17.0204C11.4237 17.3584 11.6971 17.6327 12.0359 17.6327H16.5355C16.8735 17.6327 17.1478 17.3584 17.1478 17.0204V12.5208C17.1477 12.4686 17.1413 12.4187 17.1281 12.3706ZM15.9233 16.4081H12.6482V13.133H15.9233V16.4081Z" fill="#374266"/>
<path d="M16.5355 18.658H12.0359C11.6972 18.658 11.4237 18.9323 11.4237 19.2702V23.7698C11.4237 24.1086 11.6971 24.3821 12.0359 24.3821H16.5355C16.8735 24.3821 17.1478 24.1087 17.1478 23.7698V19.2702C17.1477 18.9323 16.8734 18.658 16.5355 18.658ZM15.9233 23.1576H12.6482V19.8825H15.9233V23.1576Z" fill="#374266"/>
<path d="M16.5355 25.4081H12.0359C11.6972 25.4081 11.4237 25.6815 11.4237 26.0203V30.52C11.4237 30.8579 11.6971 31.1322 12.0359 31.1322H16.5355C16.8735 31.1322 17.1478 30.8579 17.1478 30.52V26.0203C17.1477 25.6816 16.8734 25.4081 16.5355 25.4081ZM15.9233 29.9077H12.6482V26.6326H15.9233V29.9077Z" fill="#374266"/>
<path d="M27.7135 16.6531H19.265C18.9269 16.6531 18.6527 16.379 18.6527 16.0409C18.6527 15.7027 18.9269 15.4286 19.265 15.4286H27.7136C28.0517 15.4286 28.3259 15.7027 28.3259 16.0409C28.3258 16.379 28.0516 16.6531 27.7135 16.6531Z" fill="#374266"/>
<path d="M24.4076 14.1125H19.265C18.9269 14.1125 18.6527 13.8383 18.6527 13.5002C18.6527 13.1621 18.9269 12.8879 19.265 12.8879H24.4076C24.7457 12.8879 25.0198 13.1621 25.0198 13.5002C25.0198 13.8383 24.7457 14.1125 24.4076 14.1125Z" fill="#374266"/>
<path d="M27.7135 23.4029H19.265C18.9269 23.4029 18.6527 23.1287 18.6527 22.7906C18.6527 22.4525 18.9269 22.1783 19.265 22.1783H27.7136C28.0517 22.1783 28.3259 22.4525 28.3259 22.7906C28.3259 23.1287 28.0516 23.4029 27.7135 23.4029Z" fill="#374266"/>
<path d="M24.4076 20.8622H19.265C18.9269 20.8622 18.6527 20.588 18.6527 20.2499C18.6527 19.9118 18.9269 19.6376 19.265 19.6376H24.4076C24.7457 19.6376 25.0198 19.9118 25.0198 20.2499C25.0198 20.588 24.7457 20.8622 24.4076 20.8622Z" fill="#374266"/>
<path d="M27.7135 30.1525H19.265C18.9269 30.1525 18.6527 29.8784 18.6527 29.5402C18.6527 29.2021 18.9269 28.928 19.265 28.928H27.7136C28.0517 28.928 28.3259 29.2021 28.3259 29.5402C28.3258 29.8784 28.0516 30.1525 27.7135 30.1525Z" fill="#374266"/>
<path d="M24.4076 27.6118H19.265C18.9269 27.6118 18.6527 27.3377 18.6527 26.9995C18.6527 26.6614 18.9269 26.3873 19.265 26.3873H24.4076C24.7457 26.3873 25.0198 26.6614 25.0198 26.9995C25.0198 27.3377 24.7457 27.6118 24.4076 27.6118Z" fill="#374266"/>
<path d="M14.4821 16.1036C14.2777 16.1036 14.0811 16.0183 13.9413 15.8661L11.7944 13.5304C11.5198 13.2318 11.5394 12.7669 11.8381 12.4923C12.1368 12.2177 12.6016 12.2373 12.8762 12.536L14.3565 14.1464L17.4 9.05029C17.6081 8.70185 18.0592 8.5881 18.4075 8.79623C18.7559 9.00427 18.8696 9.45537 18.6616 9.80373L15.113 15.7455C14.9941 15.9446 14.7881 16.0759 14.5574 16.0997C14.5323 16.1023 14.5071 16.1036 14.4821 16.1036Z" fill="#FF526C"/>
<path d="M24.2449 2.40167V7.3837C24.2449 7.88636 23.8374 8.29394 23.3347 8.29394H16.6653C16.1627 8.29394 15.7551 7.88644 15.7551 7.3837V2.75378C15.7551 2.05667 16.3203 1.49152 17.0174 1.49152H23.3347C23.8374 1.49144 24.2449 1.89894 24.2449 2.40167Z" fill="#374266"/>
<path d="M24.2449 2.40167V7.3837C24.2449 7.88659 23.8376 8.29394 23.3347 8.29394H19.2767L21.3747 1.49152H23.3347C23.8376 1.49144 24.2449 1.89878 24.2449 2.40167Z" fill="#495B94"/>
</svg>
