<svg width="40" height="40" viewBox="0 0 40 40" fill="none" xmlns="http://www.w3.org/2000/svg">
<g clip-path="url(#clip0)">
<path d="M40 20C40 31.0453 31.0453 40 20 40C16.2555 40 12.7516 38.9711 9.75547 37.1797L2.84531 30.2867C1.03906 27.2813 0 23.7617 0 20C0 8.95469 8.95469 0 20 0C31.0453 0 40 8.95469 40 20V20Z" fill="#66E1D2"/>
<path d="M40 20C40 26.8055 36.6 32.818 31.4062 36.4305C28.1711 38.6805 24.2398 40 20 40C16.2563 40 12.7523 38.9711 9.75703 37.1813L9.75625 37.1805L2.84609 30.2875C1.03906 27.282 0 23.7617 0 20C0 16.3891 0.957031 13.0023 2.63125 10.0781C6.07812 16.0992 12.5656 20.1562 20 20.1562C27.4344 20.1562 33.9227 16.0992 37.3688 10.0781C39.043 13.0023 40 16.3891 40 20V20Z" fill="#00CEC9"/>
<path d="M25.5117 9.19843V37.9672C25.5117 38.5195 25.2914 39.0203 24.9336 39.3867C23.3555 39.7875 21.7023 40 20 40C19.8937 40 19.7875 39.9992 19.6812 39.9969C17.2422 39.9594 14.9078 39.4844 12.7555 38.6469C11.7109 38.2406 10.7086 37.7492 9.75703 37.1812L2.84297 30.2844C1.03828 27.2789 0 23.7609 0 20C0 15.1148 1.75156 10.6391 4.66094 7.16562H12.0266C12.0266 7.56874 12.3531 7.89453 12.7555 7.89453C13.1586 7.89453 13.4852 7.56874 13.4852 7.16562H23.4789C24.6023 7.16562 25.5117 8.07577 25.5117 9.19843V9.19843Z" fill="#369CEF"/>
<path d="M25.5117 9.19843V37.9672C25.5117 38.5195 25.2914 39.0203 24.9336 39.3867C23.3555 39.7875 21.7023 40 20 40C17.4453 40 15.0016 39.5211 12.7555 38.6469V7.89453C13.1586 7.89453 13.4851 7.56874 13.4851 7.16562H23.4789C24.6023 7.16562 25.5117 8.07577 25.5117 9.19843V9.19843Z" fill="#008ADD"/>
<path d="M22.6687 10.7857V37.1812H9.75701C6.92264 35.4883 4.54296 33.1141 2.84296 30.2844V10.7857C2.84296 10.3431 3.20171 9.98438 3.64428 9.98438H21.8674C22.31 9.98438 22.6687 10.3431 22.6687 10.7857Z" fill="white"/>
<path d="M22.6688 10.7859V37.1812H12.7557V9.98453H21.8675C22.3101 9.98453 22.6688 10.3433 22.6688 10.7859V10.7859Z" fill="#D1F6FF"/>
<path d="M15.5066 7.16563C15.0818 7.16563 14.6904 6.90969 14.5443 6.51079C14.2772 5.78165 13.5769 5.26141 12.7558 5.26141C11.9341 5.26141 11.2342 5.78149 10.9672 6.51055C10.8211 6.90954 10.4297 7.16563 10.0048 7.16563H8.35655C7.93335 7.16563 7.5903 7.50868 7.5903 7.93196V10.5158C7.5903 11.4207 8.3239 12.1544 9.2289 12.1544H16.2826C17.1876 12.1544 17.9212 11.4208 17.9212 10.5159V7.93204C17.9212 7.50883 17.5781 7.16571 17.1549 7.16571H15.5066V7.16563ZM12.7557 7.89477C12.3529 7.89477 12.0266 7.56844 12.0266 7.16563C12.0266 6.76282 12.3529 6.43649 12.7557 6.43649C13.1585 6.43649 13.4848 6.76282 13.4848 7.16563C13.4848 7.56844 13.1586 7.89477 12.7557 7.89477Z" fill="#374C81"/>
<path d="M17.9212 7.93197V10.5158C17.9212 11.4207 17.1876 12.1544 16.2826 12.1544H12.7557V7.89486C13.1585 7.89486 13.4848 7.56854 13.4848 7.16572C13.4848 6.76291 13.1585 6.43658 12.7557 6.43658V5.26151C13.5768 5.26151 14.2772 5.78166 14.5442 6.51088C14.6903 6.90971 15.0817 7.16572 15.5065 7.16572H17.1548C17.5781 7.16565 17.9212 7.50877 17.9212 7.93197V7.93197Z" fill="#323B5A"/>
<path d="M19.8143 18.432H13.809C13.2273 18.432 12.7557 17.9605 12.7557 17.3787C12.7557 16.797 13.2273 16.3255 13.809 16.3255H19.8143C20.396 16.3255 20.8676 16.797 20.8676 17.3787C20.8676 17.9605 20.396 18.432 19.8143 18.432V18.432Z" fill="#374C81"/>
<path d="M19.8143 22.6451H13.809C13.2273 22.6451 12.7557 22.1735 12.7557 21.5918C12.7557 21.0101 13.2273 20.5385 13.809 20.5385H19.8143C20.396 20.5385 20.8676 21.0101 20.8676 21.5918C20.8676 22.1735 20.396 22.6451 19.8143 22.6451V22.6451Z" fill="#374C81"/>
<path d="M19.8143 26.8582H13.809C13.2273 26.8582 12.7557 26.3866 12.7557 25.8049C12.7557 25.2232 13.2273 24.7516 13.809 24.7516H19.8143C20.396 24.7516 20.8676 25.2232 20.8676 25.8049C20.8676 26.3866 20.396 26.8582 19.8143 26.8582V26.8582Z" fill="#374C81"/>
<path d="M19.8143 31.0713H13.809C13.2273 31.0713 12.7557 30.5997 12.7557 30.018C12.7557 29.4363 13.2273 28.9647 13.809 28.9647H19.8143C20.396 28.9647 20.8676 29.4363 20.8676 30.018C20.8676 30.5997 20.396 31.0713 19.8143 31.0713V31.0713Z" fill="#374C81"/>
<path d="M6.47837 19.1005L4.1954 16.8174L5.47923 15.5336L6.47837 16.5327L9.08548 13.9256L10.3693 15.2095L6.47837 19.1005Z" fill="#369CEF"/>
<path d="M6.47837 24.9952L4.1954 22.7122L5.47923 21.4284L6.47837 22.4276L9.08548 19.8205L10.3693 21.1043L6.47837 24.9952Z" fill="#369CEF"/>
<path d="M6.47837 30.8901L4.1954 28.607L5.47923 27.3232L6.47837 28.3223L9.08548 25.7153L10.3693 26.9991L6.47837 30.8901Z" fill="#369CEF"/>
<path d="M40 19.757V20C40 27.6781 35.6727 34.3461 29.3242 37.6977C27.9477 38.4242 26.4766 38.9953 24.9336 39.3867C23.3555 39.7875 21.7024 40 20 40H19.757C19.7313 40 19.7063 39.9992 19.6813 39.9969C19.1047 39.9586 18.6492 39.4781 18.6492 38.8922V19.757C18.6492 19.1453 19.1453 18.6492 19.757 18.6492H38.8922C39.4797 18.6492 39.9609 19.107 39.9977 19.6852C39.9992 19.7086 40 19.7328 40 19.757V19.757Z" fill="#F4863D"/>
<path d="M40 19.757V20C40 27.6781 35.6727 34.3461 29.3242 37.6977V18.6492H38.8922C39.4797 18.6492 39.9609 19.107 39.9977 19.6852C39.9992 19.7086 40 19.7328 40 19.757V19.757Z" fill="#EC781B"/>
<path d="M31.9669 18.6491V22.9697C31.9669 23.4865 31.5473 23.9061 31.0305 23.9061H27.6187C27.1019 23.9061 26.6823 23.4865 26.6823 22.9697V18.6491H31.9669Z" fill="#FDF0B2"/>
<path d="M31.9669 18.6491V22.9697C31.9669 23.4865 31.5474 23.9061 31.0306 23.9061H29.3246V18.6491H31.9669Z" fill="#FEDE8C"/>
</g>
<defs>
<clipPath id="clip0">
<rect width="40" height="40" fill="white"/>
</clipPath>
</defs>
</svg>
