<svg width="232" height="199" viewBox="0 0 232 199" fill="none" xmlns="http://www.w3.org/2000/svg">
<path fill-rule="evenodd" clip-rule="evenodd" d="M116.455 179.457C169.061 179.457 211.706 140.394 211.706 92.2069C211.706 44.0201 169.061 4.95697 116.455 4.95697C63.8498 4.95697 21.2047 44.0201 21.2047 92.2069C21.2047 140.394 63.8498 179.457 116.455 179.457Z" stroke="#3AD29F" stroke-width="0.613889" stroke-dasharray="3.68 3.68"/>
<path fill-rule="evenodd" clip-rule="evenodd" d="M116.455 197.964C180.219 197.964 231.91 150.615 231.91 92.2069C231.91 33.7987 180.219 -13.5506 116.455 -13.5506C52.691 -13.5506 1 33.7987 1 92.2069C1 150.615 52.691 197.964 116.455 197.964Z" stroke="#3AD29F" stroke-width="0.613889" stroke-dasharray="3.68 3.68"/>
<path d="M193.727 125.9C193.73 113.587 183.503 103.294 170.12 102.141C156.738 100.989 144.595 109.354 142.093 121.452L62.0469 119.463L62.9256 132.06C62.9256 132.06 51.5116 156.184 111.5 162.612V186.995H180.85V146.455C188.819 142.18 193.719 134.358 193.727 125.9Z" fill="url(#paint0_linear)"/>
<path d="M65.6741 132.589C65.6741 132.589 54.7444 155.691 112.193 161.854V185.215H178.609V123.35L64.821 120.523L65.6741 132.589Z" fill="#BE7C5E"/>
<path d="M98.8675 36.1819C95.2624 41.3929 87.7398 42.9587 82.0303 39.6866L46.3707 18.162C40.6819 14.8597 38.9724 7.96899 42.5446 2.73903C46.1492 -2.46479 53.6621 -4.02981 59.369 -0.765661L95.0286 20.7589C100.722 24.0574 102.437 30.9489 98.8675 36.1819Z" fill="url(#paint1_linear)"/>
<path d="M96.8919 35.0068C93.5409 39.8505 86.5486 41.3061 81.2413 38.2647L48.0833 18.2413C42.7954 15.1718 41.2064 8.76676 44.5266 3.9053C47.8776 -0.938386 54.8699 -2.39395 60.1772 0.647384L93.3288 20.659C98.6268 23.7271 100.22 30.1414 96.8919 35.0068Z" fill="#BE7C5E"/>
<path d="M166.001 149.533C179.776 149.533 190.943 139.305 190.943 126.687C190.943 114.069 179.776 103.84 166.001 103.84C152.227 103.84 141.06 114.069 141.06 126.687C141.06 139.305 152.227 149.533 166.001 149.533Z" fill="#BE7C5E"/>
<path d="M161.512 -24H65.966C63.7962 -24 62.0373 -22.3888 62.0373 -20.4013V143.364C62.0373 145.352 63.7962 146.963 65.966 146.963H161.512C163.681 146.963 165.44 145.352 165.44 143.364V-20.4013C165.44 -22.3888 163.681 -24 161.512 -24Z" fill="url(#paint2_linear)"/>
<path d="M159.664 -21.688H67.8068C65.3909 -21.688 63.4324 -19.894 63.4324 -17.681V140.65C63.4324 142.863 65.3909 144.657 67.8068 144.657H159.664C162.08 144.657 164.039 142.863 164.039 140.65V-17.681C164.039 -19.894 162.08 -21.688 159.664 -21.688Z" fill="white"/>
<path d="M139.011 -17.5165C138.409 -13.8714 134.995 -11.173 130.97 -11.1622H96.2249C92.2015 -11.1745 88.7891 -13.8725 88.1879 -17.5165H69.7792C68.7656 -17.5165 67.7933 -17.149 67.0762 -16.4927C66.3592 -15.8365 65.9564 -14.9461 65.9564 -14.0177V136.981C65.9564 137.909 66.3576 138.8 67.074 139.457C67.7904 140.113 68.7624 140.482 69.776 140.482H157.695C158.709 140.482 159.681 140.115 160.398 139.459C161.115 138.802 161.518 137.912 161.518 136.984V-14.0147C161.518 -14.9432 161.117 -15.8339 160.4 -16.4907C159.684 -17.1475 158.712 -17.5165 157.698 -17.5165H139.011Z" fill="#2F56F8"/>
<path d="M182.123 130.717C174.885 132.251 169.917 127.927 168.243 121.299L151.611 64.7276C149.956 58.0744 154.477 51.4457 161.73 49.8893C168.993 48.3734 176.229 52.5139 177.929 59.1577L191.501 117.189C193.175 123.82 189.359 129.184 182.123 130.717Z" fill="url(#paint3_linear)"/>
<path d="M176.063 60.5425C174.651 54.9481 168.556 51.4607 162.449 52.7533C156.341 54.0459 152.534 59.629 153.945 65.2235L169.239 125.856C170.65 131.45 176.745 134.937 182.853 133.645C188.96 132.352 192.767 126.769 191.356 121.175L176.063 60.5425Z" fill="#BE7C5E"/>
<path d="M190.837 177.571H95.9073V197.841H190.837V177.571Z" fill="url(#paint4_linear)"/>
<path d="M188.271 179.921H98.473V195.785H188.271V179.921Z" fill="#4D8AF0"/>
<path d="M85.0257 96.8691C81.4644 102.018 74.0317 103.566 68.3905 100.333L44.4753 86.1582C38.8541 82.8961 37.1647 76.0877 40.6941 70.9203C44.2554 65.7713 51.6881 64.2238 57.3293 67.4568L81.2445 81.6312C86.8657 84.8934 88.5551 91.7017 85.0257 96.8691Z" fill="url(#paint5_linear)"/>
<path d="M79.022 126.872C75.429 132.068 67.9287 133.63 62.2361 130.368L47.4226 120.474C41.7499 117.182 40.0446 110.312 43.6062 105.098C47.1992 99.9013 54.6995 98.3393 60.3921 101.602L75.2056 111.499C80.8764 114.79 82.5814 121.658 79.022 126.872Z" fill="url(#paint6_linear)"/>
<g opacity="0.5">
<path opacity="0.5" d="M113.736 87.9061C129.666 87.9061 142.58 76.0767 142.58 61.4844C142.58 46.892 129.666 35.0626 113.736 35.0626C97.8051 35.0626 84.891 46.892 84.891 61.4844C84.891 76.0767 97.8051 87.9061 113.736 87.9061Z" fill="url(#paint7_linear)"/>
</g>
<path d="M113.736 86.3521C128.729 86.3521 140.884 75.2185 140.884 61.4844C140.884 47.7504 128.729 36.6167 113.736 36.6167C98.7421 36.6167 86.5875 47.7504 86.5875 61.4844C86.5875 75.2185 98.7421 86.3521 113.736 86.3521Z" fill="#69F0AE"/>
<path d="M101.953 58.1648L112.132 66.7135L126.554 47.2864L131.647 51.173L112.132 74.4867L97.7097 59.7218L101.953 58.1648Z" fill="white"/>
<path d="M77.8258 126.135C74.4748 130.978 67.4824 132.434 62.1752 129.392L48.3591 120.18C43.0712 117.11 41.4822 110.705 44.8024 105.844C48.1534 101 55.1458 99.5445 60.453 102.586L74.2659 111.816C79.5432 114.884 81.1324 121.276 77.8258 126.135Z" fill="#BE7C5E"/>
<path d="M83.7108 96.0906C80.3598 100.934 73.3674 102.39 68.0602 99.3485L45.5593 86.0113C40.2714 82.9417 38.6824 76.5367 42.0026 71.6753C45.3536 66.8316 52.346 65.376 57.6532 68.4173L80.1541 81.7545C85.442 84.8241 87.031 91.2291 83.7108 96.0906Z" fill="#BE7C5E"/>
<path d="M91.209 67.0073C87.6301 72.1789 80.1639 73.7328 74.4968 70.4855L44.1898 52.4098C38.544 49.1316 36.8476 42.2925 40.3926 37.1014C43.9715 31.9298 51.4377 30.3759 57.1048 33.6232L87.4118 51.6989C93.0576 54.9771 94.754 61.8162 91.209 67.0073Z" fill="url(#paint8_linear)"/>
<path d="M89.599 66.0672C86.248 70.9109 79.2556 72.3665 73.9484 69.3251L45.5625 52.3951C40.2746 49.3256 38.6856 42.9206 42.0058 38.0591C45.3568 33.2154 52.3492 31.7599 57.6564 34.8012L86.0391 51.7312C91.3281 54.7998 92.9186 61.205 89.599 66.0672Z" fill="#BE7C5E"/>
<defs>
<linearGradient id="paint0_linear" x1="127.892" y1="187.01" x2="127.892" y2="102.039" gradientUnits="userSpaceOnUse">
<stop stop-color="#808080" stop-opacity="0.25"/>
<stop offset="0.54" stop-color="#808080" stop-opacity="0.12"/>
<stop offset="1" stop-color="#808080" stop-opacity="0.1"/>
</linearGradient>
<linearGradient id="paint1_linear" x1="70.7028" y1="41.3993" x2="70.7028" y2="-2.47247" gradientUnits="userSpaceOnUse">
<stop stop-color="#808080" stop-opacity="0.25"/>
<stop offset="0.54" stop-color="#808080" stop-opacity="0.12"/>
<stop offset="1" stop-color="#808080" stop-opacity="0.1"/>
</linearGradient>
<linearGradient id="paint2_linear" x1="113.739" y1="146.96" x2="113.739" y2="-24.0029" gradientUnits="userSpaceOnUse">
<stop stop-color="#808080" stop-opacity="0.25"/>
<stop offset="0.54" stop-color="#808080" stop-opacity="0.12"/>
<stop offset="1" stop-color="#808080" stop-opacity="0.1"/>
</linearGradient>
<linearGradient id="paint3_linear" x1="171.579" y1="131.023" x2="171.579" y2="49.572" gradientUnits="userSpaceOnUse">
<stop stop-color="#808080" stop-opacity="0.25"/>
<stop offset="0.54" stop-color="#808080" stop-opacity="0.12"/>
<stop offset="1" stop-color="#808080" stop-opacity="0.1"/>
</linearGradient>
<linearGradient id="paint4_linear" x1="143.379" y1="197.835" x2="143.379" y2="177.565" gradientUnits="userSpaceOnUse">
<stop stop-color="#808080" stop-opacity="0.25"/>
<stop offset="0.54" stop-color="#808080" stop-opacity="0.12"/>
<stop offset="1" stop-color="#808080" stop-opacity="0.1"/>
</linearGradient>
<linearGradient id="paint5_linear" x1="62.8551" y1="102.022" x2="62.8551" y2="65.7705" gradientUnits="userSpaceOnUse">
<stop stop-color="#808080" stop-opacity="0.25"/>
<stop offset="0.54" stop-color="#808080" stop-opacity="0.12"/>
<stop offset="1" stop-color="#808080" stop-opacity="0.1"/>
</linearGradient>
<linearGradient id="paint6_linear" x1="61.3157" y1="132.072" x2="61.3157" y2="99.8949" gradientUnits="userSpaceOnUse">
<stop stop-color="#808080" stop-opacity="0.25"/>
<stop offset="0.54" stop-color="#808080" stop-opacity="0.12"/>
<stop offset="1" stop-color="#808080" stop-opacity="0.1"/>
</linearGradient>
<linearGradient id="paint7_linear" x1="113.736" y1="87.9061" x2="113.736" y2="35.0597" gradientUnits="userSpaceOnUse">
<stop stop-color="#808080" stop-opacity="0.25"/>
<stop offset="0.54" stop-color="#808080" stop-opacity="0.12"/>
<stop offset="1" stop-color="#808080" stop-opacity="0.1"/>
</linearGradient>
<linearGradient id="paint8_linear" x1="65.7992" y1="72.1924" x2="65.7992" y2="31.9369" gradientUnits="userSpaceOnUse">
<stop stop-color="#808080" stop-opacity="0.25"/>
<stop offset="0.54" stop-color="#808080" stop-opacity="0.12"/>
<stop offset="1" stop-color="#808080" stop-opacity="0.1"/>
</linearGradient>
</defs>
</svg>
