<svg width="315" height="72" viewBox="0 0 315 72" fill="none" xmlns="http://www.w3.org/2000/svg">
<rect width="315" height="72" rx="28" fill="#7639F9"/>
<path d="M263.625 36.7051C263.625 36.5977 263.586 36.5098 263.508 36.4316L256.906 29.791C256.76 29.625 256.652 29.5859 256.545 29.5859C256.33 29.5859 256.164 29.752 256.164 29.957C256.164 30.0644 256.193 30.1621 256.271 30.2305L260.168 34.1367L262.502 36.3926L260.363 36.334H245.861C245.656 36.334 245.49 36.4902 245.49 36.7051C245.49 36.9199 245.656 37.0762 245.861 37.0762H260.363L262.502 37.0273L260.168 39.2734L256.271 43.1797C256.203 43.248 256.164 43.3555 256.164 43.4629C256.164 43.6582 256.33 43.8242 256.545 43.8242C256.652 43.8242 256.74 43.7852 256.818 43.707L263.508 36.9785C263.586 36.9004 263.625 36.8125 263.625 36.7051Z" fill="white"/>
<mask id="mask0" mask-type="alpha" maskUnits="userSpaceOnUse" x="0" y="0" width="315" height="72">
<rect width="315" height="72" rx="28" fill="#2536FD"/>
</mask>
<g mask="url(#mask0)">
<path d="M-10.7908 49.1429C-28.2441 36.9981 -24.9228 2.04663 -3.37238 -28.9235C18.178 -59.8936 49.7969 -75.1546 67.2502 -63.0098C84.7035 -50.865 81.3821 -15.9134 59.8317 15.0567C38.2812 46.0269 6.66249 61.2877 -10.7908 49.1429Z" fill="#0047FF"/>
<ellipse cx="303.7" cy="72.6743" rx="56.8754" ry="40.2471" transform="rotate(114.387 303.7 72.6743)" fill="#B924FF"/>
</g>
<path d="M133.096 26.8L125.036 45H123.138L115.078 26.8H117.158L124.126 42.608L131.146 26.8H133.096ZM146.214 38.734H134.774C134.878 40.1553 135.424 41.308 136.412 42.192C137.4 43.0587 138.648 43.492 140.156 43.492C141.006 43.492 141.786 43.3447 142.496 43.05C143.207 42.738 143.822 42.2873 144.342 41.698L145.382 42.894C144.776 43.622 144.013 44.1767 143.094 44.558C142.193 44.9393 141.196 45.13 140.104 45.13C138.7 45.13 137.452 44.8353 136.36 44.246C135.286 43.6393 134.445 42.8073 133.838 41.75C133.232 40.6927 132.928 39.4967 132.928 38.162C132.928 36.8273 133.214 35.6313 133.786 34.574C134.376 33.5167 135.173 32.6933 136.178 32.104C137.201 31.5147 138.345 31.22 139.61 31.22C140.876 31.22 142.011 31.5147 143.016 32.104C144.022 32.6933 144.81 33.5167 145.382 34.574C145.954 35.614 146.24 36.81 146.24 38.162L146.214 38.734ZM139.61 32.806C138.293 32.806 137.184 33.2307 136.282 34.08C135.398 34.912 134.896 36.004 134.774 37.356H144.472C144.351 36.004 143.84 34.912 142.938 34.08C142.054 33.2307 140.945 32.806 139.61 32.806ZM151.766 34.002C152.199 33.0833 152.84 32.39 153.69 31.922C154.556 31.454 155.622 31.22 156.888 31.22V33.014L156.446 32.988C155.007 32.988 153.88 33.43 153.066 34.314C152.251 35.198 151.844 36.4373 151.844 38.032V45H149.998V31.324H151.766V34.002ZM160.23 31.324H162.076V45H160.23V31.324ZM161.166 28.334C160.785 28.334 160.464 28.204 160.204 27.944C159.944 27.684 159.814 27.372 159.814 27.008C159.814 26.6613 159.944 26.358 160.204 26.098C160.464 25.838 160.785 25.708 161.166 25.708C161.548 25.708 161.868 25.838 162.128 26.098C162.388 26.3407 162.518 26.6353 162.518 26.982C162.518 27.3633 162.388 27.684 162.128 27.944C161.868 28.204 161.548 28.334 161.166 28.334ZM171.737 27.138C170.939 27.138 170.333 27.3547 169.917 27.788C169.518 28.2213 169.319 28.8627 169.319 29.712V31.324H173.531V32.884H169.371V45H167.525V32.884H165.081V31.324H167.525V29.634C167.525 28.386 167.88 27.398 168.591 26.67C169.319 25.942 170.341 25.578 171.659 25.578C172.179 25.578 172.681 25.656 173.167 25.812C173.652 25.9507 174.059 26.1587 174.389 26.436L173.765 27.814C173.227 27.3633 172.551 27.138 171.737 27.138ZM187.769 31.324L180.931 46.638C180.376 47.9207 179.735 48.8307 179.007 49.368C178.279 49.9053 177.404 50.174 176.381 50.174C175.722 50.174 175.107 50.07 174.535 49.862C173.963 49.654 173.469 49.342 173.053 48.926L173.911 47.548C174.604 48.2413 175.436 48.588 176.407 48.588C177.031 48.588 177.56 48.4147 177.993 48.068C178.444 47.7213 178.86 47.132 179.241 46.3L179.839 44.974L173.729 31.324H175.653L180.801 42.946L185.949 31.324H187.769Z" fill="white"/>
</svg>
