<svg width="233" height="223" viewBox="0 0 233 223" fill="none" xmlns="http://www.w3.org/2000/svg">
<path fill-rule="evenodd" clip-rule="evenodd" d="M116.5 203.457C169.105 203.457 211.751 164.394 211.751 116.207C211.751 68.0201 169.105 28.957 116.5 28.957C63.8946 28.957 21.2495 68.0201 21.2495 116.207C21.2495 164.394 63.8946 203.457 116.5 203.457Z" stroke="#3AD29F" stroke-width="0.613889" stroke-dasharray="3.68 3.68"/>
<path fill-rule="evenodd" clip-rule="evenodd" d="M116.5 221.964C180.264 221.964 231.955 174.615 231.955 116.207C231.955 57.7987 180.264 10.4494 116.5 10.4494C52.7359 10.4494 1.04486 57.7987 1.04486 116.207C1.04486 174.615 52.7359 221.964 116.5 221.964Z" stroke="#3AD29F" stroke-width="0.613889" stroke-dasharray="3.68 3.68"/>
<path d="M193.772 149.9C193.775 137.587 183.548 127.294 170.165 126.141C156.782 124.989 144.64 133.354 142.137 145.452L62.0918 143.463L62.9705 156.06C62.9705 156.06 51.5565 180.184 111.545 186.612V210.995H180.895V170.455C188.864 166.18 193.764 158.358 193.772 149.9Z" fill="url(#paint0_linear)"/>
<path d="M65.719 156.589C65.719 156.589 54.7892 179.691 112.238 185.854V209.215H178.653V147.35L64.8659 144.523L65.719 156.589Z" fill="#BE7C5E"/>
<path d="M98.9124 60.1819C95.3073 65.3929 87.7847 66.9587 82.0752 63.6866L46.4156 42.162C40.7268 38.8597 39.0173 31.969 42.5895 26.739C46.1941 21.5352 53.707 19.9702 59.4139 23.2343L95.0735 44.7589C100.767 48.0574 102.482 54.9489 98.9124 60.1819Z" fill="url(#paint1_linear)"/>
<path d="M96.9368 59.0068C93.5858 63.8505 86.5935 65.3061 81.2862 62.2647L48.1281 42.2413C42.8403 39.1718 41.2513 32.7668 44.5715 27.9053C47.9225 23.0616 54.9148 21.6061 60.2221 24.6474L93.3737 44.659C98.6717 47.7271 100.265 54.1414 96.9368 59.0068Z" fill="#BE7C5E"/>
<path d="M166.046 173.533C179.821 173.533 190.988 163.305 190.988 150.687C190.988 138.069 179.821 127.84 166.046 127.84C152.271 127.84 141.105 138.069 141.105 150.687C141.105 163.305 152.271 173.533 166.046 173.533Z" fill="#BE7C5E"/>
<path d="M161.556 0H66.0108C63.8411 0 62.0822 1.61119 62.0822 3.59869V167.364C62.0822 169.352 63.8411 170.963 66.0108 170.963H161.556C163.726 170.963 165.485 169.352 165.485 167.364V3.59869C165.485 1.61119 163.726 0 161.556 0Z" fill="url(#paint2_linear)"/>
<path d="M159.709 2.31198H67.8517C65.4357 2.31198 63.4772 4.10599 63.4772 6.31902V164.65C63.4772 166.863 65.4357 168.657 67.8517 168.657H159.709C162.125 168.657 164.084 166.863 164.084 164.65V6.31902C164.084 4.10599 162.125 2.31198 159.709 2.31198Z" fill="white"/>
<path d="M139.055 6.48352C138.454 10.1286 135.04 12.827 131.015 12.8378H96.2697C92.2464 12.8255 88.8339 10.1275 88.2328 6.48352H69.8241C68.8105 6.48352 67.8381 6.85102 67.1211 7.50726C66.4041 8.1635 66.0012 9.05388 66.0012 9.98233V160.981C66.0012 161.909 66.4024 162.8 67.1188 163.457C67.8352 164.113 68.8073 164.482 69.8209 164.482H157.74C158.754 164.482 159.726 164.115 160.443 163.459C161.16 162.802 161.563 161.912 161.563 160.984V9.98527C161.563 9.05682 161.162 8.16613 160.445 7.50934C159.729 6.85255 158.757 6.48352 157.743 6.48352H139.055Z" fill="#2F56F8"/>
<path d="M124.492 8.47235H103.354C103 8.47235 102.713 8.7354 102.713 9.05989V9.16859C102.713 9.49308 103 9.75613 103.354 9.75613H124.492C124.846 9.75613 125.134 9.49308 125.134 9.16859V9.05989C125.134 8.7354 124.846 8.47235 124.492 8.47235Z" fill="#DBDBDB"/>
<path d="M129.896 9.94352C130.473 9.94352 130.941 9.51502 130.941 8.98644C130.941 8.45786 130.473 8.02936 129.896 8.02936C129.319 8.02936 128.851 8.45786 128.851 8.98644C128.851 9.51502 129.319 9.94352 129.896 9.94352Z" fill="#DBDBDB"/>
<path d="M182.168 154.717C174.93 156.251 169.962 151.927 168.288 145.299L151.656 88.7276C150.001 82.0744 154.521 75.4457 161.774 73.8893C169.038 72.3734 176.274 76.5139 177.973 83.1577L191.546 141.189C193.22 147.82 189.404 153.184 182.168 154.717Z" fill="url(#paint3_linear)"/>
<path d="M176.107 84.5425C174.696 78.9481 168.601 75.4607 162.494 76.7533C156.386 78.0459 152.579 83.629 153.99 89.2235L169.284 149.856C170.695 155.45 176.79 158.937 182.898 157.645C189.005 156.352 192.812 150.769 191.401 145.175L176.107 84.5425Z" fill="#BE7C5E"/>
<path d="M190.882 201.571H95.9522V221.841H190.882V201.571Z" fill="url(#paint4_linear)"/>
<path d="M188.316 203.921H98.5179V219.785H188.316V203.921Z" fill="#4D8AF0"/>
<path d="M85.0705 120.869C81.5092 126.018 74.0766 127.566 68.4354 124.333L44.5201 110.158C38.899 106.896 37.2095 100.088 40.739 94.9203C44.3003 89.7713 51.7329 88.2238 57.3741 91.4568L81.2894 105.631C86.9106 108.893 88.6 115.702 85.0705 120.869Z" fill="url(#paint5_linear)"/>
<path d="M79.0669 150.872C75.4738 156.068 67.9735 157.63 62.281 154.368L47.4674 144.474C41.7947 141.182 40.0894 134.312 43.651 129.098C47.244 123.901 54.7443 122.339 60.4369 125.602L75.2504 135.499C80.9212 138.79 82.6263 145.658 79.0669 150.872Z" fill="url(#paint6_linear)"/>
<g opacity="0.5">
<path opacity="0.5" d="M113.78 111.906C129.711 111.906 142.625 100.077 142.625 85.4844C142.625 70.892 129.711 59.0626 113.78 59.0626C97.85 59.0626 84.9359 70.892 84.9359 85.4844C84.9359 100.077 97.85 111.906 113.78 111.906Z" fill="url(#paint7_linear)"/>
</g>
<path d="M113.78 110.352C128.774 110.352 140.928 99.2185 140.928 85.4844C140.928 71.7504 128.774 60.6167 113.78 60.6167C98.787 60.6167 86.6324 71.7504 86.6324 85.4844C86.6324 99.2185 98.787 110.352 113.78 110.352Z" fill="#69F0AE"/>
<path d="M101.998 82.1648L112.177 90.7135L126.599 71.2864L131.692 75.173L112.177 98.4867L97.7546 83.7218L101.998 82.1648Z" fill="white"/>
<path d="M77.8706 150.135C74.5196 154.978 67.5273 156.434 62.22 153.392L48.4039 144.18C43.1161 141.11 41.527 134.705 44.8472 129.844C48.1983 125 55.1906 123.545 60.4978 126.586L74.3108 135.816C79.588 138.884 81.1772 145.276 77.8706 150.135Z" fill="#BE7C5E"/>
<path d="M83.7557 120.091C80.4046 124.934 73.4123 126.39 68.1051 123.348L45.6042 110.011C40.3163 106.942 38.7273 100.537 42.0475 95.6753C45.3985 90.8316 52.3908 89.376 57.6981 92.4173L80.199 105.755C85.4869 108.824 87.0759 115.229 83.7557 120.091Z" fill="#BE7C5E"/>
<path d="M91.2538 91.0073C87.675 96.1789 80.2088 97.7328 74.5417 94.4855L44.2347 76.4098C38.5889 73.1316 36.8925 66.2925 40.4375 61.1014C44.0164 55.9298 51.4825 54.3759 57.1496 57.6232L87.4566 75.6989C93.1024 78.9771 94.7988 85.8162 91.2538 91.0073Z" fill="url(#paint8_linear)"/>
<path d="M89.6438 90.0672C86.2928 94.9109 79.3005 96.3665 73.9933 93.3251L45.6073 76.3951C40.3195 73.3256 38.7305 66.9206 42.0507 62.0591C45.4017 57.2154 52.394 55.7599 57.7013 58.8012L86.084 75.7312C91.373 78.7998 92.9635 85.205 89.6438 90.0672Z" fill="#BE7C5E"/>
<defs>
<linearGradient id="paint0_linear" x1="127.937" y1="211.01" x2="127.937" y2="126.039" gradientUnits="userSpaceOnUse">
<stop stop-color="#808080" stop-opacity="0.25"/>
<stop offset="0.54" stop-color="#808080" stop-opacity="0.12"/>
<stop offset="1" stop-color="#808080" stop-opacity="0.1"/>
</linearGradient>
<linearGradient id="paint1_linear" x1="70.7477" y1="65.3993" x2="70.7477" y2="21.5275" gradientUnits="userSpaceOnUse">
<stop stop-color="#808080" stop-opacity="0.25"/>
<stop offset="0.54" stop-color="#808080" stop-opacity="0.12"/>
<stop offset="1" stop-color="#808080" stop-opacity="0.1"/>
</linearGradient>
<linearGradient id="paint2_linear" x1="113.784" y1="170.96" x2="113.784" y2="-0.00293477" gradientUnits="userSpaceOnUse">
<stop stop-color="#808080" stop-opacity="0.25"/>
<stop offset="0.54" stop-color="#808080" stop-opacity="0.12"/>
<stop offset="1" stop-color="#808080" stop-opacity="0.1"/>
</linearGradient>
<linearGradient id="paint3_linear" x1="171.623" y1="155.023" x2="171.623" y2="73.572" gradientUnits="userSpaceOnUse">
<stop stop-color="#808080" stop-opacity="0.25"/>
<stop offset="0.54" stop-color="#808080" stop-opacity="0.12"/>
<stop offset="1" stop-color="#808080" stop-opacity="0.1"/>
</linearGradient>
<linearGradient id="paint4_linear" x1="143.424" y1="221.835" x2="143.424" y2="201.565" gradientUnits="userSpaceOnUse">
<stop stop-color="#808080" stop-opacity="0.25"/>
<stop offset="0.54" stop-color="#808080" stop-opacity="0.12"/>
<stop offset="1" stop-color="#808080" stop-opacity="0.1"/>
</linearGradient>
<linearGradient id="paint5_linear" x1="62.8999" y1="126.022" x2="62.8999" y2="89.7705" gradientUnits="userSpaceOnUse">
<stop stop-color="#808080" stop-opacity="0.25"/>
<stop offset="0.54" stop-color="#808080" stop-opacity="0.12"/>
<stop offset="1" stop-color="#808080" stop-opacity="0.1"/>
</linearGradient>
<linearGradient id="paint6_linear" x1="61.3605" y1="156.072" x2="61.3605" y2="123.895" gradientUnits="userSpaceOnUse">
<stop stop-color="#808080" stop-opacity="0.25"/>
<stop offset="0.54" stop-color="#808080" stop-opacity="0.12"/>
<stop offset="1" stop-color="#808080" stop-opacity="0.1"/>
</linearGradient>
<linearGradient id="paint7_linear" x1="113.78" y1="111.906" x2="113.78" y2="59.0597" gradientUnits="userSpaceOnUse">
<stop stop-color="#808080" stop-opacity="0.25"/>
<stop offset="0.54" stop-color="#808080" stop-opacity="0.12"/>
<stop offset="1" stop-color="#808080" stop-opacity="0.1"/>
</linearGradient>
<linearGradient id="paint8_linear" x1="65.8441" y1="96.1924" x2="65.8441" y2="55.9369" gradientUnits="userSpaceOnUse">
<stop stop-color="#808080" stop-opacity="0.25"/>
<stop offset="0.54" stop-color="#808080" stop-opacity="0.12"/>
<stop offset="1" stop-color="#808080" stop-opacity="0.1"/>
</linearGradient>
</defs>
</svg>
