<svg width="512" height="512" viewBox="0 0 512 512" fill="none" xmlns="http://www.w3.org/2000/svg">
<path d="M512 256C512 332.88 478.1 401.86 424.44 448.78C421.93 450.98 419.38 453.12 416.79 455.21C372.84 490.73 316.9 512 256 512C240.83 512 225.96 510.68 211.52 508.14C184.68 503.44 159.27 494.56 136.01 482.19C107.8 467.2 82.74 447.09 62.05 423.09C47.36 406.06 34.88 387.07 25.05 366.56C13.66 342.83 5.83 317.06 2.24 289.95C0.76 278.85 0 267.51 0 256C0 183.35 30.27 117.76 78.88 71.16C81.59 68.57 84.35 66.03 87.17 63.56C132.24 24 191.32 0 256 0C387.12 0 495.22 98.58 510.22 225.67C510.74 230.09 511.15 234.54 511.44 239.02C511.81 244.63 512 250.29 512 256Z" fill="#2D2667"/>
<path d="M417.022 385.51C417.022 381.368 413.664 378.01 409.522 378.01C399.594 378.353 399.596 392.668 409.522 393.01C413.664 393.01 417.022 389.652 417.022 385.51Z" fill="#9175A7"/>
<path d="M372.143 353.043C372.143 348.901 368.785 345.543 364.643 345.543C354.715 345.886 354.717 360.201 364.643 360.543C368.785 360.543 372.143 357.186 372.143 353.043Z" fill="#9175A7"/>
<path d="M338.307 405.263C338.307 401.121 334.949 397.763 330.807 397.763C320.879 398.106 320.881 412.421 330.807 412.763C334.949 412.763 338.307 409.405 338.307 405.263Z" fill="#9175A7"/>
<path d="M359.606 437.378C359.606 433.236 356.248 429.878 352.106 429.878C342.178 430.221 342.18 444.536 352.106 444.878C356.248 444.878 359.606 441.52 359.606 437.378Z" fill="#9175A7"/>
<path d="M424.52 447.72C424.52 448.08 424.49 448.43 424.44 448.78C421.93 450.98 419.38 453.12 416.79 455.21C407.029 454.594 407.233 440.545 417.02 440.22C421.16 440.22 424.52 443.58 424.52 447.72Z" fill="#9175A7"/>
<path d="M305.858 482.953C305.858 478.811 302.5 475.453 298.358 475.453C288.43 475.796 288.432 490.111 298.358 490.453C302.5 490.453 305.858 487.095 305.858 482.953Z" fill="#9175A7"/>
<path d="M403.462 316.16C403.462 312.018 400.104 308.66 395.962 308.66C386.034 309.003 386.036 323.319 395.962 323.66C400.105 323.66 403.462 320.303 403.462 316.16Z" fill="#9175A7"/>
<path d="M469.244 282.33C469.244 278.188 465.886 274.83 461.744 274.83C451.816 275.173 451.818 289.488 461.744 289.83C465.887 289.83 469.244 286.472 469.244 282.33Z" fill="#9175A7"/>
<path d="M479.895 339.508C479.895 335.366 476.537 332.008 472.395 332.008C462.467 332.351 462.469 346.666 472.395 347.008C476.537 347.008 479.895 343.65 479.895 339.508Z" fill="#9175A7"/>
<path d="M395.962 246.811C395.962 242.669 392.604 239.311 388.462 239.311C378.534 239.654 378.536 253.969 388.462 254.311C392.605 254.311 395.962 250.953 395.962 246.811Z" fill="#9175A7"/>
<path d="M511.44 239.02C506.648 242.156 499.872 238.422 500 232.65C499.885 227.484 505.466 223.687 510.22 225.67C510.74 230.09 511.15 234.54 511.44 239.02Z" fill="#9175A7"/>
<path d="M330.807 266.053C330.807 261.911 327.449 258.553 323.307 258.553C313.379 258.896 313.381 273.211 323.307 273.553C327.449 273.553 330.807 270.195 330.807 266.053Z" fill="#9175A7"/>
<path d="M469.244 195.356C469.244 191.214 465.886 187.856 461.744 187.856C451.816 188.199 451.818 202.514 461.744 202.856C465.887 202.856 469.244 199.498 469.244 195.356Z" fill="#9175A7"/>
<path d="M454.244 118.706C454.244 114.564 450.886 111.206 446.744 111.206C436.816 111.549 436.818 125.864 446.744 126.206C450.887 126.206 454.244 122.848 454.244 118.706Z" fill="#9175A7"/>
<path d="M360.152 40.394C360.152 36.252 356.794 32.894 352.652 32.894C342.724 33.237 342.726 47.552 352.652 47.894C356.794 47.894 360.152 44.536 360.152 40.394Z" fill="#9175A7"/>
<path d="M277.006 17.8401C277.006 13.6981 273.648 10.3401 269.506 10.3401C259.578 10.6831 259.58 24.9981 269.506 25.3401C273.649 25.3401 277.006 21.9821 277.006 17.8401Z" fill="#9175A7"/>
<path d="M251.545 51.0442C251.545 46.9022 248.187 43.5442 244.045 43.5442C234.117 43.8872 234.119 58.2022 244.045 58.5442C248.187 58.5442 251.545 55.1862 251.545 51.0442Z" fill="#9175A7"/>
<path d="M207.778 32.894C207.778 28.752 204.42 25.394 200.278 25.394C190.35 25.737 190.352 40.052 200.278 40.394C204.42 40.394 207.778 37.036 207.778 32.894Z" fill="#9175A7"/>
<path d="M215.278 98.676C215.278 94.534 211.92 91.176 207.778 91.176C197.85 91.519 197.852 105.834 207.778 106.176C211.92 106.176 215.278 102.818 215.278 98.676Z" fill="#9175A7"/>
<path d="M157.385 71.04C157.385 66.898 154.027 63.54 149.885 63.54C139.957 63.883 139.959 78.198 149.885 78.54C154.027 78.54 157.385 75.182 157.385 71.04Z" fill="#9175A7"/>
<path d="M119.87 118.739C119.87 114.597 116.512 111.239 112.37 111.239C102.442 111.582 102.444 125.897 112.37 126.239C116.512 126.239 119.87 122.881 119.87 118.739Z" fill="#9175A7"/>
<path d="M154.639 157.488C154.639 153.346 151.281 149.988 147.139 149.988C137.211 150.331 137.213 164.646 147.139 164.988C151.281 164.988 154.639 161.63 154.639 157.488Z" fill="#9175A7"/>
<path d="M93.869 186.12C93.869 181.978 90.511 178.62 86.369 178.62C76.441 178.963 76.443 193.278 86.369 193.62C90.511 193.62 93.869 190.262 93.869 186.12Z" fill="#9175A7"/>
<path d="M58.382 150.692C58.382 146.55 55.024 143.192 50.882 143.192C40.954 143.535 40.956 157.85 50.882 158.192C55.024 158.192 58.382 154.834 58.382 150.692Z" fill="#9175A7"/>
<path d="M36.617 213.721C36.617 209.579 33.259 206.221 29.117 206.221C19.189 206.564 19.191 220.879 29.117 221.221C33.259 221.221 36.617 217.863 36.617 213.721Z" fill="#9175A7"/>
<path d="M222.778 157.488C222.778 153.346 219.42 149.988 215.278 149.988C205.35 150.331 205.352 164.646 215.278 164.988C219.42 164.988 222.778 161.63 222.778 157.488Z" fill="#9175A7"/>
<path d="M93.87 71.0201C93.539 80.8621 79.379 80.9871 78.88 71.1601C81.59 68.5701 84.35 66.0301 87.17 63.5601C90.93 63.9601 93.87 67.1501 93.87 71.0201Z" fill="#9175A7"/>
<path d="M312.33 357.8C312.33 425.7 270.67 483.87 211.52 508.14C103.408 490.136 15.693 398.744 2.23999 289.95C75.754 133.94 309.935 182.829 312.33 357.8Z" fill="#57409B"/>
<path d="M275.03 357.8C275.496 425.75 218.974 483.344 149.88 482.95C145.19 482.95 140.56 482.69 136.01 482.19C87.711 456.527 48.668 415.843 25.05 366.56C19.399 295.065 78.217 231.979 149.88 232.65C183.735 232.47 217.228 246.866 240.479 271.46C262.541 294.471 275.158 325.865 275.03 357.8Z" fill="#22A8B9"/>
<path d="M275.026 357.803C275.085 383.201 267.178 408.522 252.586 429.313C252.032 430.127 251.521 431.013 250.616 431.473C248.883 432.679 247.123 433.904 245.336 435.003C239.413 438.798 233.133 442.01 226.666 444.753C180.436 464.317 125.225 453.479 89.936 417.733C54.743 382.94 43.65 328.901 62.106 283.013H62.116C62.968 280.814 63.939 278.644 64.926 276.503C66.299 273.547 67.795 270.647 69.396 267.803C69.406 267.803 69.406 267.793 69.416 267.793C71.666 263.793 74.116 259.913 76.806 256.203C97.366 241.383 122.596 232.653 149.876 232.653C170.956 232.623 192.029 238.008 210.446 248.273C249.811 269.73 275.397 312.902 275.026 357.803Z" fill="#CDE6F6"/>
<path d="M130.432 251.869C108.099 251.869 87.136 257.724 68.986 267.977C8.05902 378.835 128.691 499.372 239.472 438.462C286.653 356.871 225.316 250.895 130.432 251.869Z" fill="#4FCAE8"/>
<path d="M265.295 309.333L246.255 328.373L229.165 345.463C219.105 355.523 204.385 358.083 191.945 353.143C192.635 355.233 193.005 357.473 193.005 359.793V380.143C193.004 380.333 192.987 380.523 193.005 380.703V422.353C193.005 431.823 185.325 439.503 175.855 439.503H159.525C150.055 439.503 142.375 431.823 142.375 422.353V401.523H119.715C107.905 401.523 98.335 391.953 98.335 380.143V359.793C98.335 347.983 107.905 338.413 119.715 338.413H171.625C172.195 338.413 172.755 338.443 173.305 338.483L157.015 322.193C143.525 308.703 143.525 286.813 157.015 273.313C165.225 265.09 182.518 247.82 190.815 239.513C224.056 250.855 251.792 276.923 265.295 309.333Z" fill="#50755C"/>
<path d="M72.64 314.28V398.2C72.64 407.98 68.58 416.81 62.05 423.09C47.36 406.06 34.88 387.07 25.05 366.56C22.745 335.737 32.578 304.957 50.33 281.97C63.538 286.992 72.609 299.578 72.64 314.28Z" fill="#50755C"/>
<path d="M265.705 405.263C257.902 424.347 245.26 441.404 229.345 454.493C225.815 452.973 222.895 450.293 221.075 446.933H221.065C219.745 444.503 218.995 441.713 218.995 438.743V422.413C218.995 412.943 226.675 405.263 236.145 405.263H265.705Z" fill="#50755C"/>
<path d="M60.315 287.833C67.845 294.173 72.635 303.663 72.635 314.283V396.113C52.723 365.656 47.503 323.038 60.305 287.823" fill="#528F66"/>
<path d="M216.465 448.503C218.005 448.013 219.545 447.483 221.065 446.933C219.545 447.493 218.016 448.013 216.465 448.503Z" fill="#53B976"/>
<path d="M265.705 405.263C262.002 414.292 257.237 422.884 251.535 430.803C247.804 433.519 243.911 435.986 239.885 438.263C239.885 438.273 239.875 438.273 239.875 438.283C235.561 440.726 231.078 442.889 226.515 444.813C226.468 444.823 226.414 444.841 226.375 444.863C224.627 445.598 222.85 446.294 221.065 446.933C219.745 444.503 218.995 441.713 218.995 438.743V422.413C218.995 412.943 226.675 405.263 236.145 405.263H265.705Z" fill="#53B976"/>
<path d="M265.295 309.333L246.255 328.373L229.165 345.463C219.105 355.523 204.385 358.083 191.945 353.143C192.635 355.233 193.005 357.473 193.005 359.793V380.143C193.004 380.333 192.987 380.523 193.005 380.703V422.353C193.005 431.823 185.325 439.503 175.855 439.503H159.525C150.055 439.503 142.375 431.823 142.375 422.353V401.523H119.715C107.905 401.523 98.335 391.953 98.335 380.143V359.793C98.335 347.983 107.905 338.413 119.715 338.413H171.625C172.195 338.413 172.755 338.443 173.305 338.483L157.015 322.193C143.525 308.703 143.525 286.813 157.015 273.313C165.225 265.09 182.518 247.82 190.815 239.513C224.056 250.855 251.792 276.923 265.295 309.333Z" fill="#53B976"/>
<path d="M229.165 345.463C219.105 355.523 204.385 358.083 191.945 353.143C192.635 355.233 193.005 357.473 193.005 359.793V380.143C193.004 380.333 192.987 380.523 193.005 380.703V422.353C193.005 431.823 185.325 439.503 175.855 439.503H159.525C150.055 439.503 142.375 431.823 142.375 422.353V401.523H119.715C107.905 401.523 98.335 391.953 98.335 380.143V359.793C98.335 347.983 107.905 338.413 119.715 338.413H171.625C172.195 338.413 172.755 338.443 173.305 338.483L157.015 322.193C143.525 308.703 143.525 286.813 157.015 273.313L171.775 258.553C205.415 270.183 232.545 295.763 246.255 328.373L229.165 345.463Z" fill="#528F66"/>
<path d="M252.745 405.263C250.015 416.983 245.645 428.083 239.875 438.283C233.886 441.664 227.588 444.581 221.065 446.933C219.745 444.503 218.995 441.713 218.995 438.743V422.413C218.995 412.943 226.675 405.263 236.145 405.263H252.745Z" fill="#528F66"/>
<path d="M200.278 179.796C176.106 179.796 156.511 199.391 156.511 223.563C156.511 240.928 179.098 282.03 191.82 303.803C195.604 310.28 204.952 310.28 208.736 303.803C221.458 282.03 244.045 240.928 244.045 223.563C244.045 199.391 224.45 179.796 200.278 179.796ZM200.278 241.007C190.644 241.007 182.834 233.197 182.834 223.563C183.753 200.425 216.805 200.431 217.721 223.563C217.722 233.197 209.912 241.007 200.278 241.007Z" fill="#E9465E"/>
<path d="M292.053 250.434C295.509 250.434 298.896 248.746 300.93 245.638L335.106 193.406C342.331 181.361 325.55 170.338 317.373 181.803L283.197 234.035C278.544 240.916 283.811 250.563 292.053 250.434Z" fill="#EBD9EA"/>
<path d="M428.406 103.916V170.093C428.436 192.25 410.442 210.5 388.01 210.497H285.665C263.231 210.5 245.242 192.243 245.269 170.093V103.916C245.243 81.764 263.236 63.519 285.665 63.52H388.01C410.438 63.519 428.434 81.757 428.406 103.916Z" fill="#EBD9EA"/>
<path d="M428.406 103.916V170.093C428.406 179.428 425.244 188.014 419.933 194.86C414.615 188.014 411.453 179.428 411.453 170.093V103.916C411.453 94.581 414.615 85.995 419.933 79.156C425.243 85.995 428.406 94.581 428.406 103.916Z" fill="white"/>
<path d="M262.22 103.916V170.093C262.22 179.428 259.058 188.014 253.747 194.86C248.429 188.014 245.267 179.428 245.267 170.093V103.916C245.267 94.581 248.429 85.995 253.747 79.156C259.058 85.995 262.22 94.581 262.22 103.916Z" fill="#C1B7D3"/>
<path d="M379.18 128.194C381.076 127.343 383.219 128.73 383.219 130.808V150.249C383.219 165.916 364.647 178.62 341.746 178.62C318.845 178.62 300.273 165.916 300.273 150.249V130.808C300.273 128.73 302.416 127.343 304.312 128.194L340.572 144.471C341.318 144.806 342.172 144.806 342.919 144.471L379.18 128.194Z" fill="#2D2667"/>
<path d="M346.195 173.719C341.802 173.664 341.14 167.33 345.495 166.413C357.465 164.083 366.926 158.036 370.803 150.236C371.709 148.413 373.921 147.669 375.745 148.576C377.568 149.482 378.311 151.695 377.405 153.518C372.501 163.436 360.506 171.35 346.195 173.719Z" fill="#57409B"/>
<path d="M406.768 121.834L343.135 150.394C342.252 150.791 341.241 150.791 340.357 150.394L276.724 121.834C274.053 120.635 274.053 116.844 276.724 115.645L340.357 87.0851C341.24 86.6881 342.251 86.6881 343.135 87.0851L406.768 115.645C409.439 116.843 409.439 120.635 406.768 121.834Z" fill="#57409B"/>
<path d="M384.39 121.277C383.833 121.277 383.267 121.162 382.726 120.919L343.229 103.192C341.178 102.272 340.262 99.864 341.183 97.813C342.103 95.762 344.511 94.847 346.562 95.767L386.059 113.494C390.041 115.299 388.71 121.282 384.39 121.277Z" fill="#6C53A2"/>
<path d="M283.234 129.42V151.787H276.598V128.488C276.598 126.834 278.303 125.73 279.812 126.408L281.887 127.339C282.707 127.707 283.234 128.522 283.234 129.42Z" fill="#2D2667"/>
<path d="M290.328 154.577C290.367 160.192 285.718 165.01 279.917 164.988C266.105 164.442 266.114 144.708 279.917 144.16C285.52 144.088 290.371 148.842 290.328 154.577Z" fill="#2D2667"/>
<path d="M287.917 180.53C287.14 180.999 286.296 181.226 285.359 181.23H274.477C270.798 181.23 268.365 177.418 269.906 174.086L274.322 164.523C275.148 162.739 276.932 161.596 278.893 161.596H280.943C282.886 161.597 284.698 162.742 285.514 164.523L289.93 174.086C291.072 176.556 290.025 179.291 287.917 180.53Z" fill="#2D2667"/>
<path d="M287.917 180.53C287.054 180.021 286.347 179.255 285.912 178.311L281.496 168.748C280.353 166.271 281.4 163.543 283.509 162.304C284.372 162.813 285.079 163.579 285.514 164.523L289.93 174.086C291.072 176.556 290.025 179.291 287.917 180.53Z" fill="#57409B"/>
<path d="M290.328 154.577C290.328 155.919 290.077 157.194 289.613 158.374C281.601 162.813 275.57 148.527 283.191 144.683C287.348 146.044 290.333 150.031 290.328 154.577Z" fill="#57409B"/>
</svg>
