<svg width="35" height="12" viewBox="0 0 35 12" fill="none" xmlns="http://www.w3.org/2000/svg">
<path d="M27.0536 2.35392C27.1965 2.23955 27.268 2.18237 27.3395 2.12519C28.333 1.28174 29.6054 1.37466 30.456 2.37536C30.5417 2.47543 30.5846 2.48258 30.6704 2.39681C30.7276 2.33247 30.7919 2.28244 30.8491 2.21811C31.5138 1.56765 32.393 1.37466 33.215 1.7392C34.0799 2.12519 34.5446 2.80423 34.5517 3.7549C34.566 5.80634 34.5588 7.85064 34.5588 9.90208C34.5588 10.6312 34.1085 11.0886 33.3866 11.0886C33.1007 11.0886 32.8148 11.0672 32.5288 11.0958C32.2358 11.1244 32.15 11.0314 32.15 10.7241C32.1643 8.72268 32.1572 6.72127 32.1572 4.71987C32.1572 4.63409 32.1572 4.55547 32.1572 4.46969C32.15 4.00508 31.9642 3.81209 31.521 3.79064C31.1207 3.7692 30.8419 4.01223 30.7991 4.41966C30.7919 4.51258 30.7991 4.61265 30.7991 4.70557C30.7991 6.43536 30.7991 8.158 30.7991 9.88779C30.7991 10.6455 30.363 11.0886 29.6054 11.0815C29.2194 11.0743 28.6976 11.253 28.476 11.0029C28.283 10.7884 28.4117 10.2809 28.4117 9.90208C28.4117 8.12941 28.4117 6.34958 28.4117 4.57691C28.4117 3.9479 28.0042 3.62624 27.4753 3.84068C27.1465 3.97649 27.0393 4.24096 27.0393 4.58406C27.0464 6.24237 27.0393 7.89353 27.0393 9.55184C27.0393 9.6805 27.0393 9.81631 27.0393 9.94497C27.0178 10.6383 26.5747 11.0743 25.8885 11.0815C25.6025 11.0886 25.3166 11.06 25.0307 11.0886C24.7234 11.1172 24.6304 11.0314 24.6376 10.7026C24.6519 7.89353 24.6447 5.08441 24.6447 2.26814C24.6447 2.14663 24.6519 2.03226 24.6447 1.91075C24.6304 1.7535 24.6948 1.70346 24.852 1.70346C25.5096 1.71061 26.1601 1.71061 26.8177 1.70346C26.9821 1.70346 27.0607 1.74635 27.0464 1.92504C27.0321 2.05371 27.0464 2.16807 27.0536 2.35392Z" fill="#02B9EF"/>
<path d="M11.9003 6.22791C11.9003 7.20717 11.9003 8.17928 11.9003 9.15854C11.8931 10.4309 11.2284 11.0885 9.95603 11.0956C9.39849 11.0956 8.83381 11.1028 8.27627 11.0956C7.14691 11.0813 6.31775 10.3308 6.26057 9.20143C6.21768 8.39372 6.21054 7.57886 6.25342 6.77115C6.31061 5.61319 7.19694 4.79833 8.3692 4.78404C8.67656 4.77689 8.99106 4.78404 9.29842 4.78404C9.59863 4.77689 9.713 4.60534 9.70585 4.31942C9.70585 4.03351 9.57719 3.90485 9.29127 3.91914C8.96962 3.92629 8.64796 3.92629 8.32631 3.91914C7.54004 3.90485 7.10402 3.47597 7.11117 2.704C7.11117 2.3895 6.96821 1.96777 7.1755 1.78192C7.3542 1.62467 7.76163 1.72474 8.06899 1.72474C8.86955 1.71759 9.66296 1.72474 10.4635 1.72474C11.3141 1.72474 11.8931 2.30372 11.9003 3.16147C11.9074 4.17647 11.9003 5.20576 11.9003 6.22791ZM9.713 7.85048C9.713 7.72896 9.713 7.6146 9.713 7.49308C9.713 6.764 9.713 6.764 8.98392 6.79259C8.61937 6.80689 8.41923 6.99273 8.41208 7.37157C8.40494 7.67178 8.40494 7.96484 8.41208 8.26505C8.41923 8.7797 8.64796 8.91551 9.39134 8.93695C9.94173 8.95125 9.66296 8.56527 9.713 8.35083C9.74159 8.19358 9.70585 8.01488 9.713 7.85048Z" fill="#06306F"/>
<path d="M18.2621 5.44796C18.2621 6.54159 18.2764 7.64236 18.2549 8.73599C18.2406 9.57944 18.0405 10.3443 17.2256 10.7946C16.8968 10.9733 16.5394 11.0733 16.1677 11.0805C15.3457 11.0948 14.5237 11.0805 13.7017 11.0948C13.5016 11.0948 13.4587 11.0233 13.4658 10.8446C13.4801 10.5444 13.4587 10.2513 13.473 9.95113C13.4873 9.3793 13.9233 8.94328 14.4951 8.92183C14.8668 8.90754 15.2314 8.91469 15.6031 8.92183C15.9033 8.92183 16.0677 8.80032 16.0677 8.47866C16.0677 8.14986 15.9104 8.0355 15.6102 8.02835C15.1099 8.01405 14.6095 8.08553 14.1163 7.94257C13.2657 7.6924 12.6438 6.98476 12.6224 6.10557C12.5795 4.71173 12.6081 3.31789 12.6009 1.92405C12.6009 1.7668 12.651 1.71677 12.8082 1.72391C13.3944 1.73106 13.9733 1.73821 14.5595 1.72391C14.8168 1.71677 14.7811 1.85972 14.7811 2.01698C14.7811 3.06772 14.7811 4.11131 14.7811 5.16205C14.7811 5.61951 14.9955 5.86254 15.3958 5.87683C15.8675 5.89113 16.0748 5.69814 16.0748 5.21923C16.0748 4.16134 16.082 3.09631 16.0677 2.03842C16.0677 1.78824 16.132 1.71677 16.3822 1.72391C16.904 1.74536 17.4329 1.7525 17.9547 1.72391C18.2406 1.70962 18.2835 1.81684 18.2764 2.06701C18.2549 3.18923 18.2621 4.3186 18.2621 5.44796Z" fill="#06306F"/>
<path d="M0.0489312 7.07093C0.0489312 5.90583 0.0489312 4.73357 0.0489312 3.56847C0.0489312 2.42481 0.749424 1.71002 1.90023 1.72431C2.65076 1.73146 3.40129 1.63854 4.14467 1.7815C5.09534 1.96734 5.69576 2.70357 5.70291 3.68283C5.71005 4.71928 5.70291 5.75572 5.70291 6.79216C5.70291 8.09308 4.93808 8.88649 3.63717 8.92223C3.24403 8.93653 2.8509 8.92938 2.45777 8.92223C2.27907 8.91508 2.20044 8.97227 2.20759 9.16526C2.22189 9.45118 2.21474 9.73709 2.20759 10.023C2.1933 10.6377 1.75727 11.0809 1.1497 11.088C0.792311 11.0952 0.341994 11.2381 0.113262 11.0309C-0.101175 10.8379 0.0560791 10.3804 0.0489312 10.0373C0.0417833 9.05089 0.0489312 8.05734 0.0489312 7.07093ZM2.20759 5.3197C2.20759 5.54843 2.20759 5.77002 2.20759 5.99875C2.20759 6.80646 2.20759 6.80646 3.0153 6.73498C3.36555 6.70639 3.52995 6.53484 3.5371 6.18459C3.54425 5.78431 3.5228 5.37688 3.54425 4.9766C3.58713 3.81864 3.3727 3.93301 2.42918 3.92586C2.25763 3.92586 2.20044 3.9759 2.20044 4.14744C2.21474 4.53343 2.20759 4.92657 2.20759 5.3197Z" fill="#06306F"/>
<path d="M20.2845 7.08524C20.2845 6.13458 20.2774 5.17676 20.2917 4.22609C20.2917 4.00451 20.2416 3.91158 19.9986 3.91873C19.6769 3.93303 19.2481 4.02595 19.0694 3.8687C18.8478 3.66141 19.0193 3.21824 18.9907 2.87514C18.9907 2.8537 18.9907 2.82511 18.9907 2.80366C18.9907 2.46771 18.8835 2.07458 19.0265 1.8244C19.1694 1.57423 19.6055 1.73148 19.9128 1.65285C20.5204 1.4956 20.9779 1.14535 21.3495 0.659297C21.6069 0.330494 21.9285 0.0946143 22.3431 0.0159875C22.5647 -0.0268998 22.7005 0.00169199 22.6862 0.287607C22.6648 0.687889 22.6862 1.09532 22.6791 1.50275C22.6719 1.6743 22.7362 1.73148 22.9078 1.72433C23.1937 1.71718 23.4796 1.73148 23.7655 1.71718C23.9371 1.71004 23.9943 1.77437 23.9871 1.94592C23.98 2.53204 23.98 3.11102 23.9871 3.69715C23.9871 3.86155 23.9442 3.94732 23.7655 3.92588C23.7298 3.91873 23.6941 3.92588 23.6583 3.92588C23.3438 3.95447 22.9078 3.78292 22.7434 3.99736C22.5861 4.1975 22.6862 4.61208 22.6862 4.93373C22.6862 6.87796 22.6791 8.81503 22.6934 10.7593C22.6934 11.0309 22.6219 11.1167 22.3503 11.0952C22.0929 11.0738 21.8285 11.0952 21.564 11.0881C20.792 11.0595 20.2845 10.5377 20.2845 9.7657C20.2845 8.87221 20.2845 7.97873 20.2845 7.08524Z" fill="#02B9EF"/>
</svg>
