<svg width="512" height="512" viewBox="0 0 512 512" fill="none" xmlns="http://www.w3.org/2000/svg">
<path d="M256 512C397.385 512 512 397.385 512 256C512 114.615 397.385 0 256 0C114.615 0 0 114.615 0 256C0 397.385 114.615 512 256 512Z" fill="#6052A3"/>
<path d="M384.787 151.027V397.89C384.787 412.482 372.974 424.295 358.393 424.295H153.619C139.038 424.295 127.214 412.482 127.214 397.89V102.099C127.214 87.5181 139.038 75.7051 153.619 75.7051H309.475L384.787 151.027Z" fill="white"/>
<path d="M340.393 230.5H171.607C167.001 230.5 163.267 226.766 163.267 222.16C163.267 217.554 167.001 213.82 171.607 213.82H340.392C344.998 213.82 348.732 217.554 348.732 222.16C348.733 226.766 344.999 230.5 340.393 230.5Z" fill="#9175A7"/>
<path d="M340.393 277.18H202.31C197.704 277.18 193.97 273.446 193.97 268.84C193.97 264.234 197.704 260.5 202.31 260.5H340.393C344.999 260.5 348.733 264.234 348.733 268.84C348.733 273.446 344.999 277.18 340.393 277.18Z" fill="#9175A7"/>
<path d="M340.393 323.86H212.662C208.056 323.86 204.322 320.126 204.322 315.52C204.322 310.914 208.056 307.18 212.662 307.18H340.393C344.999 307.18 348.733 310.914 348.733 315.52C348.733 320.126 344.999 323.86 340.393 323.86Z" fill="#9175A7"/>
<path d="M340.393 370.541H232.68C228.074 370.541 224.34 366.807 224.34 362.201C224.34 357.595 228.074 353.861 232.68 353.861H340.392C344.998 353.861 348.732 357.595 348.732 362.201C348.733 366.807 344.999 370.541 340.393 370.541Z" fill="#9175A7"/>
<path d="M340.393 183.82H171.607C167.001 183.82 163.267 180.086 163.267 175.48C163.267 170.874 167.001 167.14 171.607 167.14H340.392C344.998 167.14 348.732 170.874 348.732 175.48C348.733 180.086 344.999 183.82 340.393 183.82Z" fill="#9175A7"/>
<path d="M340.393 137.14H171.607C167.001 137.14 163.267 133.406 163.267 128.8C163.267 124.194 167.001 120.46 171.607 120.46H340.392C344.998 120.46 348.732 124.194 348.732 128.8C348.733 133.406 344.999 137.14 340.393 137.14Z" fill="#9175A7"/>
<path d="M384.787 151.027H335.869C321.288 151.027 309.475 139.214 309.475 124.633V75.7041L384.787 151.027Z" fill="#C1B7D3"/>
<path d="M168.137 360.219L196.33 375.315L201.172 377.912C203.896 379.374 206.827 376.346 205.282 373.671L177.45 325.464L133.382 350.907L161.214 399.114C162.758 401.789 166.846 400.765 166.942 397.675L167.114 392.183L168.137 360.219Z" fill="#F39E22"/>
<path d="M143.851 353.712L165.226 390.734C165.689 391.536 166.376 392.004 167.114 392.183L168.137 360.219L196.33 375.315C196.544 374.587 196.483 373.758 196.02 372.955L174.645 335.933L143.851 353.712Z" fill="#FAD98F"/>
<path d="M86.29 360.419L87.313 392.383L87.485 397.875C87.581 400.965 91.669 401.989 93.213 399.314L121.045 351.107L76.977 325.664L49.145 373.871C47.601 376.546 50.531 379.574 53.255 378.112L58.097 375.515L86.29 360.419Z" fill="#F39E22"/>
<path d="M79.783 336.133L58.408 373.155C57.945 373.957 57.883 374.786 58.098 375.515L86.291 360.419L87.314 392.383C88.052 392.205 88.739 391.737 89.202 390.934L110.577 353.912L79.783 336.133Z" fill="#FAD98F"/>
<path d="M127.213 361.528C158.241 361.528 183.395 336.375 183.395 305.346C183.395 274.318 158.241 249.164 127.213 249.164C96.1845 249.164 71.031 274.318 71.031 305.346C71.031 336.375 96.1845 361.528 127.213 361.528Z" fill="#C0405C"/>
<path d="M127.213 353.733C153.936 353.733 175.6 332.069 175.6 305.346C175.6 278.623 153.936 256.959 127.213 256.959C100.49 256.959 78.8259 278.623 78.8259 305.346C78.8259 332.069 100.49 353.733 127.213 353.733Z" fill="#E9465E"/>
<path d="M163.976 305.341C163.976 306.636 163.907 307.907 163.779 309.168C161.86 327.677 146.218 342.104 127.213 342.104C106.913 342.104 90.45 325.642 90.45 305.341C90.45 285.121 106.774 268.729 126.958 268.59H127.212C133.871 268.59 140.125 270.359 145.512 273.457C151.258 276.763 156.021 281.573 159.269 287.341C162.265 292.659 163.976 298.797 163.976 305.341Z" fill="#F39E22"/>
<path d="M163.976 305.341C163.976 306.636 163.907 307.907 163.779 309.168C158.877 318.312 149.236 324.532 138.138 324.532C122.08 324.532 109.051 311.503 109.051 295.445C109.051 283.353 116.45 272.971 126.958 268.59H127.212C133.871 268.59 140.125 270.359 145.512 273.457C151.258 276.763 156.021 281.573 159.269 287.341C162.265 292.659 163.976 298.797 163.976 305.341Z" fill="#F9C744"/>
<path d="M159.329 288.589C159.329 296.982 152.52 303.78 144.127 303.78C135.734 303.78 128.936 296.982 128.936 288.589C128.936 280.196 135.734 273.387 144.127 273.387C144.601 273.387 145.063 273.41 145.514 273.456C151.26 276.762 156.023 281.572 159.271 287.34C159.317 287.745 159.329 288.173 159.329 288.589Z" fill="#FAD98F"/>
</svg>
