<svg width="95" height="20" viewBox="0 0 95 20" fill="none" xmlns="http://www.w3.org/2000/svg">
<path d="M6.07098 5.25744L5.28613 8.15398L9.77844 5.24095L6.84038 16.2325L9.82429 16.235L14.1646 0" fill="#3395FF"/>
<path d="M1.23582 11.6142L0 16.235H6.11582L8.61835 6.83491L1.23582 11.6142ZM22.48 7.54593C22.3305 8.10305 22.0425 8.51227 21.6129 8.7736C21.1844 9.03442 20.5829 9.16533 19.8065 9.16533H17.3399L18.2059 5.92752H20.6726C21.448 5.92752 21.9807 6.05743 22.2697 6.32226C22.5587 6.58708 22.6285 6.9918 22.48 7.55142V7.54593ZM25.0338 7.48147C25.3478 6.31226 25.2182 5.41287 24.6442 4.7833C24.0711 4.15872 23.0655 3.84393 21.6304 3.84393H16.1255L12.8117 16.2405H15.4861L16.8216 11.2439H18.5757C18.9694 11.2439 19.2793 11.3089 19.5055 11.4338C19.7323 11.5637 19.8653 11.7886 19.9062 12.1133L20.3836 16.2405H23.2489L22.7844 12.3931C22.6898 11.5337 22.2976 11.0291 21.6084 10.8792C22.487 10.6243 23.223 10.1996 23.816 9.61003C24.4048 9.02474 24.8255 8.29118 25.0338 7.48647V7.48147ZM31.5349 11.8035C31.3106 12.643 30.9668 13.2775 30.5019 13.7222C30.0364 14.1669 29.4803 14.3868 28.8315 14.3868C28.1707 14.3868 27.7228 14.1719 27.4861 13.7372C27.2489 13.3025 27.2409 12.673 27.4611 11.8485C27.6814 11.0241 28.0327 10.3795 28.5161 9.91482C28.9994 9.45014 29.5645 9.2178 30.2133 9.2178C30.8611 9.2178 31.3046 9.44264 31.5289 9.88884C31.7581 10.337 31.7631 10.9781 31.5388 11.8125L31.5349 11.8035ZM32.7069 7.41651L32.372 8.67067C32.2275 8.22097 31.947 7.86121 31.5324 7.5914C31.1168 7.32658 30.6025 7.19167 29.9891 7.19167C29.2366 7.19167 28.5141 7.38653 27.8214 7.77627C27.1288 8.16601 26.5208 8.71564 26.0026 9.42515C25.4843 10.1347 25.1056 10.9391 24.8614 11.8435C24.6222 12.7529 24.5724 13.5474 24.7169 14.2369C24.8664 14.9314 25.1803 15.4611 25.6637 15.8308C26.1521 16.2056 26.775 16.3904 27.5374 16.3904C28.1432 16.3935 28.7422 16.2621 29.2914 16.0057C29.8345 15.7601 30.3174 15.3986 30.7067 14.9464L30.3578 16.2535H32.9441L35.3056 7.42101H32.7144L32.7069 7.41651ZM44.5992 7.41651H37.0781L36.5524 9.38518H40.9286L35.1432 14.3968L34.6488 16.2455H42.4126L42.9383 14.2769H38.2492L44.1233 9.19031L44.5992 7.41651ZM51.2193 11.7886C50.9866 12.658 50.6412 13.3115 50.1853 13.7372C49.7293 14.1669 49.1772 14.3818 48.5289 14.3818C47.1735 14.3818 46.728 13.5174 47.1904 11.7886C47.4196 10.9291 47.7665 10.2831 48.2299 9.84787C48.6933 9.41116 49.2549 9.19331 49.9152 9.19331C50.563 9.19331 51.0005 9.40967 51.2258 9.84537C51.451 10.2801 51.449 10.9281 51.2193 11.7876V11.7886ZM52.7332 7.74879C52.1377 7.37704 51.3778 7.19117 50.4509 7.19117C49.5126 7.19117 48.644 7.37604 47.8447 7.74579C47.0487 8.11323 46.3492 8.66172 45.8016 9.34771C45.2385 10.0422 44.8334 10.8567 44.5847 11.7861C44.3406 12.7119 44.3107 13.5249 44.5 14.2209C44.6894 14.9154 45.088 15.4501 45.686 15.8198C46.289 16.1926 47.0564 16.3779 47.9982 16.3779C48.925 16.3779 49.7871 16.1911 50.5795 15.8193C51.3718 15.4456 52.0495 14.9149 52.6126 14.2154C53.1757 13.5189 53.5793 12.7064 53.8285 11.7771C54.0776 10.8477 54.1075 10.0362 53.9182 9.33871C53.7288 8.64418 53.3351 8.10955 52.7421 7.7373L52.7332 7.74879ZM61.9659 9.77592L62.6287 7.37254C62.4045 7.25762 62.1105 7.19766 61.7417 7.19766C61.1487 7.19766 60.5806 7.34456 60.0325 7.64236C59.5611 7.89519 59.1604 8.25195 58.8216 8.69865L59.1654 7.40452L58.4145 7.40752H56.5707L54.1937 16.2365H56.8164L58.0497 11.6212C58.2291 10.9501 58.552 10.422 59.0179 10.0472C59.4813 9.67099 60.0594 9.48262 60.757 9.48262C61.1856 9.48262 61.5842 9.58105 61.963 9.77742L61.9659 9.77592ZM69.2633 11.831C69.039 12.6555 68.7002 13.285 68.2367 13.7197C67.7733 14.1565 67.2152 14.3743 66.5674 14.3743C65.9196 14.3743 65.4761 14.1545 65.2419 13.7148C65.0027 13.2725 64.9977 12.6355 65.2219 11.798C65.4462 10.9611 65.79 10.319 66.2634 9.87435C66.7368 9.42615 67.2949 9.20231 67.9427 9.20231C68.5806 9.20231 69.0091 9.43215 69.2384 9.89684C69.4676 10.3615 69.4726 11.0061 69.2523 11.8305L69.2633 11.831ZM71.0861 7.76328C70.6002 7.37354 69.9798 7.17868 69.2274 7.17868C68.5681 7.17868 67.9397 7.32857 67.3438 7.63137C66.7483 7.93366 66.2649 8.34589 65.8937 8.86753L65.9026 8.80757L66.3426 7.40352H63.7813L63.1285 9.84687L63.1086 9.93181L60.4177 19.997H63.0438L64.3992 14.9304C64.5338 15.3811 64.8078 15.7349 65.2264 15.9907C65.645 16.2455 66.1618 16.372 66.7762 16.372C67.5386 16.372 68.2661 16.1871 68.9563 15.8173C69.649 15.4466 70.2469 14.9129 70.7552 14.2234C71.2635 13.5339 71.6407 12.7344 71.8814 11.83C72.1256 10.9241 72.1754 10.1162 72.0359 9.40917C71.8939 8.70114 71.5794 8.15302 71.0941 7.76528L71.0861 7.76328ZM79.7971 11.7951C79.5729 12.6295 79.2291 13.2691 78.7656 13.7088C78.3022 14.1515 77.7441 14.3718 77.0963 14.3718C76.4335 14.3718 75.985 14.157 75.7508 13.7222C75.5116 13.2875 75.5067 12.658 75.7259 11.8335C75.9452 11.0091 76.295 10.3645 76.7784 9.89983C77.2617 9.43515 77.8273 9.2033 78.4761 9.2033C79.1239 9.2033 79.5624 9.42815 79.7917 9.87285C80.0209 10.319 80.0224 10.9601 79.7991 11.7965L79.7971 11.7951ZM80.9682 7.40552L80.6328 8.65967C80.4883 8.20748 80.2093 7.84772 79.7956 7.5804C79.3771 7.31358 78.8638 7.18067 78.2509 7.18067C77.4984 7.18067 76.7719 7.37554 76.0782 7.76528C75.3856 8.15501 74.7776 8.70164 74.2594 9.40917C73.7411 10.1167 73.3624 10.9231 73.1182 11.8275C72.8765 12.7354 72.8292 13.5314 72.9737 14.2239C73.1197 14.9134 73.4342 15.4461 73.9205 15.8178C74.4059 16.1876 75.0318 16.3745 75.7942 16.3745C76.4071 16.3745 76.9926 16.2465 77.5483 15.9897C78.09 15.743 78.5717 15.381 78.96 14.9289L78.6112 16.237H81.1974L83.5584 7.40802H80.9722L80.9682 7.40552ZM94.4162 7.40852L94.4177 7.40602H92.8281C92.7773 7.40602 92.7324 7.40852 92.6861 7.40952H91.8613L91.4378 7.99912L91.3331 8.13903L91.2883 8.20898L87.9371 12.8898L87.2445 7.40852H84.4997L85.89 15.7379L82.8204 20H85.5562L86.2987 18.9442C86.3196 18.9132 86.3385 18.8872 86.3634 18.8543L87.2305 17.6201L87.2554 17.5851L91.1388 12.0639L94.4127 7.41701L94.4177 7.41402H94.4162V7.40852Z" fill="#072654"/>
</svg>
