<svg width="40" height="40" viewBox="0 0 40 40" fill="none" xmlns="http://www.w3.org/2000/svg">
<path d="M20 40C31.0457 40 40 31.0457 40 20C40 8.9543 31.0457 0 20 0C8.9543 0 0 8.9543 0 20C0 31.0457 8.9543 40 20 40Z" fill="#FFD400"/>
<path d="M40 20C40 19.6094 39.9876 19.2216 39.9655 18.8366L28.8066 7.67773L28.2812 9.21875L26.618 9.14062L22.4784 5L5 22.4784L9.14062 26.618L11.1721 32.301L18.8366 39.9655C19.2216 39.9876 19.6094 40 20 40C31.0457 40 40 31.0457 40 20Z" fill="#FF9F00"/>
<path d="M35 22.4784V17.5215L30.9335 16.7129C30.7051 15.9746 30.4238 15.2715 30.0546 14.5859L32.3223 11.1934L28.8066 7.67773L25.4141 9.94539C24.7285 9.57625 24.0253 9.29492 23.2871 9.06648L22.4784 5H17.5215L16.7129 9.06648C15.9746 9.29492 15.2715 9.57625 14.5859 9.94539L11.1934 7.67773L7.67773 11.1934L9.94539 14.5859C9.57625 15.2715 9.29492 15.9747 9.06648 16.7129L5 17.5216V22.4785L9.06648 23.2871C9.29492 24.0254 9.57625 24.7285 9.94539 25.4141L7.67773 28.8066L11.1934 32.3223L14.5859 30.0546C15.2715 30.4238 15.9747 30.7051 16.7129 30.9335L17.5216 35H22.4785L23.2871 30.9335C24.0254 30.7051 24.7285 30.4238 25.4141 30.0546L28.8066 32.3223L32.3223 28.8066L30.0546 25.4141C30.4238 24.7285 30.7051 24.0253 30.9335 23.2871L35 22.4784ZM20 26.1523C16.6074 26.1523 13.8477 23.3926 13.8477 20C13.8477 16.6074 16.6074 13.8477 20 13.8477C23.3926 13.8477 26.1523 16.6074 26.1523 20C26.1523 23.3926 23.3926 26.1523 20 26.1523Z" fill="#5A5A5A"/>
<path d="M30.9335 23.2871C30.7051 24.0254 30.4238 24.7285 30.0546 25.4141L32.3223 28.8066L28.8066 32.3223L25.4141 30.0546C24.7285 30.4238 24.0253 30.7051 23.2871 30.9335L22.4784 35H20V26.1523C23.3926 26.1523 26.1523 23.3926 26.1523 20C26.1523 16.6074 23.3926 13.8477 20 13.8477V5H22.4784L23.287 9.06648C24.0253 9.29492 24.7284 9.57625 25.414 9.94539L28.8066 7.67773L32.3222 11.1934L30.0546 14.5859C30.4238 15.2715 30.7051 15.9747 30.9335 16.7129L35 17.5216V22.4785L30.9335 23.2871Z" fill="#444444"/>
</svg>
