<svg width="512" height="512" viewBox="0 0 512 512" fill="none" xmlns="http://www.w3.org/2000/svg">
<path d="M256 512C397.385 512 512 397.385 512 256C512 114.615 397.385 0 256 0C114.615 0 0 114.615 0 256C0 397.385 114.615 512 256 512Z" fill="#22BCE0"/>
<path d="M366.626 134.541V377.449C366.626 390.415 356.126 400.916 343.169 400.916H171.151C158.194 400.916 147.684 390.416 147.684 377.449V134.541C147.684 121.584 158.194 111.084 171.151 111.084H343.169C356.125 111.084 366.626 121.585 366.626 134.541Z" fill="white"/>
<path d="M166.471 351.301H347.839C350.599 351.301 352.837 349.064 352.837 346.303C352.837 343.543 350.6 341.305 347.839 341.305H166.471C159.926 341.484 159.814 351.084 166.471 351.301Z" fill="#EBD9EA"/>
<path d="M166.471 305.569H347.839C350.599 305.569 352.837 303.332 352.837 300.571C352.837 297.811 350.6 295.573 347.839 295.573H166.471C159.926 295.752 159.814 305.352 166.471 305.569Z" fill="#EBD9EA"/>
<path d="M166.471 259.837H347.839C350.599 259.837 352.837 257.599 352.837 254.839C352.837 252.079 350.6 249.841 347.839 249.841H166.471C159.926 250.02 159.814 259.62 166.471 259.837Z" fill="#EBD9EA"/>
<path d="M166.471 214.104H347.839C350.599 214.104 352.837 211.866 352.837 209.106C352.837 206.346 350.6 204.108 347.839 204.108H166.471C159.926 204.287 159.814 213.887 166.471 214.104Z" fill="#EBD9EA"/>
<path d="M166.471 168.372H347.839C350.599 168.372 352.837 166.134 352.837 163.374C352.837 160.614 350.6 158.376 347.839 158.376H166.471C159.926 158.555 159.814 168.155 166.471 168.372Z" fill="#EBD9EA"/>
<path d="M252.158 135.316V376.684C252.158 379.444 254.396 381.682 257.156 381.682C259.916 381.682 262.154 379.445 262.154 376.684V135.316C261.985 128.798 252.38 128.635 252.158 135.316Z" fill="#EBD9EA"/>
<path d="M199.428 135.316V376.684C199.428 379.444 201.666 381.682 204.426 381.682C207.186 381.682 209.424 379.445 209.424 376.684V135.316C209.255 128.798 199.65 128.635 199.428 135.316Z" fill="#EBD9EA"/>
<path d="M304.888 135.316V376.684C304.888 379.444 307.125 381.682 309.886 381.682C312.647 381.682 314.884 379.445 314.884 376.684V135.316C314.715 128.798 305.11 128.635 304.888 135.316Z" fill="#EBD9EA"/>
<path d="M257.155 351.303C241.208 351.303 226.427 340.9 215.538 322.011C194.211 286.589 194.209 223.088 215.539 187.666C237.213 148.783 277.098 148.773 298.774 187.667C320.101 223.088 320.102 286.589 298.773 322.011C287.883 340.901 273.102 351.303 257.155 351.303ZM257.155 168.375C244.933 168.375 233.23 177 224.201 192.661C204.643 225.061 204.642 284.617 224.202 317.016C242.351 349.246 271.959 349.254 290.109 317.016C309.668 284.616 309.669 225.061 290.108 192.661C281.081 177 269.377 168.375 257.155 168.375Z" fill="#AEA7B9"/>
<path d="M286.077 166.072L271.169 163.947L259.627 162.306C258.87 162.203 258.586 163.261 259.295 163.544C265.467 166.022 277.944 171.04 284.084 173.507L286.077 166.072Z" fill="#334353"/>
<path d="M309.01 164.254L288.064 158.642C278.167 156.335 274.299 170.51 284.081 173.507L305.026 179.119C314.946 181.419 318.759 167.225 309.01 164.254Z" fill="#9175A7"/>
<path d="M298.087 161.327L288.065 158.642C282.328 156.979 276.868 162.767 278.713 168.336L288.741 171.023C294.447 172.682 299.938 166.922 298.087 161.327Z" fill="#A583BB"/>
<path d="M290.71 159.35L288.065 158.641C284.141 157.59 280.126 159.76 278.81 163.532C282.736 167.803 290.306 165.175 290.71 159.35Z" fill="#C2AACF"/>
<path d="M423.068 186.248L323.049 159.448C321.049 158.912 319.042 158.729 317.086 158.866C309.521 159.381 302.771 164.619 300.698 172.357C299.925 175.24 301.64 178.211 304.524 178.984L416.943 209.107L423.068 186.248Z" fill="#C0405C"/>
<path d="M423.068 186.248L323.049 159.448C321.049 158.912 319.042 158.729 317.086 158.866C313.215 162.34 308.284 171.601 315.824 174.042L418.936 201.671L423.068 186.248Z" fill="#E9465E"/>
<path d="M343.595 173.219C342.454 177.478 344.981 181.856 349.24 182.997L392.171 194.5C396.43 195.641 400.808 193.114 401.949 188.855C403.09 184.596 400.563 180.218 396.304 179.077L353.373 167.574C349.113 166.432 344.736 168.96 343.595 173.219Z" fill="#EE6781"/>
<path d="M286.077 252.141L271.169 254.266L259.627 255.907C258.87 256.01 258.586 254.952 259.295 254.669C265.467 252.191 277.944 247.173 284.084 244.706L286.077 252.141Z" fill="#9175A7"/>
<path d="M309.01 253.959L288.064 259.571C278.167 261.877 274.299 247.703 284.081 244.706L305.026 239.094C314.946 236.794 318.759 250.988 309.01 253.959Z" fill="#9175A7"/>
<path d="M298.087 256.886L288.065 259.571C282.328 261.234 276.868 255.446 278.713 249.877L288.741 247.19C294.447 245.531 299.938 251.291 298.087 256.886Z" fill="#A583BB"/>
<path d="M290.71 258.863L288.065 259.572C284.141 260.623 280.126 258.453 278.81 254.681C282.736 250.41 290.306 253.038 290.71 258.863Z" fill="#C2AACF"/>
<path d="M423.068 231.965L323.049 258.765C321.049 259.301 319.042 259.484 317.086 259.347C309.521 258.832 302.771 253.594 300.698 245.856C299.925 242.973 301.64 240.002 304.524 239.229L416.943 209.106L423.068 231.965Z" fill="#C0405C"/>
<path d="M423.068 231.965L323.049 258.765C321.049 259.301 319.042 259.484 317.086 259.347C313.215 255.873 308.284 246.612 315.824 244.171L418.936 216.542L423.068 231.965Z" fill="#E9465E"/>
<path d="M343.595 244.995C342.454 240.736 344.981 236.358 349.24 235.217L392.171 223.714C396.43 222.573 400.808 225.1 401.949 229.359C403.09 233.618 400.563 237.996 396.304 239.137L353.373 250.64C349.113 251.781 344.736 249.254 343.595 244.995Z" fill="#EE6781"/>
<path d="M423.276 242.274C415.039 242.325 407.979 235.515 408.013 227.011V191.201C408.013 182.766 414.85 175.942 423.276 175.938C429.349 175.938 434.591 179.477 437.052 184.605C438.009 186.603 438.545 188.836 438.545 191.201V227.011C438.546 235.45 431.704 242.271 423.276 242.274Z" fill="#C2AACF"/>
<path d="M423.276 242.274C421.26 242.274 419.34 241.883 417.577 241.173C416.62 239.175 416.084 236.936 416.084 234.577V198.767C415.913 188.125 427.287 180.497 437.052 184.606C438.009 186.604 438.545 188.837 438.545 191.202V227.012C438.546 235.45 431.704 242.271 423.276 242.274Z" fill="#EBD9EA"/>
<path d="M424.204 225.599V203.886C424.204 199.926 427.414 196.716 431.374 196.716C435.334 196.716 438.544 199.926 438.544 203.886V225.599C438.22 235.085 424.533 235.094 424.204 225.599Z" fill="white"/>
<path d="M423.276 214.74C415.855 214.526 415.807 203.712 423.276 203.473C430.758 203.716 430.703 214.525 423.276 214.74Z" fill="#334353"/>
<path d="M423.276 214.74C422.295 214.74 421.374 214.487 420.568 214.048C418.411 209.207 423.849 204.287 428.452 206.874C430.096 210.461 427.251 214.831 423.276 214.74Z" fill="#3F5D77"/>
<path d="M461.433 224.49C455.246 224.49 449.625 222.841 445.508 220.145C429.77 209.421 442.978 193.386 461.433 193.724C491.383 194.448 492.244 223.468 461.433 224.49Z" fill="#C0405C"/>
<path d="M461.433 224.49C455.246 224.49 449.625 222.841 445.508 220.145C443.131 209.781 454.32 202.174 468.023 202.011C474.216 202.011 479.831 203.66 483.948 206.344C486.325 216.712 475.141 224.327 461.433 224.49Z" fill="#E9465E"/>
<path d="M468.992 220.987C472.876 220.987 476.025 217.838 476.025 213.954C475.703 204.644 462.279 204.646 461.959 213.954C461.959 217.838 465.108 220.987 468.992 220.987Z" fill="#EE6781"/>
<path d="M324.707 430.506H199.245V463.418H324.707V430.506Z" fill="#F39E22"/>
<path d="M208.816 453.847H315.135C320.417 453.847 324.707 458.137 324.707 463.418H199.245C199.245 458.135 203.526 453.847 208.816 453.847Z" fill="#C68132"/>
<path d="M199.245 430.506H324.707C324.707 435.796 320.418 440.085 315.135 440.085H208.816C203.526 440.086 199.245 435.797 199.245 430.506Z" fill="#F9C744"/>
<path d="M332.328 421.803C336.533 421.803 339.95 425.213 339.95 429.417V464.507C339.978 468.704 336.453 472.158 332.328 472.121C328.116 472.121 324.706 468.711 324.706 464.507V429.417C324.709 425.21 328.122 421.799 332.328 421.803Z" fill="#EBD9EA"/>
<path d="M332.328 421.803V443.958C332.329 448.163 328.921 451.579 324.706 451.58V429.417C324.709 425.21 328.122 421.799 332.328 421.803Z" fill="white"/>
<path d="M339.95 431.099V464.508C339.944 467.646 338.061 470.356 335.271 471.534V438.125C335.28 434.983 337.156 432.283 339.95 431.099Z" fill="#C1B7D3"/>
<path d="M339.95 430.51H351.226C360.347 430.499 367.697 437.95 367.678 446.962C367.696 455.992 360.319 463.441 351.226 463.422H339.95V430.51Z" fill="#EE6781"/>
<path d="M339.95 430.51H351.226C356.226 430.51 360.698 432.735 363.71 436.251C360.654 439.798 356.225 441.974 351.226 441.985H339.95V430.51Z" fill="#F0A6B3"/>
<path d="M339.95 453.369H351.226C355.874 453.369 360.071 455.288 363.053 458.392C360.072 461.515 355.87 463.415 351.226 463.422H339.95V453.369Z" fill="#D65171"/>
<path d="M199.245 430.51V463.422L164.911 449.661V444.264C169.744 442.327 195.015 432.206 199.245 430.51Z" fill="#F5B890"/>
<path d="M192.739 433.117V449.775C192.739 452.604 189.88 454.53 187.258 453.483L164.912 444.531V444.263L192.739 433.117Z" fill="#FBD9A3"/>
<path d="M150.126 443.468H166.356C169.413 443.401 171.002 447.347 168.825 449.431C168.191 450.066 167.319 450.455 166.356 450.455H150.126C145.51 450.33 145.527 443.58 150.126 443.468Z" fill="#2E3140"/>
<path d="M150.126 443.468H160.057C160.419 445.564 158.734 447.54 156.609 447.52H146.678C146.319 445.427 147.992 443.449 150.126 443.468Z" fill="#334353"/>
<path d="M216.929 68.1781H347.548C352.396 68.1521 356.563 72.1611 356.543 77.1731C356.543 82.1361 352.51 86.1611 347.548 86.1611H216.929V68.1781Z" fill="#334353"/>
<path d="M216.929 68.178H347.548C348.783 68.178 349.962 68.426 351.041 68.888C352.12 74.33 347.767 79.598 342.202 79.537H216.929V68.178Z" fill="#3E4E60"/>
<path d="M289.392 73.857C289.392 76.994 286.849 79.537 283.712 79.537H244.972C241.835 79.537 239.292 76.994 239.292 73.857C239.292 70.72 241.835 68.177 244.972 68.177H283.712C286.849 68.178 289.392 70.721 289.392 73.857Z" fill="#3F5D77"/>
<path d="M167.281 62.548C168.551 62.581 216.085 62.506 217.482 62.562C222.502 62.825 226.492 66.978 226.492 72.068V82.277C226.492 87.531 222.232 91.79 216.978 91.79H167.281C162.056 91.79 157.817 87.58 157.768 82.369V72.068C157.768 66.807 162.027 62.548 167.281 62.548Z" fill="#2E3140"/>
<path d="M167.281 62.5479C168.603 62.5629 216.047 62.5189 217.482 62.5619C221.827 72.2379 216.043 83.7549 204.88 83.8819H164.093C161.814 83.8819 159.67 83.3349 157.767 82.3699V72.0679C157.768 66.8069 162.027 62.5479 167.281 62.5479Z" fill="#334353"/>
<path d="M207.176 69.8581C207.176 73.8961 203.903 77.1691 199.865 77.1691H177.017C167.345 76.8381 167.336 62.8821 177.017 62.5471H199.865C203.903 62.5481 207.176 65.8211 207.176 69.8581Z" fill="#3E4E60"/>
<path d="M182.834 49.8612V62.5482H171.382V49.8612C171.616 42.2922 182.602 42.2952 182.834 49.8612Z" fill="#2E3140"/>
<path d="M236.949 29.3091C239.229 29.3091 241.079 31.1591 241.079 33.4391C240.684 48.5151 225.607 49.8401 215.02 51.2391C205.81 52.1801 193.627 52.3951 177.496 52.3951C172.056 52.2311 172.022 44.3101 177.496 44.1351C185.343 44.1351 192.223 44.0861 198.236 43.9201C209.92 43.3421 233.77 43.5771 232.819 33.4381C232.819 31.1591 234.669 29.3091 236.949 29.3091Z" fill="#2E3140"/>
<path d="M236.949 29.3091C239.229 29.3091 241.079 31.1591 241.079 33.4391C241.079 39.8071 238.081 43.6981 234.149 46.1591C227.881 49.7921 222.222 50.3481 215.02 51.2391C208.825 50.0741 203.118 47.5221 198.236 43.9211C209.979 43.5421 216.939 43.1451 224.279 41.3441C232.117 39.2711 232.82 36.3141 232.82 33.4391C232.819 31.1591 234.669 29.3091 236.949 29.3091Z" fill="#334353"/>
<path d="M236.949 29.3091C239.229 29.3091 241.079 31.1591 241.079 33.4391C241.079 39.8071 238.081 43.6981 234.149 46.1591C230.639 44.9691 227.318 43.3421 224.279 41.3441C232.117 39.2711 232.82 36.3141 232.82 33.4391C232.819 31.1591 234.669 29.3091 236.949 29.3091Z" fill="#3E4E60"/>
</svg>
