<svg width="512" height="512" viewBox="0 0 512 512" fill="none" xmlns="http://www.w3.org/2000/svg">
<path d="M256 512C397.385 512 512 397.385 512 256C512 114.615 397.385 0 256 0C114.615 0 0 114.615 0 256C0 397.385 114.615 512 256 512Z" fill="#F39E22"/>
<path d="M240.15 159.86V332.14C240.15 340.91 237.81 349.15 233.71 356.24C225.37 370.68 209.76 380.4 191.89 380.4H112.09C85.4401 380.4 63.8301 358.79 63.8301 332.14V159.86C63.8301 138.89 77.2201 121.03 95.9101 114.39C100.96 112.58 106.41 111.6 112.09 111.6H191.89C218.54 111.6 240.15 133.21 240.15 159.86Z" fill="#50755C"/>
<path d="M240.15 159.86V332.14C240.15 334.73 239.94 337.28 239.54 339.77C238.61 345.69 236.6 351.25 233.71 356.24C228.66 358.05 223.21 359.03 217.53 359.03H137.73C111.08 359.03 89.4702 337.42 89.4702 310.77V138.5C89.4702 129.72 91.8102 121.48 95.9102 114.39C100.96 112.58 106.41 111.6 112.09 111.6H191.89C218.54 111.6 240.15 133.21 240.15 159.86Z" fill="#528F66"/>
<path d="M240.15 159.86V332.14C240.15 334.73 239.94 337.28 239.54 339.77C172.05 325.97 121.28 266.25 121.28 194.68V111.6H191.89C218.54 111.6 240.15 133.21 240.15 159.86Z" fill="#53B976"/>
<path d="M178.89 373.4H112.09C108.776 373.4 106.09 370.713 106.09 367.4C106.09 364.087 108.776 361.4 112.09 361.4H178.89C193.565 361.4 208.681 346.802 216.514 333.239C220.202 326.863 222.15 319.568 222.15 312.14V179.86C222.15 168.481 217.051 155.899 208.511 146.202C199.778 136.286 188.617 130.6 177.89 130.6H112.09C108.776 130.6 106.09 127.913 106.09 124.6C106.09 121.287 108.776 118.6 112.09 118.6H177.89C192.063 118.6 206.506 125.769 217.516 138.27C228.087 150.272 234.15 165.431 234.15 179.859V312.139C234.15 321.673 231.645 331.045 226.904 339.243C217.804 354.999 199.769 373.4 178.89 373.4Z" fill="#2D2667"/>
<path d="M118.09 134.1H112.09C110.709 134.1 109.59 132.981 109.59 131.6C109.59 130.219 110.709 129.1 112.09 129.1H118.09C119.471 129.1 120.59 130.219 120.59 131.6C120.59 132.981 119.471 134.1 118.09 134.1Z" fill="#EBD9EA"/>
<path d="M171.89 362.9H168.544C167.163 362.9 166.044 361.781 166.044 360.4C166.044 359.019 167.163 357.9 168.544 357.9H171.89C174.514 357.9 177.143 357.676 179.707 357.235C181.064 357 182.36 357.914 182.595 359.275C182.829 360.635 181.916 361.928 180.555 362.163C177.712 362.652 174.797 362.9 171.89 362.9ZM149.165 362.9H137.537C136.156 362.9 135.037 361.781 135.037 360.4C135.037 359.019 136.156 357.9 137.537 357.9H149.165C150.546 357.9 151.665 359.019 151.665 360.4C151.665 361.781 150.546 362.9 149.165 362.9ZM198.06 355.195C197.24 355.195 196.436 354.792 195.958 354.052C195.208 352.892 195.541 351.345 196.7 350.595C199.784 348.601 202.629 346.234 205.157 343.56C206.106 342.558 207.688 342.513 208.691 343.46C209.694 344.408 209.739 345.99 208.791 346.994C205.99 349.958 202.835 352.583 199.416 354.794C198.996 355.065 198.525 355.195 198.06 355.195ZM217.147 331.437C216.858 331.437 216.564 331.387 216.278 331.28C214.984 330.8 214.323 329.361 214.804 328.067C216.08 324.627 216.938 321.028 217.354 317.371C217.51 315.999 218.751 315.008 220.12 315.169C221.492 315.325 222.478 316.564 222.322 317.935C221.861 321.994 220.908 325.987 219.491 329.806C219.118 330.814 218.163 331.437 217.147 331.437ZM220.15 300.784C218.769 300.784 217.65 299.665 217.65 298.284V286.657C217.65 285.276 218.769 284.157 220.15 284.157C221.531 284.157 222.65 285.276 222.65 286.657V298.284C222.65 299.665 221.531 300.784 220.15 300.784ZM220.15 269.777C218.769 269.777 217.65 268.658 217.65 267.277V255.65C217.65 254.269 218.769 253.15 220.15 253.15C221.531 253.15 222.65 254.269 222.65 255.65V267.277C222.65 268.658 221.531 269.777 220.15 269.777ZM220.15 238.77C218.769 238.77 217.65 237.651 217.65 236.27V224.643C217.65 223.262 218.769 222.143 220.15 222.143C221.531 222.143 222.65 223.262 222.65 224.643V236.27C222.65 237.65 221.531 238.77 220.15 238.77ZM220.15 207.762C218.769 207.762 217.65 206.643 217.65 205.262V193.635C217.65 192.254 218.769 191.135 220.15 191.135C221.531 191.135 222.65 192.254 222.65 193.635V205.262C222.65 206.643 221.531 207.762 220.15 207.762ZM219.827 176.769C218.575 176.769 217.494 175.83 217.347 174.556C216.925 170.901 216.061 167.306 214.779 163.869C214.297 162.575 214.954 161.135 216.247 160.653C217.543 160.171 218.981 160.829 219.463 162.121C220.886 165.936 221.845 169.927 222.314 173.983C222.473 175.355 221.489 176.595 220.117 176.753C220.019 176.764 219.922 176.769 219.827 176.769ZM206.924 149.17C206.262 149.17 205.601 148.909 205.109 148.39C202.577 145.719 199.728 143.356 196.643 141.367C195.482 140.619 195.148 139.072 195.896 137.911C196.644 136.75 198.191 136.415 199.352 137.164C202.773 139.369 205.931 141.989 208.738 144.949C209.688 145.951 209.646 147.533 208.644 148.484C208.16 148.943 207.541 149.17 206.924 149.17ZM180.065 134.79C179.925 134.79 179.784 134.778 179.642 134.754C177.099 134.32 174.491 134.1 171.89 134.1H168.477C167.096 134.1 165.977 132.981 165.977 131.6C165.977 130.219 167.096 129.1 168.477 129.1H171.89C174.771 129.1 177.662 129.344 180.483 129.825C181.844 130.057 182.759 131.349 182.527 132.71C182.319 133.929 181.262 134.79 180.065 134.79ZM149.098 134.1H137.47C136.089 134.1 134.97 132.981 134.97 131.6C134.97 130.219 136.089 129.1 137.47 129.1H149.098C150.479 129.1 151.598 130.219 151.598 131.6C151.598 132.981 150.479 134.1 149.098 134.1Z" fill="#EBD9EA"/>
<path d="M118.09 362.9H112.09C110.709 362.9 109.59 361.781 109.59 360.4C109.59 359.019 110.709 357.9 112.09 357.9H118.09C119.471 357.9 120.59 359.019 120.59 360.4C120.59 361.781 119.471 362.9 118.09 362.9Z" fill="#EBD9EA"/>
<path d="M177.772 264.662C165.44 264.662 155.443 254.665 155.443 242.333V177.096C155.443 164.764 165.44 154.767 177.772 154.767C190.104 154.767 200.101 164.764 200.101 177.096V242.333C200.102 254.665 190.105 264.662 177.772 264.662Z" fill="#78C795"/>
<path d="M136.28 415.45L131.42 378.58C130.78 373.73 128.39 369.49 124.94 366.47C124.03 365.66 123.03 364.94 121.98 364.32C120.98 363.73 119.93 363.23 118.83 362.83C116.72 362.05 114.45 361.63 112.09 361.63C105.55 361.63 99.69 364.87 96.14 369.92C94.38 372.42 93.18 375.37 92.76 378.58L87.9 415.45C86.85 423.43 90.77 430.81 97.12 434.66C100.05 436.45 103.51 437.49 107.23 437.49H116.95C120.49 437.49 123.79 436.55 126.63 434.92C128.51 433.84 130.19 432.46 131.59 430.85C135.16 426.8 137.05 421.29 136.28 415.45ZM112.09 425.66C107.51 425.66 103.5 423.18 101.36 419.48C100.29 417.65 99.68 415.52 99.68 413.25C99.68 409.82 101.08 406.71 103.34 404.46C105.58 402.23 108.67 400.85 112.09 400.85C115.35 400.85 118.31 402.11 120.52 404.16C122.97 406.42 124.5 409.66 124.5 413.25C124.5 415.55 123.88 417.69 122.79 419.54C120.63 423.2 116.65 425.66 112.09 425.66Z" fill="#A583BB"/>
<path d="M131.59 430.85C130.54 430.23 129.55 429.51 128.64 428.71C125.91 426.32 123.84 423.16 122.79 419.54C123.88 417.69 124.5 415.55 124.5 413.25C124.5 409.66 122.97 406.42 120.52 404.16L117.3 379.73C116.53 373.88 118.42 368.37 121.98 364.32C123.03 364.94 124.03 365.66 124.94 366.47C126.98 368.26 128.65 370.47 129.8 372.99C130.6 374.72 131.16 376.6 131.42 378.58L135.58 410.14L136.28 415.45C137.05 421.29 135.16 426.8 131.59 430.85Z" fill="#C2AACF"/>
<path d="M105.36 389.134L103.34 404.464C101.08 406.714 99.68 409.824 99.68 413.254C99.68 415.524 100.29 417.654 101.36 419.484L100.5 426.004C100.08 429.214 98.89 432.164 97.12 434.664C90.77 430.814 86.85 423.434 87.9 415.454L92.76 378.584C93.18 375.374 94.38 372.424 96.14 369.924C102.49 373.774 106.41 381.154 105.36 389.134Z" fill="#9175A7"/>
<path d="M135.58 410.14C128.16 406.19 123.12 398.38 123.12 389.39C123.12 383 125.67 377.22 129.8 372.99C130.6 374.72 131.16 376.6 131.42 378.58L135.58 410.14Z" fill="#EBD9EA"/>
<path d="M112.09 396C102.56 396 94.8301 403.73 94.8301 413.26C94.8301 422.79 102.56 430.52 112.09 430.52C121.62 430.52 129.35 422.79 129.35 413.26C129.35 403.73 121.62 396 112.09 396ZM122.79 419.54C120.63 423.2 116.65 425.66 112.09 425.66C107.51 425.66 103.5 423.18 101.36 419.48C100.29 417.65 99.6801 415.52 99.6801 413.25C99.6801 409.82 101.08 406.71 103.34 404.46C105.58 402.23 108.67 400.85 112.09 400.85C115.35 400.85 118.31 402.11 120.52 404.16C122.97 406.42 124.5 409.66 124.5 413.25C124.5 415.55 123.88 417.69 122.79 419.54Z" fill="#9175A7"/>
<path d="M382.8 211.664H349.773V337.564H382.8V211.664Z" fill="#DD5E26"/>
<path d="M359.378 221.269V327.96C359.378 330.614 358.304 333.008 356.562 334.749C354.821 336.49 352.427 337.564 349.773 337.564V211.664C355.074 211.664 359.378 215.96 359.378 221.269Z" fill="#BF5E39"/>
<path d="M382.8 211.664V337.564C377.491 337.564 373.187 333.26 373.187 327.959V221.269C373.187 215.96 377.491 211.664 382.8 211.664Z" fill="#EA792E"/>
<path d="M391.534 345.213C391.534 349.432 388.112 352.862 383.893 352.862H348.68C346.57 352.862 344.66 352.003 343.279 350.622C342.581 349.924 342.013 349.088 341.63 348.167C341.246 347.254 341.039 346.257 341.039 345.213C341.039 340.986 344.461 337.564 348.68 337.564H383.893C386.003 337.564 387.913 338.423 389.294 339.804C390.683 341.185 391.534 343.103 391.534 345.213Z" fill="#EBD9EA"/>
<path d="M391.534 345.213H369.301C367.191 345.213 365.281 344.361 363.892 342.973C362.511 341.592 361.652 339.682 361.652 337.564H383.892C386.002 337.564 387.912 338.423 389.293 339.804C390.683 341.185 391.534 343.103 391.534 345.213Z" fill="white"/>
<path d="M382.206 352.862H348.68C346.57 352.862 344.66 352.003 343.279 350.622C342.581 349.924 342.013 349.088 341.63 348.167H375.155C377.265 348.167 379.175 349.026 380.556 350.407C381.254 351.105 381.814 351.933 382.206 352.862Z" fill="#C1B7D3"/>
<path d="M382.796 352.862V364.178C382.796 369.195 380.564 373.683 377.035 376.706C376.728 376.982 376.414 377.235 376.084 377.473C373.338 379.491 369.954 380.687 366.287 380.687C362.436 380.687 358.892 379.367 356.084 377.158C355.647 376.813 355.217 376.445 354.818 376.046C354.749 375.992 354.68 375.923 354.611 375.854C351.619 372.87 349.77 368.742 349.77 364.178V352.862H382.796Z" fill="#EE6781"/>
<path d="M382.796 352.862V364.178C382.796 369.195 380.564 373.683 377.035 376.706C376.72 376.438 376.414 376.154 376.114 375.854C373.13 372.87 371.281 368.742 371.281 364.178V352.862H382.796Z" fill="#F0A6B3"/>
<path d="M359.858 352.862V364.178C359.858 368.842 357.932 373.054 354.818 376.046C354.749 375.992 354.68 375.923 354.611 375.854C351.619 372.87 349.77 368.742 349.77 364.178V352.862H359.858Z" fill="#D65171"/>
<path d="M382.796 211.664H349.77L363.579 177.21H368.995L380.18 205.135L382.796 211.664Z" fill="#F5B890"/>
<path d="M380.18 205.135H363.463C360.624 205.135 358.691 202.266 359.742 199.634L368.726 177.21H368.995L380.18 205.135Z" fill="#FBD9A3"/>
<path d="M369.793 162.373V178.66C369.793 180.593 368.22 182.158 366.287 182.158C365.32 182.158 364.446 181.767 363.809 181.138C363.172 180.501 362.781 179.627 362.781 178.66V162.373C362.781 160.624 364.062 159.182 365.727 158.913C365.911 158.882 366.095 158.867 366.287 158.867C368.22 158.867 369.793 160.432 369.793 162.373Z" fill="#2E3140"/>
<path d="M369.793 162.373V172.339C369.609 172.37 369.425 172.385 369.233 172.385C368.266 172.385 367.384 171.994 366.755 171.357C366.118 170.72 365.727 169.846 365.727 168.879V158.913C365.911 158.882 366.095 158.867 366.287 158.867C368.22 158.867 369.793 160.432 369.793 162.373Z" fill="#334353"/>
<path d="M445.699 211.664H412.672V337.564H445.699V211.664Z" fill="#DD5E26"/>
<path d="M422.276 221.269V327.96C422.276 330.614 421.202 333.008 419.46 334.749C417.719 336.49 415.325 337.564 412.671 337.564V211.664C417.973 211.664 422.276 215.96 422.276 221.269Z" fill="#BF5E39"/>
<path d="M445.698 211.664V337.564C440.389 337.564 436.085 333.26 436.085 327.959V221.269C436.086 215.96 440.389 211.664 445.698 211.664Z" fill="#EA792E"/>
<path d="M454.433 345.213C454.433 349.432 451.011 352.862 446.792 352.862H411.579C409.469 352.862 407.559 352.003 406.178 350.622C405.48 349.924 404.912 349.088 404.529 348.167C404.145 347.254 403.938 346.257 403.938 345.213C403.938 340.986 407.36 337.564 411.579 337.564H446.792C448.902 337.564 450.812 338.423 452.193 339.804C453.581 341.185 454.433 343.103 454.433 345.213Z" fill="#EBD9EA"/>
<path d="M454.433 345.213H432.2C430.09 345.213 428.18 344.361 426.791 342.973C425.41 341.592 424.551 339.682 424.551 337.564H446.791C448.901 337.564 450.811 338.423 452.192 339.804C453.581 341.185 454.433 343.103 454.433 345.213Z" fill="white"/>
<path d="M445.104 352.862H411.579C409.469 352.862 407.559 352.003 406.178 350.622C405.48 349.924 404.912 349.088 404.529 348.167H438.054C440.164 348.167 442.074 349.026 443.455 350.407C444.152 351.105 444.712 351.933 445.104 352.862Z" fill="#C1B7D3"/>
<path d="M445.694 352.862V364.178C445.694 369.195 443.462 373.683 439.933 376.706C439.626 376.982 439.312 377.235 438.982 377.473C436.236 379.491 432.852 380.687 429.185 380.687C425.334 380.687 421.789 379.367 418.982 377.158C418.545 376.813 418.115 376.445 417.716 376.046C417.647 375.992 417.578 375.923 417.509 375.854C414.517 372.87 412.668 368.742 412.668 364.178V352.862H445.694Z" fill="#EE6781"/>
<path d="M445.694 352.862V364.178C445.694 369.195 443.462 373.683 439.933 376.706C439.618 376.438 439.312 376.154 439.012 375.854C436.028 372.87 434.179 368.742 434.179 364.178V352.862H445.694Z" fill="#F0A6B3"/>
<path d="M422.756 352.862V364.178C422.756 368.842 420.83 373.054 417.716 376.046C417.647 375.992 417.578 375.923 417.509 375.854C414.517 372.87 412.668 368.742 412.668 364.178V352.862H422.756Z" fill="#D65171"/>
<path d="M445.694 211.664H412.668L426.477 177.21H431.893L443.078 205.135L445.694 211.664Z" fill="#F5B890"/>
<path d="M443.078 205.135H426.361C423.522 205.135 421.589 202.266 422.64 199.634L431.624 177.21H431.893L443.078 205.135Z" fill="#FBD9A3"/>
<path d="M432.691 162.373V178.66C432.691 180.593 431.118 182.158 429.185 182.158C428.218 182.158 427.344 181.767 426.707 181.138C426.07 180.501 425.679 179.627 425.679 178.66V162.373C425.679 160.624 426.96 159.182 428.625 158.913C428.809 158.882 428.993 158.867 429.185 158.867C431.118 158.867 432.691 160.432 432.691 162.373Z" fill="#2E3140"/>
<path d="M432.691 162.373V172.339C432.507 172.37 432.323 172.385 432.131 172.385C431.164 172.385 430.282 171.994 429.653 171.357C429.016 170.72 428.625 169.846 428.625 168.879V158.913C428.809 158.882 428.993 158.867 429.185 158.867C431.118 158.867 432.691 160.432 432.691 162.373Z" fill="#334353"/>
<path d="M288.981 211.37V369.51C288.981 371.005 288.68 372.432 288.121 373.739C286.479 377.65 282.603 380.4 278.09 380.4C272.082 380.4 267.208 375.518 267.208 369.51V211.37H288.981Z" fill="#334353"/>
<path d="M288.981 211.37V369.51C288.981 371.005 288.68 372.432 288.121 373.739C287.476 373.868 286.806 373.928 286.118 373.928C280.11 373.928 275.228 369.054 275.228 363.037V211.37H288.981Z" fill="#3E4E60"/>
<path d="M282.104 299.101C278.306 299.101 275.228 296.022 275.228 292.225V245.323C275.228 241.525 278.307 238.447 282.104 238.447C285.902 238.447 288.98 241.526 288.98 245.323V292.225C288.981 296.022 285.902 299.101 282.104 299.101Z" fill="#3F5D77"/>
<path d="M295.797 151.262V211.43C295.797 211.636 295.788 211.834 295.78 212.04C295.462 218.117 290.434 222.948 284.271 222.948H271.911C265.55 222.948 260.393 217.791 260.393 211.43V151.262C260.393 144.936 265.49 139.804 271.799 139.744H284.271C290.639 139.744 295.797 144.901 295.797 151.262Z" fill="#2E3140"/>
<path d="M295.797 151.262V211.43C295.797 211.636 295.788 211.834 295.78 212.04C293.563 213.106 291.078 213.699 288.457 213.699H286.884C277.541 213.699 269.968 206.126 269.968 196.783V147.402C269.968 144.643 270.63 142.047 271.799 139.744H284.271C290.639 139.744 295.797 144.901 295.797 151.262Z" fill="#334353"/>
<path d="M286.946 199.562C282.058 199.562 278.095 195.599 278.095 190.711V163.049C278.095 158.161 282.058 154.198 286.946 154.198C291.834 154.198 295.797 158.161 295.797 163.049V190.711C295.797 195.599 291.834 199.562 286.946 199.562Z" fill="#3E4E60"/>
<path d="M311.157 170.092H295.797V156.227H311.157C314.986 156.227 318.089 159.331 318.089 163.159C318.089 166.988 314.986 170.092 311.157 170.092Z" fill="#2E3140"/>
<path d="M336.039 235.608C336.039 238.368 333.799 240.608 331.039 240.608C317.119 240.608 312.989 228.768 311.099 219.858C310.429 216.698 309.899 213.118 309.489 209.058C308.349 197.908 308.089 183.158 308.089 163.628C308.089 160.868 310.329 158.628 313.089 158.628C315.849 158.628 318.089 160.868 318.089 163.628C318.089 173.128 318.149 181.458 318.349 188.738C318.679 201.348 319.399 210.808 320.879 217.778C323.399 229.618 327.279 230.608 331.039 230.608C333.799 230.608 336.039 232.848 336.039 235.608Z" fill="#2E3140"/>
<path d="M336.039 235.608C336.039 238.368 333.799 240.608 331.039 240.608C323.329 240.608 318.619 236.978 315.639 232.218C313.229 228.388 311.939 223.838 311.099 219.858C310.429 216.698 309.899 213.118 309.489 209.058C310.899 201.558 313.989 194.648 318.349 188.738C318.679 201.348 319.399 210.808 320.879 217.778C321.069 218.668 321.269 219.498 321.469 220.268C323.979 229.758 327.559 230.608 331.039 230.608C333.799 230.608 336.039 232.848 336.039 235.608Z" fill="#334353"/>
<path d="M336.039 235.608C336.039 238.368 333.799 240.608 331.039 240.608C323.329 240.608 318.619 236.978 315.639 232.218C317.079 227.968 319.049 223.948 321.469 220.268C323.979 229.758 327.559 230.608 331.039 230.608C333.799 230.608 336.039 232.848 336.039 235.608Z" fill="#3E4E60"/>
</svg>
