<svg width="60" height="60" viewBox="0 0 60 60" fill="none" xmlns="http://www.w3.org/2000/svg">
<path d="M30 60C46.5685 60 60 46.5685 60 30C60 13.4315 46.5685 0 30 0C13.4315 0 0 13.4315 0 30C0 46.5685 13.4315 60 30 60Z" fill="#90DFAA"/>
<path d="M30.1418 42.8976C30.0945 42.8976 30.0472 42.944 29.9527 42.944C29.9055 42.944 29.8582 42.8976 29.7638 42.8976H30.1418Z" fill="#E6E9EE"/>
<path d="M54.1418 47.7166C48.7087 55.1339 39.8741 60 29.9528 60C20.0315 60 11.2441 55.1811 5.76379 47.7166C10.0158 43.1811 15.7795 40.7717 20.5984 39.5433C20.1732 42.9921 21.9686 47.6221 22.0157 47.4803C23.8111 43.3228 29.9055 42.9449 29.9055 42.9449C29.9055 42.9449 36 43.2756 37.8425 47.4803C37.8898 47.5748 39.685 42.9921 39.2598 39.5433C44.126 40.7717 49.8898 43.1811 54.1418 47.7166Z" fill="#E6E9EE"/>
<path d="M37.4173 36.378C37.4173 36.9922 37.0394 40.252 30.1418 42.8977H29.7637C22.8662 40.252 22.4882 36.9922 22.4882 36.378C22.5355 35.1496 22.8189 33.9213 23.3386 32.7875C25.2284 34.9134 27.4961 36.3307 29.9528 36.3307C32.3623 36.3307 34.6771 34.9607 36.5669 32.7875C37.0866 33.9213 37.4173 35.1496 37.4173 36.378Z" fill="#FFD05B"/>
<path d="M34.063 43.9843L32.5512 47.0078H27.3543L25.8425 43.9843C27.9212 43.0866 29.9527 42.9448 29.9527 42.9448C29.9527 42.9448 32.0314 43.0866 34.063 43.9843Z" fill="#F1543F"/>
<path d="M25.748 59.7166C27.1182 59.9055 28.5355 60 30 60C31.4173 60 32.8347 59.9055 34.252 59.7166L32.5984 47.0552H27.4016L25.748 59.7166Z" fill="#FF7058"/>
<path d="M37.4173 36.2834C37.4173 36.2834 37.748 40.0629 29.9528 42.9449C29.9528 42.9449 36.0473 43.2756 37.8898 47.4803C37.937 47.6693 41.4803 38.504 37.4173 36.2834Z" fill="white"/>
<path d="M22.4882 36.2834C18.4725 38.504 21.9685 47.622 22.063 47.4804C23.8582 43.3229 30 42.9449 30 42.9449C22.1575 40.0629 22.4882 36.2834 22.4882 36.2834Z" fill="white"/>
<path d="M36.9448 33.7323C34.9606 35.8584 32.5984 37.2284 29.9527 37.2284C27.3071 37.2284 24.9448 35.8584 22.9606 33.7323C23.0551 33.4016 23.1968 33.0709 23.3386 32.7875C25.2284 34.9134 27.4961 36.3307 29.9527 36.3307C32.4095 36.3307 34.6772 34.9607 36.5669 32.7875C36.7086 33.0709 36.8504 33.4016 36.9448 33.7323Z" fill="#F9B54C"/>
<path d="M42.8504 26.504C41.8583 28.1575 40.3464 29.1497 39.2126 28.9607C36.9449 33.1654 33.6378 36.2835 29.9528 36.2835C26.2677 36.2835 22.9607 33.1181 20.693 28.9607C19.5591 29.1024 18.0473 28.1575 17.0551 26.504C15.8741 24.567 15.8268 22.4409 16.9607 21.7323C17.2441 21.5906 17.5276 21.4961 17.8583 21.5434C18.6142 23.4804 19.6536 24.6615 19.6536 24.6615C18.5669 18.6615 23.0079 18 22.252 12.2363C22.252 12.2363 25.0394 18.4252 33.0237 14.0788L32.4095 15.2599C43.5591 12.7559 39.8268 25.8898 39.7323 26.2205C41.0079 24.6142 41.811 23.0079 42.2835 21.5434C42.4725 21.5434 42.7087 21.6379 42.8504 21.7323C44.0787 22.3938 44.0316 24.567 42.8504 26.504Z" fill="#FFD05B"/>
<path d="M36.378 5.99995C37.2757 5.90547 38.7402 6.70861 38.7402 6.70861C34.7244 2.12594 28.1575 5.05508 28.1575 5.05508C30.378 3.16531 32.3623 3.35429 32.3623 3.35429C22.9607 1.93696 21.3544 7.55901 21.3544 7.55901C20.9292 6.89759 20.9292 5.95271 20.9764 5.48027C20.315 6.61413 21.0237 8.88184 21.0237 8.88184C20.3623 7.2283 18.0473 7.51176 18.0473 7.51176C20.0316 7.84247 20.3623 9.07081 20.3623 9.07081C15.4016 10.9134 16.252 16.063 16.252 16.063L17.4331 14.6457C15.9685 20.2677 19.7008 24.6141 19.7008 24.6141C18.6142 18.6141 23.0552 17.9527 22.2993 12.1889C22.2993 12.1889 25.0866 18.3779 33.0709 14.0314L32.4567 15.2125C43.748 12.6614 39.7796 26.2204 39.7796 26.2204C43.7953 21.118 43.1812 15.8739 43.1812 15.8739L43.6536 17.7637C44.9292 9.25979 36.378 5.99995 36.378 5.99995Z" fill="#324A5E"/>
</svg>
