<svg width="132" height="43" viewBox="0 0 132 43" fill="none" xmlns="http://www.w3.org/2000/svg">
<path fill-rule="evenodd" clip-rule="evenodd" d="M33.6374 41.8337H22.313L13.821 9.43643C13.418 7.94616 12.5621 6.62867 11.3033 6.00772C8.16156 4.44725 4.69963 3.20535 0.922974 2.57901V1.33171H19.1658C21.6835 1.33171 23.5719 3.20535 23.8866 5.38137L28.2927 28.7506L39.6116 1.33171H50.6213L33.6374 41.8337ZM56.9157 41.8337H46.2207L55.0274 1.33171H65.7224L56.9157 41.8337ZM79.559 12.5521C79.8738 10.3707 81.7621 9.12337 83.9651 9.12337C87.4271 8.8102 91.1982 9.43655 94.3454 10.9916L96.2338 2.27135C93.0865 1.02405 89.6246 0.397705 86.4829 0.397705C76.1026 0.397705 68.5493 6.00783 68.5493 13.794C68.5493 19.7173 73.8996 22.8274 77.6762 24.7011C81.7621 26.5693 83.3357 27.8166 83.021 29.6848C83.021 32.4872 79.8737 33.7345 76.7321 33.7345C72.9554 33.7345 69.1787 32.8004 65.7223 31.2399L63.834 39.9656C67.6106 41.5207 71.6965 42.147 75.4732 42.147C87.1124 42.4548 94.3454 36.85 94.3454 28.4376C94.3454 17.8436 79.559 17.2227 79.559 12.5521ZM131.775 41.8337L123.283 1.33171H114.162C112.274 1.33171 110.385 2.57901 109.756 4.44725L94.0308 41.8337H105.04L107.238 35.9158H120.765L122.024 41.8337H131.775ZM115.736 12.239L118.877 27.5035H110.071L115.736 12.239Z" fill="#172B85"/>
</svg>
